<svg xmlns="http://www.w3.org/2000/svg" xmlns:xlink="http://www.w3.org/1999/xlink" width="1920" height="1080" viewBox="0 0 1920 1080" preserveAspectRatio="none" class="section-4-back" id="section-4-back">
  <defs>
    <style>
      .s4-b-cls-1, .s4-b-cls-3, .s4-b-cls-33, .s4-b-cls-4 {
        fill: none;
      }

      .s4-b-cls-1, .s4-b-cls-10, .s4-b-cls-3 {
        stroke: #3b2a66;
      }

      .s4-b-cls-1, .s4-b-cls-10, .s4-b-cls-3, .s4-b-cls-32, .s4-b-cls-33 {
        stroke-miterlimit: 10;
      }

      .s4-b-cls-1 {
        stroke-width: 2px;
      }

      .s4-b-cls-2, .s4-b-cls-32 {
        fill: #171717;
      }

      .s4-b-cls-5 {
        clip-path: url(#s4-b-clip-path);
      }

      .s4-b-cls-6 {
        fill: #353535;
      }

      .s4-b-cls-11, .s4-b-cls-15, .s4-b-cls-34, .s4-b-cls-7 {
        fill: #fff;
      }

      .s4-b-cls-8 {
        fill: #f0831c;
      }

      .s4-b-cls-9 {
        fill: #fcc204;
      }

      .s4-b-cls-10 {
        fill: #3b2a66;
      }

      .s4-b-cls-11 {
        font-size: 28px;
      }

      .s4-b-cls-11, .s4-b-cls-15, .s4-b-cls-34 {
        font-family: PoiretOne-Regular, Poiret One;
      }

      .s4-b-cls-12 {
        clip-path: url(#s4-b-clip-path-2);
      }

      .s4-b-cls-13 {
        fill: #333;
      }

      .s4-b-cls-14 {
        fill: #00b2ec;
      }

      .s4-b-cls-15 {
        font-size: 36px;
      }

      .s4-b-cls-16 {
        clip-path: url(#s4-b-clip-path-3);
      }

      .s4-b-cls-17 {
        fill: #434242;
      }

      .s4-b-cls-18 {
        clip-path: url(#s4-b-clip-path-4);
      }

      .s4-b-cls-19 {
        fill: #222;
        stroke: #222;
        stroke-width: 3px;
      }

      .s4-b-cls-20 {
        letter-spacing: -0.12em;
      }

      .s4-b-cls-21 {
        clip-path: url(#s4-b-clip-path-5);
      }

      .s4-b-cls-22 {
        letter-spacing: -0.04em;
      }

      .s4-b-cls-23 {
        letter-spacing: -0.04em;
      }

      .s4-b-cls-24 {
        clip-path: url(#s4-b-clip-path-6);
      }

      .s4-b-cls-25 {
        letter-spacing: -0.05em;
      }

      .s4-b-cls-26 {
        clip-path: url(#s4-b-clip-path-7);
      }

      .s4-b-cls-27 {
        letter-spacing: -0.04em;
      }

      .s4-b-cls-28 {
        clip-path: url(#s4-b-clip-path-8);
      }

      .s4-b-cls-29 {
        clip-path: url(#s4-b-clip-path-9);
      }

      .s4-b-cls-30 {
        letter-spacing: -0.05em;
      }

      .s4-b-cls-31 {
        clip-path: url(#s4-b-clip-path-10);
      }

      .s4-b-cls-32 {
        stroke: #000;
      }

      .s4-b-cls-33 {
        stroke: #fff;
      }

      .s4-b-cls-34 {
        font-size: 58px;
      }
    </style>
    <clipPath id="s4-b-clip-path">
      <polygon id="Треугольник" class="s4-b-cls-1" points="767.94 675.03 767.94 404.76 383.94 539.89 767.94 675.03"/>
    </clipPath>
    <clipPath id="s4-b-clip-path-2">
      <polygon id="Ромб" class="s4-b-cls-1" points="384 270.25 0 405.38 384 540.51 768 405.38 384 270.25"/>
    </clipPath>
    <clipPath id="s4-b-clip-path-3">
      <polygon id="Треугольник-2" data-name="Треугольник" class="s4-b-cls-1" points="0.18 405.13 0.18 675.4 384.19 540.26 0.18 405.13"/>
    </clipPath>
    <clipPath id="s4-b-clip-path-4">
      <polygon id="Ромб-2" data-name="Ромб" class="s4-b-cls-1" points="384 540.25 0 675.38 384 810.52 768 675.38 384 540.25"/>
    </clipPath>
    <clipPath id="s4-b-clip-path-5">
      <polygon id="Ромб-3" data-name="Ромб" class="s4-b-cls-1" points="1536.19 135.74 1152.19 270.87 1536.19 406.01 1920.19 270.87 1536.19 135.74"/>
    </clipPath>
    <clipPath id="s4-b-clip-path-6">
      <polygon id="Треугольник-3" data-name="Треугольник" class="s4-b-cls-1" points="1151.79 270.29 1151.79 540.56 1535.79 405.42 1151.79 270.29"/>
    </clipPath>
    <clipPath id="s4-b-clip-path-7">
      <polygon id="Треугольник-4" data-name="Треугольник" class="s4-b-cls-1" points="1920.94 540.53 1920.94 270.26 1536.94 405.39 1920.94 540.53"/>
    </clipPath>
    <clipPath id="s4-b-clip-path-8">
      <polygon id="Треугольник-5" data-name="Треугольник" class="s4-b-cls-1" points="1536.47 404.87 1536.47 675.14 1920.47 540.01 1536.47 404.87"/>
    </clipPath>
    <clipPath id="s4-b-clip-path-9">
      <polygon id="Треугольник-6" data-name="Треугольник" class="s4-b-cls-1" points="1535.72 675.07 1535.72 404.8 1151.72 539.94 1535.72 675.07"/>
    </clipPath>
    <clipPath id="s4-b-clip-path-10">
      <polygon id="Ромб-4" data-name="Ромб" class="s4-b-cls-1" points="1152.32 810.95 768.32 946.08 1152.32 1081.22 1536.32 946.08 1152.32 810.95"/>
    </clipPath>
  </defs>
  <rect id="Фон" class="s4-b-cls-2" width="1920" height="1080"/>
  <polygon id="Треугольник-7" data-name="Треугольник" class="s4-b-cls-3" points="384 270.27 384 0 0 135.13 384 270.27"/>
  <polygon id="Треугольник-8" data-name="Треугольник" class="s4-b-cls-3" points="384 0 384 270.27 768 135.13 384 0"/>
  <polygon id="Треугольник-9" data-name="Треугольник" class="s4-b-cls-3" points="1152 270.27 1152 0 768 135.13 1152 270.27"/>
  <polygon id="Треугольник-10" data-name="Треугольник" class="s4-b-cls-3" points="1152 0 1152 270.27 1536 135.13 1152 0"/>
  <polygon id="Треугольник-11" data-name="Треугольник" class="s4-b-cls-3" points="1920 270.27 1920 0 1536 135.13 1920 270.27"/>
  <polygon id="Треугольник-12" data-name="Треугольник" class="s4-b-cls-3" points="1152 540.54 1152 270.27 768 405.4 1152 540.54"/>
  <polygon id="Треугольник-13" data-name="Треугольник" class="s4-b-cls-3" points="1152 270.27 1152 540.54 1536 405.4 1152 270.27"/>
  <polygon id="Треугольник-14" data-name="Треугольник" class="s4-b-cls-3" points="1920 540.54 1920 270.27 1536 405.4 1920 540.54"/>
  <polygon id="Треугольник-15" data-name="Треугольник" class="s4-b-cls-3" points="1152 810.81 1152 540.54 768 675.67 1152 810.81"/>
  <polygon id="Треугольник-16" data-name="Треугольник" class="s4-b-cls-3" points="1152 540.54 1152 810.81 1536 675.67 1152 540.54"/>
  <polygon id="Треугольник-17" data-name="Треугольник" class="s4-b-cls-3" points="1920 810.81 1920 540.54 1536 675.67 1920 810.81"/>
  <polygon id="Треугольник-18" data-name="Треугольник" class="s4-b-cls-3" points="384 1081.08 384 810.81 0 945.95 384 1081.08"/>
  <polygon id="Треугольник-19" data-name="Треугольник" class="s4-b-cls-3" points="384 810.81 384 1081.08 768 945.95 384 810.81"/>
  <polygon id="Треугольник-20" data-name="Треугольник" class="s4-b-cls-3" points="1920 1081.08 1920 810.81 1536 945.95 1920 1081.08"/>
  <polygon id="Треугольник-21" data-name="Треугольник" class="s4-b-cls-3" points="768 675.67 768 405.4 384 540.54 768 675.67"/>
  <polygon id="Треугольник-22" data-name="Треугольник" class="s4-b-cls-3" points="768 405.4 768 675.67 1152 540.54 768 405.4"/>
  <polygon id="Треугольник-23" data-name="Треугольник" class="s4-b-cls-3" points="1536 405.4 1536 135.13 1152 270.27 1536 405.4"/>
  <polygon id="Треугольник-24" data-name="Треугольник" class="s4-b-cls-3" points="1536 135.13 1536 405.4 1920 270.27 1536 135.13"/>
  <polygon id="Треугольник-25" data-name="Треугольник" class="s4-b-cls-3" points="1536 675.67 1536 945.95 1920 810.81 1536 675.67"/>
  <polygon id="Треугольник-26" data-name="Треугольник" class="s4-b-cls-3" points="0 135.13 0 405.4 384 270.27 0 135.13"/>
  <polygon id="Треугольник-27" data-name="Треугольник" class="s4-b-cls-3" points="1152 810.81 1152 1081.08 1536 945.95 1152 810.81"/>
  <polygon id="Треугольник-28" data-name="Треугольник" class="s4-b-cls-4" points="1536 945.95 1536 675.67 1152 810.81 1536 945.95"/>
  <polygon id="Треугольник-29" data-name="Треугольник" class="s4-b-cls-3" points="0 675.67 0 945.95 384 810.81 0 675.67"/>
  <polygon id="Треугольник-30" data-name="Треугольник" class="s4-b-cls-3" points="1920 270.27 1920 0 1536 135.13 1920 270.27"/>
  <polygon id="Треугольник-31" data-name="Треугольник" class="s4-b-cls-3" points="1920 1081.08 1920 810.81 1536 945.95 1920 1081.08"/>
  <g>
    <polygon id="Часть_треугольника" data-name="Часть треугольника" class="s4-b-cls-3" points="384 0 768 135.13 768 0 384 0"/>
    <polygon id="Часть_треугольника-2" data-name="Часть треугольника" class="s4-b-cls-3" points="768 0 768 135.13 1152 0 768 0"/>
  </g>
  <g>
    <polygon id="Часть_треугольника-3" data-name="Часть треугольника" class="s4-b-cls-3" points="1152 0 1536 135.13 1536 0 1152 0"/>
    <polygon id="Часть_треугольника-4" data-name="Часть треугольника" class="s4-b-cls-3" points="1536 0 1536 135.13 1920 0 1536 0"/>
  </g>
  <polygon id="Часть_треугольника-5" data-name="Часть треугольника" class="s4-b-cls-3" points="0 0 0 135.13 384 0 0 0"/>
  <polygon id="Часть_треугольника-6" data-name="Часть треугольника" class="s4-b-cls-3" points="0 1081.08 0 945.95 384 1081.08 0 1081.08"/>
  <polygon id="Треугольник-32" data-name="Треугольник" class="s4-b-cls-3" points="767.98 675.62 767.98 945.89 1152.07 810.85 767.98 675.62"/>
  <polygon id="Треугольник-33" data-name="Треугольник" class="s4-b-cls-3" points="1536.08 405.79 1536.08 676.06 1920.17 541.02 1536.08 405.79"/>
  <polygon id="Треугольник-34" data-name="Треугольник" class="s4-b-cls-3" points="768.08 135.29 768.08 405.56 1152.17 270.52 768.08 135.29"/>
  <polygon id="Треугольник-35" data-name="Треугольник" class="s4-b-cls-3" points="384.01 270.2 384.01 540.47 768.11 405.43 384.01 270.2"/>
  <polygon id="Треугольник-36" data-name="Треугольник" class="s4-b-cls-3" points="384.01 540.64 384.01 810.91 768.11 675.87 384.01 540.64"/>
  <polygon id="Треугольник-37" data-name="Треугольник" class="s4-b-cls-3" points="-0.24 405.2 -0.24 675.47 383.86 540.43 -0.24 405.2"/>
  <polygon id="Треугольник-38" data-name="Треугольник" class="s4-b-cls-3" points="1152.01 1081.15 1152.01 810.88 768.01 946.01 1152.01 1081.15"/>
  <g id="portfolio-cases">
    <g id="amtel.club" data-open-case-modal="amtel.club">
      <g class="s4-b-cls-5">
        <g id="amtel_back">
          <rect class="s4-b-cls-6" x="381" y="397.5" width="394" height="280.5"/>
          <polygon class="s4-b-cls-7" points="638.44 540.67 633.81 540.67 633.81 516.71 621.07 516.71 621.07 512.77 651.29 512.77 651.29 516.71 638.44 516.71 638.44 540.67"/>
          <polygon class="s4-b-cls-7" points="687.87 512.77 687.87 516.71 666.34 516.71 666.34 524.35 683.24 524.35 683.24 527.94 666.34 527.94 666.34 536.85 688.68 536.85 688.68 540.67 661.71 540.67 661.71 512.77 687.87 512.77"/>
          <polygon class="s4-b-cls-7" points="707.44 512.77 707.44 536.85 726.66 536.85 726.66 540.67 702.81 540.67 702.81 512.77 707.44 512.77"/>
          <polygon class="s4-b-cls-7" points="607.18 512.77 593.63 530.95 580.2 512.77 576.38 512.77 576.38 540.67 580.32 540.67 580.32 519.48 593.63 537.43 607.06 519.48 607.06 540.67 611 540.67 611 512.77 607.18 512.77"/>
          <polygon class="s4-b-cls-8" points="537.13 538.24 563.3 533.96 549.87 531.18 540.14 532.8 537.13 538.24"/>
          <polygon class="s4-b-cls-9" points="563.3 533.96 534.12 527.94 536.55 523.42 560.17 528.28 563.3 533.96"/>
          <polygon class="s4-b-cls-7" points="557.04 526.2 549.75 512.88 544.77 512.88 539.56 522.61 543.5 523.42 547.32 516.47 551.95 525.16 557.04 526.2"/>
          <polygon class="s4-b-cls-7" points="562.14 535.58 557.97 536.27 560.52 540.9 565.03 540.9 562.14 535.58"/>
          <polygon class="s4-b-cls-7" points="535.63 529.67 529.49 540.9 534 540.9 539.68 530.48 535.63 529.67"/>
          <path class="s4-b-cls-7" d="M528.22,547.73h-1.85l-5.56,10.07h1.62l1.39-2.43h6.83l1.27,2.43h1.85Zm-3.7,6.25,2.66-5.09L530,554Z"/>
          <path class="s4-b-cls-7" d="M550.45,553.06a.67.67,0,1,1,0-.93,1.38,1.38,0,0,0,.46-1.27V549.7a1.8,1.8,0,0,0-.58-1.62,2.41,2.41,0,0,0-1.51-.35h-8.1v10.07h7.64a3.81,3.81,0,0,0,2.08-.46,2.08,2.08,0,0,0,.58-1.51v-1.27A1.68,1.68,0,0,0,550.45,553.06Zm-8.1-3.94h5.9a2,2,0,0,1,.81.12,1,1,0,0,1,.23.69v1c0,.35,0,.58-.35.81a1.47,1.47,0,0,1-.69.12h-5.9Zm7.06,6.14a1.56,1.56,0,0,1-.23.93,1.25,1.25,0,0,1-.93.23h-5.9v-3.24h5.9a1.25,1.25,0,0,1,.81.23,1.62,1.62,0,0,1,.35,1Z"/>
          <polygon class="s4-b-cls-7" points="561.79 557.81 561.79 549.12 557.16 549.12 557.16 547.73 568.16 547.73 568.16 549.12 563.53 549.12 563.53 557.81 561.79 557.81"/>
          <path class="s4-b-cls-7" d="M585.29,548.2a2.78,2.78,0,0,0-1.85-.46h-7.06a2.64,2.64,0,0,0-1.85.46c-.58.46-.58,1.51-.58,2v5.33a2.49,2.49,0,0,0,.58,1.85,2.35,2.35,0,0,0,1.74.46h7.18a2.64,2.64,0,0,0,1.85-.46,2.78,2.78,0,0,0,.46-1.85v-5.33A2.94,2.94,0,0,0,585.29,548.2ZM584,556.42h-8.34v-7.29H584Z"/>
          <path class="s4-b-cls-7" d="M596.06,557.81c-1.85,0-2.08-.58-2.08-2V555h1.62v1.39h6.14a1.47,1.47,0,0,0,.69-.12,1,1,0,0,0,.23-.69V554.1c0-.23,0-.58-.23-.69s-.46-.23-.69-.23H598V551.9h3.59a1,1,0,0,0,.69-.23,1.39,1.39,0,0,0,.23-.93v-.46c0-.35,0-.81-.23-.93s-.23-.23-.69-.23h-6v1.27h-1.51v-.69c0-1.39.35-2,2.2-2h5.79a2.59,2.59,0,0,1,1.62.35,2.34,2.34,0,0,1,.46,1.62v.93a1.82,1.82,0,0,1-.46,1.51,2.18,2.18,0,0,1-1,.46,2.74,2.74,0,0,1,1.16.35,2.2,2.2,0,0,1,.46,1.62v1.16a2.2,2.2,0,0,1-.46,1.62,2.63,2.63,0,0,1-1.74.46Z"/>
          <path class="s4-b-cls-7" d="M618.18,547.73h-1.85l-5.56,10.07h1.74l1.27-2.43h6.83l1.27,2.43h1.85Zm-3.7,6.25,2.78-5.09,2.66,5.09Z"/>
          <polygon class="s4-b-cls-7" points="640.17 557.81 640.17 549.12 632.3 549.12 632.3 557.81 630.68 557.81 630.68 547.73 641.91 547.73 641.91 557.81 640.17 557.81"/>
          <path class="s4-b-cls-7" d="M659,557.81V554h-6.6c-.81,0-2.2-.12-2.2-2v-4.28H652v3.82a1.1,1.1,0,0,0,.23.81,1.25,1.25,0,0,0,.81.23h6v-4.86h1.74v10.07Z"/>
          <path class="s4-b-cls-7" d="M674.91,547.73h-1.74l-5.56,10.07h1.62l1.39-2.43h6.83l1.27,2.43h1.85ZM671.32,554l2.66-5.09,2.78,5.09Z"/>
          <path class="s4-b-cls-7" d="M689.26,549.12v7.29h7.06v-2.2h1.74v1.27a3.27,3.27,0,0,1-.46,1.85,2.64,2.64,0,0,1-1.85.46H690a2.64,2.64,0,0,1-1.85-.46,2.78,2.78,0,0,1-.46-1.85v-5.33a2.94,2.94,0,0,1,.46-2,2.78,2.78,0,0,1,1.85-.46h5.79a2.64,2.64,0,0,1,1.85.46,3.43,3.43,0,0,1,.46,2v.93h-1.74v-2Z"/>
          <polygon class="s4-b-cls-7" points="707.79 557.81 707.79 549.12 703.16 549.12 703.16 547.73 714.16 547.73 714.16 549.12 709.41 549.12 709.41 557.81 707.79 557.81"/>
          <path class="s4-b-cls-7" d="M730.6,557.81V552c0-.46,0-.23.12-2.08a7.56,7.56,0,0,1-.81.93l-8.1,6.95h-1V547.73h1.74v5.56c0,.46-.12,1.51-.12,2.43.35-.58.93-1,1-1.27l7.87-6.72h1v10.07Z"/>
        </g>
        <g class="overlay" id="overlay">
          <polygon id="overlay-back" class="s4-b-cls-10" points="767.94 675.03 767.94 404.76 383.94 539.89 767.94 675.03"/>
          <text class="s4-b-cls-11" transform="translate(573.21 545.99)">Amtel.club</text>
        </g>
      </g>
      <polygon id="Треугольник-39" data-name="Треугольник" class="s4-b-cls-1" points="767.94 675.03 767.94 404.76 383.94 539.89 767.94 675.03"/>
    </g>
    <g id="ea_messenger" data-open-case-modal="ea_messenger">
      <g class="s4-b-cls-12">
        <g id="ea_messenger_background">
          <rect class="s4-b-cls-7" x="0.5" y="267.5" width="771" height="272.5"/>
          <g id="Слой_1">
            <g id="_479229256" data-name=" 479229256">
              <path class="s4-b-cls-13" d="M235.32,388.71c-1.09-1.09-7.33-3.43-8.89-3.9-5.31,11.08-23.88,9.21-25.28-4.53a13.15,13.15,0,0,1,17-14.51,11.25,11.25,0,0,1,6.87,4.37l-17,6.24,2.81,7.8L237.19,375c-.47-10.3-11.24-20-22.94-20-26.37,0-32.15,37-7.33,45.41a22,22,0,0,0,17.63-1.09C228.45,397.44,233.76,392.61,235.32,388.71ZM325,380.28c-2-18.41,24.34-20.91,26.68-3.9A13.7,13.7,0,0,1,340,392C332.22,393.08,326,387.15,325,380.28Zm11.08-24.81c-12.17,1.4-22.31,11.7-20.91,25.44,1.4,12.17,12.17,22.31,25.9,20.44,11.7-.94,21.85-12.17,20.44-25.44A23.08,23.08,0,0,0,336.12,355.47Zm0,71.63c7.8-1.87,14.2,3.9,15.6,10.3a13.91,13.91,0,0,1-10.61,16.07c-17.17,3.43-23.41-22.94-5-26.37Zm-20.91,15.14a23,23,0,0,0,25.44,21.07A23.28,23.28,0,0,0,336.12,417c-12.17.94-21.85,12.17-20.91,25.28Zm-94.56,20.6v-10.3c-4.37,1.4-6.4,2.5-11.24.47-10.77-4.37-11.7-20.44,0-25.28,7.8-3.43,15.14,1.87,17.48,7.18,2,5,1.09,20.13,1.09,26.84h9.67V440.83c0-7.33-1.87-11.24-5.31-15.6-5.93-7.33-19.51-11.24-30.27-4.37-20.44,12.64-10.3,47.75,18.57,42Zm22.94-44.47c-1.09,4.84-.47,26.84.47,31.21,4.37,18.1,31.21,19,36.51,0,.94-4.37,1.56-26.37.94-31.21H271.36c-2,14.67,4.37,35.11-8.74,35.11-3.43,0-6.4-1.87-7.33-3.9-3.43-5.31-1.09-21.38-2-31.21Zm37.92-62H271.36v22c0,3.43-.47,6.87-2,9.21-2.81,5-10.61,5.46-14,0-1.56-2.34-2-5.77-2-9.21,0-4.84.94-18.1,0-22h-9.67c-1.09,2.5-.47,27.31.47,30.74,4.37,19,31.68,19,36.51.47,1.56-5.77.94-23.88.94-31.21ZM311.78,453c-3,0-5.77,0-8.27-1.4-6.4-3.9-5.31-15.6-4.84-23.41h12.64v-9.83H298.67V406.18h-10.3c0,6.87-.47,36,0,40.42,1.56,10.77,11.24,18.1,23.88,16.23l-.47-9.83Zm-23.41-52.59,10.3.47c0-9.83-2-27.78,3.43-33.24,3.43-3,5.31-1.4,10.14-2.34v-9.83c-11.7-1.4-20,4.37-22.31,11.7-2.5,6.4-1.56,25.44-1.56,33.24Z"/>
              <rect class="s4-b-cls-14" x="381.06" y="355" width="5.36" height="107.11"/>
              <path class="s4-b-cls-13" d="M403.85,381.68c0,7.18,5.15,12.33,13,12.33s12.8-5.15,12.8-12.33c0-7-5-12.33-12.8-12.33S403.85,374.66,403.85,381.68Zm6.55,0c0-4.06,2.81-6.71,6.4-6.71a6.41,6.41,0,0,1,6.4,6.71c0,4.06-2.65,6.87-6.4,6.87S410.4,385.59,410.4,381.68Z"/>
              <path class="s4-b-cls-13" d="M441.92,393.54H448V377.47a7.23,7.23,0,0,1,5.15-2.34c3.28,0,5.31,1.87,5.31,5.62v12.8h5.93V379.66c0-7.33-3.9-10.14-9.67-10.14a9.23,9.23,0,0,0-6.71,2.81V370h-6.09Z"/>
              <path class="s4-b-cls-13" d="M477.5,387c0,4.84,2,7,5.62,7a9.9,9.9,0,0,0,6.24-2l-1.25-4.53a4.9,4.9,0,0,1-2.5.94c-1.4,0-2-1.09-2-3.9V356.87H477.5Z"/>
              <path class="s4-b-cls-13" d="M500.91,393.54h5.93V370h-5.93Zm-.62-32.15a3.65,3.65,0,0,0,3.75,3.9,3.59,3.59,0,0,0,3.43-3.9A3.46,3.46,0,0,0,504,358,3.54,3.54,0,0,0,500.28,361.4Z"/>
              <path class="s4-b-cls-13" d="M520.88,393.54H527V377.47a7.23,7.23,0,0,1,5.15-2.34c3.28,0,5.31,1.87,5.31,5.62v12.8h5.93V379.66c0-7.33-3.9-10.14-9.67-10.14a9.23,9.23,0,0,0-6.71,2.81V370h-6.09Z"/>
              <path class="s4-b-cls-13" d="M575,386.83a10.12,10.12,0,0,1-6.71,2.18c-3.59,0-6.4-1.87-7-5.46h17a9.12,9.12,0,0,0,.47-3.28c0-6.55-5.15-10.92-11.24-10.92-7.8,0-12.48,5.46-12.48,12.33,0,7.49,5.15,12.33,12.64,12.33a14.55,14.55,0,0,0,9.05-2.81Zm-7.8-12.48c3.59,0,5.46,2.34,5.46,5.15H561.14C561.77,376.38,563.64,374.35,567.23,374.35Z"/>
              <path class="s4-b-cls-13" d="M403.85,435.83c0,7,5.15,12.33,13,12.33s12.8-5.31,12.8-12.33-5-12.33-12.8-12.33S403.85,428.81,403.85,435.83Zm6.55,0c0-4.06,2.81-6.71,6.4-6.71a6.41,6.41,0,0,1,6.4,6.71c0,4.06-2.65,6.71-6.4,6.71S410.4,439.73,410.4,435.83Z"/>
              <path class="s4-b-cls-13" d="M442.23,447.69h6.09V429.75h6.24v-5.62h-6.24V420.7c0-3.28,1.4-4.68,3.43-4.68a5.14,5.14,0,0,1,3.43,1.25l2-4.68a9.67,9.67,0,0,0-6.55-2.18c-5.31,0-8.43,3.28-8.43,9.83Z"/>
              <path class="s4-b-cls-13" d="M466.58,447.69h6.09V429.75h6.4v-5.62h-6.4V420.7c0-3.28,1.4-4.68,3.43-4.68a4.86,4.86,0,0,1,3.43,1.25l2-4.68A9.67,9.67,0,0,0,475,410.4c-5.31,0-8.43,3.28-8.43,9.83Z"/>
              <path class="s4-b-cls-13" d="M508.71,441a11,11,0,0,1-6.71,2.18c-3.59,0-6.4-1.87-7-5.46h17a9.72,9.72,0,0,0,.47-3.28c0-6.55-5.15-10.92-11.24-10.92-7.8,0-12.48,5.46-12.48,12.33,0,7.49,5.15,12.33,12.64,12.33a14.55,14.55,0,0,0,9.05-2.81Zm-7.8-12.48c3.59,0,5.46,2.34,5.46,5.15H494.82C495.45,430.53,497.32,428.5,500.91,428.5Z"/>
              <path class="s4-b-cls-13" d="M524.31,447.69h6.09V431.77a4.1,4.1,0,0,1,3.9-2.5,5.14,5.14,0,0,1,3,.94l2.18-5.62a5.22,5.22,0,0,0-3.59-.94,6.2,6.2,0,0,0-5.46,2.65v-2.18h-6.09Z"/>
            </g>
          </g>
        </g>
        <g class="overlay" id="overlay-2" data-name="overlay">
          <polygon id="overlay-back-2" data-name="overlay-back" class="s4-b-cls-10" points="384 270.25 0 405.38 384 540.51 768 405.38 384 270.25"/>
          <text class="s4-b-cls-15" transform="translate(236.8 421.44)">Euroauto Messenger</text>
        </g>
      </g>
      <polygon id="Ромб-5" data-name="Ромб" class="s4-b-cls-1" points="384 270.25 0 405.38 384 540.51 768 405.38 384 270.25"/>
    </g>
    <g id="ea" data-open-case-modal="ea">
      <g class="s4-b-cls-16">
        <g id="ea_back">
          <rect class="s4-b-cls-7" x="-3" y="399.67" width="392.67" height="278"/>
          <g id="Слой_1-2" data-name="Слой_1">
            <path class="s4-b-cls-17" d="M77.94,523.63c-.93-.84-6.27-3-7.84-3.39-4.64,9.68-20.6,8-22.22-4a11.81,11.81,0,0,1,15.28-12.77c2.43.72,5,2.53,5.76,4.1L54.17,513l2.46,6.81,23.06-8.22c-.52-9-9.81-17.29-20-17.3-23,0-28.31,32.46-6.44,39.76A20.55,20.55,0,0,0,68.72,533c3.41-1.64,8-5.75,9.22-9.36Zm78.72-7.43c-1.82-15.85,21.47-18.07,23.48-3.11a11.84,11.84,0,1,1-23.48,3.11Zm9.62-21.73c-10.57,1.21-19.56,10.41-18.18,22.55a20.4,20.4,0,1,0,40.54-4.66c-1.31-10.44-10.55-19.24-22.35-17.89Zm0,62.83A11.75,11.75,0,0,1,180,566.43a11.93,11.93,0,0,1-9.25,14.1c-15,3.08-20.46-20-4.47-23.22Zm-18.22,13.38a20.4,20.4,0,1,0,18.42-22.09,20.43,20.43,0,0,0-18.42,22.09h0Zm-82.8,18,.07-9.08c-4.12,1.18-5.7,2.06-10.2.32-9.15-3.54-10.09-17.55,0-21.83a11.87,11.87,0,0,1,15.54,6.32c1.72,4.28.89,17.57.94,23.21l8.49.16c.08-6.1.05-12.25,0-18.31,0-6.37-1.82-9.66-4.73-13.5-5-6.62-17-10.21-26.57-4.18-17.93,11.27-9,41.92,16.46,36.89h0Zm19.82-38.94c-.59,4.32-.31,23.51.64,27.43,3.78,15.75,27.5,16.77,32.07-.06,1-3.63,1.07-23,.62-27.37h-8.85c-1.58,12.66,4.09,30.77-7.78,30.86a7.62,7.62,0,0,1-6.4-3.49c-2.69-4.72-.75-18.83-1.48-27.37H85.07Zm33.41-54.28-9-.11c0,6.47,0,12.9,0,19.34,0,2.92-.13,6-1.42,8.12a7.53,7.53,0,0,1-12.57.05C94,520.64,94,517.62,94,514.65c0-4.18.54-16-.13-19.29l-8.64,0c-.79,2.39-.24,24.19.44,27.12,3.84,16.54,27.66,16.72,32.12.44,1.46-5.33.73-20.95.73-27.45Zm26.71,84.8c-2.67-.18-5.39,0-7.42-1.25-5.49-3.46-4.62-13.8-4.32-20.66l11.34-.08-.07-8.51-11.3-.09V539l-9,.1c0,5.85-.33,31.77.18,35.38,1.34,9.52,9.6,15.82,20.74,14.33l-.13-8.59h0Zm-20.79-46.12,9,.08c0-8.36-1.8-24.26,3.27-28.89,2.94-2.68,4.75-1.4,8.64-2.15v-8.48c-9.87-1.54-17.13,3.84-19.69,10.41-2.08,5.35-1.22,22.07-1.22,29h0Z"/>
          </g>
        </g>
        <g class="overlay" id="overlay-3" data-name="overlay">
          <polygon id="overlay-back-3" data-name="overlay-back" class="s4-b-cls-10" points="0.18 405.13 0.18 675.4 384.19 540.26 0.18 405.13"/>
          <text class="s4-b-cls-11" transform="translate(76.89 549.68)">Euroauto.ru</text>
        </g>
      </g>
      <polygon id="Треугольник-40" data-name="Треугольник" class="s4-b-cls-1" points="0.18 405.13 0.18 675.4 384.19 540.26 0.18 405.13"/>
    </g>
    <g id="wolf" data-open-case-modal="wolf">
      <g class="s4-b-cls-18">
        <g id="wolf_back">
          <rect class="s4-b-cls-7" x="0.5" y="537.5" width="771" height="272.5"/>
          <g id="Слой_1-3" data-name="Слой_1">
            <g id="_554465816" data-name=" 554465816">
              <path class="s4-b-cls-19" d="M238,705.78c-3.75,0-10.21-1.67-11.94-12.63l-.06-.4c-1.15-7.56-2.42-15.34-6.11-21-2.94-4.44-7.21-7.15-13.1-8.19l-.81-.17a.63.63,0,0,1-.29-.06l-.35-.06H205l-.12-.06h-.06a2,2,0,0,1-1.79-1.85c0-.06-.06-.17-.06-.23a2.18,2.18,0,0,1,1.44-2c.06,0,.06,0,.12-.06a3.68,3.68,0,0,0,.4-.12l.81-.23c.23-.12.52-.17.81-.29a43.73,43.73,0,0,1,12-1.85c16.84,0,24.52,12.11,27.57,19.38,1.1,2.48,2.13,2.48,2.54,2.48a4.72,4.72,0,0,0,2-.63c14.19-7.44,31.79-16.56,35.25-17.65a11.57,11.57,0,0,1,3.06-.46c5.31,0,8.36,4.15,9.17,5.48,1,1.5,2.6,5.19,5,11.13l.17.46c1.27,3.06,2.71,3.46,3.81,3.46a9.31,9.31,0,0,0,3.58-1c1.21-.58,4-2.31,5-2.94,10.79-6.86,20.77-12,29.59-15.23,7.9-2.88,15.06-4.38,21.29-4.38a32.83,32.83,0,0,1,5.88.52l.92.17a1.68,1.68,0,0,1,.52.12,2,2,0,0,1,.58.12l.17.06a2.06,2.06,0,0,1-.12,4,.18.18,0,0,1-.12.06c-.17.06-.35.06-.52.12a.52.52,0,0,1-.29.06l-.06.06a5.36,5.36,0,0,0-.75.23c-7.67,2.6-20.94,12.63-32.65,21.52-6.81,5.13-13.15,10-17.94,13-6.63,4.15-15.17,8.94-22.27,8.94-4.5,0-10.44-2-13.33-11.31l-4.27-11.6c-8,4.73-33.05,19.33-36.8,21.11A18.44,18.44,0,0,1,238,705.78Z"/>
              <path class="s4-b-cls-19" d="M370.61,705.37c-8.48,0-15-2.65-18.34-7.44a.06.06,0,0,0-.06-.06,12,12,0,0,1-1.62-7.85h0a10.72,10.72,0,0,1,7.15-8.88,9.22,9.22,0,0,1,2.71-.46,7.73,7.73,0,0,1,5.6,2.71,8.8,8.8,0,0,0,.87.75,18.38,18.38,0,0,0,9.11,3.69h1.15c4.38,0,12.4-1.67,16.33-6.29,2.54-2.88,3.58-5.65,2.88-7.38s-3.06-2.65-6.86-3a16.45,16.45,0,0,0-1.79-.12,44,44,0,0,0-15.4,3.35c-.06.06-.29.12-.52.23a68,68,0,0,0-11.36,5.08L360,680l-.46.29a2.33,2.33,0,0,1-1.27.35,2.43,2.43,0,0,1-1.9-.92,2.41,2.41,0,0,1,.23-3.29l.81-.75c9.69-8.83,17.25-12.58,25.56-15.52a50,50,0,0,1,16.38-3,34.77,34.77,0,0,1,4.33.29c5.6.69,12.75,4.27,15.11,10.33,2.13,5.6.17,11.94-5.83,19C403.72,697.53,385.9,705.37,370.61,705.37Z"/>
              <path class="s4-b-cls-19" d="M409.21,705.66a29.47,29.47,0,0,1-7.79-1l-.12-.06c-.12,0-.17-.06-.29-.06a4.32,4.32,0,0,0-.92-.29l-.12-.06c-.06,0-.12-.06-.17-.06a2.1,2.1,0,0,1-1.44-2,2.12,2.12,0,0,1,1.38-2,.18.18,0,0,1,.12-.06l.17-.06.81-.35a.21.21,0,0,0,.17-.06l.12-.06c15.34-6.35,29-26.88,40.32-46.15a.06.06,0,0,1,.06-.06h0c9.92-16.9,18.23-28.5,26.13-36.34,9.06-9,18.92-13.73,28.61-13.73a29.86,29.86,0,0,1,7.79,1.1l.12.06a.35.35,0,0,1,.23.06,6.3,6.3,0,0,1,1,.29l.06.06c.12,0,.17,0,.23.06a2.06,2.06,0,0,1,1.38,2,2,2,0,0,1-1.38,2l-.06.06c-.12,0-.17.06-.23.06-.23.12-.52.17-.75.29a350786.17,350786.17,0,0,0-.35.12c-15.34,6.4-29,26.94-40.32,46.21v.06c-9.92,16.9-18.23,28.44-26.13,36.34C428.76,700.93,418.84,705.66,409.21,705.66Z"/>
              <path class="s4-b-cls-19" d="M402.57,762.54a28.16,28.16,0,0,1-8.77-1.38h-.12a.21.21,0,0,0-.17-.06,3.34,3.34,0,0,0-.81-.29l-.17-.06a.44.44,0,0,0-.23-.12,2.06,2.06,0,0,1-.12-3.81l.35-.17c.23-.12.46-.23.75-.35l.17-.12c22-10.79,41.65-44,60.63-76,14.71-24.81,28.56-48.28,43.61-62.24,8.88-8.19,18.46-12.52,27.69-12.52a28.75,28.75,0,0,1,9.11,1.5l.12.06c.06,0,.12.06.17.06.35.12.63.23.92.35l.12.06c.06,0,.17.06.23.06a2.09,2.09,0,0,1-.06,3.87.18.18,0,0,1-.12.06.35.35,0,0,1-.23.06l-.75.35-.29.06c-15.52,6.52-30.17,27.46-42.46,47.13-.81,1.27-2.83,4.56-5.77,9.46h7.21a2.44,2.44,0,0,1,2.42,2.42,13.49,13.49,0,0,1-13.56,13.56h-5.65c-1,1.67-1.62,2.77-1.73,2.94-17,28.67-32.48,53.48-50.07,67H425C417.63,759.71,409.9,762.54,402.57,762.54Z"/>
              <path class="s4-b-cls-19" d="M469.49,738c-3.12,0-5.6-2-5.6-4.5s2.48-4.5,5.6-4.5,5.6,2,5.6,4.5S472.66,738,469.49,738Z"/>
              <path class="s4-b-cls-19" d="M498,744.37c-2.6,0-3.75-1.15-4.33-2.13-1.1-2-.58-4.73,1.62-8.54a2.85,2.85,0,0,0,.23-.52,3.64,3.64,0,0,0-.23-.52c-2.19-3.81-2.71-6.63-1.62-8.54.58-1,1.73-2.13,4.33-2.13,4.73,0,12.86,4.27,15,8.83a6.48,6.48,0,0,1,.58,2.25v.23c-.12,3.4-3.69,6.23-5.88,7.61C504.39,743,500.7,744.37,498,744.37Z"/>
              <path class="s4-b-cls-19" d="M480.28,742.18a4,4,0,0,1-3.69-1.79c-.92-1.62-.52-3.92,1.27-7,.06-.06.06-.12.12-.17s-.06-.17-.12-.23c-1.79-3.06-2.19-5.31-1.27-7a4,4,0,0,1,3.69-1.79c3.92,0,9.63,3.17,11.6,6.46a4.92,4.92,0,0,1,.75,2.37v.29C492.45,737.74,484.66,742.18,480.28,742.18Z"/>
            </g>
          </g>
        </g>
        <g class="overlay" id="overlay-4" data-name="overlay">
          <polygon id="overlay-back-4" data-name="overlay-back" class="s4-b-cls-10" points="384 540.25 0 675.38 384 810.52 768 675.38 384 540.25"/>
          <text class="s4-b-cls-15" transform="translate(344.83 691.45)"><tspan class="s4-b-cls-20">W</tspan><tspan x="32.58" y="0">olf</tspan></text>
        </g>
      </g>
      <polygon id="Ромб-6" data-name="Ромб" class="s4-b-cls-1" points="384 540.25 0 675.38 384 810.52 768 675.38 384 540.25"/>
    </g>
    <g id="mksoloview" data-open-case-modal="mksoloview">
      <g class="s4-b-cls-21">
        <image width="772" height="273" transform="translate(1150.19 133.01)" xlink:href="images/section-4-back-pics/mksoloviev.jpg"/>
        <g class="overlay" id="overlay-5" data-name="overlay">
          <polygon id="overlay-back-5" data-name="overlay-back" class="s4-b-cls-10" points="1536.19 135.74 1152.19 270.87 1536.19 406.01 1920.19 270.87 1536.19 135.74"/>
          <text class="s4-b-cls-15" transform="translate(1395.5 257.6)">V<tspan class="s4-b-cls-22" x="28.3" y="0">l</tspan><tspan x="35.89" y="0">adimir So</tspan><tspan class="s4-b-cls-23" x="179.24" y="0">l</tspan><tspan x="186.84" y="0">oview’s </tspan><tspan x="91.67" y="43.2">courses</tspan></text>
        </g>
      </g>
      <polygon id="Ромб-7" data-name="Ромб" class="s4-b-cls-1" points="1536.19 135.74 1152.19 270.87 1536.19 406.01 1920.19 270.87 1536.19 135.74"/>
    </g>
    <g id="me" data-open-case-modal="me">
      <g class="s4-b-cls-24">
        <image width="390" height="280" transform="translate(1120.15 263.61) scale(1.08 1)" xlink:href="images/section-4-back-pics/me_v2.0.jpg"/>
        <g class="overlay" id="overlay-6" data-name="overlay">
          <polygon id="overlay-back-6" data-name="overlay-back" class="s4-b-cls-10" points="1151.79 270.29 1151.79 540.55 1535.79 405.42 1151.79 270.29"/>
          <text class="s4-b-cls-11" transform="translate(1185.9 414.84)">Mar<tspan class="s4-b-cls-25" x="51.41" y="0">k</tspan><tspan x="60.76" y="0">eting Engineers</tspan></text>
        </g>
      </g>
      <polygon id="Треугольник-41" data-name="Треугольник" class="s4-b-cls-1" points="1151.79 270.29 1151.79 540.56 1535.79 405.42 1151.79 270.29"/>
    </g>
    <g id="atlant" data-open-case-modal="atlant">
      <g class="s4-b-cls-26">
        <image width="390" height="280" transform="translate(1535.97 267.53)" xlink:href="images/section-4-back-pics/atlant.JPG"/>
        <g class="overlay" id="overlay-7" data-name="overlay">
          <polygon id="overlay-back-7" data-name="overlay-back" class="s4-b-cls-10" points="1920.94 540.53 1920.94 270.26 1536.94 405.39 1920.94 540.53"/>
          <text class="s4-b-cls-11" transform="translate(1720.34 414.66)">At<tspan class="s4-b-cls-27" x="29.4" y="0">l</tspan><tspan x="35.31" y="0">ant Group</tspan></text>
        </g>
      </g>
      <polygon id="Треугольник-42" data-name="Треугольник" class="s4-b-cls-1" points="1920.94 540.53 1920.94 270.26 1536.94 405.39 1920.94 540.53"/>
    </g>
    <g id="_15_puzzle" data-name="15_puzzle" data-open-case-modal="15_puzzle">
      <g class="s4-b-cls-28">
        <rect class="s4-b-cls-7" x="1528" y="395.5" width="400.5" height="282"/>
        <image id="_15_puzzle_back" data-name="15_puzzle_back" width="256" height="256" transform="translate(1587.5 485.5) scale(0.45)" xlink:href="images/section-4-back-pics/15_puzzle.png"/>
        <g class="overlay" id="overlay-8" data-name="overlay">
          <polygon id="overlay-back-8" data-name="overlay-back" class="s4-b-cls-10" points="1536.47 404.87 1536.47 675.14 1920.47 540.01 1536.47 404.87"/>
          <text class="s4-b-cls-11" transform="translate(1578.7 546.24)">15 puzz<tspan class="s4-b-cls-27" x="85.09" y="0">l</tspan><tspan x="91" y="0">e» game</tspan></text>
        </g>
      </g>
      <polygon id="Треугольник-43" data-name="Треугольник" class="s4-b-cls-1" points="1536.47 404.87 1536.47 675.14 1920.47 540.01 1536.47 404.87"/>
    </g>
    <g id="passgen" data-open-case-modal="passgen">
      <g class="s4-b-cls-29">
        <rect class="s4-b-cls-7" x="1143" y="400.5" width="400.5" height="282"/>
        <image id="passgen_back" width="512" height="512" transform="translate(1374 487) scale(0.22)" xlink:href="images/section-4-back-pics/passgen.png"/>
        <g class="overlay" id="overlay-9" data-name="overlay">
          <polygon id="overlay-back-9" data-name="overlay-back" class="s4-b-cls-10" points="1535.72 675.07 1535.72 404.8 1151.72 539.94 1535.72 675.07"/>
          <text class="s4-b-cls-11" transform="translate(1273.47 546.03)"><tspan class="s4-b-cls-30">P</tspan><tspan x="9.58" y="0">assword generator</tspan></text>
        </g>
      </g>
      <polygon id="Треугольник-44" data-name="Треугольник" class="s4-b-cls-1" points="1535.72 675.07 1535.72 404.8 1151.72 539.94 1535.72 675.07"/>
    </g>
    <g id="portfolio" data-open-case-modal="portfolio">
      <g class="s4-b-cls-31">
        <g id="ik_back">
          <rect id="preloader-back" class="s4-b-cls-32" x="660.78" y="676" width="981.68" height="552.19"/>
          <path class="s4-b-cls-33" d="M906.57,925.39h2v45.77h-2Z"/>
          <path class="s4-b-cls-33" d="M937.45,972.2l-22.76-46.8h2.2l20.75,42.41,20.63-42.41h2Z"/>
          <path class="s4-b-cls-33" d="M973.76,924.29l22.89,46.86H994.5l-8.67-17.45H961.37l-8.54,17.45h-1.89Zm-.18,4.21-11.41,23.43h22.95Z"/>
          <path class="s4-b-cls-33" d="M1036.73,925.39h1.77v46.44l-33.68-41.41v40.77H1003V924.74l33.68,41.37Z"/>
          <path class="s4-b-cls-33" d="M1069,925.39h2v16.78l19.34-16.78h2.44l-20.93,18.27,26.3,27.52h-2.68L1071,945.71v25.45h-2Z"/>
          <path class="s4-b-cls-33" d="M1106.21,964.81a23.25,23.25,0,0,1-6.93-16.69,22.59,22.59,0,0,1,7-16.54,23.75,23.75,0,0,1,33.59-.06l0,0a22.62,22.62,0,0,1,7,16.57,23.23,23.23,0,0,1-6.9,16.72A22.15,22.15,0,0,1,1123.5,972h-.92A22.07,22.07,0,0,1,1106.21,964.81Zm38.66-16.55a21.16,21.16,0,0,0-6.38-15.44,21.62,21.62,0,0,0-30.58-.21l-.21.21a21.84,21.84,0,0,0,0,30.89l0,0a21.52,21.52,0,0,0,30.43.33l.33-.33A21.21,21.21,0,0,0,1144.86,948.26Z"/>
          <path class="s4-b-cls-33" d="M1154.18,925.39h2.62a14.47,14.47,0,0,1,10.4,4.36,13.85,13.85,0,0,1,4.48,10.25,13.6,13.6,0,0,1-4.6,10.23q-4.6,4.34-9.83,4.33h-.43l15.74,16.6H1170l-13.85-14.53v14.53h-2Zm2,27.4h1.11A12,12,0,0,0,1166,949a12.46,12.46,0,0,0,.27-17.62l-.39-.38a12.37,12.37,0,0,0-8.91-3.84h-.79Z"/>
          <path class="s4-b-cls-33" d="M1184.14,964.81a23.25,23.25,0,0,1-6.93-16.69,22.59,22.59,0,0,1,7-16.54,23.75,23.75,0,0,1,33.59-.06l0,0a22.62,22.62,0,0,1,7,16.57,23.23,23.23,0,0,1-6.9,16.72,22.16,22.16,0,0,1-16.48,7.11h-.92A22.06,22.06,0,0,1,1184.14,964.81Zm38.66-16.55a21.16,21.16,0,0,0-6.38-15.44,21.62,21.62,0,0,0-30.58-.21l-.21.21a21.84,21.84,0,0,0,0,30.89l0,0a21.52,21.52,0,0,0,30.43.33l.33-.33A21.21,21.21,0,0,0,1222.79,948.26Z"/>
          <path class="s4-b-cls-33" d="M1234.14,925.39v44h14.16v1.77h-16.17V925.39Z"/>
          <path class="s4-b-cls-33" d="M1254.1,925.39h16.42v1.77h-14.4v24.9h12v1.77h-12v15.56h14.4v1.77H1254.1Z"/>
          <path class="s4-b-cls-33" d="M1310.3,925.39h1.77v46.44l-33.68-41.41v40.77h-1.77V924.74l33.68,41.37Z"/>
          <path class="s4-b-cls-33" d="M1321.22,925.39h2v16.78l19.34-16.78H1345L1324,943.66l26.3,27.52h-2.68l-24.41-25.48v25.45h-2Z"/>
          <path class="s4-b-cls-33" d="M1358.41,964.81a23.25,23.25,0,0,1-6.93-16.69,22.59,22.59,0,0,1,7-16.54,23.75,23.75,0,0,1,33.59-.06l0,0a22.62,22.62,0,0,1,7,16.57,23.23,23.23,0,0,1-6.9,16.72,22.16,22.16,0,0,1-16.48,7.11h-.92A22.07,22.07,0,0,1,1358.41,964.81Zm38.66-16.57a21.16,21.16,0,0,0-6.38-15.44,21.62,21.62,0,0,0-30.58-.21l-.21.21a21.84,21.84,0,0,0,0,30.89l0,0a21.52,21.52,0,0,0,30.43.33l.33-.33a21.21,21.21,0,0,0,6.41-15.45Z"/>
        </g>
        <g class="overlay" id="overlay-10" data-name="overlay">
          <polygon id="overlay-back-10" data-name="overlay-back" class="s4-b-cls-10" points="1152.32 810.95 768.32 946.08 1152.32 1081.22 1536.32 946.08 1152.32 810.95"/>
          <text class="s4-b-cls-15" transform="translate(1002.87 960.31)">This portfolio website</text>
        </g>
      </g>
      <polygon id="Ромб-8" data-name="Ромб" class="s4-b-cls-1" points="1152.32 810.95 768.32 946.08 1152.32 1081.22 1536.32 946.08 1152.32 810.95"/>
    </g>
  </g>
  <g id="header">
    <polygon id="Треугольник_заголовка" data-name="Треугольник заголовка" class="s4-b-cls-10" points="768 0 384 0 768 135.13 1152 0 768 0"/>
    <text class="s4-b-cls-34" transform="translate(559.46 52.62)">What I&apos;ve done?</text>
  </g>
</svg>
