<svg xmlns="http://www.w3.org/2000/svg" xmlns:xlink="http://www.w3.org/1999/xlink" width="1080" height="1920" viewBox="0 0 1080 1920" class="section-4-back-mobile" id="section-4-back-mobile">
  <defs>
    <style>
      .section-4-mobile-cls-1,.section-4-mobile-cls-26,.section-4-mobile-cls-27{fill:none;}.section-4-mobile-cls-1,.section-4-mobile-cls-26,.section-4-mobile-cls-28,.section-4-mobile-cls-4{stroke:#3b2a66;stroke-miterlimit:10;}.section-4-mobile-cls-1{stroke-width:2px;}.section-4-mobile-cls-2{fill:#171717;}.section-4-mobile-cls-3{clip-path:url(#section-4-mobile-clip-path);}.section-4-mobile-cls-28,.section-4-mobile-cls-4{fill:#3b2a66;}.section-4-mobile-cls-4{opacity:0.75;}.section-4-mobile-cls-5{font-size:36px;}.section-4-mobile-cls-13,.section-4-mobile-cls-15,.section-4-mobile-cls-29,.section-4-mobile-cls-5,.section-4-mobile-cls-8{fill:#fff;}.section-4-mobile-cls-13,.section-4-mobile-cls-29,.section-4-mobile-cls-5{font-family:PoiretOne-Regular, Poiret One;}.section-4-mobile-cls-6{letter-spacing:-0.04em;}.section-4-mobile-cls-7{letter-spacing:-0.04em;}.section-4-mobile-cls-13,.section-4-mobile-cls-8{font-size:28px;}.section-4-mobile-cls-15,.section-4-mobile-cls-8{font-family:Raleway-Light, Raleway;}.section-4-mobile-cls-9{clip-path:url(#section-4-mobile-clip-path-2);}.section-4-mobile-cls-10{letter-spacing:-0.07em;}.section-4-mobile-cls-11{clip-path:url(#section-4-mobile-clip-path-3);}.section-4-mobile-cls-12{clip-path:url(#section-4-mobile-clip-path-4);}.section-4-mobile-cls-14{letter-spacing:-0.04em;}.section-4-mobile-cls-15{font-size:20px;}.section-4-mobile-cls-16{clip-path:url(#section-4-mobile-clip-path-5);}.section-4-mobile-cls-17{clip-path:url(#section-4-mobile-clip-path-6);}.section-4-mobile-cls-18{clip-path:url(#section-4-mobile-clip-path-7);}.section-4-mobile-cls-19{letter-spacing:-0.08em;}.section-4-mobile-cls-20{clip-path:url(#section-4-mobile-clip-path-8);}.section-4-mobile-cls-21{letter-spacing:-0.14em;}.section-4-mobile-cls-22{clip-path:url(#section-4-mobile-clip-path-9);}.section-4-mobile-cls-23{clip-path:url(#section-4-mobile-clip-path-10);}.section-4-mobile-cls-24{letter-spacing:-0.05em;}.section-4-mobile-cls-25{clip-path:url(#section-4-mobile-clip-path-11);}.section-4-mobile-cls-29{font-size:58px;}
    </style>
    <clipPath id="section-4-mobile-clip-path">
      <path id="Ромб" class="section-4-mobile-cls-1" d="M720.4 135.13L360.2 270.27 720.4 405.4l360.2-135.13-360.2-135.14z"/>
    </clipPath>
    <clipPath id="section-4-mobile-clip-path-2">
      <path id="Ромб-2" data-name="Ромб" class="section-4-mobile-cls-1" d="M360.2 1350.8L0 1485.95l360.2 135.14 360.2-135.14-360.2-135.13z"/>
    </clipPath>
    <clipPath id="section-4-mobile-clip-path-3">
      <path id="Ромб-3" data-name="Ромб" class="section-4-mobile-cls-1" d="M360.2 540.54L0 675.67 360.2 810.8l360.2-135.13-360.2-135.13z"/>
    </clipPath>
    <clipPath id="section-4-mobile-clip-path-4">
      <path id="Треугольник" class="section-4-mobile-cls-1" d="M720.4 1486.48V1216.2l-360.2 135.15 360.2 135.13z"/>
    </clipPath>
    <clipPath id="section-4-mobile-clip-path-5">
      <path id="Треугольник-2" data-name="Треугольник" class="section-4-mobile-cls-1" d="M720.4 1756.2v-270.26l-360.2 135.14 360.2 135.13z"/>
    </clipPath>
    <clipPath id="section-4-mobile-clip-path-6">
      <path id="Треугольник-3" data-name="Треугольник" class="section-4-mobile-cls-1" d="M720.4 945.95V675.67L360.2 810.8l360.2 135.15z"/>
    </clipPath>
    <clipPath id="section-4-mobile-clip-path-7">
      <path id="Треугольник-4" data-name="Треугольник" class="section-4-mobile-cls-1" d="M720.4 675.67v270.28l360.2-135.14-360.2-135.13z"/>
    </clipPath>
    <clipPath id="section-4-mobile-clip-path-8">
      <path id="Треугольник-5" data-name="Треугольник" class="section-4-mobile-cls-1" d="M0 405.4v270.27l360.2-135.13L0 405.4z"/>
    </clipPath>
    <clipPath id="section-4-mobile-clip-path-9">
      <path id="Треугольник-6" data-name="Треугольник" class="section-4-mobile-cls-1" d="M360.2 270.27v270.27L720.4 405.4 360.2 270.27z"/>
    </clipPath>
    <clipPath id="section-4-mobile-clip-path-10">
      <path id="Треугольник-7" data-name="Треугольник" class="section-4-mobile-cls-1" d="M360.2 540.54V270.27L0 405.4l360.2 135.14z"/>
    </clipPath>
    <clipPath id="section-4-mobile-clip-path-11">
      <path id="Треугольник-8" data-name="Треугольник" class="section-4-mobile-cls-1" d="M1080.6 1081.08V810.8L720.4 945.96l360.2 135.13z"/>
    </clipPath>
  </defs>
  <path id="Фон" class="section-4-mobile-cls-2" d="M0 0h1080v1920H0z"/>
  <g id="portfolio-cases">
    <g id="mksoloview">
      <g class="section-4-mobile-cls-3">
          <a href="projects/mksoloviev/" target="_blank">
        <image width="772" height="273" transform="matrix(.94 0 0 1 358.32 132.4)" xlink:href="images/section-4-back-pics/mksoloviev.jpg"/>
        <g id="overlay" class="overlay">
          <path id="overlay-back" class="section-4-mobile-cls-4" d="M720.4 135.13L360.2 270.27 720.4 405.4l360.2-135.13-360.2-135.14z"/>
          <text class="section-4-mobile-cls-5" transform="translate(586.13 227)">
            V<tspan class="section-4-mobile-cls-6" x="28.3" y="0">l</tspan><tspan x="35.89" y="0">adimir So</tspan><tspan class="section-4-mobile-cls-7" x="179.24" y="0">l</tspan><tspan x="186.84" y="0">ovyov</tspan><tspan x="83.52" y="43.2">training</tspan>
          </text>
          <text class="section-4-mobile-cls-8" transform="matrix(.94 0 0 1 599.82 325.44)">
            Frontend, backend
          </text>
        </g>
          </a>
      </g>
      <path id="Ромб-4" data-name="Ромб" class="section-4-mobile-cls-1" d="M720.4 135.13L360.2 270.27 720.4 405.4l360.2-135.13-360.2-135.14z"/>
    </g>
    <g id="solverytics">
      <g class="section-4-mobile-cls-9">
          <a href="projects/solverytics/" target="_blank">
        <image width="780" height="320" transform="matrix(.94 0 0 1 0 1301.08)" xlink:href="images/section-4-back-pics/solverytics.jpg"/>
        <g id="overlay-2" data-name="overlay" class="overlay">
          <path id="overlay-back-2" data-name="overlay-back" class="section-4-mobile-cls-4" d="M360.2 1350.8L0 1485.95l360.2 135.14 360.2-135.14-360.2-135.13z"/>
          <text class="section-4-mobile-cls-5" transform="matrix(.94 0 0 1 293.16 1437.68)">
            So<tspan class="section-4-mobile-cls-10" x="37.58" y="0">l</tspan><tspan x="44.1" y="0">verytics</tspan>
          </text>
          <text class="section-4-mobile-cls-8" transform="matrix(.94 0 0 1 192.75 1506.11)">
            Frontend, backend, design
          </text>
        </g>
          </a>
      </g>
      <path id="Ромб-5" data-name="Ромб" class="section-4-mobile-cls-1" d="M360.2 1350.8L0 1485.95l360.2 135.14 360.2-135.14-360.2-135.13z"/>
    </g>
    <g id="logo-centr">
      <g class="section-4-mobile-cls-11">
          <a href="http://logo-centr.ru/" target="_blank">
        <image width="830" height="300" transform="matrix(.94 0 0 1 0 539)" xlink:href="images/section-4-back-pics/logo-centr.jpg"/>
        <g id="overlay-3" data-name="overlay" class="overlay">
          <path id="overlay-back-3" data-name="overlay-back" class="section-4-mobile-cls-4" d="M360.2 540.54L0 675.67 360.2 810.8l360.2-135.13-360.2-135.13z"/>
          <text class="section-4-mobile-cls-5" transform="translate(173 647.41)">
            Chi<tspan class="section-4-mobile-cls-6" x="50.04" y="0">l</tspan><tspan x="57.64" y="0">dren and ado</tspan><tspan class="section-4-mobile-cls-7" x="272.98" y="0">l</tspan><tspan x="280.58" y="0">escents </tspan><tspan x="43.2" y="43.2">deve</tspan><tspan class="section-4-mobile-cls-6" x="117.07" y="43.2">l</tspan><tspan x="124.67" y="43.2">opment center</tspan>
          </text>
          <text class="section-4-mobile-cls-8" transform="matrix(.94 0 0 1 239.62 750.84)">
            Frontend, backend
          </text>
        </g>
          </a>
      </g>
      <path id="Ромб-6" data-name="Ромб" class="section-4-mobile-cls-1" d="M360.2 540.54L0 675.67 360.2 810.8l360.2-135.13-360.2-135.13z"/>
    </g>
    <g id="atlant">
      <g class="section-4-mobile-cls-12">
          <a href="http://stroim-kottedzh.ru/" target="_blank">
        <image width="390" height="280" transform="matrix(.94 0 0 1 354.57 1210.81)" xlink:href="images/section-4-back-pics/atlant.JPG"/>
        <g id="overlay-4" data-name="overlay" class="overlay">
          <path id="overlay-back-4" data-name="overlay-back" class="section-4-mobile-cls-4" d="M720.4 1486.48V1216.2l-360.2 135.15 360.2 135.13z"/>
          <text class="section-4-mobile-cls-13" transform="matrix(.94 0 0 1 525.79 1324.44)">
            At<tspan class="section-4-mobile-cls-14" x="29.4" y="0">l</tspan><tspan x="35.31" y="0">ant Group</tspan>
          </text>
          <text class="section-4-mobile-cls-15" transform="translate(517.66 1368.05)">
            Updating, adding<tspan x="41.42" y="24">features</tspan>
          </text>
        </g>
          </a>
      </g>
      <path id="Треугольник-9" data-name="Треугольник" class="section-4-mobile-cls-1" d="M720.4 1486.48V1216.2l-360.2 135.15 360.2 135.13z"/>
    </g>
    <g id="mbuz-dsu-2">
      <g class="section-4-mobile-cls-16">
          <a href="projects/mbuz-dsu-2/" target="_blank">
        <image width="390" height="280" transform="matrix(.94 0 0 1 357.39 1476.22)" xlink:href="images/section-4-back-pics/mbuz-dsu-2.jpg"/>
        <g id="overlay-5" data-name="overlay" class="overlay">
          <path id="overlay-back-5" data-name="overlay-back" class="section-4-mobile-cls-4" d="M720.4 1756.2v-270.26l-360.2 135.14 360.2 135.13z"/>
          <text class="section-4-mobile-cls-13" transform="translate(515.94 1594.18)">
            House nursing <tspan x="27.65" y="33.6">care №2</tspan>
          </text>
          <text class="section-4-mobile-cls-15" transform="matrix(.94 0 0 1 515.14 1662.77)">
            Frontend, backend
          </text>
        </g>
          </a>
      </g>
      <path id="Треугольник-10" data-name="Треугольник" class="section-4-mobile-cls-1" d="M720.4 1756.2v-270.26l-360.2 135.14 360.2 135.13z"/>
    </g>
    <g id="dobra">
      <g class="section-4-mobile-cls-17">
          <a href="projects/me_v2.0/dobra/" target="_blank">
        <image width="391" height="280" transform="matrix(.94 0 0 1 356.92 670.27)" xlink:href="images/section-4-back-pics/dobra.JPG"/>
        <g id="overlay-6" data-name="overlay" class="overlay">
          <path id="overlay-back-6" data-name="overlay-back" class="section-4-mobile-cls-4" d="M720.4 945.95V675.67L360.2 810.8l360.2 135.15z"/>
          <text class="section-4-mobile-cls-13" transform="translate(512.02 783.91)">
            Dobra delivery
          </text>
          <text class="section-4-mobile-cls-15" transform="translate(517.66 827.5)">
            Updating, adding<tspan x="41.42" y="24">features</tspan>
          </text>
        </g>
          </a>
      </g>
      <path id="Треугольник-11" data-name="Треугольник" class="section-4-mobile-cls-1" d="M720.4 945.95V675.67L360.2 810.8l360.2 135.15z"/>
    </g>
    <g id="yashmebel">
      <g class="section-4-mobile-cls-18">
          <a href="http://yashmebel.ru/" target="_blank">
        <image width="390" height="280" transform="matrix(.94 0 0 1 720.4 675.67)" xlink:href="images/section-4-back-pics/yashmebel.JPG"/>
        <g id="overlay-7" data-name="overlay" class="overlay">
          <path id="overlay-back-7" data-name="overlay-back" class="section-4-mobile-cls-4" d="M720.4 675.67v270.28l360.2-135.14-360.2-135.13z"/>
          <text class="section-4-mobile-cls-13" transform="matrix(.94 0 0 1 791.03 784.81)">
            <tspan class="section-4-mobile-cls-19">Y</tspan><tspan x="12.43" y="0">ashmebel</tspan>
          </text>
          <text class="section-4-mobile-cls-15" transform="matrix(.94 0 0 1 764.91 828.41)">
            Frontend, backend
          </text>
        </g>
          </a>
      </g>
      <path id="Треугольник-12" data-name="Треугольник" class="section-4-mobile-cls-1" d="M720.4 675.67v270.28l360.2-135.14-360.2-135.13z"/>
    </g>
    <g id="vektor">
      <g class="section-4-mobile-cls-20">
          <a href="projects/vektor/" target="_blank">
        <image width="390" height="280" transform="matrix(.94 0 0 1 0 405.4)" xlink:href="images/section-4-back-pics/vektor.jpg"/>
        <g id="overlay-8" data-name="overlay" class="overlay">
          <path id="overlay-back-8" data-name="overlay-back" class="section-4-mobile-cls-4" d="M0 405.4v270.27l360.2-135.13L0 405.4z"/>
          <text class="section-4-mobile-cls-13" transform="matrix(.94 0 0 1 93.78 514.54)">
            <tspan class="section-4-mobile-cls-21">V</tspan><tspan x="18.09" y="0">ektor</tspan>
          </text>
          <text class="section-4-mobile-cls-15" transform="matrix(.94 0 0 1 42.28 558.14)">
            Frontend, backend, <tspan x="68.65" y="24">logo</tspan>
          </text>
        </g>
          </a>
      </g>
      <path id="Треугольник-13" data-name="Треугольник" class="section-4-mobile-cls-1" d="M0 405.4v270.27l360.2-135.13L0 405.4z"/>
    </g>
    <g id="hermes-news">
      <g class="section-4-mobile-cls-22">
          <a href="projects/hermes-news/" target="_blank">
        <image width="390" height="280" transform="matrix(.94 0 0 1 357.39 270.27)" xlink:href="images/section-4-back-pics/hermes-news.jpg"/>
        <g id="overlay-9" data-name="overlay" class="overlay">
          <path id="overlay-back-9" data-name="overlay-back" class="section-4-mobile-cls-4" d="M360.2 270.27v270.27L720.4 405.4 360.2 270.27z"/>
          <text class="section-4-mobile-cls-13" transform="matrix(.94 0 0 1 413.29 389.41)">
            Hermes News
          </text>
          <text class="section-4-mobile-cls-15" transform="matrix(.94 0 0 1 371.23 433.01)">
            Frontend, backend, design
          </text>
        </g>
          </a>
      </g>
      <path id="Треугольник-14" data-name="Треугольник" class="section-4-mobile-cls-1" d="M360.2 270.27v270.27L720.4 405.4 360.2 270.27z"/>
    </g>
    <g id="me">
      <g class="section-4-mobile-cls-23">
          <a href="projects/me_v2.0/" target="_blank">
        <image width="390" height="280" transform="matrix(.94 0 0 1 -5.63 265.27)" xlink:href="images/section-4-back-pics/me_v2.0.jpg"/>
        <g id="overlay-10" data-name="overlay" class="overlay">
          <path id="overlay-back-10" data-name="overlay-back" class="section-4-mobile-cls-4" d="M360.2 540.54V270.27L0 405.4l360.2 135.14z"/>
          <text class="section-4-mobile-cls-13" transform="matrix(.94 0 0 1 129.21 388.5)">
            Mar<tspan class="section-4-mobile-cls-24" x="51.41" y="0">k</tspan><tspan x="60.76" y="0">eting Engineers</tspan>
          </text>
          <text class="section-4-mobile-cls-15" transform="matrix(.94 0 0 1 154.94 432.1)">
            Frontend, backend
          </text>
        </g>
          </a>
      </g>
      <path id="Треугольник-15" data-name="Треугольник" class="section-4-mobile-cls-1" d="M360.2 540.54V270.27L0 405.4l360.2 135.14z"/>
    </g>
    <g id="broasty">
      <g class="section-4-mobile-cls-25">
          <a href="http://broastyfoodtruck.com/" target="_blank">
        <image width="390" height="280" transform="matrix(.94 0 0 1 714.77 805.27)" xlink:href="images/section-4-back-pics/broasty.jpg"/>
        <g id="overlay-11" data-name="overlay" class="overlay">
          <path id="overlay-back-11" data-name="overlay-back" class="section-4-mobile-cls-4" d="M1080.6 1081.08V810.8L720.4 945.96l360.2 135.13z"/>
          <text class="section-4-mobile-cls-13" transform="matrix(.94 0 0 1 916.31 919.04)">
            Broasty
          </text>
          <text class="section-4-mobile-cls-15" transform="translate(883.71 962.64)">
            Adding features
          </text>
        </g>
          </a>
      </g>
      <path id="Треугольник-16" data-name="Треугольник" class="section-4-mobile-cls-1" d="M1080.6 1081.08V810.8L720.4 945.96l360.2 135.13z"/>
    </g>
  </g>
  <path id="Треугольник-17" data-name="Треугольник" class="section-4-mobile-cls-26" d="M1080.6 270.27V0L720.4 135.13l360.2 135.14z"/>
  <path id="Треугольник-18" data-name="Треугольник" class="section-4-mobile-cls-26" d="M1080.6 540.54V270.27L720.4 405.4l360.2 135.14z"/>
  <path id="Треугольник-19" data-name="Треугольник" class="section-4-mobile-cls-26" d="M0 1216.2v270.28l360.2-135.13L0 1216.2z"/>
  <path id="Треугольник-20" data-name="Треугольник" class="section-4-mobile-cls-26" d="M720.4 1486.48V1216.2l-360.2 135.15 360.2 135.13z"/>
  <path id="Треугольник-21" data-name="Треугольник" class="section-4-mobile-cls-26" d="M1080.6 810.8V540.55L720.4 675.67l360.2 135.14z"/>
  <path id="Треугольник-22" data-name="Треугольник" class="section-4-mobile-cls-26" d="M0 1486.48v270.28l360.2-135.14L0 1486.48z"/>
  <path id="Треугольник-23" data-name="Треугольник" class="section-4-mobile-cls-26" d="M720.4 1756.76v-270.28l-360.2 135.14 360.2 135.14z"/>
  <path id="Треугольник-24" data-name="Треугольник" class="section-4-mobile-cls-26" d="M360.2 1081.08V810.8L0 945.96l360.2 135.13z"/>
  <path id="Треугольник-25" data-name="Треугольник" class="section-4-mobile-cls-26" d="M360.2 810.8v270.28l360.2-135.13L360.2 810.8z"/>
  <path id="Треугольник-26" data-name="Треугольник" class="section-4-mobile-cls-26" d="M720.4 675.67V405.4L360.2 540.54l360.2 135.13z"/>
  <path id="Треугольник-27" data-name="Треугольник" class="section-4-mobile-cls-26" d="M720.4 405.4v270.27l360.2-135.13L720.4 405.4z"/>
  <path id="Треугольник-28" data-name="Треугольник" class="section-4-mobile-cls-26" d="M360.2 1351.35v-270.27L0 1216.2l360.2 135.15z"/>
  <path id="Треугольник-29" data-name="Треугольник" class="section-4-mobile-cls-26" d="M360.2 1081.08v270.27l360.2-135.14-360.2-135.12z"/>
  <path id="Треугольник-30" data-name="Треугольник" class="section-4-mobile-cls-26" d="M360.2 1621.62v270.27l360.2-135.14-360.2-135.14z"/>
  <path id="Треугольник-31" data-name="Треугольник" class="section-4-mobile-cls-26" d="M0 135.13V405.4l360.2-135.13L0 135.13z"/>
  <path id="Треугольник-32" data-name="Треугольник" class="section-4-mobile-cls-27" d="M360.2 1891.9V1621.6L0 1756.76l360.2 135.13z"/>
  <path id="Треугольник-33" data-name="Треугольник" class="section-4-mobile-cls-26" d="M0 675.67v270.28L360.2 810.8 0 675.68z"/>
  <path id="Часть_треугольника" data-name="Часть треугольника" class="section-4-mobile-cls-26" d="M0 0l360.2 135.13V0H0z"/>
  <path id="Часть_треугольника-2" data-name="Часть треугольника" class="section-4-mobile-cls-26" d="M360.2 0v135.13L720.4 0H360.2z"/>
  <g id="header">
    <path id="Треугольник_заголовка" data-name="Треугольник заголовка" class="section-4-mobile-cls-28" d="M360.2 0H0l360.2 135.13L720.4 0H360.2z"/>
    <text class="section-4-mobile-cls-29" transform="translate(115.42 47.62)">
      What have I done?
    </text>
  </g>
  <path id="Треугольник-34" data-name="Треугольник" class="section-4-mobile-cls-26" d="M720.4 1216.2V945.96l-360.2 135.13 360.2 135.13z"/>
  <path id="Треугольник-35" data-name="Треугольник" class="section-4-mobile-cls-26" d="M0 945.95v270.26l360.2-135.12L0 945.95z"/>
  <path id="Треугольник-36" data-name="Треугольник" class="section-4-mobile-cls-26" d="M720.4 945.95v270.26l360.2-135.12-360.2-135.13z"/>
  <path id="Треугольник-37" data-name="Треугольник" class="section-4-mobile-cls-26" d="M1080.6 1351.35v-270.27L720.4 1216.2l360.2 135.15z"/>
  <path id="Треугольник-38" data-name="Треугольник" class="section-4-mobile-cls-26" d="M720.4 1216.2v270.28l360.2-135.13-360.2-135.14z"/>
  <path id="Треугольник-39" data-name="Треугольник" class="section-4-mobile-cls-26" d="M1080.6 1621.62v-270.27l-360.2 135.13 360.2 135.14z"/>
  <path id="Треугольник-40" data-name="Треугольник" class="section-4-mobile-cls-26" d="M720.4 1486.48v270.28l360.2-135.14-360.2-135.14z"/>
  <path id="Треугольник-41" data-name="Треугольник" class="section-4-mobile-cls-26" d="M1080.6 1891.9V1621.6l-360.2 135.14 360.2 135.13z"/>
  <path class="section-4-mobile-cls-26" d="M285.27 1920l74.93-28.1L0 1756.75V1920M720.4 1920v-163.24L360.2 1891.9l74.93 28.1"/>
</svg>
