<?xml version="1.0" encoding="UTF-8"?>
<!DOCTYPE svg PUBLIC "-//W3C//DTD SVG 1.0//EN" "http://www.w3.org/TR/2001/REC-SVG-20010904/DTD/svg10.dtd">
<!-- Creator: CorelDRAW X6 -->
<svg xmlns="http://www.w3.org/2000/svg" xml:space="preserve" width="2504px" height="709px" version="1.0" style="shape-rendering:geometricPrecision; text-rendering:geometricPrecision; image-rendering:optimizeQuality; fill-rule:evenodd; clip-rule:evenodd"
viewBox="0 0 2504 709"
 xmlns:xlink="http://www.w3.org/1999/xlink">
 <defs>
  <style type="text/css">
   <![CDATA[
    .fil1 {fill:#00B2EC}
    .fil0 {fill:#333333}
    .fil2 {fill:#333333;fill-rule:nonzero}
   ]]>
  </style>
 </defs>
 <g id="Слой_x0020_1">
  <metadata id="CorelCorpID_0Corel-Layer"/>
  <g id="_479229256">
   <path class="fil0" d="M293 222c-7,-7 -47,-22 -57,-25 -34,71 -153,59 -162,-29 -10,-62 50,-112 109,-93 19,3 38,18 44,28l-109 40 18 50 169 -59c-3,-66 -72,-128 -147,-128 -169,0 -206,237 -47,291 41,15 82,9 113,-7 25,-12 59,-43 69,-68zm575 -54c-13,-118 156,-134 171,-25 7,54 -31,94 -75,100 -50,7 -90,-31 -96,-75zm71 -159c-78,9 -143,75 -134,163 9,78 78,143 166,131 75,-6 140,-78 131,-163 -9,-78 -78,-140 -163,-131zm0 459c50,-12 91,25 100,66 10,53 -28,94 -68,103 -110,22 -150,-147 -32,-169l0 0zm-134 97c6,78 75,144 163,135 75,-7 140,-75 134,-160 -6,-78 -75,-143 -163,-137 -78,6 -140,78 -134,162l0 0 0 0zm-606 132l0 -66c-28,9 -41,16 -72,3 -69,-28 -75,-131 0,-162 50,-22 97,12 112,46 13,32 7,129 7,172l62 0c0,-43 0,-90 0,-134 0,-47 -12,-72 -34,-100 -38,-47 -125,-72 -194,-28 -131,81 -66,306 119,269l0 0 0 0zm147 -285c-7,31 -3,172 3,200 28,116 200,122 234,0 6,-28 10,-169 6,-200l-65 0c-13,94 28,225 -56,225 -22,0 -41,-12 -47,-25 -22,-34 -7,-137 -13,-200l-62 0zm243 -397l-65 0c0,47 0,94 0,141 0,22 -3,44 -13,59 -18,32 -68,35 -90,0 -10,-15 -13,-37 -13,-59 0,-31 6,-116 0,-141l-62 0c-7,16 -3,175 3,197 28,122 203,122 234,3 10,-37 6,-153 6,-200l0 0zm194 619c-19,0 -37,0 -53,-9 -41,-25 -34,-100 -31,-150l81 0 0 -63 -81 0 0 -78 -66 0c0,44 -3,231 0,259 10,69 72,116 153,104l-3 -63 0 0 0 0zm-150 -337l66 3c0,-63 -13,-178 22,-213 22,-19 34,-9 65,-15l0 -63c-75,-9 -128,28 -143,75 -16,41 -10,163 -10,213l0 0 0 0z"/>
   <rect class="fil1" x="1227" y="6" width="34.3733" height="686.43"/>
   <path class="fil2" d="M1373 177c0,46 33,79 83,79 50,0 82,-33 82,-79 0,-45 -32,-79 -82,-79 -50,0 -83,34 -83,79zm42 0c0,-26 18,-43 41,-43 23,0 41,18 41,43 0,26 -17,44 -41,44 -24,0 -41,-19 -41,-44z"/>
   <path class="fil2" d="M1617 253l39 0 0 -103c9,-9 20,-15 33,-15 21,0 34,12 34,36l0 82 38 0 0 -89c0,-47 -25,-65 -62,-65 -18,0 -34,8 -43,18l0 -15 -39 0 0 151z"/>
   <path class="fil2" d="M1845 211c0,31 13,45 36,45 18,0 31,-6 40,-13l-8 -29c-5,3 -10,6 -16,6 -9,0 -13,-7 -13,-25l0 -177 -39 0 0 193z"/>
   <path class="fil2" d="M1995 253l38 0 0 -151 -38 0 0 151zm-4 -206c0,16 11,25 24,25 11,0 22,-9 22,-25 0,-13 -11,-22 -22,-22 -13,0 -24,9 -24,22z"/>
   <path class="fil2" d="M2123 253l39 0 0 -103c9,-9 20,-15 33,-15 21,0 34,12 34,36l0 82 38 0 0 -89c0,-47 -25,-65 -62,-65 -18,0 -34,8 -43,18l0 -15 -39 0 0 151z"/>
   <path class="fil2" d="M2470 210c-9,8 -24,14 -43,14 -23,0 -41,-12 -45,-35l109 0c2,-6 3,-11 3,-21 0,-42 -33,-70 -72,-70 -50,0 -80,35 -80,79 0,48 33,79 81,79 22,0 43,-6 58,-18l-11 -28zm-50 -80c23,0 35,15 35,33l-74 0c4,-20 16,-33 39,-33z"/>
   <path class="fil2" d="M1373 524c0,45 33,79 83,79 50,0 82,-34 82,-79 0,-45 -32,-79 -82,-79 -50,0 -83,34 -83,79zm42 0c0,-26 18,-43 41,-43 23,0 41,18 41,43 0,26 -17,43 -41,43 -24,0 -41,-18 -41,-43z"/>
   <path class="fil2" d="M1619 600l39 0 0 -115 40 0 0 -36 -40 0 0 -22c0,-21 9,-30 22,-30 8,0 17,3 22,8l13 -30c-8,-8 -24,-14 -42,-14 -34,0 -54,21 -54,63l0 176z"/>
   <path class="fil2" d="M1775 600l39 0 0 -115 41 0 0 -36 -41 0 0 -22c0,-21 9,-30 22,-30 9,0 17,3 22,8l13 -30c-8,-8 -24,-14 -42,-14 -34,0 -54,21 -54,63l0 176z"/>
   <path class="fil2" d="M2045 557c-9,7 -24,14 -43,14 -23,0 -41,-12 -45,-35l109 0c2,-6 3,-12 3,-21 0,-42 -33,-70 -72,-70 -50,0 -80,35 -80,79 0,48 33,79 81,79 22,0 43,-6 58,-18l-11 -28zm-50 -80c23,0 35,15 35,33l-74 0c4,-20 16,-33 39,-33z"/>
   <path class="fil2" d="M2145 600l39 0 0 -102c4,-8 11,-16 25,-16 8,0 12,2 19,6l14 -36c-5,-4 -11,-6 -23,-6 -19,0 -28,8 -35,17l0 -14 -39 0 0 151z"/>
  </g>
 </g>
</svg>
