<svg id="preloader" xmlns="http://www.w3.org/2000/svg" width="1921" height="1081" viewBox="0 0 1921 1081"><defs><style>.cls-1{fill:#171717;stroke:#000;}.cls-1,.cls-2{stroke-miterlimit:10;}.cls-2{fill:none;stroke:#fff;stroke-width:2px;}</style></defs><title>ik</title><rect id="preloader-back" class="cls-1" x="0.5" y="0.5" width="1920" height="1080"/><path class="cls-2" d="M480.72,488.27h3.94v89.51h-3.94Z" transform="translate(0.5 0)"/><path class="cls-2" d="M541.11,579.81l-44.52-91.54h4.3l40.58,82.95,40.34-82.95h3.82Z" transform="translate(0.5 0)"/><path class="cls-2" d="M612.12,486.12l44.76,91.66H652.7l-16.95-34.13H587.9l-16.71,34.13h-3.7Zm-.36,8.24-22.32,45.83h44.88Z" transform="translate(0.5 0)"/><path class="cls-2" d="M735.29,488.27h3.46V579.1l-65.88-81v79.73h-3.46V487l65.88,80.92Z" transform="translate(0.5 0)"/><path class="cls-2" d="M798.43,488.27h3.82v32.82l37.83-32.82h4.77L803.92,524l51.44,53.83h-5.25L802.37,528v49.77h-3.94Z" transform="translate(0.5 0)"/><path class="cls-2" d="M871.17,565.37q-13.55-14-13.55-32.64t13.73-32.34a46.46,46.46,0,0,1,65.76-.06q13.61,13.61,13.61,32.4t-13.49,32.7Q923.75,579.34,905,579.34h-1.79Q884.72,579.34,871.17,565.37ZM946.78,533a41.39,41.39,0,0,0-12.47-30.2,42.29,42.29,0,0,0-60.21,0,42.72,42.72,0,0,0,0,60.45,42.08,42.08,0,0,0,60.15,0A41.48,41.48,0,0,0,946.78,533Z" transform="translate(0.5 0)"/><path class="cls-2" d="M965,488.27h5.13a28.31,28.31,0,0,1,20.35,8.53q8.77,8.53,8.77,20.05t-9,20q-9,8.48-19.22,8.47h-.84l30.79,32.46H996l-27.09-28.41v28.41H965Zm3.82,53.59H971q9.67,0,17.07-7.4a24.37,24.37,0,0,0-.24-35.21q-7.64-7.52-17.43-7.52h-1.55Z" transform="translate(0.5 0)"/><path class="cls-2" d="M1023.59,565.37q-13.55-14-13.55-32.64t13.73-32.34a46.46,46.46,0,0,1,65.76-.06q13.61,13.61,13.61,32.4t-13.49,32.7q-13.49,13.91-32.23,13.91h-1.79Q1037.13,579.34,1023.59,565.37ZM1099.2,533a41.39,41.39,0,0,0-12.47-30.2,42.29,42.29,0,0,0-60.21,0,42.72,42.72,0,0,0,0,60.45,42.08,42.08,0,0,0,60.15,0A41.48,41.48,0,0,0,1099.2,533Z" transform="translate(0.5 0)"/><path class="cls-2" d="M1121.39,488.27v86.05h27.69v3.46h-31.63V488.27Z" transform="translate(0.5 0)"/><path class="cls-2" d="M1160.42,488.27h32.11v3.46h-28.17v48.7h23.51v3.46h-23.51v30.43h28.17v3.46h-32.11Z" transform="translate(0.5 0)"/><path class="cls-2" d="M1270.34,488.27h3.46V579.1l-65.88-81v79.73h-3.46V487l65.88,80.92Z" transform="translate(0.5 0)"/><path class="cls-2" d="M1291.71,488.27h3.82v32.82l37.83-32.82h4.77L1297.2,524l51.44,53.83h-5.25L1295.64,528v49.77h-3.94Z" transform="translate(0.5 0)"/><path class="cls-2" d="M1364.45,565.37q-13.55-14-13.55-32.64t13.73-32.34a46.46,46.46,0,0,1,65.76-.06q13.61,13.61,13.61,32.4t-13.49,32.7q-13.49,13.91-32.23,13.91h-1.79Q1378,579.34,1364.45,565.37Zm75.61-32.4a41.39,41.39,0,0,0-12.47-30.2,42.29,42.29,0,0,0-60.21,0,42.72,42.72,0,0,0,0,60.45,42.08,42.08,0,0,0,60.15,0A41.48,41.48,0,0,0,1440.06,533Z" transform="translate(0.5 0)"/></svg>