<?xml version="1.0" encoding="UTF-8"?>
<!DOCTYPE svg PUBLIC "-//W3C//DTD SVG 1.0//EN" "http://www.w3.org/TR/2001/REC-SVG-20010904/DTD/svg10.dtd">
<!-- Creator: CorelDRAW X6 -->
<svg xmlns="http://www.w3.org/2000/svg" xml:space="preserve" width="6047px" height="2835px" version="1.0" style="shape-rendering:geometricPrecision; text-rendering:geometricPrecision; image-rendering:optimizeQuality; fill-rule:evenodd; clip-rule:evenodd"
viewBox="0 0 6047 2835"
 xmlns:xlink="http://www.w3.org/1999/xlink">
 <defs>
  <style type="text/css">
   <![CDATA[
    .str0 {stroke:#222222;stroke-width:54.997}
    .fil0 {fill:#FEFEFE}
   ]]>
  </style>
 </defs>
 <g id="Слой_x0020_1">
  <metadata id="CorelCorpID_0Corel-Layer"/>
  <g id="_554465816">
   <path class="fil0 str0" d="M685 1813c-65,0 -177,-29 -207,-219l-1 -7c-20,-131 -42,-266 -106,-364 -51,-77 -125,-124 -227,-142 -4,-1 -9,-2 -14,-3 -1,0 -3,0 -5,-1l-6 -1c-2,0 -4,0 -6,0l-2 -1c0,0 -1,0 -1,0 -17,-2 -30,-15 -31,-32 0,-1 -1,-3 -1,-4 1,-15 10,-29 25,-34 1,0 1,0 2,-1 3,-1 5,-1 7,-2l14 -4c4,-2 9,-3 14,-5 73,-21 143,-32 208,-32 292,0 425,210 478,336 19,43 37,43 44,43 10,0 21,-4 35,-11 246,-129 551,-287 611,-306 18,-5 36,-8 53,-8 92,0 145,72 159,95 17,26 45,90 87,193l3 8c22,53 47,60 66,60 17,0 37,-6 62,-17 21,-10 69,-40 86,-51 187,-119 360,-208 513,-264 137,-50 261,-76 369,-76 35,0 69,3 102,9 5,1 11,2 16,3 3,0 6,1 9,2 3,0 7,1 10,2l3 1c17,4 28,19 28,36 -1,17 -13,31 -30,34 -1,1 -2,1 -2,1 -3,1 -6,1 -9,2 -2,1 -3,1 -5,1l-1 1c-4,1 -8,2 -13,4 -133,45 -363,219 -566,373 -118,89 -228,173 -311,225 -115,72 -263,155 -386,155 -78,0 -181,-34 -231,-196l-74 -201c-139,82 -573,335 -638,366 -25,12 -76,32 -131,32z"/>
   <path class="fil0 str0" d="M2984 1806c-147,0 -260,-46 -318,-129 0,0 0,-1 -1,-1 -24,-38 -34,-86 -28,-136 0,0 0,0 0,0 7,-45 33,-123 124,-154 16,-5 32,-8 47,-8 48,0 78,28 97,47 5,5 11,10 15,13 43,30 92,58 158,64 6,0 13,0 20,0 76,0 215,-29 283,-109 44,-50 62,-98 50,-128 -11,-28 -53,-46 -119,-52 -9,-1 -20,-2 -31,-2 -77,0 -179,22 -267,58 -1,1 -5,2 -9,4 -81,29 -148,59 -197,88 -3,2 -5,3 -8,5l-8 5c-6,4 -14,6 -22,6 -13,0 -25,-6 -33,-16 -14,-18 -12,-42 4,-57l14 -13c168,-153 299,-218 443,-269 123,-43 222,-52 284,-52 26,0 51,2 75,5 97,12 221,74 262,179 37,97 3,207 -101,329 -160,187 -469,323 -734,323z"/>
   <path class="fil0 str0" d="M3653 1811c-46,0 -91,-6 -135,-18l-2 -1c-2,0 -3,-1 -5,-1 -5,-2 -10,-4 -16,-5l-2 -1c-1,0 -2,-1 -3,-1 -15,-5 -25,-19 -25,-34 0,-15 10,-29 24,-34 1,-1 2,-1 2,-1l3 -1c5,-2 9,-4 14,-6 1,0 2,0 3,-1l2 -1c266,-110 503,-466 699,-800 0,-1 1,-1 1,-1l0 0c172,-293 316,-494 453,-630 157,-156 328,-238 496,-238 45,0 91,7 135,19l2 1c1,0 3,0 4,1 6,1 11,3 17,5l1 1c2,0 3,0 4,1 14,5 24,18 24,34 0,15 -9,29 -24,34l-1 1c-2,0 -3,1 -4,1 -4,2 -9,3 -13,5 -1,1 -2,1 -3,1 -1,1 -2,1 -3,1 -266,111 -502,467 -699,801 0,0 0,1 0,1 -172,293 -316,493 -453,630 -157,155 -329,237 -496,237z"/>
   <path class="fil0 str0" d="M3538 2797c-52,0 -103,-8 -152,-24l-2 0c-1,-1 -2,-1 -3,-1 -4,-2 -9,-4 -14,-5l-3 -1c-1,-1 -3,-2 -4,-2 -14,-5 -23,-18 -23,-33 -1,-14 8,-27 21,-33l6 -3c4,-2 8,-4 13,-6l3 -2c382,-187 722,-762 1051,-1317 255,-430 495,-837 756,-1079 154,-142 320,-217 480,-217 54,0 107,9 158,26l2 1c1,0 2,1 3,1 6,2 11,4 16,6l2 1c1,0 3,1 4,1 14,6 23,19 22,34 0,15 -9,28 -23,33 -1,1 -2,1 -2,1 -1,1 -3,1 -4,1 -4,2 -9,4 -13,6l-5 1c-269,113 -523,476 -736,817 -14,22 -49,79 -100,164l125 0c23,0 42,19 42,42 0,65 -23,121 -69,167 -45,45 -101,68 -166,68l-98 0c-17,29 -28,48 -30,51 -295,497 -563,927 -868,1161 -1,0 -1,0 -1,0 -127,92 -261,141 -388,141z"/>
   <path class="fil0 str0" d="M4698 2371c-54,0 -97,-35 -97,-78 0,-44 43,-78 97,-78 55,0 97,34 97,78 0,43 -42,78 -97,78z"/>
   <path class="fil0 str0" d="M5192 2482c-45,0 -65,-20 -75,-37 -19,-34 -10,-82 28,-148 2,-4 4,-8 4,-9 -1,-2 -2,-6 -4,-9 -38,-66 -47,-115 -28,-148 10,-17 30,-37 75,-37 82,0 223,74 260,153 6,13 9,26 10,39 0,0 0,1 0,1l0 1c0,1 0,2 0,2 -2,59 -64,108 -102,132 -57,37 -121,60 -168,60z"/>
   <path class="fil0 str0" d="M4885 2444c-40,0 -57,-20 -64,-31 -16,-28 -9,-68 22,-121 1,-1 1,-2 2,-3 -1,-1 -1,-3 -2,-4 -31,-53 -38,-92 -22,-121 7,-11 24,-31 64,-31 68,0 167,55 201,112 8,14 13,28 13,41 0,1 0,1 0,2l0 1c0,1 0,2 0,2 -3,76 -138,153 -214,153z"/>
  </g>
 </g>
</svg>
