<svg xmlns="http://www.w3.org/2000/svg" xml:space="preserve" width="100%" height="100%" version="1.0" style="shape-rendering:geometricPrecision; text-rendering:geometricPrecision; image-rendering:optimizeQuality; fill-rule:evenodd; clip-rule:evenodd"
viewBox="0 0 1831 390"
 xmlns:xlink="http://www.w3.org/1999/xlink">
   <polygon fill="#FFFFFF" points="1018,241 978,241 978,34 868,34 868,0 1129,0 1129,34 1018,34 "/>
   <polygon fill="#FFFFFF" points="1445,0 1445,34 1259,34 1259,100 1405,100 1405,131 1259,131 1259,208 1452,208 1452,241 1219,241 1219,0 "/>
   <polygon fill="#FFFFFF" points="1614,0 1614,208 1780,208 1780,241 1574,241 1574,0 "/>
   <polygon fill="#FFFFFF" points="748,0 631,157 515,0 482,0 482,241 516,241 516,58 631,213 747,58 747,241 781,241 781,0 "/>
   <polygon fill="#F0831C" points="143,220 369,183 253,159 169,173 "/>
   <polygon fill="#FCC204" points="369,183 117,131 138,92 342,134 "/>
   <polygon fill="#FFFFFF" points="315,116 252,1 209,1 164,85 198,92 231,32 271,107 "/>
   <polygon fill="#FFFFFF" points="359,197 323,203 345,243 384,243 "/>
   <polygon fill="#FFFFFF" points="130,146 77,243 116,243 165,153 "/>
   <path fill="#FFFFFF" d="M81 356l-24 -44 -23 44 47 0zm-79 33l0 0 14 0 12 -21 59 0 11 21 16 0 -48 -87 -16 0 -48 87z"/>
   <path fill="#FFFFFF" d="M249 360c0,-3 -1,-7 -3,-9 -2,-2 -6,-2 -7,-2l-51 0 0 28 51 0c3,0 6,0 8,-2 2,-2 2,-7 2,-8l0 -7zm-75 29l65 0 1 0c4,0 12,0 18,-4 4,-4 5,-9 5,-13l0 -11c0,-7 -2,-11 -5,-13 -2,-2 -6,-4 -10,-4 4,0 8,-2 10,-4 4,-3 4,-7 4,-11l0 -10c0,-5 0,-10 -5,-14 -4,-3 -9,-3 -13,-3l-70 0 0 87zm74 -68c0,-1 0,-4 -2,-6 -2,-1 -5,-1 -7,-1l-51 0 0 24 51 0c2,0 4,0 6,-1 3,-2 3,-4 3,-7l0 -9z"/>
   <polygon fill="#FFFFFF" points="356,389 356,314 316,314 316,302 411,302 411,314 371,314 371,389 "/>
   <path fill="#FFFFFF" d="M548 377l0 -63 -72 0 0 63 72 0zm-66 12l61 0c5,0 12,0 16,-4 4,-4 4,-12 4,-16l0 -46c0,-5 0,-13 -4,-17 -4,-4 -12,-4 -16,-4l-61 0c-5,0 -12,0 -16,4 -5,4 -5,13 -5,17l0 46c0,3 0,12 5,16 4,4 10,4 15,4l1 0z"/>
   <path fill="#FFFFFF" d="M652 389c-16,0 -18,-5 -18,-17l0 -7 14 0 0 12 53 0c2,0 4,0 6,-1 2,-2 2,-5 2,-6l0 -13c0,-2 0,-5 -2,-6 -1,-2 -4,-2 -6,-2l-32 0 0 -11 31 0c1,0 4,0 6,-2 2,-2 2,-6 2,-8l0 -4c0,-3 0,-7 -2,-8 -1,-1 -2,-2 -6,-2l-52 0 0 11 -13 0 0 -6c0,-12 3,-17 19,-17l50 0c9,0 13,2 14,3 4,4 4,11 4,14l0 8c0,5 0,9 -4,13 -2,2 -5,3 -9,4 4,0 8,2 10,3 4,4 4,10 4,14l0 10c0,4 0,10 -4,14 -4,4 -12,4 -15,4l-52 0z"/>
   <path fill="#FFFFFF" d="M858 356l-23 -44 -24 44 47 0zm-79 33l15 0 11 -21 59 0 11 21 16 0 -48 -87 -16 0 -48 87z"/>
   <polygon fill="#FFFFFF" points="1033,389 1033,314 965,314 965,389 951,389 951,302 1048,302 1048,389 "/>
   <path fill="#FFFFFF" d="M1196 389l0 -33 -57 0c-7,0 -19,-1 -19,-17l0 -37 15 0 0 33c0,2 0,5 2,7 3,2 5,2 7,2l52 0 0 -42 15 0 0 87 -15 0z"/>
   <path fill="#FFFFFF" d="M1349 356l-24 -44 -23 44 47 0zm-79 33l14 0 12 -21 59 0 11 21 16 0 -49 -87 -15 0 -48 87z"/>
   <path fill="#FFFFFF" d="M1457 314l0 63 61 0 0 -19 15 0 0 11c0,8 -2,13 -4,16 -4,4 -11,4 -16,4l0 0 -50 0c-5,0 -12,0 -16,-4 -4,-4 -4,-12 -4,-16l0 -46c0,-5 0,-13 4,-17 4,-4 12,-4 16,-4l50 0c5,0 12,0 16,4 2,3 4,8 4,17l0 8 -15 0 0 -17 -61 0z"/>
   <polygon fill="#FFFFFF" points="1617,389 1617,314 1577,314 1577,302 1672,302 1672,314 1631,314 1631,389 "/>
   <path fill="#FFFFFF" d="M1814 389l0 -50c0,-4 0,-2 1,-18 -2,3 -6,7 -7,8l-70 60 -9 0 0 -87 15 0 0 48c0,4 -1,13 -1,21 3,-5 8,-9 9,-11l68 -58 9 0 0 87 -15 0z"/>
</svg>
