<?xml version="1.0" encoding="UTF-8"?>
<!DOCTYPE svg PUBLIC "-//W3C//DTD SVG 1.1//EN" "http://www.w3.org/Graphics/SVG/1.1/DTD/svg11.dtd">
<!-- Creator: CorelDRAW X5 -->
<svg xmlns="http://www.w3.org/2000/svg" xml:space="preserve" width="150px" height="95px" style="shape-rendering:geometricPrecision; text-rendering:geometricPrecision; image-rendering:optimizeQuality; fill-rule:evenodd; clip-rule:evenodd"
viewBox="0 0 150 94.9984"
 xmlns:xlink="http://www.w3.org/1999/xlink">
 <defs>
  <style type="text/css">
   <![CDATA[
    .fil0 {fill:#434242}
   ]]>
  </style>
 </defs>
 <g id="Слой_x0020_1">
  <metadata id="CorelCorpID_0Corel-Layer"/>
  <path class="fil0" d="M38.876 29.2996c-0.933071,-0.843307 -6.27047,-2.99173 -7.8437,-3.38858 -4.64409,9.67559 -20.5996,8.02087 -22.2177,-4.04055 -1.13386,-8.45551 6.83976,-15.2622 15.2776,-12.7677 2.42717,0.716929 5.03622,2.52756 5.75906,4.09843l-14.752 5.51339 2.45551 6.80669 23.0551 -8.22047c-0.522047,-9.0189 -9.81024,-17.2866 -19.9996,-17.3008 -23.0327,-0.0330709 -28.3146,32.4567 -6.43583,39.7594 5.31614,1.7752 10.8283,1.14213 15.4819,-1.10197 3.40748,-1.64291 7.95472,-5.75079 9.21969,-9.35787zm78.7157 -7.43031c-1.8248,-15.8492 21.4724,-18.065 23.4827,-3.10866 0.937795,6.98386 -4.28268,12.685 -10.2378,13.402 -6.9874,0.842126 -12.5516,-4.28622 -13.2449,-10.2933zm9.6248 -21.7287c-10.5744,1.21181 -19.5579,10.4114 -18.1819,22.5484 1.1811,10.4362 10.6146,19.2768 22.6713,17.9469 10.311,-1.1374 19.363,-10.6902 17.8654,-22.6063 -1.31339,-10.4433 -10.552,-19.2425 -22.3547,-17.889zm-0.00826772 62.8346c6.92362,-1.40669 12.5539,3.57756 13.7197,9.12047 1.50354,7.15276 -3.57638,12.9343 -9.25157,14.0988 -14.961,3.07559 -20.4579,-19.9701 -4.46811,-23.2193zm-18.2209 13.3831c0.937795,10.637 10.2673,19.448 22.148,18.5055 10.4858,-0.830315 19.474,-10.2047 18.5126,-21.8953 -0.896457,-10.8827 -10.2508,-19.735 -22.2402,-18.6957 -10.5354,0.914173 -19.4551,10.3476 -18.4205,22.0854l0 0zm-82.8012 17.9516l0.069685 -9.08031c-4.12441,1.1811 -5.69882,2.06457 -10.1965,0.323622 -9.15472,-3.54213 -10.089,-17.5547 -0.0165354,-21.8256 7.06181,-2.99409 13.578,1.45276 15.5362,6.31535 1.72205,4.27677 0.888189,17.5701 0.94252,23.2075l8.49331 0.162992c0.080315,-6.10394 0.0519685,-12.2539 0.0129921,-18.3071 -0.0425197,-6.37441 -1.82126,-9.65787 -4.73386,-13.5035 -5.01614,-6.62126 -16.9736,-10.2059 -26.5654,-4.17756 -17.9291,11.2677 -9.02126,41.915 16.4575,36.8858l0 -0.0011811zm19.8189 -38.9362c-0.588189,4.32047 -0.307087,23.5063 0.635433,27.4335 3.78071,15.7465 27.5008,16.774 32.0717,-0.0555118 0.983858,-3.62598 1.0748,-22.9949 0.622441,-27.3697l-8.84528 0.00944882c-1.57913,12.665 4.08661,30.7748 -7.7752,30.861 -2.87244,0.0212598 -5.39173,-1.72559 -6.40039,-3.49134 -2.69409,-4.71969 -0.747638,-18.8256 -1.47992,-27.3744l-8.82874 -0.0129921zm33.4075 -54.2846l-9.0189 -0.105118c-0.0011811,6.47126 -0.00472441,12.9047 0.0011811,19.3382 0.0023622,2.91969 -0.125197,6.03189 -1.42441,8.11535 -2.76496,4.43386 -9.50551,4.64291 -12.5705,0.0531496 -1.45866,-2.18386 -1.50945,-5.2063 -1.50591,-8.16969 0.00590551,-4.18346 0.539764,-15.9791 -0.125197,-19.2874l-8.64331 -0.0496063c-0.79252,2.38819 -0.237402,24.1913 0.440551,27.1157 3.8374,16.5449 27.6638,16.715 32.1189,0.438189 1.45866,-5.32913 0.727559,-20.948 0.727559,-27.4488zm26.7142 84.7961c-2.66929,-0.180709 -5.38937,0.0354331 -7.42441,-1.24606 -5.49449,-3.45709 -4.61693,-13.7976 -4.32165,-20.661l11.3409 -0.0814961 -0.0720472 -8.50984 -11.3008 -0.0944882 -0.0023622 -10.6382 -9.00709 0.103937c0,5.84646 -0.325984,31.774 0.179528,35.3835 1.33583,9.52441 9.59528,15.815 20.7366,14.3303l-0.12874 -8.58661 0 0zm-20.7874 -46.1244l9.00945 0.0767717c0,-8.35512 -1.80472,-24.2575 3.27047,-28.885 2.93622,-2.67874 4.74685,-1.40197 8.63622,-2.14961l-0.00944882 -8.47913c-9.87283,-1.5437 -17.1319,3.84094 -19.6878,10.4091 -2.07992,5.34921 -1.2189,22.0701 -1.2189,29.028l0 0z"/>
 </g>
</svg>
