<svg id="preloader" xmlns="http://www.w3.org/2000/svg" width="1920" height="1080" viewBox="0 0 1920 1080"><defs><style>.preloader-cls-1{fill:none;stroke:#fff;stroke-miterlimit:10;stroke-width:2px;}</style></defs><path class="preloader-cls-1" d="M155.27,458.07h6.6v150h-6.6Z"/><path class="preloader-cls-1" d="M256.47,611.47l-74.6-153.4h7.2l68,139,67.6-139h6.4Z"/><path class="preloader-cls-1" d="M375.47,454.47l75,153.6h-7l-28.4-57.2h-80.2l-28,57.2h-6.2Zm-.6,13.8-37.4,76.8h75.2Z"/><path class="preloader-cls-1" d="M581.86,458.07h5.8v152.2l-110.4-135.8v133.6h-5.8V455.87l110.4,135.6Z"/><path class="preloader-cls-1" d="M687.66,458.07h6.4v55l63.4-55h8l-68.6,59.8,86.2,90.2h-8.8l-80-83.4v83.4h-6.6Z"/><path class="preloader-cls-1" d="M809.56,587.27q-22.7-23.4-22.7-54.7t23-54.2q23-22.9,55.2-22.9t55,22.8q22.8,22.8,22.8,54.3t-22.6,54.8q-22.6,23.3-54,23.3h-3Q832.26,610.67,809.56,587.27ZM936.26,533q0-29.5-20.9-50.6T865,461.27q-29.5,0-50.5,21.1t-21,50.6q0,29.5,21,50.7t50.4,21.2q29.4,0,50.4-21.2T936.26,533Z"/><path class="preloader-cls-1" d="M966.86,458.07h8.6q19.4,0,34.1,14.3t14.7,33.6q0,19.3-15,33.5t-32.2,14.2h-1.4l51.6,54.4h-8.6l-45.4-47.6v47.6h-6.4Zm6.4,89.8h3.6q16.2,0,28.6-12.4t12.4-29.4q0-17-12.8-29.6t-29.2-12.6h-2.6Z"/><path class="preloader-cls-1" d="M1065,587.27q-22.7-23.4-22.7-54.7t23-54.2q23-22.9,55.2-22.9t55,22.8q22.8,22.8,22.8,54.3t-22.6,54.8q-22.6,23.3-54,23.3h-3Q1087.66,610.67,1065,587.27Zm126.7-54.3q0-29.5-20.9-50.6t-50.4-21.1q-29.5,0-50.5,21.1t-21,50.6q0,29.5,21,50.7t50.4,21.2q29.4,0,50.4-21.2T1191.66,533Z"/><path class="preloader-cls-1" d="M1228.86,458.07v144.2h46.4v5.8h-53v-150Z"/><path class="preloader-cls-1" d="M1294.25,458.07h53.8v5.8h-47.2v81.6h39.4v5.8h-39.4v51h47.2v5.8h-53.8Z"/><path class="preloader-cls-1" d="M1478.45,458.07h5.8v152.2l-110.4-135.8v133.6h-5.8V455.87l110.4,135.6Z"/><path class="preloader-cls-1" d="M1514.25,458.07h6.4v55l63.4-55h8l-68.6,59.8,86.2,90.2h-8.8l-80-83.4v83.4h-6.6Z"/><path class="preloader-cls-1" d="M1636.15,587.27q-22.7-23.4-22.7-54.7t23-54.2q23-22.9,55.2-22.9t55,22.8q22.8,22.8,22.8,54.3t-22.6,54.8q-22.6,23.3-54,23.3h-3Q1658.85,610.67,1636.15,587.27Zm126.7-54.3q0-29.5-20.9-50.6t-50.4-21.1q-29.5,0-50.5,21.1T1620,533q0,29.5,21,50.7t50.4,21.2q29.4,0,50.4-21.2T1762.85,533Z"/></svg>
