<svg xmlns="http://www.w3.org/2000/svg" xmlns:xlink="http://www.w3.org/1999/xlink" width="1080" height="1920" viewBox="0 0 1080 1920" preserveAspectRatio="none" class="section-4-back-mobile" id="section-4-back-mobile">
  <defs>
    <style>
      .s4-b-m-cls-1, .s4-b-m-cls-3, .s4-b-m-cls-34, .s4-b-m-cls-4 {
        fill: none;
      }

      .s4-b-m-cls-1, .s4-b-m-cls-10, .s4-b-m-cls-3 {
        stroke: #3b2a66;
      }

      .s4-b-m-cls-1, .s4-b-m-cls-10, .s4-b-m-cls-3, .s4-b-m-cls-33, .s4-b-m-cls-34 {
        stroke-miterlimit: 10;
      }

      .s4-b-m-cls-1 {
        stroke-width: 2px;
      }

      .s4-b-m-cls-2, .s4-b-m-cls-33 {
        fill: #171717;
      }

      .s4-b-m-cls-5 {
        clip-path: url(#s4-b-m-clip-path);
      }

      .s4-b-m-cls-6 {
        fill: #353535;
      }

      .s4-b-m-cls-11, .s4-b-m-cls-15, .s4-b-m-cls-22, .s4-b-m-cls-25, .s4-b-m-cls-35, .s4-b-m-cls-36, .s4-b-m-cls-7 {
        fill: #fff;
      }

      .s4-b-m-cls-8 {
        fill: #f0831c;
      }

      .s4-b-m-cls-9 {
        fill: #fcc204;
      }

      .s4-b-m-cls-10 {
        fill: #3b2a66;
      }

      .s4-b-m-cls-11 {
        font-size: 27.95px;
      }

      .s4-b-m-cls-11, .s4-b-m-cls-15, .s4-b-m-cls-22, .s4-b-m-cls-25, .s4-b-m-cls-35, .s4-b-m-cls-36 {
        font-family: PoiretOne-Regular, Poiret One;
      }

      .s4-b-m-cls-12 {
        clip-path: url(#s4-b-m-clip-path-2);
      }

      .s4-b-m-cls-13 {
        fill: #333;
      }

      .s4-b-m-cls-14 {
        fill: #00b2ec;
      }

      .s4-b-m-cls-15 {
        font-size: 35.93px;
      }

      .s4-b-m-cls-16 {
        clip-path: url(#s4-b-m-clip-path-3);
      }

      .s4-b-m-cls-17 {
        fill: #434242;
      }

      .s4-b-m-cls-18 {
        clip-path: url(#s4-b-m-clip-path-4);
      }

      .s4-b-m-cls-19 {
        fill: #222;
        stroke: #222;
        stroke-width: 3px;
      }

      .s4-b-m-cls-20 {
        letter-spacing: -0.12em;
      }

      .s4-b-m-cls-21 {
        clip-path: url(#s4-b-m-clip-path-5);
      }

      .s4-b-m-cls-22 {
        font-size: 36px;
      }

      .s4-b-m-cls-23 {
        letter-spacing: -0.11em;
      }

      .s4-b-m-cls-24 {
        clip-path: url(#s4-b-m-clip-path-6);
      }

      .s4-b-m-cls-25 {
        font-size: 28px;
      }

      .s4-b-m-cls-26 {
        letter-spacing: -0.05em;
      }

      .s4-b-m-cls-27 {
        clip-path: url(#s4-b-m-clip-path-7);
      }

      .s4-b-m-cls-28 {
        letter-spacing: -0.04em;
      }

      .s4-b-m-cls-29 {
        clip-path: url(#s4-b-m-clip-path-8);
      }

      .s4-b-m-cls-30 {
        clip-path: url(#s4-b-m-clip-path-9);
      }

      .s4-b-m-cls-31 {
        letter-spacing: -0.13em;
      }

      .s4-b-m-cls-32 {
        clip-path: url(#s4-b-m-clip-path-10);
      }

      .s4-b-m-cls-33 {
        stroke: #000;
      }

      .s4-b-m-cls-34 {
        stroke: #fff;
      }

      .s4-b-m-cls-35 {
        font-size: 35.89px;
      }

      .s4-b-m-cls-36 {
        font-size: 58px;
      }
    </style>
    <clipPath id="s4-b-m-clip-path">
      <polygon id="Треугольник" class="s4-b-m-cls-1" points="720.28 674.59 720.28 404.81 360.28 539.7 720.28 674.59"/>
    </clipPath>
    <clipPath id="s4-b-m-clip-path-2">
      <polygon id="Ромб" class="s4-b-m-cls-1" points="360.33 270.54 0.33 405.43 360.33 540.32 720.33 405.43 360.33 270.54"/>
    </clipPath>
    <clipPath id="s4-b-m-clip-path-3">
      <polygon id="Треугольник-2" data-name="Треугольник" class="s4-b-m-cls-1" points="0.51 405.18 0.51 674.96 360.51 540.07 0.51 405.18"/>
    </clipPath>
    <clipPath id="s4-b-m-clip-path-4">
      <polygon id="Ромб-2" data-name="Ромб" class="s4-b-m-cls-1" points="360.33 540.05 0.33 674.94 360.33 809.83 720.33 674.94 360.33 540.05"/>
    </clipPath>
    <clipPath id="s4-b-m-clip-path-5">
      <polygon id="Ромб-3" data-name="Ромб" class="s4-b-m-cls-1" points="720.5 946.42 359.69 1081.53 720.5 1216.65 1081.3 1081.53 720.5 946.42"/>
    </clipPath>
    <clipPath id="s4-b-m-clip-path-6">
      <polygon id="Треугольник-3" data-name="Треугольник" class="s4-b-m-cls-1" points="359.32 1080.95 359.32 1351.18 720.12 1216.06 359.32 1080.95"/>
    </clipPath>
    <clipPath id="s4-b-m-clip-path-7">
      <polygon id="Треугольник-4" data-name="Треугольник" class="s4-b-m-cls-1" points="1082 1351.15 1082 1080.92 721.2 1216.03 1082 1351.15"/>
    </clipPath>
    <clipPath id="s4-b-m-clip-path-8">
      <polygon id="Треугольник-5" data-name="Треугольник" class="s4-b-m-cls-1" points="720.76 1215.52 720.76 1485.75 1081.56 1350.63 720.76 1215.52"/>
    </clipPath>
    <clipPath id="s4-b-m-clip-path-9">
      <polygon id="Треугольник-6" data-name="Треугольник" class="s4-b-m-cls-1" points="720.05 1485.68 720.05 1215.45 359.25 1350.56 720.05 1485.68"/>
    </clipPath>
    <clipPath id="s4-b-m-clip-path-10">
      <polygon id="Ромб-4" data-name="Ромб" class="s4-b-m-cls-1" points="360.36 1621.94 0.88 1756.68 360.36 1891.42 719.84 1756.68 360.36 1621.94"/>
    </clipPath>
  </defs>
  <rect id="Фон" class="s4-b-m-cls-2" width="1080" height="1920"/>
  <polygon id="Треугольник-7" data-name="Треугольник" class="s4-b-m-cls-3" points="1080.6 270.27 1080.6 0 720.4 135.13 1080.6 270.27"/>
  <polygon id="Треугольник-8" data-name="Треугольник" class="s4-b-m-cls-3" points="1080.6 540.54 1080.6 270.27 720.4 405.4 1080.6 540.54"/>
  <polygon id="Треугольник-9" data-name="Треугольник" class="s4-b-m-cls-3" points="0 1216.21 0 1486.48 360.2 1351.35 0 1216.21"/>
  <polygon id="Треугольник-10" data-name="Треугольник" class="s4-b-m-cls-3" points="720.4 1486.48 720.4 1216.21 360.2 1351.35 720.4 1486.48"/>
  <polygon id="Треугольник-11" data-name="Треугольник" class="s4-b-m-cls-3" points="1080.6 810.81 1080.6 540.54 720.4 675.67 1080.6 810.81"/>
  <polygon id="Треугольник-12" data-name="Треугольник" class="s4-b-m-cls-3" points="0 1486.48 0 1756.76 360.2 1621.62 0 1486.48"/>
  <polygon id="Треугольник-13" data-name="Треугольник" class="s4-b-m-cls-3" points="720.4 1756.76 720.4 1486.48 360.2 1621.62 720.4 1756.76"/>
  <polygon id="Треугольник-14" data-name="Треугольник" class="s4-b-m-cls-3" points="360.2 1081.08 360.2 810.81 0 945.95 360.2 1081.08"/>
  <polygon id="Треугольник-15" data-name="Треугольник" class="s4-b-m-cls-3" points="360.2 810.81 360.2 1081.08 720.4 945.95 360.2 810.81"/>
  <polygon id="Треугольник-16" data-name="Треугольник" class="s4-b-m-cls-3" points="720.4 675.67 720.4 405.4 360.2 540.54 720.4 675.67"/>
  <polygon id="Треугольник-17" data-name="Треугольник" class="s4-b-m-cls-3" points="720.4 405.4 720.4 675.67 1080.6 540.54 720.4 405.4"/>
  <polygon id="Треугольник-18" data-name="Треугольник" class="s4-b-m-cls-3" points="360.2 1351.35 360.2 1081.08 0 1216.21 360.2 1351.35"/>
  <polygon id="Треугольник-19" data-name="Треугольник" class="s4-b-m-cls-3" points="360.2 1081.08 360.2 1351.35 720.4 1216.21 360.2 1081.08"/>
  <polygon id="Треугольник-20" data-name="Треугольник" class="s4-b-m-cls-3" points="360.2 1621.62 360.2 1891.89 720.4 1756.76 360.2 1621.62"/>
  <polygon id="Треугольник-21" data-name="Треугольник" class="s4-b-m-cls-3" points="0 135.13 0 405.4 360.2 270.27 0 135.13"/>
  <polygon id="Треугольник-22" data-name="Треугольник" class="s4-b-m-cls-4" points="360.2 1891.89 360.2 1621.62 0 1756.76 360.2 1891.89"/>
  <polygon id="Треугольник-23" data-name="Треугольник" class="s4-b-m-cls-3" points="0 675.67 0 945.95 360.2 810.81 0 675.67"/>
  <g>
    <polygon id="Часть_треугольника" data-name="Часть треугольника" class="s4-b-m-cls-3" points="0 0 360.2 135.13 360.2 0 0 0"/>
    <polygon id="Часть_треугольника-2" data-name="Часть треугольника" class="s4-b-m-cls-3" points="360.2 0 360.2 135.13 720.4 0 360.2 0"/>
  </g>
  <polygon id="Треугольник-24" data-name="Треугольник" class="s4-b-m-cls-3" points="720.4 1216.21 720.4 945.95 360.2 1081.08 720.4 1216.21"/>
  <polygon id="Треугольник-25" data-name="Треугольник" class="s4-b-m-cls-3" points="0 945.95 0 1216.21 360.2 1081.08 0 945.95"/>
  <polygon id="Треугольник-26" data-name="Треугольник" class="s4-b-m-cls-3" points="720.4 945.95 720.4 1216.21 1080.6 1081.08 720.4 945.95"/>
  <polygon id="Треугольник-27" data-name="Треугольник" class="s4-b-m-cls-3" points="1080.6 1351.35 1080.6 1081.08 720.4 1216.21 1080.6 1351.35"/>
  <polygon id="Треугольник-28" data-name="Треугольник" class="s4-b-m-cls-3" points="720.4 1216.21 720.4 1486.48 1080.6 1351.35 720.4 1216.21"/>
  <polygon id="Треугольник-29" data-name="Треугольник" class="s4-b-m-cls-3" points="1080.6 1621.62 1080.6 1351.35 720.4 1486.48 1080.6 1621.62"/>
  <polygon id="Треугольник-30" data-name="Треугольник" class="s4-b-m-cls-3" points="720.4 1486.48 720.4 1756.76 1080.6 1621.62 720.4 1486.48"/>
  <polygon id="Треугольник-31" data-name="Треугольник" class="s4-b-m-cls-3" points="1080.6 1891.89 1080.6 1621.62 720.4 1756.76 1080.6 1891.89"/>
  <polygon id="Треугольник-32" data-name="Треугольник" class="s4-b-m-cls-3" points="359.59 540.26 359.59 269.99 -0.61 405.12 359.59 540.26"/>
  <polygon id="Треугольник-33" data-name="Треугольник" class="s4-b-m-cls-3" points="359.59 269.99 359.59 540.26 719.79 405.12 359.59 269.99"/>
  <polygon id="Треугольник-34" data-name="Треугольник" class="s4-b-m-cls-3" points="360.26 810.25 360.26 539.98 0.06 675.11 360.26 810.25"/>
  <polygon id="Треугольник-35" data-name="Треугольник" class="s4-b-m-cls-3" points="360.26 539.98 360.26 810.25 720.46 675.11 360.26 539.98"/>
  <polygon id="Треугольник-36" data-name="Треугольник" class="s4-b-m-cls-3" points="720.42 405.08 720.42 134.81 360.22 269.94 720.42 405.08"/>
  <polygon id="Треугольник-37" data-name="Треугольник" class="s4-b-m-cls-3" points="720.42 134.81 720.42 405.08 1080.62 269.94 720.42 134.81"/>
  <polygon id="Треугольник-38" data-name="Треугольник" class="s4-b-m-cls-3" points="720.34 946 720.34 675.73 360.14 810.86 720.34 946"/>
  <polygon id="Треугольник-39" data-name="Треугольник" class="s4-b-m-cls-3" points="720.34 675.73 720.34 946 1080.54 810.86 720.34 675.73"/>
  <polygon id="Треугольник-40" data-name="Треугольник" class="s4-b-m-cls-3" points="360.15 1621.37 360.15 1351.1 -0.05 1486.23 360.15 1621.37"/>
  <polygon id="Треугольник-41" data-name="Треугольник" class="s4-b-m-cls-3" points="360.15 1351.1 360.15 1621.37 720.35 1486.23 360.15 1351.1"/>
  <g id="portfolio-cases">
    <g id="amtel.club" data-open-case-modal="amtel.club">
      <g class="s4-b-m-cls-5">
        <g id="amtel_back">
          <rect class="s4-b-m-cls-6" x="357.52" y="397.57" width="369.38" height="279.99"/>
          <polygon class="s4-b-m-cls-7" points="598.87 540.48 594.53 540.48 594.53 516.55 582.59 516.55 582.59 512.63 610.92 512.63 610.92 516.55 598.87 516.55 598.87 540.48"/>
          <polygon class="s4-b-m-cls-7" points="645.22 512.63 645.22 516.55 625.03 516.55 625.03 524.18 640.87 524.18 640.87 527.76 625.03 527.76 625.03 536.66 645.98 536.66 645.98 540.48 620.68 540.48 620.68 512.63 645.22 512.63"/>
          <polygon class="s4-b-m-cls-7" points="663.56 512.63 663.56 536.66 681.58 536.66 681.58 540.48 659.22 540.48 659.22 512.63 663.56 512.63"/>
          <polygon class="s4-b-m-cls-7" points="569.56 512.63 556.86 530.77 544.27 512.63 540.69 512.63 540.69 540.48 544.38 540.48 544.38 519.33 556.86 537.24 569.45 519.33 569.45 540.48 573.14 540.48 573.14 512.63 569.56 512.63"/>
          <polygon class="s4-b-m-cls-8" points="503.89 538.05 528.42 533.77 515.83 531 506.71 532.62 503.89 538.05"/>
          <polygon class="s4-b-m-cls-9" points="528.42 533.77 501.07 527.76 503.35 523.26 525.49 528.11 528.42 533.77"/>
          <polygon class="s4-b-m-cls-7" points="522.56 526.03 515.72 512.74 511.06 512.74 506.17 522.45 509.86 523.26 513.45 516.32 517.79 524.99 522.56 526.03"/>
          <polygon class="s4-b-m-cls-7" points="527.34 535.39 523.43 536.09 525.82 540.71 530.05 540.71 527.34 535.39"/>
          <polygon class="s4-b-m-cls-7" points="502.48 529.5 496.73 540.71 500.96 540.71 506.28 530.31 502.48 529.5"/>
          <path class="s4-b-m-cls-7" d="M495.54,547.53H493.8l-5.21,10.05h1.52l1.3-2.43h6.4l1.19,2.43h1.74Zm-3.47,6.24,2.5-5.09,2.61,5.09Z"/>
          <path class="s4-b-m-cls-7" d="M516.38,552.84a.64.64,0,1,1,0-.92,1.43,1.43,0,0,0,.43-1.27v-1.16a1.86,1.86,0,0,0-.54-1.62,2.15,2.15,0,0,0-1.41-.35h-7.6v10.05h7.16a3.39,3.39,0,0,0,2-.46,2.15,2.15,0,0,0,.54-1.5v-1.27A1.72,1.72,0,0,0,516.38,552.84Zm-7.6-3.93h5.54a1.74,1.74,0,0,1,.76.12,1,1,0,0,1,.22.69v1c0,.35,0,.58-.33.81a1.3,1.3,0,0,1-.65.12h-5.54ZM515.4,555a1.63,1.63,0,0,1-.22.92,1.12,1.12,0,0,1-.87.23h-5.54V553h5.54a1.12,1.12,0,0,1,.76.23,1.68,1.68,0,0,1,.33,1Z"/>
          <polygon class="s4-b-m-cls-7" points="527.01 557.58 527.01 548.91 522.67 548.91 522.67 547.53 532.98 547.53 532.98 548.91 528.64 548.91 528.64 557.58 527.01 557.58"/>
          <path class="s4-b-m-cls-7" d="M549,548a2.49,2.49,0,0,0-1.74-.46h-6.62A2.36,2.36,0,0,0,539,548c-.54.46-.54,1.5-.54,2v5.32a2.6,2.6,0,0,0,.54,1.85,2.1,2.1,0,0,0,1.63.46h6.73a2.36,2.36,0,0,0,1.74-.46,2.92,2.92,0,0,0,.43-1.85V550A3.09,3.09,0,0,0,549,548Zm-1.19,8.21H540v-7.28h7.82Z"/>
          <path class="s4-b-m-cls-7" d="M559.14,557.58c-1.74,0-2-.58-2-2v-.81h1.52v1.39h5.75a1.3,1.3,0,0,0,.65-.12,1,1,0,0,0,.22-.69v-1.5c0-.23,0-.58-.22-.69s-.43-.23-.65-.23H561v-1.27h3.36a.88.88,0,0,0,.65-.23,1.46,1.46,0,0,0,.22-.92v-.46c0-.35,0-.81-.22-.92s-.22-.23-.65-.23h-5.64v1.27H557.3v-.69c0-1.39.33-2,2.06-2h5.43a2.31,2.31,0,0,1,1.52.35,2.45,2.45,0,0,1,.43,1.62v.92a1.9,1.9,0,0,1-.43,1.5,2,2,0,0,1-1,.46,2.46,2.46,0,0,1,1.09.35,2.3,2.3,0,0,1,.43,1.62v1.16a2.3,2.3,0,0,1-.43,1.62,2.36,2.36,0,0,1-1.63.46Z"/>
          <path class="s4-b-m-cls-7" d="M579.87,547.53h-1.74l-5.21,10.05h1.63l1.19-2.43h6.4l1.19,2.43h1.74Zm-3.47,6.24,2.61-5.09,2.5,5.09Z"/>
          <polygon class="s4-b-m-cls-7" points="600.5 557.58 600.5 548.91 593.12 548.91 593.12 557.58 591.6 557.58 591.6 547.53 602.12 547.53 602.12 557.58 600.5 557.58"/>
          <path class="s4-b-m-cls-7" d="M618.19,557.58v-3.81H612c-.76,0-2.06-.12-2.06-2v-4.28h1.63v3.81a1.15,1.15,0,0,0,.22.81,1.12,1.12,0,0,0,.76.23h5.64v-4.85h1.63v10.05Z"/>
          <path class="s4-b-m-cls-7" d="M633.06,547.53h-1.63l-5.21,10.05h1.52l1.3-2.43h6.4l1.19,2.43h1.74Zm-3.36,6.24,2.5-5.09,2.61,5.09Z"/>
          <path class="s4-b-m-cls-7" d="M646.52,548.91v7.28h6.62V554h1.63v1.27a3.43,3.43,0,0,1-.43,1.85,2.36,2.36,0,0,1-1.74.46h-5.43a2.36,2.36,0,0,1-1.74-.46,2.92,2.92,0,0,1-.43-1.85V550a3.09,3.09,0,0,1,.43-2,2.49,2.49,0,0,1,1.74-.46h5.43a2.36,2.36,0,0,1,1.74.46,3.6,3.6,0,0,1,.43,2v.92h-1.63v-2Z"/>
          <polygon class="s4-b-m-cls-7" points="663.88 557.58 663.88 548.91 659.54 548.91 659.54 547.53 669.86 547.53 669.86 548.91 665.4 548.91 665.4 557.58 663.88 557.58"/>
          <path class="s4-b-m-cls-7" d="M685.27,557.58V551.8c0-.46,0-.23.11-2.08a7.42,7.42,0,0,1-.76.92l-7.6,6.93h-1V547.53h1.63v5.55c0,.46-.11,1.5-.11,2.43.33-.58.87-1,1-1.27l7.38-6.7h1v10.05Z"/>
        </g>
        <g class="overlay" id="overlay">
          <polygon id="overlay-back" class="s4-b-m-cls-10" points="720.28 674.59 720.28 404.81 360.28 539.7 720.28 674.59"/>
          <text class="s4-b-m-cls-11" transform="translate(537.72 545.78) scale(0.94 1)">Amtel.club</text>
        </g>
      </g>
      <polygon id="Треугольник-42" data-name="Треугольник" class="s4-b-m-cls-1" points="720.28 674.59 720.28 404.81 360.28 539.7 720.28 674.59"/>
    </g>
    <g id="ea_messenger" data-open-case-modal="ea_messenger">
      <g class="s4-b-m-cls-12">
        <g id="ea_messenger_background">
          <rect class="s4-b-m-cls-7" x="0.8" y="267.8" width="722.81" height="272.01"/>
          <g id="Слой_1">
            <g id="_479229256" data-name=" 479229256">
              <path class="s4-b-m-cls-13" d="M220.94,388.79c-1-1.09-6.88-3.43-8.34-3.89-5,11.06-22.38,9.19-23.7-4.52-1.46-9.66,7.31-17.45,15.95-14.49a10.52,10.52,0,0,1,6.44,4.36l-15.95,6.23,2.63,7.79,24.72-9.19c-.44-10.28-10.53-19.94-21.51-19.94-24.72,0-30.14,36.92-6.88,45.33a19.49,19.49,0,0,0,16.53-1.09C214.51,397.51,219.48,392.68,220.94,388.79Zm84.12-8.41c-1.9-18.38,22.82-20.87,25-3.89,1,8.41-4.54,14.64-11,15.58C311.79,393.15,305.94,387.23,305.06,380.38Zm10.39-24.77C304,357,294.53,367.29,295.85,381c1.32,12.15,11.41,22.27,24.28,20.4,11-.93,20.48-12.15,19.16-25.39C338,363.87,327.88,354.21,315.45,355.61Zm0,71.5c7.31-1.87,13.31,3.89,14.63,10.28a13.87,13.87,0,0,1-9.95,16c-16.09,3.43-21.94-22.9-4.68-26.32Zm-19.6,15.11c.88,12.15,11,22.43,23.85,21,11-1.09,20.48-11.68,19.6-24.92-.88-12.15-11-22.27-23.85-21.34-11.41.93-20.48,12.15-19.6,25.23Zm-88.65,20.56V452.49c-4.1,1.4-6,2.49-10.53.47-10.09-4.36-11-20.4,0-25.23,7.31-3.43,14.19,1.87,16.38,7.17,1.9,5,1,20.09,1,26.79h9.07V440.81c0-7.32-1.76-11.21-5-15.58-5.56-7.32-18.29-11.21-28.38-4.36-19.16,12.62-9.66,47.66,17.41,41.9Zm21.51-44.39c-1,4.83-.44,26.79.44,31.15,4.1,18.07,29.26,19,34.23,0,.88-4.36,1.46-26.32.88-31.15h-9.51c-1.9,14.64,4.1,35-8.19,35-3.22,0-6-1.87-6.88-3.89-3.22-5.3-1-21.34-1.9-31.15Zm35.55-61.84h-9.51v22c0,3.43-.44,6.85-1.9,9.19a7.49,7.49,0,0,1-13.17,0c-1.46-2.34-1.9-5.76-1.9-9.19,0-4.83.88-18.07,0-22H228.7c-1,2.49-.44,27.26.44,30.69,4.1,19,29.7,19,34.23.47,1.46-5.76.88-23.83.88-31.15ZM292.63,453c-2.78,0-5.41,0-7.75-1.4-6-3.89-5-15.58-4.54-23.36h11.85v-9.81H280.34V406.23h-9.66c0,6.85-.44,36,0,40.34,1.46,10.75,10.53,18.07,22.38,16.2l-.44-9.81Zm-21.94-52.49,9.66.47c0-9.81-1.9-27.73,3.22-33.18,3.22-3,5-1.4,9.51-2.34v-9.81c-11-1.4-18.73,4.36-20.92,11.68-2.34,6.39-1.46,25.39-1.46,33.18Z"/>
              <rect class="s4-b-m-cls-14" x="357.58" y="355.14" width="5.03" height="106.92"/>
              <path class="s4-b-m-cls-13" d="M378.94,381.78c0,7.17,4.83,12.31,12.14,12.31s12-5.14,12-12.31c0-7-4.68-12.31-12-12.31S378.94,374.77,378.94,381.78Zm6.14,0c0-4,2.63-6.7,6-6.7s6,2.8,6,6.7c0,4-2.49,6.85-6,6.85S385.08,385.67,385.08,381.78Z"/>
              <path class="s4-b-m-cls-13" d="M414.64,393.62h5.71v-16a6.61,6.61,0,0,1,4.83-2.34c3.07,0,5,1.87,5,5.61v12.77h5.56V379.75c0-7.32-3.66-10.12-9.07-10.12a8.41,8.41,0,0,0-6.29,2.8V370.1h-5.71Z"/>
              <path class="s4-b-m-cls-13" d="M448,387.07c0,4.83,1.9,7,5.27,7a8.93,8.93,0,0,0,5.85-2l-1.17-4.52a4.43,4.43,0,0,1-2.34.93c-1.32,0-1.9-1.09-1.9-3.89V357H448Z"/>
              <path class="s4-b-m-cls-13" d="M469.93,393.62h5.56V370.1h-5.56Zm-.59-32.09c0,2.49,1.61,3.89,3.51,3.89,1.61,0,3.22-1.4,3.22-3.89a3.35,3.35,0,0,0-3.22-3.43A3.41,3.41,0,0,0,469.35,361.53Z"/>
              <path class="s4-b-m-cls-13" d="M488.66,393.62h5.71v-16a6.61,6.61,0,0,1,4.83-2.34c3.07,0,5,1.87,5,5.61v12.77h5.56V379.75c0-7.32-3.66-10.12-9.07-10.12a8.41,8.41,0,0,0-6.29,2.8V370.1h-5.71Z"/>
              <path class="s4-b-m-cls-13" d="M539.42,386.92a9.13,9.13,0,0,1-6.29,2.18,6.22,6.22,0,0,1-6.58-5.45H542.5a9.64,9.64,0,0,0,.44-3.27,10.47,10.47,0,0,0-10.53-10.9c-7.31,0-11.7,5.45-11.7,12.31,0,7.48,4.83,12.31,11.85,12.31a13.08,13.08,0,0,0,8.49-2.8Zm-7.31-12.46a4.84,4.84,0,0,1,5.12,5.14H526.4C527,376.48,528.74,374.46,532.11,374.46Z"/>
              <path class="s4-b-m-cls-13" d="M378.94,435.83c0,7,4.83,12.31,12.14,12.31s12-5.3,12-12.31-4.68-12.31-12-12.31S378.94,428.82,378.94,435.83Zm6.14,0c0-4,2.63-6.7,6-6.7s6,2.8,6,6.7c0,4-2.49,6.7-6,6.7S385.08,439.72,385.08,435.83Z"/>
              <path class="s4-b-m-cls-13" d="M414.93,447.67h5.71V429.75h5.85v-5.61h-5.85v-3.43c0-3.27,1.32-4.67,3.22-4.67a4.65,4.65,0,0,1,3.22,1.25l1.9-4.67a8.73,8.73,0,0,0-6.14-2.18c-5,0-7.9,3.27-7.9,9.81Z"/>
              <path class="s4-b-m-cls-13" d="M437.75,447.67h5.71V429.75h6v-5.61h-6v-3.43c0-3.27,1.32-4.67,3.22-4.67a4.4,4.4,0,0,1,3.22,1.25l1.9-4.67a8.73,8.73,0,0,0-6.14-2.18c-5,0-7.9,3.27-7.9,9.81Z"/>
              <path class="s4-b-m-cls-13" d="M477.25,441a10,10,0,0,1-6.29,2.18,6.22,6.22,0,0,1-6.58-5.45h15.95a10.28,10.28,0,0,0,.44-3.27,10.47,10.47,0,0,0-10.53-10.9c-7.31,0-11.7,5.45-11.7,12.31,0,7.48,4.83,12.31,11.85,12.31a13.08,13.08,0,0,0,8.49-2.8Zm-7.31-12.46a4.84,4.84,0,0,1,5.12,5.14H464.23C464.81,430.53,466.57,428.51,469.93,428.51Z"/>
              <path class="s4-b-m-cls-13" d="M491.88,447.67h5.71V431.78a3.85,3.85,0,0,1,3.66-2.49,4.62,4.62,0,0,1,2.78.93l2-5.61a4.68,4.68,0,0,0-3.36-.93,5.72,5.72,0,0,0-5.12,2.65v-2.18h-5.71Z"/>
            </g>
          </g>
        </g>
        <g class="overlay" id="overlay-2" data-name="overlay">
          <polygon id="overlay-back-2" data-name="overlay-back" class="s4-b-m-cls-10" points="360.33 270.54 0.33 405.43 360.33 540.32 720.33 405.43 360.33 270.54"/>
          <text class="s4-b-m-cls-15" transform="translate(204 421.47) scale(0.94 1)">Мессенджер Euroauto</text>
        </g>
      </g>
      <polygon id="Ромб-5" data-name="Ромб" class="s4-b-m-cls-1" points="360.33 270.54 0.33 405.43 360.33 540.32 720.33 405.43 360.33 270.54"/>
    </g>
    <g id="ea" data-open-case-modal="ea">
      <g class="s4-b-m-cls-16">
        <g id="ea_back">
          <rect class="s4-b-m-cls-7" x="-2.48" y="399.73" width="368.13" height="277.5"/>
          <g id="Слой_1-2" data-name="Слой_1">
            <path class="s4-b-m-cls-17" d="M73.4,523.47c-.87-.84-5.88-3-7.35-3.38-4.35,9.66-19.31,8-20.83-4-1.06-8.44,6.41-15.23,14.32-12.74,2.28.72,4.72,2.52,5.4,4.09l-13.83,5.5,2.3,6.79L75,511.49c-.49-9-9.2-17.26-18.75-17.27-21.59,0-26.54,32.4-6,39.69a18.2,18.2,0,0,0,14.51-1.1c3.19-1.64,7.46-5.74,8.64-9.34Zm73.8-7.42c-1.71-15.82,20.13-18,22-3.1.88,7-4,12.66-9.6,13.38-6.55.84-11.77-4.28-12.42-10.27Zm9-21.69c-9.91,1.21-18.34,10.39-17,22.51,1.11,10.42,10,19.24,21.25,17.91,9.67-1.14,18.15-10.67,16.75-22.57-1.23-10.42-9.89-19.21-21-17.86Zm0,62.72c6.49-1.4,11.77,3.57,12.86,9.1a11.9,11.9,0,0,1-8.67,14.07c-14,3.07-19.18-19.93-4.19-23.18Zm-17.08,13.36c.88,10.62,9.63,19.41,20.76,18.47,9.83-.83,18.26-10.19,17.36-21.86-.84-10.86-9.61-19.7-20.85-18.66-9.88.91-18.24,10.33-17.27,22h0ZM61.51,588.36l.07-9.06c-3.87,1.18-5.34,2.06-9.56.32-8.58-3.54-9.46-17.52,0-21.79,6.62-3,12.73,1.45,14.57,6.3,1.61,4.27.83,17.54.88,23.17l8,.16c.08-6.09,0-12.23,0-18.27A20.57,20.57,0,0,0,71,555.71c-4.7-6.61-15.91-10.19-24.91-4.17-16.81,11.25-8.46,41.84,15.43,36.82h0ZM80.09,549.5c-.55,4.31-.29,23.46.6,27.38,3.54,15.72,25.78,16.74,30.07-.06.92-3.62,1-23,.58-27.32H103c-1.48,12.64,3.83,30.72-7.29,30.81a7.06,7.06,0,0,1-6-3.49c-2.53-4.71-.7-18.79-1.39-27.32H80.09Zm31.32-54.19-8.46-.1c0,6.46,0,12.88,0,19.3,0,2.91-.12,6-1.34,8.1a6.83,6.83,0,0,1-11.78.05c-1.37-2.18-1.42-5.2-1.41-8.15,0-4.18.51-16-.12-19.25l-8.1,0c-.74,2.38-.22,24.15.41,27.07,3.6,16.51,25.93,16.68,30.11.44,1.37-5.32.68-20.91.68-27.4Zm25,84.64c-2.5-.18-5.05,0-7-1.24-5.15-3.45-4.33-13.77-4.05-20.62l10.63-.08-.07-8.49-10.59-.09V538.8l-8.44.1c0,5.84-.31,31.72.17,35.32,1.25,9.51,9,15.79,19.44,14.3l-.12-8.57h0Zm-19.49-46,8.45.08c0-8.34-1.69-24.21,3.07-28.83,2.75-2.67,4.45-1.4,8.1-2.15v-8.46a16.25,16.25,0,0,0-18.46,10.39c-1.95,5.34-1.14,22-1.14,29h0Z"/>
          </g>
        </g>
        <g class="overlay" id="overlay-3" data-name="overlay">
          <polygon id="overlay-back-3" data-name="overlay-back" class="s4-b-m-cls-10" points="0.51 405.18 0.51 674.96 360.51 540.07 0.51 405.18"/>
          <text class="s4-b-m-cls-11" transform="translate(72.42 549.47) scale(0.94 1)">Euroauto.ru</text>
        </g>
      </g>
      <polygon id="Треугольник-43" data-name="Треугольник" class="s4-b-m-cls-1" points="0.51 405.18 0.51 674.96 360.51 540.07 0.51 405.18"/>
    </g>
    <g id="wolf" data-open-case-modal="wolf">
      <g class="s4-b-m-cls-18">
        <g id="wolf_back">
          <rect class="s4-b-m-cls-7" x="0.8" y="537.31" width="722.81" height="272.01"/>
          <g id="Слой_1-3" data-name="Слой_1">
            <g id="_554465816" data-name=" 554465816">
              <path class="s4-b-m-cls-19" d="M223.45,705.28c-3.52,0-9.57-1.67-11.19-12.61l-.05-.4c-1.08-7.54-2.27-15.32-5.73-21a17.46,17.46,0,0,0-12.28-8.18l-.76-.17a.56.56,0,0,1-.27-.06l-.32-.06h-.32l-.11-.06h-.05a1.92,1.92,0,0,1-1.68-1.84c0-.06-.05-.17-.05-.23a2.16,2.16,0,0,1,1.35-2c.05,0,.05,0,.11-.06a3.29,3.29,0,0,0,.38-.12l.76-.23c.22-.12.49-.17.76-.29a38.7,38.7,0,0,1,11.25-1.84c15.79,0,23,12.09,25.85,19.35,1,2.48,2,2.48,2.38,2.48a4.23,4.23,0,0,0,1.89-.63c13.3-7.43,29.8-16.53,33-17.62a10.24,10.24,0,0,1,2.87-.46c5,0,7.84,4.15,8.6,5.47.92,1.5,2.43,5.18,4.71,11.11l.16.46c1.19,3.05,2.54,3.45,3.57,3.45a8.31,8.31,0,0,0,3.35-1c1.14-.58,3.73-2.3,4.65-2.94,10.11-6.85,19.47-12,27.74-15.2,7.41-2.88,14.12-4.38,20-4.38a29,29,0,0,1,5.52.52l.87.17a1.5,1.5,0,0,1,.49.12,1.82,1.82,0,0,1,.54.12l.16.06a2.08,2.08,0,0,1,1.51,2.07,2,2,0,0,1-1.62,2,.16.16,0,0,1-.11.06c-.16.06-.32.06-.49.12a.46.46,0,0,1-.27.06l-.05.06a4.8,4.8,0,0,0-.7.23c-7.19,2.59-19.63,12.61-30.61,21.48-6.38,5.12-12.33,10-16.82,13-6.22,4.15-14.22,8.93-20.88,8.93-4.22,0-9.79-2-12.49-11.29l-4-11.57c-7.52,4.72-31,19.29-34.5,21.08A16.45,16.45,0,0,1,223.45,705.28Z"/>
              <path class="s4-b-m-cls-19" d="M347.78,704.88c-8,0-14.06-2.65-17.2-7.43,0,0,0-.06-.05-.06a12.61,12.61,0,0,1-1.51-7.83h0c.38-2.59,1.78-7.08,6.71-8.87a8.17,8.17,0,0,1,2.54-.46,7.1,7.1,0,0,1,5.25,2.71,8.42,8.42,0,0,0,.81.75,16.68,16.68,0,0,0,8.54,3.69h1.08c4.11,0,11.63-1.67,15.31-6.28,2.38-2.88,3.35-5.64,2.7-7.37s-2.87-2.65-6.44-3a14.49,14.49,0,0,0-1.68-.12A39.08,39.08,0,0,0,349.4,674a5.26,5.26,0,0,1-.49.23,61.94,61.94,0,0,0-10.65,5.07l-.43.29-.43.29a2.08,2.08,0,0,1-1.19.35,2.23,2.23,0,0,1-1.78-.92,2.52,2.52,0,0,1,.22-3.28l.76-.75c9.09-8.81,16.17-12.55,24-15.49a44.29,44.29,0,0,1,15.36-3,30.65,30.65,0,0,1,4.06.29c5.25.69,12,4.26,14.17,10.31,2,5.59.16,11.92-5.46,18.94C378.83,697,362.11,704.88,347.78,704.88Z"/>
              <path class="s4-b-m-cls-19" d="M384,705.17a26.05,26.05,0,0,1-7.3-1l-.11-.06c-.11,0-.16-.06-.27-.06a3.88,3.88,0,0,0-.87-.29l-.11-.06c-.05,0-.11-.06-.16-.06a2.08,2.08,0,0,1-1.35-2,2.11,2.11,0,0,1,1.3-2,.16.16,0,0,1,.11-.06l.16-.06.76-.35a.19.19,0,0,0,.16-.06l.11-.06c14.39-6.33,27.2-26.83,37.8-46.07a.05.05,0,0,1,.05-.06h0c9.3-16.87,17.09-28.45,24.5-36.28,8.49-9,17.74-13.7,26.82-13.7a26.41,26.41,0,0,1,7.3,1.09l.11.06a.31.31,0,0,1,.22.06,5.64,5.64,0,0,1,.92.29l.05.06c.11,0,.16,0,.22.06a2.06,2.06,0,0,1,1.3,2,2,2,0,0,1-1.3,2l-.05.06c-.11,0-.16.06-.22.06-.22.12-.49.17-.7.29a237485355479.35,237485355479.35,0,0,1-.32.12c-14.39,6.39-27.15,26.89-37.8,46.12v.06c-9.3,16.87-17.09,28.39-24.5,36.28C402.3,700.45,393,705.17,384,705.17Z"/>
              <path class="s4-b-m-cls-19" d="M377.74,761.94a24.94,24.94,0,0,1-8.22-1.38h-.11a.19.19,0,0,0-.16-.06,3,3,0,0,0-.76-.29l-.16-.06a.4.4,0,0,0-.22-.12,2,2,0,0,1-1.24-1.9,2,2,0,0,1,1.14-1.9l.32-.17c.22-.12.43-.23.7-.35l.16-.12c20.66-10.77,39-43.88,56.84-75.84,13.79-24.76,26.77-48.2,40.89-62.13,8.33-8.18,17.31-12.5,26-12.5a25.47,25.47,0,0,1,8.54,1.5l.11.06c.05,0,.11.06.16.06.32.12.59.23.87.35l.11.06c.05,0,.16.06.22.06a2.14,2.14,0,0,1-.05,3.86.16.16,0,0,1-.11.06.31.31,0,0,1-.22.06l-.7.35-.27.06c-14.55,6.51-28.28,27.41-39.8,47-.76,1.27-2.65,4.55-5.41,9.44h6.76a2.36,2.36,0,0,1,2.27,2.42,13.57,13.57,0,0,1-3.73,9.62,11.92,11.92,0,0,1-9,3.92h-5.3c-.92,1.67-1.51,2.76-1.62,2.94-16,28.62-30.45,53.38-46.94,66.85h-.05C391.86,759.12,384.61,761.94,377.74,761.94Z"/>
              <path class="s4-b-m-cls-19" d="M440.48,737.41c-2.92,0-5.25-2-5.25-4.49s2.33-4.49,5.25-4.49,5.25,2,5.25,4.49S443.45,737.41,440.48,737.41Z"/>
              <path class="s4-b-m-cls-19" d="M467.2,743.81a4.2,4.2,0,0,1-4.06-2.13c-1-2-.54-4.72,1.51-8.52a2.94,2.94,0,0,0,.22-.52,3.76,3.76,0,0,0-.22-.52c-2.06-3.8-2.54-6.62-1.51-8.52a4.2,4.2,0,0,1,4.06-2.13c4.43,0,12.06,4.26,14.06,8.81a6.81,6.81,0,0,1,.54,2.25v.23c-.11,3.4-3.46,6.22-5.52,7.6C473.2,742.48,469.74,743.81,467.2,743.81Z"/>
              <path class="s4-b-m-cls-19" d="M450.59,741.62a3.72,3.72,0,0,1-3.46-1.79c-.87-1.61-.49-3.92,1.19-7,.05-.06.05-.12.11-.17s-.05-.17-.11-.23c-1.68-3.05-2.06-5.3-1.19-7a3.72,3.72,0,0,1,3.46-1.79c3.68,0,9,3.17,10.87,6.45a5.14,5.14,0,0,1,.7,2.36v.29C462,737.18,454.7,741.62,450.59,741.62Z"/>
            </g>
          </g>
        </g>
        <g class="overlay" id="overlay-4" data-name="overlay">
          <polygon id="overlay-back-4" data-name="overlay-back" class="s4-b-m-cls-10" points="360.33 540.05 0.33 674.94 360.33 809.83 720.33 674.94 360.33 540.05"/>
          <text class="s4-b-m-cls-15" transform="translate(323.61 690.98) scale(0.94 1)"><tspan class="s4-b-m-cls-20">W</tspan><tspan x="32.52" y="0">olf</tspan></text>
        </g>
      </g>
      <polygon id="Ромб-6" data-name="Ромб" class="s4-b-m-cls-1" points="360.33 540.05 0.33 674.94 360.33 809.83 720.33 674.94 360.33 540.05"/>
    </g>
    <g id="mksoloview" data-open-case-modal="mksoloview">
      <g class="s4-b-m-cls-21">
        <image width="772" height="273" transform="translate(357.81 943.69) scale(0.94 1)" xlink:href="images/section-4-back-pics/mksoloviev.jpg"/>
        <g class="overlay" id="overlay-5" data-name="overlay">
          <polygon id="overlay-back-5" data-name="overlay-back" class="s4-b-m-cls-10" points="720.5 946.42 359.69 1081.53 720.5 1216.65 1081.3 1081.53 720.5 946.42"/>
          <text class="s4-b-m-cls-22" transform="translate(670.91 1068.26) scale(0.94 1)"><tspan class="s4-b-m-cls-23">Т</tspan><tspan x="11.37" y="0">ренинг</tspan><tspan x="-114.28" y="43.19">Владимира Соловьева</tspan></text>
        </g>
      </g>
      <polygon id="Ромб-7" data-name="Ромб" class="s4-b-m-cls-1" points="720.5 946.42 359.69 1081.53 720.5 1216.65 1081.3 1081.53 720.5 946.42"/>
    </g>
    <g id="me" data-open-case-modal="me">
      <g class="s4-b-m-cls-24">
        <image width="390" height="280" transform="translate(329.59 1074.27) scale(1.01 1)" xlink:href="images/section-4-back-pics/me_v2.0.jpg"/>
        <g class="overlay" id="overlay-6" data-name="overlay">
          <polygon id="overlay-back-6" data-name="overlay-back" class="s4-b-m-cls-10" points="359.32 1080.95 359.32 1351.18 720.12 1216.06 359.32 1080.95"/>
          <text class="s4-b-m-cls-25" transform="translate(391.37 1225.48) scale(0.94 1)">Mar<tspan class="s4-b-m-cls-26" x="51.4" y="0">k</tspan><tspan x="60.75" y="0">eting Engineers</tspan></text>
        </g>
      </g>
      <polygon id="Треугольник-44" data-name="Треугольник" class="s4-b-m-cls-1" points="359.32 1080.95 359.32 1351.18 720.12 1216.06 359.32 1080.95"/>
    </g>
    <g id="atlant" data-open-case-modal="atlant">
      <g class="s4-b-m-cls-27">
        <image width="390" height="280" transform="translate(720.28 1078.2) scale(0.94 1)" xlink:href="images/section-4-back-pics/atlant.JPG"/>
        <g class="overlay" id="overlay-7" data-name="overlay">
          <polygon id="overlay-back-7" data-name="overlay-back" class="s4-b-m-cls-10" points="1082 1351.15 1082 1080.92 721.2 1216.03 1082 1351.15"/>
          <text class="s4-b-m-cls-25" transform="translate(893.52 1225.3) scale(0.94 1)">At<tspan class="s4-b-m-cls-28" x="29.4" y="0">l</tspan><tspan x="35.3" y="0">ant Group</tspan></text>
        </g>
      </g>
      <polygon id="Треугольник-45" data-name="Треугольник" class="s4-b-m-cls-1" points="1082 1351.15 1082 1080.92 721.2 1216.03 1082 1351.15"/>
    </g>
    <g id="_15_puzzle" data-name="15_puzzle" data-open-case-modal="15_puzzle">
      <g class="s4-b-m-cls-29">
        <rect class="s4-b-m-cls-7" x="712.8" y="1206.14" width="376.3" height="281.96"/>
        <image id="_15_puzzle_back" data-name="15_puzzle_back" width="256" height="256" transform="translate(768.7 1296.13) scale(0.42 0.45)" xlink:href="images/section-4-back-pics/15_puzzle.png"/>
        <g class="overlay" id="overlay-8" data-name="overlay">
          <polygon id="overlay-back-8" data-name="overlay-back" class="s4-b-m-cls-10" points="720.76 1215.52 720.76 1485.75 1081.56 1350.63 720.76 1215.52"/>
          <text class="s4-b-m-cls-25" transform="translate(752.46 1356.86) scale(0.94 1)">Игра «Пятнашки»</text>
        </g>
      </g>
      <polygon id="Треугольник-46" data-name="Треугольник" class="s4-b-m-cls-1" points="720.76 1215.52 720.76 1485.75 1081.56 1350.63 720.76 1215.52"/>
    </g>
    <g id="passgen" data-open-case-modal="passgen">
      <g class="s4-b-m-cls-30">
        <rect class="s4-b-m-cls-7" x="351.05" y="1211.14" width="376.3" height="281.96"/>
        <image id="passgen_back" width="512" height="512" transform="translate(568.1 1297.63) scale(0.2 0.22)" xlink:href="images/section-4-back-pics/passgen.png"/>
        <g class="overlay" id="overlay-9" data-name="overlay">
          <polygon id="overlay-back-9" data-name="overlay-back" class="s4-b-m-cls-10" points="720.05 1485.68 720.05 1215.45 359.25 1350.56 720.05 1485.68"/>
          <text class="s4-b-m-cls-25" transform="translate(468.89 1356.66) scale(0.94 1)"><tspan class="s4-b-m-cls-31">Г</tspan><tspan x="6.55" y="0">енератор паролей</tspan></text>
        </g>
      </g>
      <polygon id="Треугольник-47" data-name="Треугольник" class="s4-b-m-cls-1" points="720.05 1485.68 720.05 1215.45 359.25 1350.56 720.05 1485.68"/>
    </g>
    <g id="portfolio" data-open-case-modal="portfolio">
      <g class="s4-b-m-cls-32">
        <g id="ik_back">
          <rect id="preloader-back" class="s4-b-m-cls-33" x="-99.79" y="1487.39" width="919.01" height="550.58"/>
          <path class="s4-b-m-cls-34" d="M130.3,1736.05h1.89v45.63H130.3Z"/>
          <path class="s4-b-m-cls-34" d="M159.21,1782.72l-21.31-46.67H140l19.42,42.29,19.31-42.29h1.83Z"/>
          <path class="s4-b-m-cls-34" d="M193.2,1735l21.42,46.73h-2l-8.11-17.4h-22.9l-8,17.4h-1.77Zm-.17,4.2-10.68,23.36h21.48Z"/>
          <path class="s4-b-m-cls-34" d="M252.15,1736.05h1.66v46.3l-31.53-41.29v40.65h-1.66v-46.3l31.53,41.25Z"/>
          <path class="s4-b-m-cls-34" d="M282.38,1736.05h1.83v16.73l18.11-16.73h2.28L285,1754.27l24.62,27.44h-2.51l-22.85-25.4v25.37h-1.89Z"/>
          <path class="s4-b-m-cls-34" d="M317.19,1775.36a24,24,0,0,1-6.49-16.64,23.26,23.26,0,0,1,6.57-16.49,21.29,21.29,0,0,1,31.45-.06l0,0a23.3,23.3,0,0,1,6.51,16.52,24,24,0,0,1-6.46,16.67,20.16,20.16,0,0,1-15.43,7.09h-.86Q323.68,1782.48,317.19,1775.36Zm36.19-16.5a21.82,21.82,0,0,0-6-15.4,19.38,19.38,0,0,0-28.63-.21l-.19.21a22.79,22.79,0,0,0,0,30.8l0,0a19.28,19.28,0,0,0,28.48.33l.31-.33A21.86,21.86,0,0,0,353.38,1758.85Z"/>
          <path class="s4-b-m-cls-34" d="M362.1,1736.05h2.46a13.15,13.15,0,0,1,9.74,4.35,14.24,14.24,0,0,1,4.2,10.22,14,14,0,0,1-4.31,10.2q-4.31,4.32-9.2,4.32h-.4l14.74,16.55h-2.38l-13-14.48v14.48H362.1Zm1.83,27.32h1a10.91,10.91,0,0,0,8.17-3.77,13,13,0,0,0,.25-17.57l-.36-.38a11.25,11.25,0,0,0-8.34-3.83h-.74Z"/>
          <path class="s4-b-m-cls-34" d="M390.15,1775.36a24,24,0,0,1-6.49-16.64,23.26,23.26,0,0,1,6.57-16.49,21.29,21.29,0,0,1,31.45-.06l0,0a23.3,23.3,0,0,1,6.51,16.52,24,24,0,0,1-6.46,16.67,20.17,20.17,0,0,1-15.43,7.09h-.86Q396.63,1782.48,390.15,1775.36Zm36.19-16.5a21.82,21.82,0,0,0-6-15.4,19.38,19.38,0,0,0-28.63-.21l-.19.21a22.79,22.79,0,0,0,0,30.8l0,0a19.28,19.28,0,0,0,28.48.33l.31-.33A21.86,21.86,0,0,0,426.34,1758.85Z"/>
          <path class="s4-b-m-cls-34" d="M437,1736.05v43.87h13.25v1.76H435.07v-45.63Z"/>
          <path class="s4-b-m-cls-34" d="M455.64,1736.05H471v1.76H457.53v24.83h11.25v1.76H457.53v15.51H471v1.76H455.64Z"/>
          <path class="s4-b-m-cls-34" d="M508.26,1736.05h1.66v46.3l-31.53-41.29v40.65h-1.66v-46.3l31.53,41.25Z"/>
          <path class="s4-b-m-cls-34" d="M518.48,1736.05h1.83v16.73l18.11-16.73h2.28l-19.59,18.22,24.62,27.44h-2.51l-22.86-25.4v25.37h-1.89Z"/>
          <path class="s4-b-m-cls-34" d="M553.3,1775.36a24,24,0,0,1-6.49-16.64,23.26,23.26,0,0,1,6.57-16.49,21.29,21.29,0,0,1,31.45-.06l0,0a23.3,23.3,0,0,1,6.51,16.52,24,24,0,0,1-6.46,16.67,20.17,20.17,0,0,1-15.43,7.09h-.86Q559.79,1782.48,553.3,1775.36Zm36.19-16.52a21.82,21.82,0,0,0-6-15.4,19.38,19.38,0,0,0-28.63-.21l-.19.21a22.79,22.79,0,0,0,0,30.8l0,0a19.28,19.28,0,0,0,28.48.33l.31-.33a21.86,21.86,0,0,0,6-15.41Z"/>
        </g>
        <g class="overlay" id="overlay-10" data-name="overlay">
          <polygon id="overlay-back-10" data-name="overlay-back" class="s4-b-m-cls-10" points="360.36 1621.94 0.88 1756.68 360.36 1891.42 719.84 1756.68 360.36 1621.94"/>
          <text class="s4-b-m-cls-35" transform="translate(202.81 1770.87) scale(0.94 1)">Этот сайт-портфолио</text>
        </g>
      </g>
      <polygon id="Ромб-8" data-name="Ромб" class="s4-b-m-cls-1" points="360.36 1621.94 0.88 1756.68 360.36 1891.42 719.84 1756.68 360.36 1621.94"/>
    </g>
  </g>
  <g id="header">
    <polygon id="Треугольник_заголовка" data-name="Треугольник заголовка" class="s4-b-m-cls-10" points="360.2 0 0 0 360.2 135.13 720.4 0 360.2 0"/>
    <text class="s4-b-m-cls-36" transform="translate(188.15 52.62) scale(0.94 1)">Что я сделал?</text>
  </g>
</svg>
