<svg xmlns="http://www.w3.org/2000/svg" xmlns:xlink="http://www.w3.org/1999/xlink" width="1080" height="1920" viewBox="0 0 1080 1920" preserveAspectRatio="none" class="section-4-back-mobile" id="section-4-back-mobile">
  <defs>
    <style>
      .s4-b-m-cls-1, .s4-b-m-cls-25, .s4-b-m-cls-3, .s4-b-m-cls-4 {
        fill: none;
      }

      .s4-b-m-cls-1, .s4-b-m-cls-10, .s4-b-m-cls-3 {
        stroke: #3b2a66;
      }

      .s4-b-m-cls-1, .s4-b-m-cls-10, .s4-b-m-cls-24, .s4-b-m-cls-25, .s4-b-m-cls-3 {
        stroke-miterlimit: 10;
      }

      .s4-b-m-cls-1 {
        stroke-width: 2px;
      }

      .s4-b-m-cls-2, .s4-b-m-cls-24 {
        fill: #171717;
      }

      .s4-b-m-cls-5 {
        clip-path: url(#s4-b-m-clip-path);
      }

      .s4-b-m-cls-6 {
        fill: #353535;
      }

      .s4-b-m-cls-7 {
        fill: #fff;
      }

      .s4-b-m-cls-8 {
        fill: #f0831c;
      }

      .s4-b-m-cls-9 {
        fill: #fcc204;
      }

      .s4-b-m-cls-10 {
        fill: #3b2a66;
      }

      .s4-b-m-cls-11 {
        clip-path: url(#s4-b-m-clip-path-2);
      }

      .s4-b-m-cls-12 {
        fill: #333;
      }

      .s4-b-m-cls-13 {
        fill: #00b2ec;
      }

      .s4-b-m-cls-14 {
        clip-path: url(#s4-b-m-clip-path-3);
      }

      .s4-b-m-cls-15 {
        fill: #434242;
      }

      .s4-b-m-cls-16 {
        clip-path: url(#s4-b-m-clip-path-4);
      }

      .s4-b-m-cls-17 {
        fill: #222;
        stroke: #222;
        stroke-width: 3px;
      }

      .s4-b-m-cls-18 {
        clip-path: url(#s4-b-m-clip-path-5);
      }

      .s4-b-m-cls-19 {
        clip-path: url(#s4-b-m-clip-path-6);
      }

      .s4-b-m-cls-20 {
        clip-path: url(#s4-b-m-clip-path-7);
      }

      .s4-b-m-cls-21 {
        clip-path: url(#s4-b-m-clip-path-8);
      }

      .s4-b-m-cls-22 {
        clip-path: url(#s4-b-m-clip-path-9);
      }

      .s4-b-m-cls-23 {
        clip-path: url(#s4-b-m-clip-path-10);
      }

      .s4-b-m-cls-24 {
        stroke: #000;
      }

      .s4-b-m-cls-25 {
        stroke: #fff;
      }
    </style>
    <clipPath id="s4-b-m-clip-path">
      <polygon id="Треугольник" class="s4-b-m-cls-1" points="720.28 674.59 720.28 404.81 360.28 539.7 720.28 674.59"/>
    </clipPath>
    <clipPath id="s4-b-m-clip-path-2">
      <polygon id="Ромб" class="s4-b-m-cls-1" points="360.33 270.54 0.33 405.43 360.33 540.32 720.33 405.43 360.33 270.54"/>
    </clipPath>
    <clipPath id="s4-b-m-clip-path-3">
      <polygon id="Треугольник-2" data-name="Треугольник" class="s4-b-m-cls-1" points="0.51 405.18 0.51 674.96 360.51 540.07 0.51 405.18"/>
    </clipPath>
    <clipPath id="s4-b-m-clip-path-4">
      <polygon id="Ромб-2" data-name="Ромб" class="s4-b-m-cls-1" points="360.33 540.05 0.33 674.94 360.33 809.83 720.33 674.94 360.33 540.05"/>
    </clipPath>
    <clipPath id="s4-b-m-clip-path-5">
      <polygon id="Ромб-3" data-name="Ромб" class="s4-b-m-cls-1" points="720.5 946.42 359.69 1081.53 720.5 1216.65 1081.3 1081.53 720.5 946.42"/>
    </clipPath>
    <clipPath id="s4-b-m-clip-path-6">
      <polygon id="Треугольник-3" data-name="Треугольник" class="s4-b-m-cls-1" points="359.32 1080.95 359.32 1351.18 720.12 1216.06 359.32 1080.95"/>
    </clipPath>
    <clipPath id="s4-b-m-clip-path-7">
      <polygon id="Треугольник-4" data-name="Треугольник" class="s4-b-m-cls-1" points="1082 1351.15 1082 1080.92 721.2 1216.03 1082 1351.15"/>
    </clipPath>
    <clipPath id="s4-b-m-clip-path-8">
      <polygon id="Треугольник-5" data-name="Треугольник" class="s4-b-m-cls-1" points="720.76 1215.52 720.76 1485.75 1081.56 1350.63 720.76 1215.52"/>
    </clipPath>
    <clipPath id="s4-b-m-clip-path-9">
      <polygon id="Треугольник-6" data-name="Треугольник" class="s4-b-m-cls-1" points="720.05 1485.68 720.05 1215.45 359.25 1350.56 720.05 1485.68"/>
    </clipPath>
    <clipPath id="s4-b-m-clip-path-10">
      <polygon id="Ромб-4" data-name="Ромб" class="s4-b-m-cls-1" points="360.36 1621.94 0.88 1756.68 360.36 1891.42 719.84 1756.68 360.36 1621.94"/>
    </clipPath>
  </defs>
  <title>Фон четвертой секции mobile</title>
  <rect id="Фон" class="s4-b-m-cls-2" width="1080" height="1920"/>
  <polygon id="Треугольник-7" data-name="Треугольник" class="s4-b-m-cls-3" points="1080.6 270.27 1080.6 0 720.4 135.13 1080.6 270.27"/>
  <polygon id="Треугольник-8" data-name="Треугольник" class="s4-b-m-cls-3" points="1080.6 540.54 1080.6 270.27 720.4 405.4 1080.6 540.54"/>
  <polygon id="Треугольник-9" data-name="Треугольник" class="s4-b-m-cls-3" points="0 1216.21 0 1486.48 360.2 1351.35 0 1216.21"/>
  <polygon id="Треугольник-10" data-name="Треугольник" class="s4-b-m-cls-3" points="720.4 1486.48 720.4 1216.21 360.2 1351.35 720.4 1486.48"/>
  <polygon id="Треугольник-11" data-name="Треугольник" class="s4-b-m-cls-3" points="1080.6 810.81 1080.6 540.54 720.4 675.67 1080.6 810.81"/>
  <polygon id="Треугольник-12" data-name="Треугольник" class="s4-b-m-cls-3" points="0 1486.48 0 1756.76 360.2 1621.62 0 1486.48"/>
  <polygon id="Треугольник-13" data-name="Треугольник" class="s4-b-m-cls-3" points="720.4 1756.76 720.4 1486.48 360.2 1621.62 720.4 1756.76"/>
  <polygon id="Треугольник-14" data-name="Треугольник" class="s4-b-m-cls-3" points="360.2 1081.08 360.2 810.81 0 945.95 360.2 1081.08"/>
  <polygon id="Треугольник-15" data-name="Треугольник" class="s4-b-m-cls-3" points="360.2 810.81 360.2 1081.08 720.4 945.95 360.2 810.81"/>
  <polygon id="Треугольник-16" data-name="Треугольник" class="s4-b-m-cls-3" points="720.4 675.67 720.4 405.4 360.2 540.54 720.4 675.67"/>
  <polygon id="Треугольник-17" data-name="Треугольник" class="s4-b-m-cls-3" points="720.4 405.4 720.4 675.67 1080.6 540.54 720.4 405.4"/>
  <polygon id="Треугольник-18" data-name="Треугольник" class="s4-b-m-cls-3" points="360.2 1351.35 360.2 1081.08 0 1216.21 360.2 1351.35"/>
  <polygon id="Треугольник-19" data-name="Треугольник" class="s4-b-m-cls-3" points="360.2 1081.08 360.2 1351.35 720.4 1216.21 360.2 1081.08"/>
  <polygon id="Треугольник-20" data-name="Треугольник" class="s4-b-m-cls-3" points="360.2 1621.62 360.2 1891.89 720.4 1756.76 360.2 1621.62"/>
  <polygon id="Треугольник-21" data-name="Треугольник" class="s4-b-m-cls-3" points="0 135.13 0 405.4 360.2 270.27 0 135.13"/>
  <polygon id="Треугольник-22" data-name="Треугольник" class="s4-b-m-cls-4" points="360.2 1891.89 360.2 1621.62 0 1756.76 360.2 1891.89"/>
  <polygon id="Треугольник-23" data-name="Треугольник" class="s4-b-m-cls-3" points="0 675.67 0 945.95 360.2 810.81 0 675.67"/>
  <g>
    <polygon id="Часть_треугольника" data-name="Часть треугольника" class="s4-b-m-cls-3" points="0 0 360.2 135.13 360.2 0 0 0"/>
    <polygon id="Часть_треугольника-2" data-name="Часть треугольника" class="s4-b-m-cls-3" points="360.2 0 360.2 135.13 720.4 0 360.2 0"/>
  </g>
  <polygon id="Треугольник-24" data-name="Треугольник" class="s4-b-m-cls-3" points="720.4 1216.21 720.4 945.95 360.2 1081.08 720.4 1216.21"/>
  <polygon id="Треугольник-25" data-name="Треугольник" class="s4-b-m-cls-3" points="0 945.95 0 1216.21 360.2 1081.08 0 945.95"/>
  <polygon id="Треугольник-26" data-name="Треугольник" class="s4-b-m-cls-3" points="720.4 945.95 720.4 1216.21 1080.6 1081.08 720.4 945.95"/>
  <polygon id="Треугольник-27" data-name="Треугольник" class="s4-b-m-cls-3" points="1080.6 1351.35 1080.6 1081.08 720.4 1216.21 1080.6 1351.35"/>
  <polygon id="Треугольник-28" data-name="Треугольник" class="s4-b-m-cls-3" points="720.4 1216.21 720.4 1486.48 1080.6 1351.35 720.4 1216.21"/>
  <polygon id="Треугольник-29" data-name="Треугольник" class="s4-b-m-cls-3" points="1080.6 1621.62 1080.6 1351.35 720.4 1486.48 1080.6 1621.62"/>
  <polygon id="Треугольник-30" data-name="Треугольник" class="s4-b-m-cls-3" points="720.4 1486.48 720.4 1756.76 1080.6 1621.62 720.4 1486.48"/>
  <polygon id="Треугольник-31" data-name="Треугольник" class="s4-b-m-cls-3" points="1080.6 1891.89 1080.6 1621.62 720.4 1756.76 1080.6 1891.89"/>
  <polyline class="s4-b-m-cls-3" points="285.27 1920 360.2 1891.89 0 1756.76 0 1920"/>
  <polygon id="Треугольник-32" data-name="Треугольник" class="s4-b-m-cls-3" points="359.59 540.26 359.59 269.99 -0.61 405.12 359.59 540.26"/>
  <polygon id="Треугольник-33" data-name="Треугольник" class="s4-b-m-cls-3" points="359.59 269.99 359.59 540.26 719.79 405.12 359.59 269.99"/>
  <polygon id="Треугольник-34" data-name="Треугольник" class="s4-b-m-cls-3" points="360.26 810.25 360.26 539.98 0.06 675.11 360.26 810.25"/>
  <polygon id="Треугольник-35" data-name="Треугольник" class="s4-b-m-cls-3" points="360.26 539.98 360.26 810.25 720.46 675.11 360.26 539.98"/>
  <polygon id="Треугольник-36" data-name="Треугольник" class="s4-b-m-cls-3" points="720.42 405.08 720.42 134.81 360.22 269.94 720.42 405.08"/>
  <polygon id="Треугольник-37" data-name="Треугольник" class="s4-b-m-cls-3" points="720.42 134.81 720.42 405.08 1080.62 269.94 720.42 134.81"/>
  <polygon id="Треугольник-38" data-name="Треугольник" class="s4-b-m-cls-3" points="720.34 946 720.34 675.73 360.14 810.86 720.34 946"/>
  <polygon id="Треугольник-39" data-name="Треугольник" class="s4-b-m-cls-3" points="720.34 675.73 720.34 946 1080.54 810.86 720.34 675.73"/>
  <polygon id="Треугольник-40" data-name="Треугольник" class="s4-b-m-cls-3" points="360.15 1621.37 360.15 1351.1 -0.05 1486.23 360.15 1621.37"/>
  <polygon id="Треугольник-41" data-name="Треугольник" class="s4-b-m-cls-3" points="360.15 1351.1 360.15 1621.37 720.35 1486.23 360.15 1351.1"/>
  <g id="portfolio-cases">
    <g id="amtel.club" data-open-case-modal="amtel.club">
      <g class="s4-b-m-cls-5">
        <g id="amtel_back">
          <rect class="s4-b-m-cls-6" x="357.52" y="397.57" width="369.38" height="279.99"/>
          <polygon class="s4-b-m-cls-7" points="598.87 540.48 594.53 540.48 594.53 516.55 582.59 516.55 582.59 512.63 610.92 512.63 610.92 516.55 598.87 516.55 598.87 540.48"/>
          <polygon class="s4-b-m-cls-7" points="645.22 512.63 645.22 516.55 625.03 516.55 625.03 524.18 640.87 524.18 640.87 527.76 625.03 527.76 625.03 536.66 645.98 536.66 645.98 540.48 620.68 540.48 620.68 512.63 645.22 512.63"/>
          <polygon class="s4-b-m-cls-7" points="663.56 512.63 663.56 536.66 681.58 536.66 681.58 540.48 659.22 540.48 659.22 512.63 663.56 512.63"/>
          <polygon class="s4-b-m-cls-7" points="569.56 512.63 556.86 530.77 544.27 512.63 540.69 512.63 540.69 540.48 544.38 540.48 544.38 519.33 556.86 537.24 569.45 519.33 569.45 540.48 573.14 540.48 573.14 512.63 569.56 512.63"/>
          <polygon class="s4-b-m-cls-8" points="503.89 538.05 528.42 533.77 515.83 531 506.71 532.62 503.89 538.05"/>
          <polygon class="s4-b-m-cls-9" points="528.42 533.77 501.07 527.76 503.35 523.26 525.49 528.11 528.42 533.77"/>
          <polygon class="s4-b-m-cls-7" points="522.56 526.03 515.72 512.74 511.06 512.74 506.17 522.45 509.86 523.26 513.45 516.32 517.79 524.99 522.56 526.03"/>
          <polygon class="s4-b-m-cls-7" points="527.34 535.39 523.43 536.09 525.82 540.71 530.05 540.71 527.34 535.39"/>
          <polygon class="s4-b-m-cls-7" points="502.48 529.5 496.73 540.71 500.96 540.71 506.28 530.31 502.48 529.5"/>
          <path class="s4-b-m-cls-7" d="M495.54,547.53H493.8l-5.21,10.05h1.52l1.3-2.43h6.4l1.19,2.43h1.74Zm-3.47,6.24,2.5-5.09,2.61,5.09Z"/>
          <path class="s4-b-m-cls-7" d="M516.38,552.84a.64.64,0,1,1,0-.92,1.43,1.43,0,0,0,.43-1.27v-1.16a1.86,1.86,0,0,0-.54-1.62,2.15,2.15,0,0,0-1.41-.35h-7.6v10.05h7.16a3.39,3.39,0,0,0,2-.46,2.15,2.15,0,0,0,.54-1.5v-1.27A1.72,1.72,0,0,0,516.38,552.84Zm-7.6-3.93h5.54a1.74,1.74,0,0,1,.76.12,1,1,0,0,1,.22.69v1c0,.35,0,.58-.33.81a1.3,1.3,0,0,1-.65.12h-5.54ZM515.4,555a1.63,1.63,0,0,1-.22.92,1.12,1.12,0,0,1-.87.23h-5.54V553h5.54a1.12,1.12,0,0,1,.76.23,1.68,1.68,0,0,1,.33,1Z"/>
          <polygon class="s4-b-m-cls-7" points="527.01 557.58 527.01 548.91 522.67 548.91 522.67 547.53 532.98 547.53 532.98 548.91 528.64 548.91 528.64 557.58 527.01 557.58"/>
          <path class="s4-b-m-cls-7" d="M549,548a2.49,2.49,0,0,0-1.74-.46h-6.62A2.36,2.36,0,0,0,539,548c-.54.46-.54,1.5-.54,2v5.32a2.6,2.6,0,0,0,.54,1.85,2.1,2.1,0,0,0,1.63.46h6.73a2.36,2.36,0,0,0,1.74-.46,2.92,2.92,0,0,0,.43-1.85V550A3.09,3.09,0,0,0,549,548Zm-1.19,8.21H540v-7.28h7.82Z"/>
          <path class="s4-b-m-cls-7" d="M559.14,557.58c-1.74,0-2-.58-2-2v-.81h1.52v1.39h5.75a1.3,1.3,0,0,0,.65-.12,1,1,0,0,0,.22-.69v-1.5c0-.23,0-.58-.22-.69s-.43-.23-.65-.23H561v-1.27h3.36a.88.88,0,0,0,.65-.23,1.46,1.46,0,0,0,.22-.92v-.46c0-.35,0-.81-.22-.92s-.22-.23-.65-.23h-5.64v1.27H557.3v-.69c0-1.39.33-2,2.06-2h5.43a2.31,2.31,0,0,1,1.52.35,2.45,2.45,0,0,1,.43,1.62v.92a1.9,1.9,0,0,1-.43,1.5,2,2,0,0,1-1,.46,2.46,2.46,0,0,1,1.09.35,2.3,2.3,0,0,1,.43,1.62v1.16a2.3,2.3,0,0,1-.43,1.62,2.36,2.36,0,0,1-1.63.46Z"/>
          <path class="s4-b-m-cls-7" d="M579.87,547.53h-1.74l-5.21,10.05h1.63l1.19-2.43h6.4l1.19,2.43h1.74Zm-3.47,6.24,2.61-5.09,2.5,5.09Z"/>
          <polygon class="s4-b-m-cls-7" points="600.5 557.58 600.5 548.91 593.12 548.91 593.12 557.58 591.6 557.58 591.6 547.53 602.12 547.53 602.12 557.58 600.5 557.58"/>
          <path class="s4-b-m-cls-7" d="M618.19,557.58v-3.81H612c-.76,0-2.06-.12-2.06-2v-4.28h1.63v3.81a1.15,1.15,0,0,0,.22.81,1.12,1.12,0,0,0,.76.23h5.64v-4.85h1.63v10.05Z"/>
          <path class="s4-b-m-cls-7" d="M633.06,547.53h-1.63l-5.21,10.05h1.52l1.3-2.43h6.4l1.19,2.43h1.74Zm-3.36,6.24,2.5-5.09,2.61,5.09Z"/>
          <path class="s4-b-m-cls-7" d="M646.52,548.91v7.28h6.62V554h1.63v1.27a3.43,3.43,0,0,1-.43,1.85,2.36,2.36,0,0,1-1.74.46h-5.43a2.36,2.36,0,0,1-1.74-.46,2.92,2.92,0,0,1-.43-1.85V550a3.09,3.09,0,0,1,.43-2,2.49,2.49,0,0,1,1.74-.46h5.43a2.36,2.36,0,0,1,1.74.46,3.6,3.6,0,0,1,.43,2v.92h-1.63v-2Z"/>
          <polygon class="s4-b-m-cls-7" points="663.88 557.58 663.88 548.91 659.54 548.91 659.54 547.53 669.86 547.53 669.86 548.91 665.4 548.91 665.4 557.58 663.88 557.58"/>
          <path class="s4-b-m-cls-7" d="M685.27,557.58V551.8c0-.46,0-.23.11-2.08a7.42,7.42,0,0,1-.76.92l-7.6,6.93h-1V547.53h1.63v5.55c0,.46-.11,1.5-.11,2.43.33-.58.87-1,1-1.27l7.38-6.7h1v10.05Z"/>
        </g>
        <g class="overlay" id="overlay">
          <polygon id="overlay-back" class="s4-b-m-cls-10" points="720.28 674.59 720.28 404.81 360.28 539.7 720.28 674.59"/>
          <g id="amtel.club-2" data-name="amtel.club">
            <path class="s4-b-m-cls-7" d="M548.32,524.32l9.84,21.46h-.92l-3.73-8H543l-3.68,8h-.81Zm-.08,1.93L543.33,537h9.87Z"/>
            <path class="s4-b-m-cls-7" d="M570.23,533.71a4.5,4.5,0,0,1,2.72-.81,3.82,3.82,0,0,1,2.81,1.23,4.54,4.54,0,0,1,1.21,3.33v8.33h-.84v-8.33a3.81,3.81,0,0,0-1-2.7,3.16,3.16,0,0,0-2.4-1.08,3.39,3.39,0,0,0-2.49,1.12,3.61,3.61,0,0,0-1.09,2.6v8.38h-.84V537.4a3.77,3.77,0,0,0-1-2.61,3.14,3.14,0,0,0-2.42-1.1,3.28,3.28,0,0,0-2.47,1.12,3.68,3.68,0,0,0-1,2.6v8.38h-.84V533.21h.84V535a4.48,4.48,0,0,1,1.56-1.45,4.16,4.16,0,0,1,2.15-.62,3.37,3.37,0,0,1,2.14.82,4.74,4.74,0,0,1,1.5,2.14A4,4,0,0,1,570.23,533.71Z"/>
            <path class="s4-b-m-cls-7" d="M584.34,545.17V546a4.3,4.3,0,0,1-3.18-1.33,4.62,4.62,0,0,1-1.31-3.4V528.15h.84v5.09h3.62V534h-3.62v7.21a3.93,3.93,0,0,0,1.06,2.82A3.43,3.43,0,0,0,584.34,545.17Z"/>
            <path class="s4-b-m-cls-7" d="M592.34,546.12h-.24a5.74,5.74,0,0,1-4.34-2,6.64,6.64,0,0,1-1.85-4.65,6.47,6.47,0,0,1,1.84-4.6,6,6,0,0,1,4.54-1.94,5.91,5.91,0,0,1,4.65,2.29l-8.24,8.66a5.16,5.16,0,0,0,3.28,1.45,5.27,5.27,0,0,0,2.82-.77,6.39,6.39,0,0,0,2.06-2.05v1.43A5.74,5.74,0,0,1,592.34,546.12Zm-.28-12.41a5,5,0,0,0-3.7,1.72,5.61,5.61,0,0,0-1.61,4,5.94,5.94,0,0,0,1.39,3.91l7.64-8.08A5.31,5.31,0,0,0,592.07,533.71Z"/>
            <path class="s4-b-m-cls-7" d="M603.92,545.25V546a4.3,4.3,0,0,1-3.18-1.33,4.62,4.62,0,0,1-1.31-3.4V524.82h.84v16.49a3.93,3.93,0,0,0,1.06,2.82A3.43,3.43,0,0,0,603.92,545.25Z"/>
            <path class="s4-b-m-cls-7" d="M606.27,546q-.91,0-.91-.87t.91-.87q.91,0,.91.87T606.27,546Z"/>
            <path class="s4-b-m-cls-7" d="M615.39,546.15h-.24a5.67,5.67,0,0,1-4.33-2,6.68,6.68,0,0,1-1.81-4.65,6.48,6.48,0,0,1,1.84-4.61,6,6,0,0,1,4.51-1.94,5.87,5.87,0,0,1,4.57,2.15v1.43a6.26,6.26,0,0,0-2.06-2,5,5,0,0,0-2.61-.75,5,5,0,0,0-3.79,1.72,6,6,0,0,0,0,8.19,5,5,0,0,0,3.79,1.72,5,5,0,0,0,2.61-.75,6.17,6.17,0,0,0,2.06-2.07V544A5.74,5.74,0,0,1,615.39,546.15Z"/>
            <path class="s4-b-m-cls-7" d="M626.65,545.25V546a4.3,4.3,0,0,1-3.18-1.33,4.62,4.62,0,0,1-1.31-3.4V524.82H623v16.49a3.93,3.93,0,0,0,1.06,2.82A3.43,3.43,0,0,0,626.65,545.25Z"/>
            <path class="s4-b-m-cls-7" d="M638.25,533.21h.84v12.58h-.84v-2.54a4.67,4.67,0,0,1-4.57,2.85,4.83,4.83,0,0,1-3.7-1.62,5.6,5.6,0,0,1-1.5-3.94v-7.32h.84v7.32a4.87,4.87,0,0,0,1.27,3.35,4,4,0,0,0,3.08,1.42,4.31,4.31,0,0,0,3.19-1.42,4.67,4.67,0,0,0,1.38-3.35Z"/>
            <path class="s4-b-m-cls-7" d="M642,545.78v-21h.84v11.46a5.58,5.58,0,0,1,2.22-2.46,5.93,5.93,0,0,1,3.14-.92,5.84,5.84,0,0,1,4.42,1.94,6.85,6.85,0,0,1,0,9.31,5.86,5.86,0,0,1-7.49,1,6,6,0,0,1-2.28-2.45v3Zm.79-6.26a5.74,5.74,0,0,0,1.61,4.07,5.08,5.08,0,0,0,3.83,1.72,5,5,0,0,0,3.79-1.72,6.07,6.07,0,0,0,0-8.17,5,5,0,0,0-3.79-1.73,5,5,0,0,0-3.82,1.75A5.84,5.84,0,0,0,642.77,539.52Z"/>
          </g>
        </g>
      </g>
      <polygon id="Треугольник-42" data-name="Треугольник" class="s4-b-m-cls-1" points="720.28 674.59 720.28 404.81 360.28 539.7 720.28 674.59"/>
    </g>
    <g id="ea_messenger" data-open-case-modal="ea_messenger">
      <g class="s4-b-m-cls-11">
        <g id="ea_messenger_background">
          <rect class="s4-b-m-cls-7" x="0.8" y="267.8" width="722.81" height="272.01"/>
          <g id="Слой_1">
            <g id="_479229256" data-name=" 479229256">
              <path class="s4-b-m-cls-12" d="M220.94,388.79c-1-1.09-6.88-3.43-8.34-3.89-5,11.06-22.38,9.19-23.7-4.52-1.46-9.66,7.31-17.45,15.95-14.49a10.52,10.52,0,0,1,6.44,4.36l-15.95,6.23,2.63,7.79,24.72-9.19c-.44-10.28-10.53-19.94-21.51-19.94-24.72,0-30.14,36.92-6.88,45.33a19.49,19.49,0,0,0,16.53-1.09C214.51,397.51,219.48,392.68,220.94,388.79Zm84.12-8.41c-1.9-18.38,22.82-20.87,25-3.89,1,8.41-4.54,14.64-11,15.58C311.79,393.15,305.94,387.23,305.06,380.38Zm10.39-24.77C304,357,294.53,367.29,295.85,381c1.32,12.15,11.41,22.27,24.28,20.4,11-.93,20.48-12.15,19.16-25.39C338,363.87,327.88,354.21,315.45,355.61Zm0,71.5c7.31-1.87,13.31,3.89,14.63,10.28a13.87,13.87,0,0,1-9.95,16c-16.09,3.43-21.94-22.9-4.68-26.32Zm-19.6,15.11c.88,12.15,11,22.43,23.85,21,11-1.09,20.48-11.68,19.6-24.92-.88-12.15-11-22.27-23.85-21.34-11.41.93-20.48,12.15-19.6,25.23Zm-88.65,20.56V452.49c-4.1,1.4-6,2.49-10.53.47-10.09-4.36-11-20.4,0-25.23,7.31-3.43,14.19,1.87,16.38,7.17,1.9,5,1,20.09,1,26.79h9.07V440.81c0-7.32-1.76-11.21-5-15.58-5.56-7.32-18.29-11.21-28.38-4.36-19.16,12.62-9.66,47.66,17.41,41.9Zm21.51-44.39c-1,4.83-.44,26.79.44,31.15,4.1,18.07,29.26,19,34.23,0,.88-4.36,1.46-26.32.88-31.15h-9.51c-1.9,14.64,4.1,35-8.19,35-3.22,0-6-1.87-6.88-3.89-3.22-5.3-1-21.34-1.9-31.15Zm35.55-61.84h-9.51v22c0,3.43-.44,6.85-1.9,9.19a7.49,7.49,0,0,1-13.17,0c-1.46-2.34-1.9-5.76-1.9-9.19,0-4.83.88-18.07,0-22H228.7c-1,2.49-.44,27.26.44,30.69,4.1,19,29.7,19,34.23.47,1.46-5.76.88-23.83.88-31.15ZM292.63,453c-2.78,0-5.41,0-7.75-1.4-6-3.89-5-15.58-4.54-23.36h11.85v-9.81H280.34V406.23h-9.66c0,6.85-.44,36,0,40.34,1.46,10.75,10.53,18.07,22.38,16.2l-.44-9.81Zm-21.94-52.49,9.66.47c0-9.81-1.9-27.73,3.22-33.18,3.22-3,5-1.4,9.51-2.34v-9.81c-11-1.4-18.73,4.36-20.92,11.68-2.34,6.39-1.46,25.39-1.46,33.18Z"/>
              <rect class="s4-b-m-cls-13" x="357.58" y="355.14" width="5.03" height="106.92"/>
              <path class="s4-b-m-cls-12" d="M378.94,381.78c0,7.17,4.83,12.31,12.14,12.31s12-5.14,12-12.31c0-7-4.68-12.31-12-12.31S378.94,374.77,378.94,381.78Zm6.14,0c0-4,2.63-6.7,6-6.7s6,2.8,6,6.7c0,4-2.49,6.85-6,6.85S385.08,385.67,385.08,381.78Z"/>
              <path class="s4-b-m-cls-12" d="M414.64,393.62h5.71v-16a6.61,6.61,0,0,1,4.83-2.34c3.07,0,5,1.87,5,5.61v12.77h5.56V379.75c0-7.32-3.66-10.12-9.07-10.12a8.41,8.41,0,0,0-6.29,2.8V370.1h-5.71Z"/>
              <path class="s4-b-m-cls-12" d="M448,387.07c0,4.83,1.9,7,5.27,7a8.93,8.93,0,0,0,5.85-2l-1.17-4.52a4.43,4.43,0,0,1-2.34.93c-1.32,0-1.9-1.09-1.9-3.89V357H448Z"/>
              <path class="s4-b-m-cls-12" d="M469.93,393.62h5.56V370.1h-5.56Zm-.59-32.09c0,2.49,1.61,3.89,3.51,3.89,1.61,0,3.22-1.4,3.22-3.89a3.35,3.35,0,0,0-3.22-3.43A3.41,3.41,0,0,0,469.35,361.53Z"/>
              <path class="s4-b-m-cls-12" d="M488.66,393.62h5.71v-16a6.61,6.61,0,0,1,4.83-2.34c3.07,0,5,1.87,5,5.61v12.77h5.56V379.75c0-7.32-3.66-10.12-9.07-10.12a8.41,8.41,0,0,0-6.29,2.8V370.1h-5.71Z"/>
              <path class="s4-b-m-cls-12" d="M539.42,386.92a9.13,9.13,0,0,1-6.29,2.18,6.22,6.22,0,0,1-6.58-5.45H542.5a9.64,9.64,0,0,0,.44-3.27,10.47,10.47,0,0,0-10.53-10.9c-7.31,0-11.7,5.45-11.7,12.31,0,7.48,4.83,12.31,11.85,12.31a13.08,13.08,0,0,0,8.49-2.8Zm-7.31-12.46a4.84,4.84,0,0,1,5.12,5.14H526.4C527,376.48,528.74,374.46,532.11,374.46Z"/>
              <path class="s4-b-m-cls-12" d="M378.94,435.83c0,7,4.83,12.31,12.14,12.31s12-5.3,12-12.31-4.68-12.31-12-12.31S378.94,428.82,378.94,435.83Zm6.14,0c0-4,2.63-6.7,6-6.7s6,2.8,6,6.7c0,4-2.49,6.7-6,6.7S385.08,439.72,385.08,435.83Z"/>
              <path class="s4-b-m-cls-12" d="M414.93,447.67h5.71V429.75h5.85v-5.61h-5.85v-3.43c0-3.27,1.32-4.67,3.22-4.67a4.65,4.65,0,0,1,3.22,1.25l1.9-4.67a8.73,8.73,0,0,0-6.14-2.18c-5,0-7.9,3.27-7.9,9.81Z"/>
              <path class="s4-b-m-cls-12" d="M437.75,447.67h5.71V429.75h6v-5.61h-6v-3.43c0-3.27,1.32-4.67,3.22-4.67a4.4,4.4,0,0,1,3.22,1.25l1.9-4.67a8.73,8.73,0,0,0-6.14-2.18c-5,0-7.9,3.27-7.9,9.81Z"/>
              <path class="s4-b-m-cls-12" d="M477.25,441a10,10,0,0,1-6.29,2.18,6.22,6.22,0,0,1-6.58-5.45h15.95a10.28,10.28,0,0,0,.44-3.27,10.47,10.47,0,0,0-10.53-10.9c-7.31,0-11.7,5.45-11.7,12.31,0,7.48,4.83,12.31,11.85,12.31a13.08,13.08,0,0,0,8.49-2.8Zm-7.31-12.46a4.84,4.84,0,0,1,5.12,5.14H464.23C464.81,430.53,466.57,428.51,469.93,428.51Z"/>
              <path class="s4-b-m-cls-12" d="M491.88,447.67h5.71V431.78a3.85,3.85,0,0,1,3.66-2.49,4.62,4.62,0,0,1,2.78.93l2-5.61a4.68,4.68,0,0,0-3.36-.93,5.72,5.72,0,0,0-5.12,2.65v-2.18h-5.71Z"/>
            </g>
          </g>
        </g>
        <g class="overlay" id="overlay-2" data-name="overlay">
          <polygon id="overlay-back-2" data-name="overlay-back" class="s4-b-m-cls-10" points="360.33 270.54 0.33 405.43 360.33 540.32 720.33 405.43 360.33 270.54"/>
          <g>
            <path class="s4-b-m-cls-7" d="M232.48,394.52v27h-1.11V395.92L219.42,422l-11.88-26.05v25.55h-1v-27h1.62l11.37,24.87,11.41-24.87Z"/>
            <path class="s4-b-m-cls-7" d="M244.56,421.9h-.37a7.2,7.2,0,0,1-5.52-2.55,8.63,8.63,0,0,1-2.31-6,8.34,8.34,0,0,1,2.36-5.93,7.72,7.72,0,0,1,5.84-2.5,7.59,7.59,0,0,1,6,2.95L239.94,419a6.64,6.64,0,0,0,4.22,1.87,6.77,6.77,0,0,0,3.63-1,8.21,8.21,0,0,0,2.65-2.64v1.83A7.44,7.44,0,0,1,244.56,421.9Zm-.29-16a6.37,6.37,0,0,0-4.76,2.21,7.21,7.21,0,0,0-2.08,5.08,7.64,7.64,0,0,0,1.79,5l9.82-10.39A6.83,6.83,0,0,0,244.28,405.94Z"/>
            <path class="s4-b-m-cls-7" d="M261.1,421.93h-.3a7.29,7.29,0,0,1-5.57-2.55,8.59,8.59,0,0,1-2.33-6,8.34,8.34,0,0,1,2.36-5.93,7.68,7.68,0,0,1,5.81-2.5,7.55,7.55,0,0,1,5.87,2.77v1.83a8,8,0,0,0-2.65-2.62,6.39,6.39,0,0,0-3.36-1,6.49,6.49,0,0,0-4.88,2.21,7.72,7.72,0,0,0,0,10.53,6.49,6.49,0,0,0,4.88,2.21,6.39,6.39,0,0,0,3.36-1,7.93,7.93,0,0,0,2.65-2.66v1.87A7.38,7.38,0,0,1,261.1,421.93Z"/>
            <path class="s4-b-m-cls-7" d="M277.5,421.93h-.3a7.29,7.29,0,0,1-5.57-2.55,8.59,8.59,0,0,1-2.33-6,8.34,8.34,0,0,1,2.36-5.93,7.68,7.68,0,0,1,5.81-2.5,7.55,7.55,0,0,1,5.87,2.77v1.83a8,8,0,0,0-2.65-2.62,6.39,6.39,0,0,0-3.36-1,6.49,6.49,0,0,0-4.88,2.21,7.72,7.72,0,0,0,0,10.53,6.49,6.49,0,0,0,4.88,2.21,6.39,6.39,0,0,0,3.36-1,7.93,7.93,0,0,0,2.65-2.66v1.87A7.38,7.38,0,0,1,277.5,421.93Z"/>
            <path class="s4-b-m-cls-7" d="M293.9,421.9h-.37a7.2,7.2,0,0,1-5.52-2.55,8.63,8.63,0,0,1-2.31-6,8.34,8.34,0,0,1,2.36-5.93,7.72,7.72,0,0,1,5.84-2.5,7.59,7.59,0,0,1,6,2.95L289.28,419a6.64,6.64,0,0,0,4.22,1.87,6.77,6.77,0,0,0,3.63-1,8.21,8.21,0,0,0,2.65-2.64v1.83A7.44,7.44,0,0,1,293.9,421.9Zm-.29-16a6.37,6.37,0,0,0-4.76,2.21,7.21,7.21,0,0,0-2.08,5.08,7.64,7.64,0,0,0,1.79,5l9.82-10.39A6.83,6.83,0,0,0,293.62,405.94Z"/>
            <path class="s4-b-m-cls-7" d="M314.79,405.3h1.08v16.17h-1.08v-6.07H304.5v6.07h-1.08V405.3h1.08v9.09h10.29Z"/>
            <path class="s4-b-m-cls-7" d="M319.25,423.51v-3h1.18l7.05-15.7,7.05,15.67h1.11v3h-.94v-2H320.13v2Zm8.13-16.24-5.94,13.22h11.91Z"/>
            <path class="s4-b-m-cls-7" d="M346.35,405.3h1.08v5.21l4.86-5.21h1.21l-5.94,6.47,8.88,9.7H355l-7.56-8.3v8.3h-1.08v-8.3l-7.56,8.3h-1.45l8.88-9.7-5.94-6.47h1.22l4.86,5.21Z"/>
            <path class="s4-b-m-cls-7" d="M366.84,421.9h-.37a7.2,7.2,0,0,1-5.52-2.55,8.63,8.63,0,0,1-2.31-6,8.34,8.34,0,0,1,2.36-5.93,7.72,7.72,0,0,1,5.84-2.5,7.59,7.59,0,0,1,6,2.95L362.21,419a6.64,6.64,0,0,0,4.22,1.87,6.77,6.77,0,0,0,3.63-1,8.21,8.21,0,0,0,2.65-2.64v1.83A7.44,7.44,0,0,1,366.84,421.9Zm-.29-16a6.37,6.37,0,0,0-4.76,2.21,7.21,7.21,0,0,0-2.08,5.08,7.64,7.64,0,0,0,1.79,5l9.82-10.39A6.83,6.83,0,0,0,366.55,405.94Z"/>
            <path class="s4-b-m-cls-7" d="M376.35,428.65V405.3h1.08v4a7.17,7.17,0,0,1,2.85-3.16,7.63,7.63,0,0,1,4-1.19,7.51,7.51,0,0,1,5.69,2.5,8.8,8.8,0,0,1,0,12,7.54,7.54,0,0,1-9.64,1.33,7.75,7.75,0,0,1-2.94-3.14v11.1Zm1-15.24a7.38,7.38,0,0,0,2.08,5.23,6.54,6.54,0,0,0,4.93,2.21,6.38,6.38,0,0,0,4.88-2.21,7.81,7.81,0,0,0,0-10.51,6.39,6.39,0,0,0-4.88-2.23,6.48,6.48,0,0,0-4.91,2.25A7.51,7.51,0,0,0,377.37,413.42Z"/>
            <path class="s4-b-m-cls-7" d="M408,394.52h9.08v1h-8v14.66h6.65v1h-6.65v9.16h8v1H408Z"/>
            <path class="s4-b-m-cls-7" d="M432.21,405.3h1.08v16.17h-1.08V418.2a6,6,0,0,1-5.87,3.67,6.22,6.22,0,0,1-4.76-2.08,7.2,7.2,0,0,1-1.92-5.07V405.3h1.08v9.41a6.26,6.26,0,0,0,1.64,4.31,5.13,5.13,0,0,0,4,1.83,5.54,5.54,0,0,0,4.1-1.83,6,6,0,0,0,1.77-4.31Z"/>
            <path class="s4-b-m-cls-7" d="M442.6,405.91a4.24,4.24,0,0,0-3.16,1.44,4.7,4.7,0,0,0-1.37,3.34v10.78H437V405.3h1.08v2.41a4.94,4.94,0,0,1,1.89-2,5.36,5.36,0,0,1,2.87-.79,4.83,4.83,0,0,1,3,1.15v1.44A4.43,4.43,0,0,0,442.6,405.91Z"/>
            <path class="s4-b-m-cls-7" d="M450.23,419.29a8.63,8.63,0,0,1-2.33-6,8.31,8.31,0,0,1,2.36-5.91,7.7,7.7,0,0,1,11.36,0,8.37,8.37,0,0,1,2.35,5.93,8.66,8.66,0,0,1-2.29,6,7.22,7.22,0,0,1-5.57,2.55h-.3A7.27,7.27,0,0,1,450.23,419.29Zm12.66-5.89a7.54,7.54,0,0,0-2-5.26,6.39,6.39,0,0,0-4.88-2.23,6.48,6.48,0,0,0-4.91,2.25,7.51,7.51,0,0,0-2.08,5.26,7.38,7.38,0,0,0,2.08,5.23,6.54,6.54,0,0,0,4.93,2.21,6.38,6.38,0,0,0,4.88-2.21A7.5,7.5,0,0,0,462.89,413.4Z"/>
            <path class="s4-b-m-cls-7" d="M482.33,405.3v16.17h-1.08v-4a7.39,7.39,0,0,1-2.83,3.23,7.61,7.61,0,0,1-9.72-1.31,8.76,8.76,0,0,1,0-12,7.53,7.53,0,0,1,5.67-2.5,7.75,7.75,0,0,1,4.13,1.22,6.5,6.5,0,0,1,2.75,3.23V405.3Zm-14.92,8.12a7.38,7.38,0,0,0,2.08,5.23,6.54,6.54,0,0,0,4.93,2.21,6.38,6.38,0,0,0,4.88-2.21,7.81,7.81,0,0,0,0-10.51,6.39,6.39,0,0,0-4.88-2.23,6.48,6.48,0,0,0-4.91,2.25A7.51,7.51,0,0,0,467.41,413.42Z"/>
            <path class="s4-b-m-cls-7" d="M498.59,405.3h1.08v16.17h-1.08V418.2a6,6,0,0,1-5.87,3.67,6.22,6.22,0,0,1-4.76-2.08,7.2,7.2,0,0,1-1.92-5.07V405.3h1.08v9.41a6.26,6.26,0,0,0,1.64,4.31,5.13,5.13,0,0,0,4,1.83,5.54,5.54,0,0,0,4.1-1.83,6,6,0,0,0,1.77-4.31Z"/>
            <path class="s4-b-m-cls-7" d="M508.82,420.68v1a5.53,5.53,0,0,1-4.08-1.71,6,6,0,0,1-1.69-4.37V398.79h1.08v6.54h4.66v1h-4.66v9.27a5.06,5.06,0,0,0,1.37,3.63A4.41,4.41,0,0,0,508.82,420.68Z"/>
            <path class="s4-b-m-cls-7" d="M513,419.29a8.63,8.63,0,0,1-2.33-6A8.31,8.31,0,0,1,513,407.4a7.7,7.7,0,0,1,11.36,0,8.37,8.37,0,0,1,2.35,5.93,8.66,8.66,0,0,1-2.29,6,7.22,7.22,0,0,1-5.57,2.55h-.3A7.27,7.27,0,0,1,513,419.29Zm12.66-5.89a7.54,7.54,0,0,0-2-5.26,6.39,6.39,0,0,0-4.88-2.23,6.48,6.48,0,0,0-4.91,2.25,7.51,7.51,0,0,0-2.08,5.26,7.38,7.38,0,0,0,2.08,5.23,6.54,6.54,0,0,0,4.93,2.21,6.38,6.38,0,0,0,4.88-2.21A7.5,7.5,0,0,0,525.66,413.4Z"/>
          </g>
        </g>
      </g>
      <polygon id="Ромб-5" data-name="Ромб" class="s4-b-m-cls-1" points="360.33 270.54 0.33 405.43 360.33 540.32 720.33 405.43 360.33 270.54"/>
    </g>
    <g id="ea" data-open-case-modal="ea">
      <g class="s4-b-m-cls-14">
        <g id="ea_back">
          <rect class="s4-b-m-cls-7" x="-2.48" y="399.73" width="368.13" height="277.5"/>
          <g id="Слой_1-2" data-name="Слой_1">
            <path class="s4-b-m-cls-15" d="M73.4,523.47c-.87-.84-5.88-3-7.35-3.38-4.35,9.66-19.31,8-20.83-4-1.06-8.44,6.41-15.23,14.32-12.74,2.28.72,4.72,2.52,5.4,4.09l-13.83,5.5,2.3,6.79L75,511.49c-.49-9-9.2-17.26-18.75-17.27-21.59,0-26.54,32.4-6,39.69a18.2,18.2,0,0,0,14.51-1.1c3.19-1.64,7.46-5.74,8.64-9.34Zm73.8-7.42c-1.71-15.82,20.13-18,22-3.1.88,7-4,12.66-9.6,13.38-6.55.84-11.77-4.28-12.42-10.27Zm9-21.69c-9.91,1.21-18.34,10.39-17,22.51,1.11,10.42,10,19.24,21.25,17.91,9.67-1.14,18.15-10.67,16.75-22.57-1.23-10.42-9.89-19.21-21-17.86Zm0,62.72c6.49-1.4,11.77,3.57,12.86,9.1a11.9,11.9,0,0,1-8.67,14.07c-14,3.07-19.18-19.93-4.19-23.18Zm-17.08,13.36c.88,10.62,9.63,19.41,20.76,18.47,9.83-.83,18.26-10.19,17.36-21.86-.84-10.86-9.61-19.7-20.85-18.66-9.88.91-18.24,10.33-17.27,22h0ZM61.51,588.36l.07-9.06c-3.87,1.18-5.34,2.06-9.56.32-8.58-3.54-9.46-17.52,0-21.79,6.62-3,12.73,1.45,14.57,6.3,1.61,4.27.83,17.54.88,23.17l8,.16c.08-6.09,0-12.23,0-18.27A20.57,20.57,0,0,0,71,555.71c-4.7-6.61-15.91-10.19-24.91-4.17-16.81,11.25-8.46,41.84,15.43,36.82h0ZM80.09,549.5c-.55,4.31-.29,23.46.6,27.38,3.54,15.72,25.78,16.74,30.07-.06.92-3.62,1-23,.58-27.32H103c-1.48,12.64,3.83,30.72-7.29,30.81a7.06,7.06,0,0,1-6-3.49c-2.53-4.71-.7-18.79-1.39-27.32H80.09Zm31.32-54.19-8.46-.1c0,6.46,0,12.88,0,19.3,0,2.91-.12,6-1.34,8.1a6.83,6.83,0,0,1-11.78.05c-1.37-2.18-1.42-5.2-1.41-8.15,0-4.18.51-16-.12-19.25l-8.1,0c-.74,2.38-.22,24.15.41,27.07,3.6,16.51,25.93,16.68,30.11.44,1.37-5.32.68-20.91.68-27.4Zm25,84.64c-2.5-.18-5.05,0-7-1.24-5.15-3.45-4.33-13.77-4.05-20.62l10.63-.08-.07-8.49-10.59-.09V538.8l-8.44.1c0,5.84-.31,31.72.17,35.32,1.25,9.51,9,15.79,19.44,14.3l-.12-8.57h0Zm-19.49-46,8.45.08c0-8.34-1.69-24.21,3.07-28.83,2.75-2.67,4.45-1.4,8.1-2.15v-8.46a16.25,16.25,0,0,0-18.46,10.39c-1.95,5.34-1.14,22-1.14,29h0Z"/>
          </g>
        </g>
        <g class="overlay" id="overlay-3" data-name="overlay">
          <polygon id="overlay-back-3" data-name="overlay-back" class="s4-b-m-cls-10" points="0.51 405.18 0.51 674.96 360.51 540.07 0.51 405.18"/>
          <g id="ea-2" data-name="ea">
            <path class="s4-b-m-cls-7" d="M74.39,528.51h7.06v.81H75.25v11.4h5.17v.81H75.25v7.13h6.19v.81H74.39Z"/>
            <path class="s4-b-m-cls-7" d="M93.18,536.89H94v12.58h-.84v-2.54a4.67,4.67,0,0,1-4.57,2.85,4.83,4.83,0,0,1-3.7-1.62,5.6,5.6,0,0,1-1.5-3.94v-7.32h.84v7.32a4.87,4.87,0,0,0,1.27,3.35A4,4,0,0,0,88.61,549a4.31,4.31,0,0,0,3.19-1.42,4.67,4.67,0,0,0,1.38-3.35Z"/>
            <path class="s4-b-m-cls-7" d="M101.27,537.37a3.3,3.3,0,0,0-2.45,1.12,3.66,3.66,0,0,0-1.06,2.6v8.38h-.84V536.89h.84v1.87a3.84,3.84,0,0,1,1.47-1.56,4.17,4.17,0,0,1,2.23-.62,3.76,3.76,0,0,1,2.36.89v1.12A3.45,3.45,0,0,0,101.27,537.37Z"/>
            <path class="s4-b-m-cls-7" d="M107.2,547.78a6.71,6.71,0,0,1-1.81-4.65,6.47,6.47,0,0,1,1.84-4.6,6,6,0,0,1,8.83,0,6.51,6.51,0,0,1,1.82,4.61,6.74,6.74,0,0,1-1.78,4.65,5.62,5.62,0,0,1-4.33,2h-.24A5.65,5.65,0,0,1,107.2,547.78ZM117,543.2a5.86,5.86,0,0,0-1.59-4.09,5,5,0,0,0-3.79-1.73,5,5,0,0,0-3.82,1.75,5.84,5.84,0,0,0-1.61,4.09,5.74,5.74,0,0,0,1.61,4.07,5.08,5.08,0,0,0,3.83,1.72,5,5,0,0,0,3.79-1.72A5.83,5.83,0,0,0,117,543.2Z"/>
            <path class="s4-b-m-cls-7" d="M132.16,536.89v12.58h-.84v-3.13a5.75,5.75,0,0,1-2.2,2.51,5.92,5.92,0,0,1-7.56-1,6.81,6.81,0,0,1,0-9.31,5.86,5.86,0,0,1,4.41-1.94,6,6,0,0,1,3.22,1,5.05,5.05,0,0,1,2.14,2.52v-3.16Zm-11.6,6.32a5.74,5.74,0,0,0,1.61,4.07A5.08,5.08,0,0,0,126,549a5,5,0,0,0,3.79-1.72,6.07,6.07,0,0,0,0-8.17,5,5,0,0,0-3.79-1.73,5,5,0,0,0-3.82,1.75A5.84,5.84,0,0,0,120.56,543.21Z"/>
            <path class="s4-b-m-cls-7" d="M144.81,536.89h.84v12.58h-.84v-2.54a4.67,4.67,0,0,1-4.57,2.85,4.83,4.83,0,0,1-3.7-1.62,5.6,5.6,0,0,1-1.5-3.94v-7.32h.84v7.32a4.87,4.87,0,0,0,1.27,3.35,4,4,0,0,0,3.08,1.42,4.31,4.31,0,0,0,3.19-1.42,4.67,4.67,0,0,0,1.38-3.35Z"/>
            <path class="s4-b-m-cls-7" d="M152.77,548.85v.78a4.3,4.3,0,0,1-3.18-1.33,4.62,4.62,0,0,1-1.31-3.4V531.83h.84v5.09h3.62v.78h-3.62v7.21a3.93,3.93,0,0,0,1.06,2.82A3.43,3.43,0,0,0,152.77,548.85Z"/>
            <path class="s4-b-m-cls-7" d="M156,547.78a6.71,6.71,0,0,1-1.81-4.65,6.47,6.47,0,0,1,1.84-4.6,6,6,0,0,1,8.83,0,6.51,6.51,0,0,1,1.82,4.61,6.74,6.74,0,0,1-1.78,4.65,5.62,5.62,0,0,1-4.33,2h-.24A5.65,5.65,0,0,1,156,547.78Zm9.84-4.58a5.86,5.86,0,0,0-1.59-4.09,5,5,0,0,0-3.79-1.73,5,5,0,0,0-3.82,1.75,5.84,5.84,0,0,0-1.61,4.09,5.74,5.74,0,0,0,1.61,4.07A5.08,5.08,0,0,0,160.5,549a5,5,0,0,0,3.79-1.72A5.83,5.83,0,0,0,165.87,543.2Z"/>
            <path class="s4-b-m-cls-7" d="M169.45,549.67q-.91,0-.91-.87t.91-.87q.91,0,.91.87T169.45,549.67Z"/>
            <path class="s4-b-m-cls-7" d="M177.21,537.37a3.3,3.3,0,0,0-2.45,1.12,3.66,3.66,0,0,0-1.06,2.6v8.38h-.84V536.89h.84v1.87a3.84,3.84,0,0,1,1.47-1.56,4.17,4.17,0,0,1,2.23-.62,3.76,3.76,0,0,1,2.36.89v1.12A3.45,3.45,0,0,0,177.21,537.37Z"/>
            <path class="s4-b-m-cls-7" d="M191.49,536.89h.84v12.58h-.84v-2.54a4.67,4.67,0,0,1-4.57,2.85,4.83,4.83,0,0,1-3.7-1.62,5.6,5.6,0,0,1-1.5-3.94v-7.32h.84v7.32a4.87,4.87,0,0,0,1.27,3.35,4,4,0,0,0,3.08,1.42,4.31,4.31,0,0,0,3.19-1.42,4.67,4.67,0,0,0,1.38-3.35Z"/>
          </g>
        </g>
      </g>
      <polygon id="Треугольник-43" data-name="Треугольник" class="s4-b-m-cls-1" points="0.51 405.18 0.51 674.96 360.51 540.07 0.51 405.18"/>
    </g>
    <g id="wolf" data-open-case-modal="wolf">
      <g class="s4-b-m-cls-16">
        <g id="wolf_back">
          <rect class="s4-b-m-cls-7" x="0.8" y="537.31" width="722.81" height="272.01"/>
          <g id="Слой_1-3" data-name="Слой_1">
            <g id="_554465816" data-name=" 554465816">
              <path class="s4-b-m-cls-17" d="M223.45,705.28c-3.52,0-9.57-1.67-11.19-12.61l-.05-.4c-1.08-7.54-2.27-15.32-5.73-21a17.46,17.46,0,0,0-12.28-8.18l-.76-.17a.56.56,0,0,1-.27-.06l-.32-.06h-.32l-.11-.06h-.05a1.92,1.92,0,0,1-1.68-1.84c0-.06-.05-.17-.05-.23a2.16,2.16,0,0,1,1.35-2c.05,0,.05,0,.11-.06a3.29,3.29,0,0,0,.38-.12l.76-.23c.22-.12.49-.17.76-.29a38.7,38.7,0,0,1,11.25-1.84c15.79,0,23,12.09,25.85,19.35,1,2.48,2,2.48,2.38,2.48a4.23,4.23,0,0,0,1.89-.63c13.3-7.43,29.8-16.53,33-17.62a10.24,10.24,0,0,1,2.87-.46c5,0,7.84,4.15,8.6,5.47.92,1.5,2.43,5.18,4.71,11.11l.16.46c1.19,3.05,2.54,3.45,3.57,3.45a8.31,8.31,0,0,0,3.35-1c1.14-.58,3.73-2.3,4.65-2.94,10.11-6.85,19.47-12,27.74-15.2,7.41-2.88,14.12-4.38,20-4.38a29,29,0,0,1,5.52.52l.87.17a1.5,1.5,0,0,1,.49.12,1.82,1.82,0,0,1,.54.12l.16.06a2.08,2.08,0,0,1,1.51,2.07,2,2,0,0,1-1.62,2,.16.16,0,0,1-.11.06c-.16.06-.32.06-.49.12a.46.46,0,0,1-.27.06l-.05.06a4.8,4.8,0,0,0-.7.23c-7.19,2.59-19.63,12.61-30.61,21.48-6.38,5.12-12.33,10-16.82,13-6.22,4.15-14.22,8.93-20.88,8.93-4.22,0-9.79-2-12.49-11.29l-4-11.57c-7.52,4.72-31,19.29-34.5,21.08A16.45,16.45,0,0,1,223.45,705.28Z"/>
              <path class="s4-b-m-cls-17" d="M347.78,704.88c-8,0-14.06-2.65-17.2-7.43,0,0,0-.06-.05-.06a12.61,12.61,0,0,1-1.51-7.83h0c.38-2.59,1.78-7.08,6.71-8.87a8.17,8.17,0,0,1,2.54-.46,7.1,7.1,0,0,1,5.25,2.71,8.42,8.42,0,0,0,.81.75,16.68,16.68,0,0,0,8.54,3.69h1.08c4.11,0,11.63-1.67,15.31-6.28,2.38-2.88,3.35-5.64,2.7-7.37s-2.87-2.65-6.44-3a14.49,14.49,0,0,0-1.68-.12A39.08,39.08,0,0,0,349.4,674a5.26,5.26,0,0,1-.49.23,61.94,61.94,0,0,0-10.65,5.07l-.43.29-.43.29a2.08,2.08,0,0,1-1.19.35,2.23,2.23,0,0,1-1.78-.92,2.52,2.52,0,0,1,.22-3.28l.76-.75c9.09-8.81,16.17-12.55,24-15.49a44.29,44.29,0,0,1,15.36-3,30.65,30.65,0,0,1,4.06.29c5.25.69,12,4.26,14.17,10.31,2,5.59.16,11.92-5.46,18.94C378.83,697,362.11,704.88,347.78,704.88Z"/>
              <path class="s4-b-m-cls-17" d="M384,705.17a26.05,26.05,0,0,1-7.3-1l-.11-.06c-.11,0-.16-.06-.27-.06a3.88,3.88,0,0,0-.87-.29l-.11-.06c-.05,0-.11-.06-.16-.06a2.08,2.08,0,0,1-1.35-2,2.11,2.11,0,0,1,1.3-2,.16.16,0,0,1,.11-.06l.16-.06.76-.35a.19.19,0,0,0,.16-.06l.11-.06c14.39-6.33,27.2-26.83,37.8-46.07a.05.05,0,0,1,.05-.06h0c9.3-16.87,17.09-28.45,24.5-36.28,8.49-9,17.74-13.7,26.82-13.7a26.41,26.41,0,0,1,7.3,1.09l.11.06a.31.31,0,0,1,.22.06,5.64,5.64,0,0,1,.92.29l.05.06c.11,0,.16,0,.22.06a2.06,2.06,0,0,1,1.3,2,2,2,0,0,1-1.3,2l-.05.06c-.11,0-.16.06-.22.06-.22.12-.49.17-.7.29a237485355479.35,237485355479.35,0,0,1-.32.12c-14.39,6.39-27.15,26.89-37.8,46.12v.06c-9.3,16.87-17.09,28.39-24.5,36.28C402.3,700.45,393,705.17,384,705.17Z"/>
              <path class="s4-b-m-cls-17" d="M377.74,761.94a24.94,24.94,0,0,1-8.22-1.38h-.11a.19.19,0,0,0-.16-.06,3,3,0,0,0-.76-.29l-.16-.06a.4.4,0,0,0-.22-.12,2,2,0,0,1-1.24-1.9,2,2,0,0,1,1.14-1.9l.32-.17c.22-.12.43-.23.7-.35l.16-.12c20.66-10.77,39-43.88,56.84-75.84,13.79-24.76,26.77-48.2,40.89-62.13,8.33-8.18,17.31-12.5,26-12.5a25.47,25.47,0,0,1,8.54,1.5l.11.06c.05,0,.11.06.16.06.32.12.59.23.87.35l.11.06c.05,0,.16.06.22.06a2.14,2.14,0,0,1-.05,3.86.16.16,0,0,1-.11.06.31.31,0,0,1-.22.06l-.7.35-.27.06c-14.55,6.51-28.28,27.41-39.8,47-.76,1.27-2.65,4.55-5.41,9.44h6.76a2.36,2.36,0,0,1,2.27,2.42,13.57,13.57,0,0,1-3.73,9.62,11.92,11.92,0,0,1-9,3.92h-5.3c-.92,1.67-1.51,2.76-1.62,2.94-16,28.62-30.45,53.38-46.94,66.85h-.05C391.86,759.12,384.61,761.94,377.74,761.94Z"/>
              <path class="s4-b-m-cls-17" d="M440.48,737.41c-2.92,0-5.25-2-5.25-4.49s2.33-4.49,5.25-4.49,5.25,2,5.25,4.49S443.45,737.41,440.48,737.41Z"/>
              <path class="s4-b-m-cls-17" d="M467.2,743.81a4.2,4.2,0,0,1-4.06-2.13c-1-2-.54-4.72,1.51-8.52a2.94,2.94,0,0,0,.22-.52,3.76,3.76,0,0,0-.22-.52c-2.06-3.8-2.54-6.62-1.51-8.52a4.2,4.2,0,0,1,4.06-2.13c4.43,0,12.06,4.26,14.06,8.81a6.81,6.81,0,0,1,.54,2.25v.23c-.11,3.4-3.46,6.22-5.52,7.6C473.2,742.48,469.74,743.81,467.2,743.81Z"/>
              <path class="s4-b-m-cls-17" d="M450.59,741.62a3.72,3.72,0,0,1-3.46-1.79c-.87-1.61-.49-3.92,1.19-7,.05-.06.05-.12.11-.17s-.05-.17-.11-.23c-1.68-3.05-2.06-5.3-1.19-7a3.72,3.72,0,0,1,3.46-1.79c3.68,0,9,3.17,10.87,6.45a5.14,5.14,0,0,1,.7,2.36v.29C462,737.18,454.7,741.62,450.59,741.62Z"/>
            </g>
          </g>
        </g>
        <g class="overlay" id="overlay-4" data-name="overlay">
          <polygon id="overlay-back-4" data-name="overlay-back" class="s4-b-m-cls-10" points="360.33 540.05 0.33 674.94 360.33 809.83 720.33 674.94 360.33 540.05"/>
          <g>
            <path class="s4-b-m-cls-7" d="M335.39,691.45,324.29,664h1.25l10,24.69L340.25,677,335,664h1.22l4.69,11.82L345.75,664h.94l-5.27,13,4.79,11.82L356.45,664h.91l-11.24,27.42-5.37-13.15Z"/>
            <path class="s4-b-m-cls-7" d="M357.66,688.8a8.63,8.63,0,0,1-2.33-6,8.31,8.31,0,0,1,2.36-5.91,7.7,7.7,0,0,1,11.36,0,8.37,8.37,0,0,1,2.35,5.93,8.66,8.66,0,0,1-2.29,6,7.22,7.22,0,0,1-5.57,2.55h-.3A7.27,7.27,0,0,1,357.66,688.8Zm12.66-5.89a7.54,7.54,0,0,0-2-5.26,6.4,6.4,0,0,0-4.88-2.23,6.47,6.47,0,0,0-4.91,2.25,7.51,7.51,0,0,0-2.08,5.26,7.38,7.38,0,0,0,2.08,5.23,6.54,6.54,0,0,0,4.93,2.21,6.38,6.38,0,0,0,4.88-2.21A7.5,7.5,0,0,0,370.32,682.91Z"/>
            <path class="s4-b-m-cls-7" d="M380.38,690.3v1a5.53,5.53,0,0,1-4.08-1.71,6,6,0,0,1-1.69-4.37V664h1.08v21.2a5.06,5.06,0,0,0,1.37,3.63A4.42,4.42,0,0,0,380.38,690.3Z"/>
            <path class="s4-b-m-cls-7" d="M388.85,668.27v1a4.42,4.42,0,0,0-3.32,1.44,5.06,5.06,0,0,0-1.37,3.63v9.45h4.73v1h-4.73V691h-1.08V674.34a6,6,0,0,1,1.69-4.37A5.53,5.53,0,0,1,388.85,668.27Z"/>
          </g>
        </g>
      </g>
      <polygon id="Ромб-6" data-name="Ромб" class="s4-b-m-cls-1" points="360.33 540.05 0.33 674.94 360.33 809.83 720.33 674.94 360.33 540.05"/>
    </g>
    <g id="mksoloview" data-open-case-modal="mksoloview">
      <g class="s4-b-m-cls-18">
        <image width="772" height="273" transform="translate(357.81 943.69) scale(0.94 1)" xlink:href="images/section-4-back-pics/mksoloviev.jpg"/>
        <g class="overlay" id="overlay-5" data-name="overlay">
          <polygon id="overlay-back-5" data-name="overlay-back" class="s4-b-m-cls-10" points="720.5 946.42 359.69 1081.53 720.5 1216.65 1081.3 1081.53 720.5 946.42"/>
          <g>
            <path class="s4-b-m-cls-7" d="M684.51,1041.27v1h-5.78v26h-1.12v-26h-5.85v-1Z"/>
            <path class="s4-b-m-cls-7" d="M684.14,1075.46v-23.4h1.08v4a7.18,7.18,0,0,1,2.86-3.17,7.65,7.65,0,0,1,4-1.19,7.53,7.53,0,0,1,5.7,2.5,8.82,8.82,0,0,1,0,12,7.56,7.56,0,0,1-9.66,1.33,7.77,7.77,0,0,1-2.94-3.15v11.12Zm1-15.26a7.39,7.39,0,0,0,2.08,5.24,6.55,6.55,0,0,0,4.94,2.21,6.4,6.4,0,0,0,4.89-2.21,7.82,7.82,0,0,0,0-10.53,6.41,6.41,0,0,0-4.89-2.23,6.49,6.49,0,0,0-4.92,2.25A7.52,7.52,0,0,0,685.15,1060.2Z"/>
            <path class="s4-b-m-cls-7" d="M711.1,1068.7h-.37a7.22,7.22,0,0,1-5.53-2.56,8.63,8.63,0,0,1-2.32-6,8.35,8.35,0,0,1,2.37-5.94,7.73,7.73,0,0,1,5.85-2.5,7.61,7.61,0,0,1,6,3l-10.62,11.16a6.65,6.65,0,0,0,4.23,1.87,6.79,6.79,0,0,0,3.64-1,8.23,8.23,0,0,0,2.66-2.65v1.83A7.46,7.46,0,0,1,711.1,1068.7Zm-.29-16a6.38,6.38,0,0,0-4.77,2.21A7.22,7.22,0,0,0,704,1060a7.65,7.65,0,0,0,1.79,5l9.84-10.4A6.84,6.84,0,0,0,710.81,1052.71Z"/>
            <path class="s4-b-m-cls-7" d="M732,1052.07h1.08v16.2H732v-6.08H721.72v6.08h-1.08v-16.2h1.08v9.11H732Z"/>
            <path class="s4-b-m-cls-7" d="M751.15,1052.1v16.16h-1V1053.9l-11,14.36h-.95V1052.1h1v14.36l10.93-14.36Z"/>
            <path class="s4-b-m-cls-7" d="M767.62,1052.07h1.08v16.2h-1.08v-6.08H757.3v6.08h-1.08v-16.2h1.08v9.11h10.32Z"/>
            <path class="s4-b-m-cls-7" d="M780.5,1053.11h-5.65v15.15h-1.08V1052.1h6.73Z"/>
            <path class="s4-b-m-cls-7" d="M566.06,1084.46h1.08a5.06,5.06,0,0,1,3.69,1.46,5,5,0,0,1,1.49,3.72,5.52,5.52,0,0,1-.83,2.79,4,4,0,0,1-1.94,1.85,7.84,7.84,0,0,1,4.33,3,9.15,9.15,0,0,1,1.73,5.71,8.29,8.29,0,0,1-2.47,6,8,8,0,0,1-6,2.54h-1.08Zm1.08,1v8.5h.27a3.51,3.51,0,0,0,2.69-1.31,4.42,4.42,0,0,0,1.17-3,4.14,4.14,0,0,0-1.15-2.93,3.6,3.6,0,0,0-2.71-1.22Zm0,9.47v15.51h.27a6.6,6.6,0,0,0,5-2.3,8.14,8.14,0,0,0,0-10.92,6.6,6.6,0,0,0-5-2.29Z"/>
            <path class="s4-b-m-cls-7" d="M578.61,1111.46h-1l7.48-16.67,7.51,16.67h-1.18L585,1097.24Z"/>
            <path class="s4-b-m-cls-7" d="M610.84,1095.26v16.2h-1.08v-4a7.41,7.41,0,0,1-2.84,3.24,7.64,7.64,0,0,1-9.74-1.31,8.77,8.77,0,0,1,0-12,7.55,7.55,0,0,1,5.68-2.5,7.77,7.77,0,0,1,4.14,1.22,6.52,6.52,0,0,1,2.76,3.24v-4.07Zm-15,8.14a7.39,7.39,0,0,0,2.08,5.24,6.55,6.55,0,0,0,4.94,2.21,6.4,6.4,0,0,0,4.89-2.21,7.82,7.82,0,0,0,0-10.53,6.41,6.41,0,0,0-4.89-2.23,6.49,6.49,0,0,0-4.92,2.25A7.52,7.52,0,0,0,595.89,1103.4Z"/>
            <path class="s4-b-m-cls-7" d="M614.22,1113.51v-3h1.18l7.07-15.73,7.07,15.69h1.12v3h-.95v-2.05H615.1v2.05Zm8.15-16.27-6,13.25h11.94Z"/>
            <path class="s4-b-m-cls-7" d="M647,1095.3v16.16h-1V1097.1l-11,14.36H634V1095.3h1v14.36L646,1095.3Z"/>
            <path class="s4-b-m-cls-7" d="M652.07,1111.46v-16.2h1.22l6.66,14.33,6.77-14.33h1v16.2h-1.08v-14.07l-6.87,14.51L653,1097.24v14.22Z"/>
            <path class="s4-b-m-cls-7" d="M685.76,1095.3v16.16h-1V1097.1l-11,14.36h-.95V1095.3h1v14.36l10.93-14.36Z"/>
            <path class="s4-b-m-cls-7" d="M690.84,1118.66v-23.4h1.08v4a7.18,7.18,0,0,1,2.86-3.17,7.65,7.65,0,0,1,4-1.19,7.53,7.53,0,0,1,5.7,2.5,8.82,8.82,0,0,1,0,12,7.56,7.56,0,0,1-9.66,1.33,7.77,7.77,0,0,1-2.94-3.15v11.12Zm1-15.26a7.39,7.39,0,0,0,2.08,5.24,6.55,6.55,0,0,0,4.94,2.21,6.4,6.4,0,0,0,4.89-2.21,7.82,7.82,0,0,0,0-10.53,6.41,6.41,0,0,0-4.89-2.23,6.49,6.49,0,0,0-4.92,2.25A7.52,7.52,0,0,0,691.85,1103.4Z"/>
            <path class="s4-b-m-cls-7" d="M725.61,1095.26v16.2h-1.08v-4a7.41,7.41,0,0,1-2.84,3.24,7.64,7.64,0,0,1-9.74-1.31,8.77,8.77,0,0,1,0-12,7.55,7.55,0,0,1,5.68-2.5,7.77,7.77,0,0,1,4.14,1.22,6.52,6.52,0,0,1,2.76,3.24v-4.07Zm-15,8.14a7.39,7.39,0,0,0,2.08,5.24,6.55,6.55,0,0,0,4.94,2.21,6.4,6.4,0,0,0,4.89-2.21,7.82,7.82,0,0,0,0-10.53,6.41,6.41,0,0,0-4.89-2.23,6.49,6.49,0,0,0-4.92,2.25A7.52,7.52,0,0,0,710.66,1103.4Z"/>
            <path class="s4-b-m-cls-7" d="M755,1111.85h-.37a11.75,11.75,0,0,1-6.49-1.94,13.92,13.92,0,0,1-4.75-5.17,14.2,14.2,0,0,1-1.74-6.86,13.85,13.85,0,0,1,3.89-9.84,12.35,12.35,0,0,1,9.3-4.12,12.81,12.81,0,0,1,6.87,2v1.33a11.48,11.48,0,0,0-6.87-2.3,11.26,11.26,0,0,0-8.52,3.8,13.48,13.48,0,0,0,0,18.23,11.24,11.24,0,0,0,8.52,3.82,11.48,11.48,0,0,0,6.87-2.3v1.33A12,12,0,0,1,755,1111.85Z"/>
            <path class="s4-b-m-cls-7" d="M764.27,1103.29a8.32,8.32,0,0,1,2.37-5.92,7.72,7.72,0,0,1,11.38,0,8.38,8.38,0,0,1,2.35,5.94,8.67,8.67,0,0,1-2.3,6,7.23,7.23,0,0,1-5.58,2.56h-.34a7.26,7.26,0,0,1-5.53-2.57A8.61,8.61,0,0,1,764.27,1103.29Zm15,.09a7.55,7.55,0,0,0-2-5.27,6.41,6.41,0,0,0-4.89-2.23,6.49,6.49,0,0,0-4.92,2.25,7.52,7.52,0,0,0-2.08,5.27,7.39,7.39,0,0,0,2.08,5.24,6.55,6.55,0,0,0,4.94,2.21,6.4,6.4,0,0,0,4.89-2.21A7.52,7.52,0,0,0,779.29,1103.38Z"/>
            <path class="s4-b-m-cls-7" d="M783.55,1111.46h-1l7.48-16.67,7.51,16.67h-1.18l-6.43-14.22Z"/>
            <path class="s4-b-m-cls-7" d="M799.75,1103.29a8.32,8.32,0,0,1,2.37-5.92,7.72,7.72,0,0,1,11.38,0,8.38,8.38,0,0,1,2.35,5.94,8.67,8.67,0,0,1-2.3,6,7.23,7.23,0,0,1-5.58,2.56h-.34a7.26,7.26,0,0,1-5.53-2.57A8.61,8.61,0,0,1,799.75,1103.29Zm15,.09a7.55,7.55,0,0,0-2-5.27,6.41,6.41,0,0,0-4.89-2.23,6.49,6.49,0,0,0-4.92,2.25,7.52,7.52,0,0,0-2.08,5.27,7.39,7.39,0,0,0,2.08,5.24,6.55,6.55,0,0,0,4.94,2.21,6.4,6.4,0,0,0,4.89-2.21A7.52,7.52,0,0,0,814.77,1103.38Z"/>
            <path class="s4-b-m-cls-7" d="M819.74,1095.26h2.84a2.82,2.82,0,0,1,2.18,1,3.64,3.64,0,0,1,.86,2.54,2.8,2.8,0,0,1-1.25,2.45,4.28,4.28,0,0,1,2.28,1.87,6,6,0,0,1,.93,3.35,5,5,0,0,1-1.45,3.47,4.66,4.66,0,0,1-3.55,1.57h-2.84Zm2.88,1h-1.79v4.61h1.86a1.87,1.87,0,0,0,1.42-.67,2.27,2.27,0,0,0,.61-1.58,2.39,2.39,0,0,0-.64-1.64A1.92,1.92,0,0,0,822.62,1096.23Zm0,5.58h-1.83v8.67h1.83a3.65,3.65,0,0,0,2.79-1.28,4.4,4.4,0,0,0,1.17-3.08,4.34,4.34,0,0,0-1.17-3.06A3.67,3.67,0,0,0,822.65,1101.81Z"/>
            <path class="s4-b-m-cls-7" d="M831.48,1095.26h1.08v5.58h1.66a4.57,4.57,0,0,1,3.48,1.58,5.35,5.35,0,0,1,1.45,3.74,5.23,5.23,0,0,1-1.49,3.73,4.73,4.73,0,0,1-3.55,1.57h-2.64Zm1.08,6.55v8.67h1.59a3.67,3.67,0,0,0,2.77-1.28,4.3,4.3,0,0,0,1.18-3,4.4,4.4,0,0,0-1.2-3.06,3.65,3.65,0,0,0-2.76-1.31Z"/>
            <path class="s4-b-m-cls-7" d="M850.08,1111.89h-.37a7.22,7.22,0,0,1-5.53-2.56,8.63,8.63,0,0,1-2.32-6,8.35,8.35,0,0,1,2.37-5.94,7.73,7.73,0,0,1,5.85-2.5,7.61,7.61,0,0,1,6,3L845.45,1109a6.65,6.65,0,0,0,4.23,1.87,6.79,6.79,0,0,0,3.64-1,8.23,8.23,0,0,0,2.66-2.65v1.83A7.46,7.46,0,0,1,850.08,1111.89Zm-.29-16a6.38,6.38,0,0,0-4.77,2.21,7.22,7.22,0,0,0-2.08,5.09,7.65,7.65,0,0,0,1.79,5l9.84-10.4A6.84,6.84,0,0,0,849.79,1095.91Z"/>
            <path class="s4-b-m-cls-7" d="M859.62,1095.26h2.84a2.82,2.82,0,0,1,2.18,1,3.64,3.64,0,0,1,.86,2.54,2.8,2.8,0,0,1-1.25,2.45,4.28,4.28,0,0,1,2.28,1.87,6,6,0,0,1,.93,3.35,5,5,0,0,1-1.45,3.47,4.66,4.66,0,0,1-3.55,1.57h-2.84Zm2.88,1H860.7v4.61h1.86a1.87,1.87,0,0,0,1.42-.67,2.27,2.27,0,0,0,.61-1.58,2.39,2.39,0,0,0-.64-1.64A1.92,1.92,0,0,0,862.49,1096.23Zm0,5.58H860.7v8.67h1.83a3.65,3.65,0,0,0,2.79-1.28,4.4,4.4,0,0,0,1.17-3.08,4.34,4.34,0,0,0-1.17-3.06A3.67,3.67,0,0,0,862.53,1101.81Z"/>
            <path class="s4-b-m-cls-7" d="M886.21,1095.26v16.2h-1.08v-4a7.41,7.41,0,0,1-2.84,3.24,7.64,7.64,0,0,1-9.74-1.31,8.77,8.77,0,0,1,0-12,7.55,7.55,0,0,1,5.68-2.5,7.77,7.77,0,0,1,4.14,1.22,6.52,6.52,0,0,1,2.76,3.24v-4.07Zm-15,8.14a7.39,7.39,0,0,0,2.08,5.24,6.55,6.55,0,0,0,4.94,2.21,6.4,6.4,0,0,0,4.89-2.21,7.82,7.82,0,0,0,0-10.53,6.41,6.41,0,0,0-4.89-2.23,6.49,6.49,0,0,0-4.92,2.25A7.52,7.52,0,0,0,871.25,1103.4Z"/>
          </g>
        </g>
      </g>
      <polygon id="Ромб-7" data-name="Ромб" class="s4-b-m-cls-1" points="720.5 946.42 359.69 1081.53 720.5 1216.65 1081.3 1081.53 720.5 946.42"/>
    </g>
    <g id="me" data-open-case-modal="me">
      <g class="s4-b-m-cls-19">
        <image width="390" height="280" transform="translate(329.59 1074.27) scale(1.01 1)" xlink:href="images/section-4-back-pics/me_v2.0.jpg"/>
        <g class="overlay" id="overlay-6" data-name="overlay">
          <polygon id="overlay-back-6" data-name="overlay-back" class="s4-b-m-cls-10" points="359.32 1080.95 359.32 1351.18 720.12 1216.06 359.32 1080.95"/>
          <g>
            <path class="s4-b-m-cls-7" d="M413.57,1204.48v21h-.87v-19.91l-9.31,20.3-9.26-20.3v19.91h-.79v-21h1.26l8.87,19.37,8.89-19.37Z"/>
            <path class="s4-b-m-cls-7" d="M428.94,1212.88v12.6h-.84v-3.14a5.75,5.75,0,0,1-2.21,2.52,5.94,5.94,0,0,1-7.58-1,6.82,6.82,0,0,1,0-9.32,5.87,5.87,0,0,1,4.42-1.95,6,6,0,0,1,3.22,1,5.06,5.06,0,0,1,2.14,2.52v-3.16Zm-11.63,6.33a5.75,5.75,0,0,0,1.62,4.07,5.1,5.1,0,0,0,3.84,1.72,5,5,0,0,0,3.8-1.72,6.08,6.08,0,0,0,0-8.19,5,5,0,0,0-3.8-1.74,5.05,5.05,0,0,0-3.83,1.75A5.85,5.85,0,0,0,417.31,1219.21Z"/>
            <path class="s4-b-m-cls-7" d="M436.46,1213.36a3.3,3.3,0,0,0-2.46,1.12,3.66,3.66,0,0,0-1.07,2.6v8.4h-.84v-12.6h.84v1.88a3.85,3.85,0,0,1,1.47-1.57,4.18,4.18,0,0,1,2.24-.62,3.77,3.77,0,0,1,2.37.9v1.12A3.45,3.45,0,0,0,436.46,1213.36Z"/>
            <path class="s4-b-m-cls-7" d="M441.25,1204.54h.84v12.71l4.68-4.37h1.08l-5.42,5,6.79,7.56h-1.13l-6-6.63v6.63h-.84Z"/>
            <path class="s4-b-m-cls-7" d="M456,1225.82h-.24a5.75,5.75,0,0,1-4.35-2,6.64,6.64,0,0,1-1.85-4.66,6.48,6.48,0,0,1,1.84-4.61,6,6,0,0,1,4.55-1.95,5.92,5.92,0,0,1,4.66,2.29l-8.26,8.68a5.17,5.17,0,0,0,3.29,1.46,5.28,5.28,0,0,0,2.83-.77,6.39,6.39,0,0,0,2.07-2.06v1.43A5.75,5.75,0,0,1,456,1225.82Zm-.28-12.43a5,5,0,0,0-3.71,1.72,5.62,5.62,0,0,0-1.62,4,6,6,0,0,0,1.39,3.92l7.66-8.09A5.33,5.33,0,0,0,455.68,1213.38Z"/>
            <path class="s4-b-m-cls-7" d="M467.29,1224.86v.78a4.31,4.31,0,0,1-3.18-1.33,4.63,4.63,0,0,1-1.32-3.4v-13.1h.84v5.1h3.63v.78h-3.63v7.22a3.94,3.94,0,0,0,1.07,2.83A3.44,3.44,0,0,0,467.29,1224.86Z"/>
            <path class="s4-b-m-cls-7" d="M470.16,1209.83a.76.76,0,1,1,.76-.76A.67.67,0,0,1,470.16,1209.83Zm.42,3.08v12.57h-.84v-12.57Z"/>
            <path class="s4-b-m-cls-7" d="M474.92,1225.48h-.84v-12.6h.84v2.55a4.68,4.68,0,0,1,4.58-2.86,4.85,4.85,0,0,1,3.71,1.62,5.61,5.61,0,0,1,1.5,3.95v7.33h-.84v-7.33a4.88,4.88,0,0,0-1.28-3.36,4,4,0,0,0-3.09-1.43,4.32,4.32,0,0,0-3.2,1.43,4.67,4.67,0,0,0-1.38,3.36Z"/>
            <path class="s4-b-m-cls-7" d="M498.86,1212.88h.84v11.42a7.39,7.39,0,0,1-1.68,5.12,5.66,5.66,0,0,1-4.42,1.88,6.34,6.34,0,0,1-2.92-.73,5.76,5.76,0,0,1-2.21-1.9v-1.29a6.09,6.09,0,0,0,5.13,3.14,4.83,4.83,0,0,0,3.79-1.67,6.63,6.63,0,0,0,1.47-4.55v-1.88a5.57,5.57,0,0,1-2.24,2.46,6,6,0,0,1-3.16.92,5.87,5.87,0,0,1-4.42-1.95,6.82,6.82,0,0,1,0-9.32,5.87,5.87,0,0,1,4.42-1.95,6,6,0,0,1,3.2.91,5.5,5.5,0,0,1,2.2,2.51ZM488,1219.21a5.78,5.78,0,0,0,1.62,4.1,5.1,5.1,0,0,0,3.84,1.72,5,5,0,0,0,3.8-1.72,6.12,6.12,0,0,0,0-8.2,5,5,0,0,0-3.8-1.72,5.1,5.1,0,0,0-3.84,1.72A5.79,5.79,0,0,0,488,1219.21Z"/>
            <path class="s4-b-m-cls-7" d="M512.46,1204.48h7.08v.81h-6.21v11.42h5.18v.81h-5.18v7.14h6.21v.81h-7.08Z"/>
            <path class="s4-b-m-cls-7" d="M522.62,1225.48h-.84v-12.6h.84v2.55a4.68,4.68,0,0,1,4.58-2.86,4.85,4.85,0,0,1,3.71,1.62,5.61,5.61,0,0,1,1.5,3.95v7.33h-.84v-7.33a4.88,4.88,0,0,0-1.28-3.36,4,4,0,0,0-3.09-1.43,4.32,4.32,0,0,0-3.2,1.43,4.67,4.67,0,0,0-1.38,3.36Z"/>
            <path class="s4-b-m-cls-7" d="M546.56,1212.88h.84v11.42a7.39,7.39,0,0,1-1.68,5.12,5.66,5.66,0,0,1-4.42,1.88,6.34,6.34,0,0,1-2.92-.73,5.76,5.76,0,0,1-2.21-1.9v-1.29a6.09,6.09,0,0,0,5.13,3.14,4.83,4.83,0,0,0,3.79-1.67,6.63,6.63,0,0,0,1.47-4.55v-1.88a5.57,5.57,0,0,1-2.24,2.46,6,6,0,0,1-3.16.92,5.87,5.87,0,0,1-4.42-1.95,6.82,6.82,0,0,1,0-9.32,5.87,5.87,0,0,1,4.42-1.95,6,6,0,0,1,3.2.91,5.5,5.5,0,0,1,2.2,2.51Zm-10.81,6.33a5.78,5.78,0,0,0,1.62,4.1,5.1,5.1,0,0,0,3.84,1.72,5,5,0,0,0,3.8-1.72,6.12,6.12,0,0,0,0-8.2,5,5,0,0,0-3.8-1.72,5.1,5.1,0,0,0-3.84,1.72A5.79,5.79,0,0,0,535.75,1219.21Z"/>
            <path class="s4-b-m-cls-7" d="M551.32,1209.83a.76.76,0,1,1,.76-.76A.67.67,0,0,1,551.32,1209.83Zm.42,3.08v12.57h-.84v-12.57Z"/>
            <path class="s4-b-m-cls-7" d="M556.08,1225.48h-.84v-12.6h.84v2.55a4.68,4.68,0,0,1,4.58-2.86,4.85,4.85,0,0,1,3.71,1.62,5.61,5.61,0,0,1,1.5,3.95v7.33H565v-7.33a4.88,4.88,0,0,0-1.28-3.36,4,4,0,0,0-3.09-1.43,4.32,4.32,0,0,0-3.2,1.43,4.67,4.67,0,0,0-1.38,3.36Z"/>
            <path class="s4-b-m-cls-7" d="M574.94,1225.82h-.24a5.75,5.75,0,0,1-4.35-2,6.64,6.64,0,0,1-1.85-4.66,6.48,6.48,0,0,1,1.84-4.61,6,6,0,0,1,4.55-1.95,5.92,5.92,0,0,1,4.66,2.29l-8.26,8.68a5.17,5.17,0,0,0,3.29,1.46,5.28,5.28,0,0,0,2.83-.77,6.39,6.39,0,0,0,2.07-2.06v1.43A5.75,5.75,0,0,1,574.94,1225.82Zm-.28-12.43a5,5,0,0,0-3.71,1.72,5.62,5.62,0,0,0-1.62,4,6,6,0,0,0,1.39,3.92l7.66-8.09A5.33,5.33,0,0,0,574.67,1213.38Z"/>
            <path class="s4-b-m-cls-7" d="M588,1225.82h-.24a5.75,5.75,0,0,1-4.35-2,6.64,6.64,0,0,1-1.85-4.66,6.48,6.48,0,0,1,1.84-4.61,6,6,0,0,1,4.55-1.95,5.92,5.92,0,0,1,4.66,2.29l-8.26,8.68a5.17,5.17,0,0,0,3.29,1.46,5.28,5.28,0,0,0,2.83-.77,6.39,6.39,0,0,0,2.07-2.06v1.43A5.75,5.75,0,0,1,588,1225.82Zm-.28-12.43a5,5,0,0,0-3.71,1.72,5.62,5.62,0,0,0-1.62,4,6,6,0,0,0,1.39,3.92l7.66-8.09A5.33,5.33,0,0,0,587.69,1213.38Z"/>
            <path class="s4-b-m-cls-7" d="M599.44,1213.36a3.3,3.3,0,0,0-2.46,1.12,3.66,3.66,0,0,0-1.07,2.6v8.4h-.84v-12.6h.84v1.88a3.85,3.85,0,0,1,1.47-1.57,4.18,4.18,0,0,1,2.24-.62,3.77,3.77,0,0,1,2.37.9v1.12A3.45,3.45,0,0,0,599.44,1213.36Z"/>
            <path class="s4-b-m-cls-7" d="M606.8,1213.33a1.76,1.76,0,0,0-1.21.48,1.53,1.53,0,0,0-.53,1.18,1.79,1.79,0,0,0,.59,1.29,7.16,7.16,0,0,0,1.42,1.08q.83.49,1.67,1a5.25,5.25,0,0,1,1.43,1.43,3.44,3.44,0,0,1,.59,2,3.82,3.82,0,0,1-1.17,2.81,3.87,3.87,0,0,1-2.83,1.16,4.07,4.07,0,0,1-2-.49,3.1,3.1,0,0,1-1.33-1.3v-1.34a3.35,3.35,0,0,0,3.21,2.35,3.2,3.2,0,0,0,2.3-.9,2.72,2.72,0,0,0,.93-2,2.93,2.93,0,0,0-.59-1.86,5.63,5.63,0,0,0-1.43-1.29l-1.67-1a5.57,5.57,0,0,1-1.42-1.26,2.7,2.7,0,0,1-.59-1.74,2.19,2.19,0,0,1,.75-1.68,2.76,2.76,0,0,1,1.93-.69,2.58,2.58,0,0,1,2,1v1.15A2.47,2.47,0,0,0,606.8,1213.33Z"/>
          </g>
        </g>
      </g>
      <polygon id="Треугольник-44" data-name="Треугольник" class="s4-b-m-cls-1" points="359.32 1080.95 359.32 1351.18 720.12 1216.06 359.32 1080.95"/>
    </g>
    <g id="atlant" data-open-case-modal="atlant">
      <g class="s4-b-m-cls-20">
        <image width="390" height="280" transform="translate(720.28 1078.2) scale(0.94 1)" xlink:href="images/section-4-back-pics/atlant.JPG"/>
        <g class="overlay" id="overlay-7" data-name="overlay">
          <polygon id="overlay-back-7" data-name="overlay-back" class="s4-b-m-cls-10" points="1082 1351.15 1082 1080.92 721.2 1216.03 1082 1351.15"/>
          <g>
            <path class="s4-b-m-cls-7" d="M904.14,1203.8l9.87,21.5h-.92l-3.74-8H898.8l-3.68,8h-.82Zm-.08,1.93-4.92,10.75H909Z"/>
            <path class="s4-b-m-cls-7" d="M920.61,1224.68v.78a4.31,4.31,0,0,1-3.18-1.33,4.63,4.63,0,0,1-1.32-3.4v-13.1H917v5.1h3.63v.78H917v7.22a3.94,3.94,0,0,0,1.07,2.83A3.44,3.44,0,0,0,920.61,1224.68Z"/>
            <path class="s4-b-m-cls-7" d="M927.22,1224.77v.78a4.31,4.31,0,0,1-3.18-1.33,4.63,4.63,0,0,1-1.32-3.4V1204.3h.84v16.52a3.94,3.94,0,0,0,1.07,2.83A3.44,3.44,0,0,0,927.22,1224.77Z"/>
            <path class="s4-b-m-cls-7" d="M940.08,1212.7v12.6h-.84v-3.14a5.75,5.75,0,0,1-2.21,2.52,5.94,5.94,0,0,1-7.58-1,6.82,6.82,0,0,1,0-9.32,5.87,5.87,0,0,1,4.42-1.95,6,6,0,0,1,3.22,1,5.06,5.06,0,0,1,2.14,2.52v-3.16ZM928.45,1219a5.75,5.75,0,0,0,1.62,4.07,5.1,5.1,0,0,0,3.84,1.72,5,5,0,0,0,3.8-1.72,6.08,6.08,0,0,0,0-8.19,5,5,0,0,0-3.8-1.74,5.05,5.05,0,0,0-3.83,1.75A5.85,5.85,0,0,0,928.45,1219Z"/>
            <path class="s4-b-m-cls-7" d="M944.08,1225.3h-.84v-12.6h.84v2.55a4.68,4.68,0,0,1,4.58-2.86,4.85,4.85,0,0,1,3.71,1.62,5.61,5.61,0,0,1,1.5,3.95v7.33H953V1218a4.88,4.88,0,0,0-1.28-3.36,4,4,0,0,0-3.09-1.43,4.32,4.32,0,0,0-3.2,1.43,4.67,4.67,0,0,0-1.38,3.36Z"/>
            <path class="s4-b-m-cls-7" d="M961.26,1224.68v.78a4.31,4.31,0,0,1-3.18-1.33,4.63,4.63,0,0,1-1.32-3.4v-13.1h.84v5.1h3.63v.78H957.6v7.22a3.94,3.94,0,0,0,1.07,2.83A3.44,3.44,0,0,0,961.26,1224.68Z"/>
            <path class="s4-b-m-cls-7" d="M980.38,1217.29v-.81h7.39v7.59a9.2,9.2,0,0,1-5.21,1.54h-.29a9.14,9.14,0,0,1-5.05-1.51,10.81,10.81,0,0,1-3.7-4,11,11,0,0,1-1.36-5.33,10.77,10.77,0,0,1,3-7.66,9.61,9.61,0,0,1,7.24-3.21,10,10,0,0,1,5.34,1.57v1a8.93,8.93,0,0,0-5.34-1.79,8.76,8.76,0,0,0-6.63,3,10.48,10.48,0,0,0,0,14.18,8.74,8.74,0,0,0,6.63,3,9.86,9.86,0,0,0,4.47-1.18v-6.33Z"/>
            <path class="s4-b-m-cls-7" d="M995.17,1213.18a3.3,3.3,0,0,0-2.46,1.12,3.66,3.66,0,0,0-1.07,2.6v8.4h-.84v-12.6h.84v1.88a3.85,3.85,0,0,1,1.47-1.57,4.18,4.18,0,0,1,2.24-.62,3.77,3.77,0,0,1,2.37.9v1.12A3.46,3.46,0,0,0,995.17,1213.18Z"/>
            <path class="s4-b-m-cls-7" d="M1001.12,1223.61a6.73,6.73,0,0,1-1.82-4.66,6.47,6.47,0,0,1,1.84-4.61,6,6,0,0,1,8.85,0,6.52,6.52,0,0,1,1.83,4.62,6.75,6.75,0,0,1-1.79,4.66,5.63,5.63,0,0,1-4.34,2h-.24A5.66,5.66,0,0,1,1001.12,1223.61ZM1011,1219a5.87,5.87,0,0,0-1.59-4.1,5,5,0,0,0-3.8-1.74,5,5,0,0,0-3.83,1.75,5.85,5.85,0,0,0-1.62,4.1,5.75,5.75,0,0,0,1.62,4.07,5.1,5.1,0,0,0,3.84,1.72,5,5,0,0,0,3.8-1.72A5.85,5.85,0,0,0,1011,1219Z"/>
            <path class="s4-b-m-cls-7" d="M1023.85,1212.7h.84v12.6h-.84v-2.55a4.68,4.68,0,0,1-4.58,2.86,4.85,4.85,0,0,1-3.71-1.62,5.61,5.61,0,0,1-1.5-3.95v-7.33h.84V1220a4.88,4.88,0,0,0,1.28,3.36,4,4,0,0,0,3.09,1.43,4.32,4.32,0,0,0,3.2-1.43,4.68,4.68,0,0,0,1.38-3.36Z"/>
            <path class="s4-b-m-cls-7" d="M1027.58,1230.9v-18.2h.84v3.08a5.59,5.59,0,0,1,2.22-2.46,5.94,5.94,0,0,1,3.14-.92,5.86,5.86,0,0,1,4.43,1.95,6.85,6.85,0,0,1,0,9.32,5.88,5.88,0,0,1-7.51,1,6,6,0,0,1-2.29-2.45v8.65Zm.79-11.87a5.75,5.75,0,0,0,1.62,4.07,5.1,5.1,0,0,0,3.84,1.72,5,5,0,0,0,3.8-1.72,6.08,6.08,0,0,0,0-8.19,5,5,0,0,0-3.8-1.74,5,5,0,0,0-3.83,1.75A5.85,5.85,0,0,0,1028.37,1219Z"/>
          </g>
        </g>
      </g>
      <polygon id="Треугольник-45" data-name="Треугольник" class="s4-b-m-cls-1" points="1082 1351.15 1082 1080.92 721.2 1216.03 1082 1351.15"/>
    </g>
    <g id="_15_puzzle" data-name="15_puzzle" data-open-case-modal="15_puzzle">
      <g class="s4-b-m-cls-21">
        <rect class="s4-b-m-cls-7" x="712.8" y="1206.14" width="376.3" height="281.96"/>
        <image id="_15_puzzle_back" data-name="15_puzzle_back" width="256" height="256" transform="translate(768.7 1296.13) scale(0.42 0.45)" xlink:href="images/section-4-back-pics/15_puzzle.png"/>
        <g class="overlay" id="overlay-8" data-name="overlay">
          <polygon id="overlay-back-8" data-name="overlay-back" class="s4-b-m-cls-10" points="720.76 1215.52 720.76 1485.75 1081.56 1350.63 720.76 1215.52"/>
          <g id="Пятнашки">
            <path class="s4-b-m-cls-7" d="M769.88,1335.86v21H769v-19.68l-13.76,19.68h-.82v-21h.87v19.63L769,1335.86Z"/>
            <path class="s4-b-m-cls-7" d="M779.06,1345.07h-4.39v11.79h-.84v-12.57h5.24Z"/>
            <path class="s4-b-m-cls-7" d="M781.69,1362.46v-18.2h.84v3.08a5.59,5.59,0,0,1,2.22-2.46,5.94,5.94,0,0,1,3.14-.92,5.86,5.86,0,0,1,4.43,1.95,6.86,6.86,0,0,1,0,9.32,5.88,5.88,0,0,1-7.51,1,6,6,0,0,1-2.29-2.45v8.65Zm.79-11.87a5.75,5.75,0,0,0,1.62,4.07,5.1,5.1,0,0,0,3.84,1.72,5,5,0,0,0,3.8-1.72,6.08,6.08,0,0,0,0-8.19,5,5,0,0,0-3.8-1.74,5,5,0,0,0-3.83,1.75A5.85,5.85,0,0,0,782.48,1350.59Z"/>
            <path class="s4-b-m-cls-7" d="M808.73,1344.26v12.6h-.84v-3.14a5.75,5.75,0,0,1-2.21,2.52,5.94,5.94,0,0,1-7.58-1,6.82,6.82,0,0,1,0-9.32,5.87,5.87,0,0,1,4.42-1.95,6,6,0,0,1,3.22,1,5.07,5.07,0,0,1,2.14,2.52v-3.16Zm-11.63,6.33a5.75,5.75,0,0,0,1.62,4.07,5.1,5.1,0,0,0,3.84,1.72,5,5,0,0,0,3.8-1.72,6.08,6.08,0,0,0,0-8.19,5,5,0,0,0-3.8-1.74,5,5,0,0,0-3.83,1.75A5.85,5.85,0,0,0,797.11,1350.59Z"/>
            <path class="s4-b-m-cls-7" d="M821.76,1350.14l5.73-5.4v1.2l-4.84,4.56,4.84,4.59v1.26l-5.73-5.49Zm4.6,0,5.74-5.4v1.2l-4.84,4.56,4.84,4.59v1.26l-5.74-5.49Z"/>
            <path class="s4-b-m-cls-7" d="M834.59,1335.86H847v21h-.87v-20.19H835.46v20.19h-.87Z"/>
            <path class="s4-b-m-cls-7" d="M851,1351a4.46,4.46,0,0,1-.82-2.7,4,4,0,0,1,1.14-2.8,3.64,3.64,0,0,1,2.75-1.22h1.58v12.6h-.84v-4.34h-.87l-3,4.34H850l3.05-4.42A3.69,3.69,0,0,1,851,1351Zm3.81.78V1345H854a2.83,2.83,0,0,0-2.14,1,3.43,3.43,0,0,0,0,4.7,2.83,2.83,0,0,0,2.14,1Z"/>
            <path class="s4-b-m-cls-7" d="M868.16,1344.29v.78h-4.53v11.79h-.84v-11.79h-4.52v-.78Z"/>
            <path class="s4-b-m-cls-7" d="M879.66,1344.26h.84v12.6h-.84v-4.73h-8v4.73h-.84v-12.6h.84v7.08h8Z"/>
            <path class="s4-b-m-cls-7" d="M896,1344.26v12.6h-.84v-3.14a5.75,5.75,0,0,1-2.21,2.52,5.94,5.94,0,0,1-7.58-1,6.82,6.82,0,0,1,0-9.32,5.87,5.87,0,0,1,4.42-1.95,6,6,0,0,1,3.22,1,5.07,5.07,0,0,1,2.14,2.52v-3.16Zm-11.63,6.33a5.75,5.75,0,0,0,1.62,4.07,5.1,5.1,0,0,0,3.84,1.72,5,5,0,0,0,3.8-1.72,6.08,6.08,0,0,0,0-8.19,5,5,0,0,0-3.8-1.74,5,5,0,0,0-3.83,1.75A5.85,5.85,0,0,0,884.37,1350.59Z"/>
            <path class="s4-b-m-cls-7" d="M912.15,1356.86H899.94v-12.6h.84v11.81h4.84v-11.81h.84v11.81h4.84v-11.81h.84Z"/>
            <path class="s4-b-m-cls-7" d="M916.1,1344.26h.84v4.37l4.68-4.37h1.08l-5.42,5,6.79,7.56h-1.13l-6-6.63v6.63h-.84Z"/>
            <path class="s4-b-m-cls-7" d="M936.77,1344.29v12.57H936v-11.17l-8.52,11.17h-.74v-12.57h.82v11.17l8.5-11.17Z"/>
            <path class="s4-b-m-cls-7" d="M939.27,1344.74l5.73,5.4v.73l-5.73,5.49v-1.26l4.84-4.59-4.84-4.56Zm4.6,0,5.74,5.4v.73l-5.74,5.49v-1.26l4.84-4.59-4.84-4.56Z"/>
          </g>
        </g>
      </g>
      <polygon id="Треугольник-46" data-name="Треугольник" class="s4-b-m-cls-1" points="720.76 1215.52 720.76 1485.75 1081.56 1350.63 720.76 1215.52"/>
    </g>
    <g id="passgen" data-open-case-modal="passgen">
      <g class="s4-b-m-cls-22">
        <rect class="s4-b-m-cls-7" x="351.05" y="1211.14" width="376.3" height="281.96"/>
        <image id="passgen_back" width="512" height="512" transform="translate(568.1 1297.63) scale(0.2 0.22)" xlink:href="images/section-4-back-pics/passgen.png"/>
        <g class="overlay" id="overlay-9" data-name="overlay">
          <polygon id="overlay-back-9" data-name="overlay-back" class="s4-b-m-cls-10" points="720.05 1485.68 720.05 1215.45 359.25 1350.56 720.05 1485.68"/>
          <g id="passgen-2" data-name="passgen">
            <path class="s4-b-m-cls-7" d="M477.88,1336.47h-6.16v20.19h-.87v-21h7Z"/>
            <path class="s4-b-m-cls-7" d="M482.49,1357h-.29a5.61,5.61,0,0,1-4.3-2,6.72,6.72,0,0,1-1.8-4.66,6.49,6.49,0,0,1,1.84-4.62,6,6,0,0,1,4.55-1.95,5.92,5.92,0,0,1,4.66,2.29l-8.26,8.68a5.17,5.17,0,0,0,3.29,1.46,5.28,5.28,0,0,0,2.83-.77,6.39,6.39,0,0,0,2.07-2.06v1.43A5.8,5.8,0,0,1,482.49,1357Zm-.22-12.43a5,5,0,0,0-3.71,1.72,5.62,5.62,0,0,0-1.62,4,6,6,0,0,0,1.39,3.92l7.66-8.09A5.33,5.33,0,0,0,482.26,1344.56Z"/>
            <path class="s4-b-m-cls-7" d="M498.77,1344.06h.84v12.6h-.84v-4.73h-8v4.73h-.84v-12.6h.84v7.08h8Z"/>
            <path class="s4-b-m-cls-7" d="M509,1357h-.29a5.61,5.61,0,0,1-4.3-2,6.72,6.72,0,0,1-1.8-4.66,6.49,6.49,0,0,1,1.84-4.62,6,6,0,0,1,4.55-1.95,5.92,5.92,0,0,1,4.66,2.29l-8.26,8.68a5.17,5.17,0,0,0,3.29,1.46,5.28,5.28,0,0,0,2.83-.77,6.39,6.39,0,0,0,2.07-2.06v1.43A5.8,5.8,0,0,1,509,1357Zm-.22-12.43a5,5,0,0,0-3.71,1.72,5.62,5.62,0,0,0-1.62,4,6,6,0,0,0,1.39,3.92l7.66-8.09A5.33,5.33,0,0,0,508.81,1344.56Z"/>
            <path class="s4-b-m-cls-7" d="M516.45,1362.26v-18.2h.84v3.08a5.59,5.59,0,0,1,2.22-2.46,5.94,5.94,0,0,1,3.14-.92,5.86,5.86,0,0,1,4.43,1.95,6.86,6.86,0,0,1,0,9.32,5.88,5.88,0,0,1-7.51,1,6,6,0,0,1-2.29-2.45v8.65Zm.79-11.87a5.75,5.75,0,0,0,1.62,4.07,5.1,5.1,0,0,0,3.84,1.72,5,5,0,0,0,3.8-1.72,6.08,6.08,0,0,0,0-8.19,5,5,0,0,0-3.8-1.74,5,5,0,0,0-3.83,1.75A5.85,5.85,0,0,0,517.24,1350.39Z"/>
            <path class="s4-b-m-cls-7" d="M543.5,1344.06v12.6h-.84v-3.14a5.75,5.75,0,0,1-2.21,2.52,5.94,5.94,0,0,1-7.58-1,6.82,6.82,0,0,1,0-9.32,5.87,5.87,0,0,1,4.42-1.95,6,6,0,0,1,3.22,1,5.07,5.07,0,0,1,2.14,2.52v-3.16Zm-11.63,6.33a5.75,5.75,0,0,0,1.62,4.07,5.1,5.1,0,0,0,3.84,1.72,5,5,0,0,0,3.8-1.72,6.08,6.08,0,0,0,0-8.19,5,5,0,0,0-3.8-1.74,5,5,0,0,0-3.83,1.75A5.85,5.85,0,0,0,531.87,1350.39Z"/>
            <path class="s4-b-m-cls-7" d="M556,1344.09v.78h-4.53v11.79h-.84v-11.79h-4.52v-.78Z"/>
            <path class="s4-b-m-cls-7" d="M557.73,1350.3a6.48,6.48,0,0,1,1.84-4.61,6,6,0,0,1,8.85,0,6.52,6.52,0,0,1,1.83,4.62,6.75,6.75,0,0,1-1.79,4.66,5.63,5.63,0,0,1-4.34,2h-.26a5.65,5.65,0,0,1-4.3-2A6.7,6.7,0,0,1,557.73,1350.3Zm11.68.07a5.87,5.87,0,0,0-1.59-4.1,5,5,0,0,0-3.8-1.74,5,5,0,0,0-3.83,1.75,5.85,5.85,0,0,0-1.62,4.1,5.75,5.75,0,0,0,1.62,4.07,5.1,5.1,0,0,0,3.84,1.72,5,5,0,0,0,3.8-1.72A5.85,5.85,0,0,0,569.41,1350.37Z"/>
            <path class="s4-b-m-cls-7" d="M573.28,1362.26v-18.2h.84v3.08a5.59,5.59,0,0,1,2.22-2.46,5.94,5.94,0,0,1,3.14-.92,5.86,5.86,0,0,1,4.43,1.95,6.86,6.86,0,0,1,0,9.32,5.88,5.88,0,0,1-7.51,1,6,6,0,0,1-2.29-2.45v8.65Zm.79-11.87a5.75,5.75,0,0,0,1.62,4.07,5.1,5.1,0,0,0,3.84,1.72,5,5,0,0,0,3.8-1.72,6.08,6.08,0,0,0,0-8.19,5,5,0,0,0-3.8-1.74,5,5,0,0,0-3.83,1.75A5.85,5.85,0,0,0,574.06,1350.39Z"/>
            <path class="s4-b-m-cls-7" d="M598,1344.06h9.52v12.6h-.84v-11.81h-7.84v11.81H598Z"/>
            <path class="s4-b-m-cls-7" d="M623,1344.06v12.6h-.84v-3.14a5.75,5.75,0,0,1-2.21,2.52,5.94,5.94,0,0,1-7.58-1,6.82,6.82,0,0,1,0-9.32,5.87,5.87,0,0,1,4.42-1.95,6,6,0,0,1,3.22,1,5.07,5.07,0,0,1,2.14,2.52v-3.16Zm-11.63,6.33a5.75,5.75,0,0,0,1.62,4.07,5.1,5.1,0,0,0,3.84,1.72,5,5,0,0,0,3.8-1.72,6.08,6.08,0,0,0,0-8.19,5,5,0,0,0-3.8-1.74,5,5,0,0,0-3.83,1.75A5.85,5.85,0,0,0,611.37,1350.39Z"/>
            <path class="s4-b-m-cls-7" d="M626.94,1362.26v-18.2h.84v3.08a5.59,5.59,0,0,1,2.22-2.46,5.94,5.94,0,0,1,3.14-.92,5.86,5.86,0,0,1,4.43,1.95,6.86,6.86,0,0,1,0,9.32,5.88,5.88,0,0,1-7.51,1,6,6,0,0,1-2.29-2.45v8.65Zm.79-11.87a5.75,5.75,0,0,0,1.62,4.07,5.1,5.1,0,0,0,3.84,1.72,5,5,0,0,0,3.8-1.72,6.08,6.08,0,0,0,0-8.19,5,5,0,0,0-3.8-1.74,5,5,0,0,0-3.83,1.75A5.85,5.85,0,0,0,627.73,1350.39Z"/>
            <path class="s4-b-m-cls-7" d="M641.52,1350.3a6.48,6.48,0,0,1,1.84-4.61,6,6,0,0,1,8.85,0,6.52,6.52,0,0,1,1.83,4.62,6.75,6.75,0,0,1-1.79,4.66,5.63,5.63,0,0,1-4.34,2h-.26a5.65,5.65,0,0,1-4.3-2A6.7,6.7,0,0,1,641.52,1350.3Zm11.68.07a5.87,5.87,0,0,0-1.59-4.1,5,5,0,0,0-3.8-1.74,5,5,0,0,0-3.83,1.75,5.85,5.85,0,0,0-1.62,4.1,5.75,5.75,0,0,0,1.62,4.07,5.1,5.1,0,0,0,3.84,1.72,5,5,0,0,0,3.8-1.72A5.85,5.85,0,0,0,653.2,1350.37Z"/>
            <path class="s4-b-m-cls-7" d="M656.51,1356.66h-.76l5.81-13,5.84,13h-.92l-5-11.06Z"/>
            <path class="s4-b-m-cls-7" d="M675.51,1357h-.29a5.61,5.61,0,0,1-4.3-2,6.72,6.72,0,0,1-1.8-4.66,6.49,6.49,0,0,1,1.84-4.62,6,6,0,0,1,4.55-1.95,5.92,5.92,0,0,1,4.66,2.29l-8.26,8.68a5.17,5.17,0,0,0,3.29,1.46,5.28,5.28,0,0,0,2.83-.77,6.39,6.39,0,0,0,2.07-2.06v1.43A5.8,5.8,0,0,1,675.51,1357Zm-.22-12.43a5,5,0,0,0-3.71,1.72,5.62,5.62,0,0,0-1.62,4,6,6,0,0,0,1.39,3.92l7.66-8.09A5.33,5.33,0,0,0,675.28,1344.56Z"/>
            <path class="s4-b-m-cls-7" d="M693,1344.09v12.57h-.82v-11.17l-8.52,11.17h-.74v-12.57h.82v11.17l8.5-11.17Zm-6.47-5.11a2.3,2.3,0,0,0,3.39,0,2.9,2.9,0,0,0,.84-1.76h.76a3.38,3.38,0,0,1-1,2.28,3,3,0,0,1-2.2,1h-.21a2.94,2.94,0,0,1-2.18-1,3.38,3.38,0,0,1-1-2.29h.74A2.74,2.74,0,0,0,686.53,1339Z"/>
          </g>
        </g>
      </g>
      <polygon id="Треугольник-47" data-name="Треугольник" class="s4-b-m-cls-1" points="720.05 1485.68 720.05 1215.45 359.25 1350.56 720.05 1485.68"/>
    </g>
    <g id="portfolio" data-open-case-modal="portfolio">
      <g class="s4-b-m-cls-23">
        <g id="ik_back">
          <rect id="preloader-back" class="s4-b-m-cls-24" x="-99.79" y="1487.39" width="919.01" height="550.58"/>
          <path class="s4-b-m-cls-25" d="M130.3,1736.05h1.89v45.63H130.3Z"/>
          <path class="s4-b-m-cls-25" d="M159.21,1782.72l-21.31-46.67H140l19.42,42.29,19.31-42.29h1.83Z"/>
          <path class="s4-b-m-cls-25" d="M193.2,1735l21.42,46.73h-2l-8.11-17.4h-22.9l-8,17.4h-1.77Zm-.17,4.2-10.68,23.36h21.48Z"/>
          <path class="s4-b-m-cls-25" d="M252.15,1736.05h1.66v46.3l-31.53-41.29v40.65h-1.66v-46.3l31.53,41.25Z"/>
          <path class="s4-b-m-cls-25" d="M282.38,1736.05h1.83v16.73l18.11-16.73h2.28L285,1754.27l24.62,27.44h-2.51l-22.85-25.4v25.37h-1.89Z"/>
          <path class="s4-b-m-cls-25" d="M317.19,1775.36a24,24,0,0,1-6.49-16.64,23.26,23.26,0,0,1,6.57-16.49,21.29,21.29,0,0,1,31.45-.06l0,0a23.3,23.3,0,0,1,6.51,16.52,24,24,0,0,1-6.46,16.67,20.16,20.16,0,0,1-15.43,7.09h-.86Q323.68,1782.48,317.19,1775.36Zm36.19-16.5a21.82,21.82,0,0,0-6-15.4,19.38,19.38,0,0,0-28.63-.21l-.19.21a22.79,22.79,0,0,0,0,30.8l0,0a19.28,19.28,0,0,0,28.48.33l.31-.33A21.86,21.86,0,0,0,353.38,1758.85Z"/>
          <path class="s4-b-m-cls-25" d="M362.1,1736.05h2.46a13.15,13.15,0,0,1,9.74,4.35,14.24,14.24,0,0,1,4.2,10.22,14,14,0,0,1-4.31,10.2q-4.31,4.32-9.2,4.32h-.4l14.74,16.55h-2.38l-13-14.48v14.48H362.1Zm1.83,27.32h1a10.91,10.91,0,0,0,8.17-3.77,13,13,0,0,0,.25-17.57l-.36-.38a11.25,11.25,0,0,0-8.34-3.83h-.74Z"/>
          <path class="s4-b-m-cls-25" d="M390.15,1775.36a24,24,0,0,1-6.49-16.64,23.26,23.26,0,0,1,6.57-16.49,21.29,21.29,0,0,1,31.45-.06l0,0a23.3,23.3,0,0,1,6.51,16.52,24,24,0,0,1-6.46,16.67,20.17,20.17,0,0,1-15.43,7.09h-.86Q396.63,1782.48,390.15,1775.36Zm36.19-16.5a21.82,21.82,0,0,0-6-15.4,19.38,19.38,0,0,0-28.63-.21l-.19.21a22.79,22.79,0,0,0,0,30.8l0,0a19.28,19.28,0,0,0,28.48.33l.31-.33A21.86,21.86,0,0,0,426.34,1758.85Z"/>
          <path class="s4-b-m-cls-25" d="M437,1736.05v43.87h13.25v1.76H435.07v-45.63Z"/>
          <path class="s4-b-m-cls-25" d="M455.64,1736.05H471v1.76H457.53v24.83h11.25v1.76H457.53v15.51H471v1.76H455.64Z"/>
          <path class="s4-b-m-cls-25" d="M508.26,1736.05h1.66v46.3l-31.53-41.29v40.65h-1.66v-46.3l31.53,41.25Z"/>
          <path class="s4-b-m-cls-25" d="M518.48,1736.05h1.83v16.73l18.11-16.73h2.28l-19.59,18.22,24.62,27.44h-2.51l-22.86-25.4v25.37h-1.89Z"/>
          <path class="s4-b-m-cls-25" d="M553.3,1775.36a24,24,0,0,1-6.49-16.64,23.26,23.26,0,0,1,6.57-16.49,21.29,21.29,0,0,1,31.45-.06l0,0a23.3,23.3,0,0,1,6.51,16.52,24,24,0,0,1-6.46,16.67,20.17,20.17,0,0,1-15.43,7.09h-.86Q559.79,1782.48,553.3,1775.36Zm36.19-16.52a21.82,21.82,0,0,0-6-15.4,19.38,19.38,0,0,0-28.63-.21l-.19.21a22.79,22.79,0,0,0,0,30.8l0,0a19.28,19.28,0,0,0,28.48.33l.31-.33a21.86,21.86,0,0,0,6-15.41Z"/>
        </g>
        <g class="overlay" id="overlay-10" data-name="overlay">
          <polygon id="overlay-back-10" data-name="overlay-back" class="s4-b-m-cls-10" points="360.36 1621.94 0.88 1756.68 360.36 1891.42 719.84 1756.68 360.36 1621.94"/>
          <g>
            <path class="s4-b-m-cls-7" d="M210.83,1743.48a12.3,12.3,0,0,1,9.27,4.11,13.7,13.7,0,0,1,3.88,9.73,14.12,14.12,0,0,1-3.83,9.82,11.86,11.86,0,0,1-9,4.2h-.51a11.82,11.82,0,0,1-6.61-2V1768a11.66,11.66,0,0,0,7,2.3,10.78,10.78,0,0,0,7.13-2.8,13.34,13.34,0,0,0,4.36-6.89h-12.4v-1h12.6a14.89,14.89,0,0,0,.17-2.15,12.86,12.86,0,0,0-3.54-9.1,11.22,11.22,0,0,0-8.49-3.79,11.42,11.42,0,0,0-6.84,2.3v-1.29A12.48,12.48,0,0,1,210.83,1743.48Z"/>
            <path class="s4-b-m-cls-7" d="M239.18,1754.75v1h-5.8v15.11H232.3v-15.11h-5.8v-1Z"/>
            <path class="s4-b-m-cls-7" d="M241.37,1762.72a8.31,8.31,0,0,1,2.36-5.9,7.69,7.69,0,0,1,11.34,0,8.36,8.36,0,0,1,2.34,5.92,8.65,8.65,0,0,1-2.29,6,7.21,7.21,0,0,1-5.56,2.55h-.34a7.23,7.23,0,0,1-5.51-2.57A8.58,8.58,0,0,1,241.37,1762.72Zm15,.09a7.53,7.53,0,0,0-2-5.26,6.38,6.38,0,0,0-4.87-2.22,6.47,6.47,0,0,0-4.9,2.24,7.5,7.5,0,0,0-2.07,5.26,7.37,7.37,0,0,0,2.07,5.22,6.53,6.53,0,0,0,4.92,2.21,6.37,6.37,0,0,0,4.87-2.21A7.5,7.5,0,0,0,256.33,1762.81Z"/>
            <path class="s4-b-m-cls-7" d="M272.27,1754.75v1h-5.8v15.11H265.4v-15.11h-5.8v-1Z"/>
            <path class="s4-b-m-cls-7" d="M294.45,1771.34h-.3a7.27,7.27,0,0,1-5.56-2.55,8.58,8.58,0,0,1-2.33-6,8.33,8.33,0,0,1,2.36-5.92,7.67,7.67,0,0,1,5.8-2.49,7.53,7.53,0,0,1,5.86,2.76V1759a8,8,0,0,0-2.65-2.62,6.39,6.39,0,0,0-3.35-1,6.47,6.47,0,0,0-4.87,2.21,7.71,7.71,0,0,0,0,10.52,6.47,6.47,0,0,0,4.87,2.21,6.38,6.38,0,0,0,3.35-1,7.91,7.91,0,0,0,2.65-2.66v1.87A7.37,7.37,0,0,1,294.45,1771.34Z"/>
            <path class="s4-b-m-cls-7" d="M318.61,1754.72v16.15h-1.08v-4a7.38,7.38,0,0,1-2.83,3.23,7.6,7.6,0,0,1-9.71-1.31,8.75,8.75,0,0,1,0-12,7.52,7.52,0,0,1,5.66-2.5,7.73,7.73,0,0,1,4.13,1.22,6.49,6.49,0,0,1,2.75,3.23v-4.06Zm-14.9,8.11a7.37,7.37,0,0,0,2.07,5.22,6.53,6.53,0,0,0,4.92,2.21,6.37,6.37,0,0,0,4.87-2.21,7.8,7.8,0,0,0,0-10.5,6.38,6.38,0,0,0-4.87-2.22,6.47,6.47,0,0,0-4.9,2.24A7.5,7.5,0,0,0,303.71,1762.83Z"/>
            <path class="s4-b-m-cls-7" d="M336.57,1754.75v16.12h-1v-14.32l-10.92,14.32h-.94v-16.12h1v14.32l10.89-14.32Zm-8.29-6.55a2.94,2.94,0,0,0,4.35,0,3.73,3.73,0,0,0,1.08-2.26h1a4.33,4.33,0,0,1-1.26,2.93,3.79,3.79,0,0,1-2.81,1.24h-.27a3.76,3.76,0,0,1-2.8-1.22,4.34,4.34,0,0,1-1.25-2.94h.94A3.52,3.52,0,0,0,328.28,1748.2Z"/>
            <path class="s4-b-m-cls-7" d="M352.61,1754.75v1h-5.8v15.11h-1.08v-15.11h-5.8v-1Z"/>
            <path class="s4-b-m-cls-7" d="M365.29,1757H354.81v-1.11h10.48Z"/>
            <path class="s4-b-m-cls-7" d="M369.16,1754.72h12.2v16.15h-1.08v-15.15h-10v15.15h-1.08Z"/>
            <path class="s4-b-m-cls-7" d="M385.24,1762.72a8.31,8.31,0,0,1,2.36-5.9,7.69,7.69,0,0,1,11.34,0,8.36,8.36,0,0,1,2.34,5.92,8.65,8.65,0,0,1-2.29,6,7.21,7.21,0,0,1-5.56,2.55h-.34a7.23,7.23,0,0,1-5.51-2.57A8.58,8.58,0,0,1,385.24,1762.72Zm15,.09a7.53,7.53,0,0,0-2-5.26,6.38,6.38,0,0,0-4.87-2.22,6.47,6.47,0,0,0-4.9,2.24,7.5,7.5,0,0,0-2.07,5.26,7.37,7.37,0,0,0,2.07,5.22,6.53,6.53,0,0,0,4.92,2.21,6.37,6.37,0,0,0,4.87-2.21A7.5,7.5,0,0,0,400.2,1762.81Z"/>
            <path class="s4-b-m-cls-7" d="M405.16,1778v-23.33h1.08v3.95a7.16,7.16,0,0,1,2.85-3.16,7.62,7.62,0,0,1,4-1.18,7.5,7.5,0,0,1,5.68,2.5,8.8,8.8,0,0,1,0,12,7.53,7.53,0,0,1-9.62,1.33,7.74,7.74,0,0,1-2.93-3.14V1778Zm1-15.22a7.38,7.38,0,0,0,2.07,5.22,6.53,6.53,0,0,0,4.92,2.21,6.37,6.37,0,0,0,4.87-2.21,7.8,7.8,0,0,0,0-10.5,6.38,6.38,0,0,0-4.87-2.22,6.47,6.47,0,0,0-4.9,2.24A7.5,7.5,0,0,0,406.17,1762.83Z"/>
            <path class="s4-b-m-cls-7" d="M436,1754.75v1h-5.8v15.11h-1.08v-15.11h-5.8v-1Z"/>
            <path class="s4-b-m-cls-7" d="M446.57,1748.29h1.08v6h.17a7.41,7.41,0,0,1,5.61,2.46,8.3,8.3,0,0,1,2.31,5.89,8.49,8.49,0,0,1-2.27,5.92,7.26,7.26,0,0,1-5.58,2.5h-.24V1778h-1.08v-6.89h-.27a7.64,7.64,0,0,1-5.73-2.51,8.28,8.28,0,0,1-2.39-5.91,8.13,8.13,0,0,1,2.41-5.87,7.7,7.7,0,0,1,5.71-2.48h.27Zm0,7h-.27a6.72,6.72,0,0,0-5,2.21,7.33,7.33,0,0,0,0,10.36,6.75,6.75,0,0,0,5,2.19h.27Zm1.08,0v14.75h.2a6.35,6.35,0,0,0,4.84-2.17,7.71,7.71,0,0,0,0-10.39,6.38,6.38,0,0,0-4.85-2.19Z"/>
            <path class="s4-b-m-cls-7" d="M458.44,1762.72a8.31,8.31,0,0,1,2.36-5.9,7.69,7.69,0,0,1,11.34,0,8.36,8.36,0,0,1,2.34,5.92,8.65,8.65,0,0,1-2.29,6,7.21,7.21,0,0,1-5.56,2.55h-.34a7.23,7.23,0,0,1-5.51-2.57A8.58,8.58,0,0,1,458.44,1762.72Zm15,.09a7.53,7.53,0,0,0-2-5.26,6.38,6.38,0,0,0-4.87-2.22,6.47,6.47,0,0,0-4.9,2.24,7.5,7.5,0,0,0-2.07,5.26,7.37,7.37,0,0,0,2.07,5.22,6.53,6.53,0,0,0,4.92,2.21,6.37,6.37,0,0,0,4.87-2.21A7.5,7.5,0,0,0,473.4,1762.81Z"/>
            <path class="s4-b-m-cls-7" d="M477.65,1770.87h-1l7.45-16.62,7.48,16.62h-1.18l-6.4-14.18Z"/>
            <path class="s4-b-m-cls-7" d="M507.88,1754.75v16.12h-1v-14.32l-10.92,14.32H495v-16.12h1v14.32l10.89-14.32Z"/>
            <path class="s4-b-m-cls-7" d="M511.75,1762.72a8.31,8.31,0,0,1,2.36-5.9,7.69,7.69,0,0,1,11.34,0,8.36,8.36,0,0,1,2.34,5.92,8.65,8.65,0,0,1-2.29,6,7.21,7.21,0,0,1-5.56,2.55h-.34a7.23,7.23,0,0,1-5.51-2.57A8.58,8.58,0,0,1,511.75,1762.72Zm15,.09a7.53,7.53,0,0,0-2-5.26,6.38,6.38,0,0,0-4.87-2.22,6.47,6.47,0,0,0-4.9,2.24,7.5,7.5,0,0,0-2.07,5.26,7.37,7.37,0,0,0,2.07,5.22,6.53,6.53,0,0,0,4.92,2.21,6.37,6.37,0,0,0,4.87-2.21A7.5,7.5,0,0,0,526.72,1762.81Z"/>
          </g>
        </g>
      </g>
      <polygon id="Ромб-8" data-name="Ромб" class="s4-b-m-cls-1" points="360.36 1621.94 0.88 1756.68 360.36 1891.42 719.84 1756.68 360.36 1621.94"/>
    </g>
  </g>
  <g id="header">
    <polygon id="Треугольник_заголовка" data-name="Треугольник заголовка" class="s4-b-m-cls-10" points="360.2 0 0 0 360.2 135.13 720.4 0 360.2 0"/>
    <g>
      <path class="s4-b-m-cls-7" d="M191.41,23.33V9.12h1.8v13.8a11.84,11.84,0,0,0,3,8.15,9.65,9.65,0,0,0,14.69,0,11.84,11.84,0,0,0,3-8.15V9.12h1.8v43.5h-1.8V29.07a12.46,12.46,0,0,1-4.08,5.07,9.88,9.88,0,0,1-6,2h-.54a11,11,0,0,1-8.38-3.86A12.85,12.85,0,0,1,191.41,23.33Z"/>
      <path class="s4-b-m-cls-7" d="M241.63,26.58V28.2h-9.36V52.62h-1.74V28.2h-9.36V26.58Z"/>
      <path class="s4-b-m-cls-7" d="M245.16,39.45A13.43,13.43,0,0,1,249,29.91a12.41,12.41,0,0,1,18.31,0,13.52,13.52,0,0,1,3.78,9.57,14,14,0,0,1-3.7,9.66,11.63,11.63,0,0,1-9,4.12h-.54a11.68,11.68,0,0,1-8.9-4.15A13.88,13.88,0,0,1,245.16,39.45Zm24.16.15A12.17,12.17,0,0,0,266,31.1a10.3,10.3,0,0,0-7.86-3.6,10.43,10.43,0,0,0-7.92,3.63,12.13,12.13,0,0,0-3.35,8.5,11.92,11.92,0,0,0,3.35,8.44,10.53,10.53,0,0,0,7.94,3.57,10.28,10.28,0,0,0,7.86-3.57A12.12,12.12,0,0,0,269.32,39.6Z"/>
      <path class="s4-b-m-cls-7" d="M296.41,40.44a9.26,9.26,0,0,1-1.69-5.6,8.23,8.23,0,0,1,2.37-5.8,7.52,7.52,0,0,1,5.69-2.52H306v26.1H304.3v-9h-1.8l-6.2,9h-1.85l6.31-9.16A7.64,7.64,0,0,1,296.41,40.44Zm7.89,1.62v-14h-1.63a5.86,5.86,0,0,0-4.43,2.12,7.11,7.11,0,0,0,0,9.74,5.86,5.86,0,0,0,4.43,2.12Z"/>
      <path class="s4-b-m-cls-7" d="M344.56,53.37h-.49a11.74,11.74,0,0,1-9-4.12,13.88,13.88,0,0,1-3.75-9.66A13.46,13.46,0,0,1,335.15,30a12.37,12.37,0,0,1,9.36-4A12.16,12.16,0,0,1,354,30.46v3a13,13,0,0,0-4.27-4.23,10.29,10.29,0,0,0-5.41-1.57,10.45,10.45,0,0,0-7.86,3.57,12.46,12.46,0,0,0,0,17,10.45,10.45,0,0,0,7.86,3.57,10.29,10.29,0,0,0,5.41-1.57A12.78,12.78,0,0,0,354,45.89v3A11.89,11.89,0,0,1,344.56,53.37Z"/>
      <path class="s4-b-m-cls-7" d="M357,55.92V51.11h1.9l11.37-25.35,11.37,25.29h1.8v4.87h-1.52V52.62h-23.5v3.31Zm13.11-26.22L360.5,51.05H379.7Z"/>
      <path class="s4-b-m-cls-7" d="M400.16,53.31h-.6a11.6,11.6,0,0,1-8.9-4.12,13.93,13.93,0,0,1-3.73-9.66A13.46,13.46,0,0,1,390.75,30a12.43,12.43,0,0,1,9.41-4,12.23,12.23,0,0,1,9.63,4.76l-17.08,18q3.54,3,6.8,3a10.9,10.9,0,0,0,5.85-1.59,13.24,13.24,0,0,0,4.27-4.26v3A12,12,0,0,1,400.16,53.31Zm-.46-25.75A10.25,10.25,0,0,0,392,31.13a11.65,11.65,0,0,0-3.35,8.21,12.34,12.34,0,0,0,2.88,8.12L407.4,30.69A11,11,0,0,0,399.7,27.56Z"/>
      <path class="s4-b-m-cls-7" d="M414.36,52.62h-1.58l12-26.85,12.08,26.85H435L424.64,29.71Z"/>
      <path class="s4-b-m-cls-7" d="M466.21,26.52v26.1h-1.74v-6.5a11.92,11.92,0,0,1-4.57,5.22,12.26,12.26,0,0,1-15.67-2.12,13.57,13.57,0,0,1-3.81-9.66,13.57,13.57,0,0,1,3.81-9.66,12.13,12.13,0,0,1,9.14-4,12.47,12.47,0,0,1,6.66,2,10.49,10.49,0,0,1,4.43,5.22V26.52Zm-24,13.11a11.92,11.92,0,0,0,3.35,8.44,10.53,10.53,0,0,0,7.94,3.57,10.28,10.28,0,0,0,7.86-3.57,12.61,12.61,0,0,0,0-17,10.3,10.3,0,0,0-7.86-3.6,10.43,10.43,0,0,0-7.92,3.63A12.13,12.13,0,0,0,442.16,39.63Z"/>
      <path class="s4-b-m-cls-7" d="M473.23,52.62h-1.58l12-26.85,12.08,26.85h-1.9L483.51,29.71Z"/>
      <path class="s4-b-m-cls-7" d="M499.56,23a16,16,0,0,1,4.13-10.5,12.92,12.92,0,0,1,9.87-4.06,13.26,13.26,0,0,1,10.06,4.23,13.88,13.88,0,0,1,4,9.83,17.48,17.48,0,0,1-3.86,10.7,13.4,13.4,0,0,1-9.14,4.29V47h-1.74V35.8h.76A11.27,11.27,0,0,0,522.49,32a13.37,13.37,0,0,0,3.4-9.19,12.42,12.42,0,0,0-3.56-9,11.85,11.85,0,0,0-8.84-3.65,11.21,11.21,0,0,0-8.57,3.51A13.93,13.93,0,0,0,501.41,23Zm14.34,30Q512,53,512,51.23t1.88-1.8q1.88,0,1.88,1.8T513.89,53Z"/>
    </g>
  </g>
</svg>
