<svg xmlns="http://www.w3.org/2000/svg" xmlns:xlink="http://www.w3.org/1999/xlink" width="1920" height="1080" viewBox="0 0 1920 1080" class="section-4-back" id="section-4-back">
  <defs>
    <style>
     .section-4-back-cls-1,.section-4-back-cls-23,.section-4-back-cls-24,.section-4-back-cls-25{fill:none}.section-4-back-cls-1,.section-4-back-cls-24,.section-4-back-cls-8{stroke:#3b2a66}.section-4-back-cls-1,.section-4-back-cls-22,.section-4-back-cls-23,.section-4-back-cls-24,.section-4-back-cls-8{stroke-miterlimit:10}.section-4-back-cls-1{stroke-width:2px}.section-4-back-cls-2,.section-4-back-cls-22{fill:#171717}.section-4-back-cls-3{clip-path:url(#clip-path)}.section-4-back-cls-4{fill:#353535}.section-4-back-cls-5{fill:#fff}.section-4-back-cls-6{fill:#f0831c}.section-4-back-cls-7{fill:#fcc204}.section-4-back-cls-8{fill:#3b2a66}.section-4-back-cls-9{clip-path:url(#clip-path-2)}.section-4-back-cls-10{fill:#333}.section-4-back-cls-11{fill:#00b2ec}.section-4-back-cls-12{clip-path:url(#clip-path-3)}.section-4-back-cls-13{fill:#434242}.section-4-back-cls-14{clip-path:url(#clip-path-4)}.section-4-back-cls-15{fill:#222;stroke:#222;stroke-width:3px}.section-4-back-cls-16{clip-path:url(#clip-path-5)}.section-4-back-cls-17{clip-path:url(#clip-path-6)}.section-4-back-cls-18{clip-path:url(#clip-path-7)}.section-4-back-cls-19{clip-path:url(#clip-path-8)}.section-4-back-cls-20{clip-path:url(#clip-path-9)}.section-4-back-cls-21{clip-path:url(#clip-path-10)}.section-4-back-cls-22{stroke:#000}.section-4-back-cls-23{stroke:#fff}
    </style>
    <clipPath id="section-4-back-clip-path">
      <polygon id="Треугольник" class="section-4-back-cls-1" points="767.94 675.03 767.94 404.76 383.94 539.89 767.94 675.03"/>
    </clipPath>
    <clipPath id="section-4-back-clip-path-2">
      <polygon id="Ромб" class="section-4-back-cls-1" points="384 270.25 0 405.38 384 540.51 768 405.38 384 270.25"/>
    </clipPath>
    <clipPath id="section-4-back-clip-path-3">
      <polygon id="Треугольник-2" data-name="Треугольник" class="section-4-back-cls-1" points="0.18 405.13 0.18 675.4 384.19 540.26 0.18 405.13"/>
    </clipPath>
    <clipPath id="section-4-back-clip-path-4">
      <polygon id="Ромб-2" data-name="Ромб" class="section-4-back-cls-1" points="384 540.25 0 675.38 384 810.52 768 675.38 384 540.25"/>
    </clipPath>
    <clipPath id="section-4-back-clip-path-5">
      <polygon id="Ромб-3" data-name="Ромб" class="section-4-back-cls-1" points="1536.19 135.74 1152.19 270.87 1536.19 406.01 1920.19 270.87 1536.19 135.74"/>
    </clipPath>
    <clipPath id="section-4-back-clip-path-6">
      <polygon id="Треугольник-3" data-name="Треугольник" class="section-4-back-cls-1" points="1151.79 270.29 1151.79 540.56 1535.79 405.42 1151.79 270.29"/>
    </clipPath>
    <clipPath id="section-4-back-clip-path-7">
      <polygon id="Треугольник-4" data-name="Треугольник" class="section-4-back-cls-1" points="1920.94 540.53 1920.94 270.26 1536.94 405.39 1920.94 540.53"/>
    </clipPath>
    <clipPath id="section-4-back-clip-path-8">
      <polygon id="Треугольник-5" data-name="Треугольник" class="section-4-back-cls-1" points="1536.47 404.87 1536.47 675.14 1920.47 540.01 1536.47 404.87"/>
    </clipPath>
    <clipPath id="section-4-back-clip-path-9">
      <polygon id="Треугольник-6" data-name="Треугольник" class="section-4-back-cls-1" points="1535.72 675.07 1535.72 404.8 1151.72 539.94 1535.72 675.07"/>
    </clipPath>
    <clipPath id="section-4-back-clip-path-10">
      <polygon id="Ромб-4" data-name="Ромб" class="section-4-back-cls-1" points="1152.32 810.95 768.32 946.08 1152.32 1081.22 1536.32 946.08 1152.32 810.95"/>
    </clipPath>
  </defs>
  <rect id="Фон" class="section-4-back-cls-2" width="1920" height="1080"/>
  <g id="portfolio-cases">
    <g id="amtel.club">
      <g class="section-4-back-cls-3">
        <g id="amtel_back">
          <rect class="section-4-back-cls-4" x="381" y="397.5" width="394" height="280.5"/>
          <polygon class="section-4-back-cls-5" points="638.44 540.67 633.81 540.67 633.81 516.71 621.07 516.71 621.07 512.77 651.29 512.77 651.29 516.71 638.44 516.71 638.44 540.67"/>
          <polygon class="section-4-back-cls-5" points="687.87 512.77 687.87 516.71 666.34 516.71 666.34 524.35 683.24 524.35 683.24 527.94 666.34 527.94 666.34 536.85 688.68 536.85 688.68 540.67 661.71 540.67 661.71 512.77 687.87 512.77"/>
          <polygon class="section-4-back-cls-5" points="707.44 512.77 707.44 536.85 726.66 536.85 726.66 540.67 702.81 540.67 702.81 512.77 707.44 512.77"/>
          <polygon class="section-4-back-cls-5" points="607.18 512.77 593.63 530.95 580.2 512.77 576.38 512.77 576.38 540.67 580.32 540.67 580.32 519.48 593.63 537.43 607.06 519.48 607.06 540.67 611 540.67 611 512.77 607.18 512.77"/>
          <polygon class="section-4-back-cls-6" points="537.13 538.24 563.3 533.96 549.87 531.18 540.14 532.8 537.13 538.24"/>
          <polygon class="section-4-back-cls-7" points="563.3 533.96 534.12 527.94 536.55 523.42 560.17 528.28 563.3 533.96"/>
          <polygon class="section-4-back-cls-5" points="557.04 526.2 549.75 512.88 544.77 512.88 539.56 522.61 543.5 523.42 547.32 516.47 551.95 525.16 557.04 526.2"/>
          <polygon class="section-4-back-cls-5" points="562.14 535.58 557.97 536.27 560.52 540.9 565.03 540.9 562.14 535.58"/>
          <polygon class="section-4-back-cls-5" points="535.63 529.67 529.49 540.9 534 540.9 539.68 530.48 535.63 529.67"/>
          <path class="section-4-back-cls-5" d="M528.22,547.73h-1.85l-5.56,10.07h1.62l1.39-2.43h6.83l1.27,2.43h1.85Zm-3.7,6.25,2.66-5.09L530,554Z"/>
          <path class="section-4-back-cls-5" d="M550.45,553.06a.67.67,0,1,1,0-.93,1.38,1.38,0,0,0,.46-1.27V549.7a1.8,1.8,0,0,0-.58-1.62,2.41,2.41,0,0,0-1.51-.35h-8.1v10.07h7.64a3.81,3.81,0,0,0,2.08-.46,2.08,2.08,0,0,0,.58-1.51v-1.27A1.68,1.68,0,0,0,550.45,553.06Zm-8.1-3.94h5.9a2,2,0,0,1,.81.12,1,1,0,0,1,.23.69v1c0,.35,0,.58-.35.81a1.47,1.47,0,0,1-.69.12h-5.9Zm7.06,6.14a1.56,1.56,0,0,1-.23.93,1.25,1.25,0,0,1-.93.23h-5.9v-3.24h5.9a1.25,1.25,0,0,1,.81.23,1.62,1.62,0,0,1,.35,1Z"/>
          <polygon class="section-4-back-cls-5" points="561.79 557.81 561.79 549.12 557.16 549.12 557.16 547.73 568.16 547.73 568.16 549.12 563.53 549.12 563.53 557.81 561.79 557.81"/>
          <path class="section-4-back-cls-5" d="M585.29,548.2a2.78,2.78,0,0,0-1.85-.46h-7.06a2.64,2.64,0,0,0-1.85.46c-.58.46-.58,1.51-.58,2v5.33a2.49,2.49,0,0,0,.58,1.85,2.35,2.35,0,0,0,1.74.46h7.18a2.64,2.64,0,0,0,1.85-.46,2.78,2.78,0,0,0,.46-1.85v-5.33A2.94,2.94,0,0,0,585.29,548.2ZM584,556.42h-8.34v-7.29H584Z"/>
          <path class="section-4-back-cls-5" d="M596.06,557.81c-1.85,0-2.08-.58-2.08-2V555h1.62v1.39h6.14a1.47,1.47,0,0,0,.69-.12,1,1,0,0,0,.23-.69V554.1c0-.23,0-.58-.23-.69s-.46-.23-.69-.23H598V551.9h3.59a1,1,0,0,0,.69-.23,1.39,1.39,0,0,0,.23-.93v-.46c0-.35,0-.81-.23-.93s-.23-.23-.69-.23h-6v1.27h-1.51v-.69c0-1.39.35-2,2.2-2h5.79a2.59,2.59,0,0,1,1.62.35,2.34,2.34,0,0,1,.46,1.62v.93a1.82,1.82,0,0,1-.46,1.51,2.18,2.18,0,0,1-1,.46,2.74,2.74,0,0,1,1.16.35,2.2,2.2,0,0,1,.46,1.62v1.16a2.2,2.2,0,0,1-.46,1.62,2.63,2.63,0,0,1-1.74.46Z"/>
          <path class="section-4-back-cls-5" d="M618.18,547.73h-1.85l-5.56,10.07h1.74l1.27-2.43h6.83l1.27,2.43h1.85Zm-3.7,6.25,2.78-5.09,2.66,5.09Z"/>
          <polygon class="section-4-back-cls-5" points="640.17 557.81 640.17 549.12 632.3 549.12 632.3 557.81 630.68 557.81 630.68 547.73 641.91 547.73 641.91 557.81 640.17 557.81"/>
          <path class="section-4-back-cls-5" d="M659,557.81V554h-6.6c-.81,0-2.2-.12-2.2-2v-4.28H652v3.82a1.1,1.1,0,0,0,.23.81,1.25,1.25,0,0,0,.81.23h6v-4.86h1.74v10.07Z"/>
          <path class="section-4-back-cls-5" d="M674.91,547.73h-1.74l-5.56,10.07h1.62l1.39-2.43h6.83l1.27,2.43h1.85ZM671.32,554l2.66-5.09,2.78,5.09Z"/>
          <path class="section-4-back-cls-5" d="M689.26,549.12v7.29h7.06v-2.2h1.74v1.27a3.27,3.27,0,0,1-.46,1.85,2.64,2.64,0,0,1-1.85.46H690a2.64,2.64,0,0,1-1.85-.46,2.78,2.78,0,0,1-.46-1.85v-5.33a2.94,2.94,0,0,1,.46-2,2.78,2.78,0,0,1,1.85-.46h5.79a2.64,2.64,0,0,1,1.85.46,3.43,3.43,0,0,1,.46,2v.93h-1.74v-2Z"/>
          <polygon class="section-4-back-cls-5" points="707.79 557.81 707.79 549.12 703.16 549.12 703.16 547.73 714.16 547.73 714.16 549.12 709.41 549.12 709.41 557.81 707.79 557.81"/>
          <path class="section-4-back-cls-5" d="M730.6,557.81V552c0-.46,0-.23.12-2.08a7.56,7.56,0,0,1-.81.93l-8.1,6.95h-1V547.73h1.74v5.56c0,.46-.12,1.51-.12,2.43.35-.58.93-1,1-1.27l7.87-6.72h1v10.07Z"/>
        </g>
        <g id="overlay">
          <polygon id="overlay-back" class="section-4-back-cls-8" points="767.94 675.03 767.94 404.76 383.94 539.89 767.94 675.03"/>
          <g id="amtel.club-2" data-name="amtel.club">
            <path class="section-4-back-cls-5" d="M584.52,524.48,595,546h-1l-4-8H578.84l-3.92,8H574Zm-.08,1.93-5.24,10.75h10.53Z"/>
            <path class="section-4-back-cls-5" d="M607.89,533.89a5,5,0,0,1,2.9-.81,4.2,4.2,0,0,1,3,1.23,4.39,4.39,0,0,1,1.29,3.33V546h-.9v-8.34a3.69,3.69,0,0,0-1.06-2.7,3.47,3.47,0,0,0-2.56-1.08,3.73,3.73,0,0,0-2.66,1.12,3.51,3.51,0,0,0-1.16,2.6V546h-.9v-8.4a3.65,3.65,0,0,0-1.06-2.62,3.44,3.44,0,0,0-2.58-1.11,3.83,3.83,0,0,0-3.75,3.72V546h-.9v-12.6h.9v1.76a5.08,5.08,0,0,1,4-2.07,3.74,3.74,0,0,1,2.28.83,4.76,4.76,0,0,1,1.6,2.14A4,4,0,0,1,607.89,533.89Z"/>
            <path class="section-4-back-cls-5" d="M622.94,545.37v.78a4.74,4.74,0,0,1-3.39-1.33,4.48,4.48,0,0,1-1.4-3.4v-13.1h.9v5.1h3.86v.78H619v7.22a3.85,3.85,0,0,0,3.89,3.95Z"/>
            <path class="section-4-back-cls-5" d="M631.48,546.32h-.25a6.3,6.3,0,0,1-4.63-2,6.43,6.43,0,0,1-2-4.66,6.27,6.27,0,0,1,2-4.61,6.61,6.61,0,0,1,4.84-1.95,6.45,6.45,0,0,1,5,2.3l-8.79,8.68a5.68,5.68,0,0,0,3.5,1.46,5.89,5.89,0,0,0,3-.77,6.62,6.62,0,0,0,2.2-2.06v1.43A6.28,6.28,0,0,1,631.48,546.32Zm-.29-12.43a5.89,5.89,0,0,0-5.67,5.68,5.73,5.73,0,0,0,1.48,3.92l8.15-8.09A5.86,5.86,0,0,0,631.18,533.89Z"/>
            <path class="section-4-back-cls-5" d="M643.82,545.45v.78a4.74,4.74,0,0,1-3.39-1.33,4.48,4.48,0,0,1-1.4-3.4V525h.9v16.52a3.85,3.85,0,0,0,3.89,3.95Z"/>
            <path class="section-4-back-cls-5" d="M646.33,546.18q-1,0-1-.87t1-.87q1,0,1,.87T646.33,546.18Z"/>
            <path class="section-4-back-cls-5" d="M656.06,546.35h-.25a6.22,6.22,0,0,1-4.62-2,6.47,6.47,0,0,1-1.93-4.66,6.29,6.29,0,0,1,2-4.62,6.57,6.57,0,0,1,4.82-1.95,6.43,6.43,0,0,1,4.87,2.16v1.43a6.49,6.49,0,0,0-2.2-2,5.82,5.82,0,1,0,0,10.14,6.39,6.39,0,0,0,2.2-2.07v1.46A6.29,6.29,0,0,1,656.06,546.35Z"/>
            <path class="section-4-back-cls-5" d="M668.07,545.45v.78a4.74,4.74,0,0,1-3.39-1.33,4.48,4.48,0,0,1-1.4-3.4V525h.9v16.52a3.85,3.85,0,0,0,3.89,3.95Z"/>
            <path class="section-4-back-cls-5" d="M680.45,533.39h.9V546h-.9v-2.55a5,5,0,0,1-4.87,2.86,5.32,5.32,0,0,1-3.95-1.62,5.42,5.42,0,0,1-1.6-3.95v-7.34h.9v7.34a4.72,4.72,0,0,0,1.36,3.36,4.38,4.38,0,0,0,3.29,1.43,4.74,4.74,0,0,0,3.4-1.43,4.54,4.54,0,0,0,1.47-3.36Z"/>
            <path class="section-4-back-cls-5" d="M684.42,546V525h.9v11.48a5.72,5.72,0,0,1,2.37-2.46,6.63,6.63,0,0,1,3.35-.92,6.43,6.43,0,0,1,4.72,1.95A6.61,6.61,0,0,1,691,546.29a6.54,6.54,0,0,1-3.28-.91,6.21,6.21,0,0,1-2.44-2.45V546Zm.84-6.27a5.88,5.88,0,0,0,5.81,5.8,5.45,5.45,0,0,0,4-1.72,5.81,5.81,0,0,0,0-8.19,5.46,5.46,0,0,0-4-1.74,5.53,5.53,0,0,0-4.07,1.75A5.66,5.66,0,0,0,685.26,539.71Z"/>
          </g>
        </g>
      </g>
      <polygon id="Треугольник-7" data-name="Треугольник" class="section-4-back-cls-1" points="767.94 675.03 767.94 404.76 383.94 539.89 767.94 675.03"/>
    </g>
    <g id="ea_messenger">
      <g class="section-4-back-cls-9">
        <g id="ea_messenger_background">
          <rect class="section-4-back-cls-5" x="0.5" y="267.5" width="771" height="272.5"/>
          <g id="Слой_1">
            <g id="_479229256" data-name=" 479229256">
              <path class="section-4-back-cls-10" d="M235.32,388.71c-1.09-1.09-7.33-3.43-8.89-3.9-5.31,11.08-23.88,9.21-25.28-4.53a13.15,13.15,0,0,1,17-14.51,11.25,11.25,0,0,1,6.87,4.37l-17,6.24,2.81,7.8L237.19,375c-.47-10.3-11.24-20-22.94-20-26.37,0-32.15,37-7.33,45.41a22,22,0,0,0,17.63-1.09C228.45,397.44,233.76,392.61,235.32,388.71ZM325,380.28c-2-18.41,24.34-20.91,26.68-3.9A13.7,13.7,0,0,1,340,392C332.22,393.08,326,387.15,325,380.28Zm11.08-24.81c-12.17,1.4-22.31,11.7-20.91,25.44,1.4,12.17,12.17,22.31,25.9,20.44,11.7-.94,21.85-12.17,20.44-25.44A23.08,23.08,0,0,0,336.12,355.47Zm0,71.63c7.8-1.87,14.2,3.9,15.6,10.3a13.91,13.91,0,0,1-10.61,16.07c-17.17,3.43-23.41-22.94-5-26.37Zm-20.91,15.14a23,23,0,0,0,25.44,21.07A23.28,23.28,0,0,0,336.12,417c-12.17.94-21.85,12.17-20.91,25.28Zm-94.56,20.6v-10.3c-4.37,1.4-6.4,2.5-11.24.47-10.77-4.37-11.7-20.44,0-25.28,7.8-3.43,15.14,1.87,17.48,7.18,2,5,1.09,20.13,1.09,26.84h9.67V440.83c0-7.33-1.87-11.24-5.31-15.6-5.93-7.33-19.51-11.24-30.27-4.37-20.44,12.64-10.3,47.75,18.57,42Zm22.94-44.47c-1.09,4.84-.47,26.84.47,31.21,4.37,18.1,31.21,19,36.51,0,.94-4.37,1.56-26.37.94-31.21H271.36c-2,14.67,4.37,35.11-8.74,35.11-3.43,0-6.4-1.87-7.33-3.9-3.43-5.31-1.09-21.38-2-31.21Zm37.92-62H271.36v22c0,3.43-.47,6.87-2,9.21-2.81,5-10.61,5.46-14,0-1.56-2.34-2-5.77-2-9.21,0-4.84.94-18.1,0-22h-9.67c-1.09,2.5-.47,27.31.47,30.74,4.37,19,31.68,19,36.51.47,1.56-5.77.94-23.88.94-31.21ZM311.78,453c-3,0-5.77,0-8.27-1.4-6.4-3.9-5.31-15.6-4.84-23.41h12.64v-9.83H298.67V406.18h-10.3c0,6.87-.47,36,0,40.42,1.56,10.77,11.24,18.1,23.88,16.23l-.47-9.83Zm-23.41-52.59,10.3.47c0-9.83-2-27.78,3.43-33.24,3.43-3,5.31-1.4,10.14-2.34v-9.83c-11.7-1.4-20,4.37-22.31,11.7-2.5,6.4-1.56,25.44-1.56,33.24Z"/>
              <rect class="section-4-back-cls-11" x="381.06" y="355" width="5.36" height="107.11"/>
              <path class="section-4-back-cls-10" d="M403.85,381.68c0,7.18,5.15,12.33,13,12.33s12.8-5.15,12.8-12.33c0-7-5-12.33-12.8-12.33S403.85,374.66,403.85,381.68Zm6.55,0c0-4.06,2.81-6.71,6.4-6.71a6.41,6.41,0,0,1,6.4,6.71c0,4.06-2.65,6.87-6.4,6.87S410.4,385.59,410.4,381.68Z"/>
              <path class="section-4-back-cls-10" d="M441.92,393.54H448V377.47a7.23,7.23,0,0,1,5.15-2.34c3.28,0,5.31,1.87,5.31,5.62v12.8h5.93V379.66c0-7.33-3.9-10.14-9.67-10.14a9.23,9.23,0,0,0-6.71,2.81V370h-6.09Z"/>
              <path class="section-4-back-cls-10" d="M477.5,387c0,4.84,2,7,5.62,7a9.9,9.9,0,0,0,6.24-2l-1.25-4.53a4.9,4.9,0,0,1-2.5.94c-1.4,0-2-1.09-2-3.9V356.87H477.5Z"/>
              <path class="section-4-back-cls-10" d="M500.91,393.54h5.93V370h-5.93Zm-.62-32.15a3.65,3.65,0,0,0,3.75,3.9,3.59,3.59,0,0,0,3.43-3.9A3.46,3.46,0,0,0,504,358,3.54,3.54,0,0,0,500.28,361.4Z"/>
              <path class="section-4-back-cls-10" d="M520.88,393.54H527V377.47a7.23,7.23,0,0,1,5.15-2.34c3.28,0,5.31,1.87,5.31,5.62v12.8h5.93V379.66c0-7.33-3.9-10.14-9.67-10.14a9.23,9.23,0,0,0-6.71,2.81V370h-6.09Z"/>
              <path class="section-4-back-cls-10" d="M575,386.83a10.12,10.12,0,0,1-6.71,2.18c-3.59,0-6.4-1.87-7-5.46h17a9.12,9.12,0,0,0,.47-3.28c0-6.55-5.15-10.92-11.24-10.92-7.8,0-12.48,5.46-12.48,12.33,0,7.49,5.15,12.33,12.64,12.33a14.55,14.55,0,0,0,9.05-2.81Zm-7.8-12.48c3.59,0,5.46,2.34,5.46,5.15H561.14C561.77,376.38,563.64,374.35,567.23,374.35Z"/>
              <path class="section-4-back-cls-10" d="M403.85,435.83c0,7,5.15,12.33,13,12.33s12.8-5.31,12.8-12.33-5-12.33-12.8-12.33S403.85,428.81,403.85,435.83Zm6.55,0c0-4.06,2.81-6.71,6.4-6.71a6.41,6.41,0,0,1,6.4,6.71c0,4.06-2.65,6.71-6.4,6.71S410.4,439.73,410.4,435.83Z"/>
              <path class="section-4-back-cls-10" d="M442.23,447.69h6.09V429.75h6.24v-5.62h-6.24V420.7c0-3.28,1.4-4.68,3.43-4.68a5.14,5.14,0,0,1,3.43,1.25l2-4.68a9.67,9.67,0,0,0-6.55-2.18c-5.31,0-8.43,3.28-8.43,9.83Z"/>
              <path class="section-4-back-cls-10" d="M466.58,447.69h6.09V429.75h6.4v-5.62h-6.4V420.7c0-3.28,1.4-4.68,3.43-4.68a4.86,4.86,0,0,1,3.43,1.25l2-4.68A9.67,9.67,0,0,0,475,410.4c-5.31,0-8.43,3.28-8.43,9.83Z"/>
              <path class="section-4-back-cls-10" d="M508.71,441a11,11,0,0,1-6.71,2.18c-3.59,0-6.4-1.87-7-5.46h17a9.72,9.72,0,0,0,.47-3.28c0-6.55-5.15-10.92-11.24-10.92-7.8,0-12.48,5.46-12.48,12.33,0,7.49,5.15,12.33,12.64,12.33a14.55,14.55,0,0,0,9.05-2.81Zm-7.8-12.48c3.59,0,5.46,2.34,5.46,5.15H494.82C495.45,430.53,497.32,428.5,500.91,428.5Z"/>
              <path class="section-4-back-cls-10" d="M524.31,447.69h6.09V431.77a4.1,4.1,0,0,1,3.9-2.5,5.14,5.14,0,0,1,3,.94l2.18-5.62a5.22,5.22,0,0,0-3.59-.94,6.2,6.2,0,0,0-5.46,2.65v-2.18h-6.09Z"/>
            </g>
          </g>
        </g>
        <g id="overlay-2"  data-name="overlay" class="overlay">
          <polygon id="overlay-back-2" data-name="overlay-back" class="section-4-back-cls-8" points="384 270.25 0 405.38 384 540.51 768 405.38 384 270.25"/>
          <g>
            <path class="section-4-back-cls-5" d="M247.62,394.44v27h-1.19v-25.6l-12.74,26.1L221,395.85v25.6h-1.08v-27h1.73l12.13,24.91L246,394.44Z"/>
            <path class="section-4-back-cls-5" d="M260.51,421.88h-.4a7.89,7.89,0,0,1-5.89-2.56,8.35,8.35,0,0,1-2.47-6,8.09,8.09,0,0,1,2.52-5.94,8.49,8.49,0,0,1,6.23-2.5,8.3,8.3,0,0,1,6.37,3L255.58,419a7.31,7.31,0,0,0,4.5,1.87,7.58,7.58,0,0,0,3.87-1,8.51,8.51,0,0,0,2.83-2.65v1.84A8.15,8.15,0,0,1,260.51,421.88Zm-.31-16a7.58,7.58,0,0,0-7.29,7.31,7.37,7.37,0,0,0,1.91,5l10.48-10.4A7.54,7.54,0,0,0,260.2,405.89Z"/>
            <path class="section-4-back-cls-5" d="M278.15,421.91h-.32a8,8,0,0,1-5.94-2.56,8.33,8.33,0,0,1-2.48-6,8.09,8.09,0,0,1,2.52-5.94,8.45,8.45,0,0,1,6.19-2.5,8.27,8.27,0,0,1,6.26,2.77v1.84a8.35,8.35,0,0,0-2.83-2.63,7.49,7.49,0,1,0,0,13,8.22,8.22,0,0,0,2.83-2.66v1.87A8.08,8.08,0,0,1,278.15,421.91Z"/>
            <path class="section-4-back-cls-5" d="M295.65,421.91h-.32a8,8,0,0,1-5.94-2.56,8.33,8.33,0,0,1-2.48-6,8.09,8.09,0,0,1,2.52-5.94,8.45,8.45,0,0,1,6.19-2.5,8.27,8.27,0,0,1,6.26,2.77v1.84A8.35,8.35,0,0,0,299,406.9a7.49,7.49,0,1,0,0,13,8.22,8.22,0,0,0,2.83-2.66v1.87A8.08,8.08,0,0,1,295.65,421.91Z"/>
            <path class="section-4-back-cls-5" d="M313.14,421.88h-.4a7.89,7.89,0,0,1-5.89-2.56,8.35,8.35,0,0,1-2.47-6,8.09,8.09,0,0,1,2.52-5.94,8.49,8.49,0,0,1,6.23-2.5,8.3,8.3,0,0,1,6.37,3L308.21,419a7.31,7.31,0,0,0,4.5,1.87,7.58,7.58,0,0,0,3.87-1,8.51,8.51,0,0,0,2.83-2.65v1.84A8.15,8.15,0,0,1,313.14,421.88Zm-.31-16a7.58,7.58,0,0,0-7.29,7.31,7.37,7.37,0,0,0,1.91,5l10.48-10.4A7.54,7.54,0,0,0,312.83,405.89Z"/>
            <path class="section-4-back-cls-5" d="M335.42,405.24h1.15v16.2h-1.15v-6.08h-11v6.08h-1.15v-16.2h1.15v9.11h11Z"/>
            <path class="section-4-back-cls-5" d="M340.18,423.5v-3h1.26L349,404.78l7.52,15.7h1.19v3h-1v-2.05H341.11v2.05Zm8.68-16.27-6.34,13.25h12.71Z"/>
            <path class="section-4-back-cls-5" d="M369.08,405.24h1.15v5.22l5.18-5.22h1.3l-6.34,6.48,9.47,9.72H378.3l-8.06-8.32v8.32h-1.15v-8.32L361,421.44h-1.55l9.47-9.72-6.34-6.48h1.3l5.18,5.22Z"/>
            <path class="section-4-back-cls-5" d="M390.94,421.88h-.4a7.89,7.89,0,0,1-5.89-2.56,8.35,8.35,0,0,1-2.47-6,8.09,8.09,0,0,1,2.52-5.94,8.49,8.49,0,0,1,6.23-2.5,8.3,8.3,0,0,1,6.37,3L386,419a7.31,7.31,0,0,0,4.5,1.87,7.58,7.58,0,0,0,3.87-1,8.51,8.51,0,0,0,2.83-2.65v1.84A8.15,8.15,0,0,1,390.94,421.88Zm-.31-16a7.58,7.58,0,0,0-7.29,7.31,7.37,7.37,0,0,0,1.91,5l10.48-10.4A7.54,7.54,0,0,0,390.63,405.89Z"/>
            <path class="section-4-back-cls-5" d="M401.09,428.64v-23.4h1.15v4a7.36,7.36,0,0,1,3-3.17,8.53,8.53,0,0,1,4.3-1.19,8.26,8.26,0,0,1,6.07,2.5,8.5,8.5,0,0,1-6.07,14.49,8.41,8.41,0,0,1-4.21-1.17,8,8,0,0,1-3.13-3.15v11.12Zm1.08-15.26a7.56,7.56,0,0,0,7.47,7.45,7,7,0,0,0,5.2-2.21,7.48,7.48,0,0,0,0-10.53,7,7,0,0,0-5.2-2.23,7.11,7.11,0,0,0-5.24,2.25A7.28,7.28,0,0,0,402.17,413.38Z"/>
            <path class="section-4-back-cls-5" d="M434.89,394.44h9.68v1h-8.5v14.69h7.09v1h-7.09v9.18h8.5v1h-9.68Z"/>
            <path class="section-4-back-cls-5" d="M460.67,405.24h1.15v16.2h-1.15v-3.28a6.44,6.44,0,0,1-6.26,3.67,6.83,6.83,0,0,1-5.08-2.09,7,7,0,0,1-2.05-5.08v-9.43h1.15v9.43a6.06,6.06,0,0,0,1.75,4.32,5.62,5.62,0,0,0,4.23,1.84,6.09,6.09,0,0,0,4.37-1.84,5.83,5.83,0,0,0,1.89-4.32Z"/>
            <path class="section-4-back-cls-5" d="M471.76,405.86a4.65,4.65,0,0,0-3.37,1.44,4.56,4.56,0,0,0-1.46,3.35v10.8h-1.15v-16.2h1.15v2.41a5.09,5.09,0,0,1,2-2,6,6,0,0,1,3.06-.79,5.35,5.35,0,0,1,3.24,1.15v1.44A4.85,4.85,0,0,0,471.76,405.86Z"/>
            <path class="section-4-back-cls-5" d="M479.89,419.27a8.36,8.36,0,0,1-2.48-6,8.07,8.07,0,0,1,2.52-5.92,8.58,8.58,0,0,1,12.11,0,8.12,8.12,0,0,1,2.5,5.94,8.39,8.39,0,0,1-2.45,6,7.92,7.92,0,0,1-5.94,2.56h-.32A8,8,0,0,1,479.89,419.27Zm13.5-5.9a7.3,7.3,0,0,0-2.18-5.27,7,7,0,0,0-5.2-2.23,7.11,7.11,0,0,0-5.24,2.25,7.28,7.28,0,0,0-2.21,5.27,7.56,7.56,0,0,0,7.47,7.45,7,7,0,0,0,5.2-2.21A7.27,7.27,0,0,0,493.39,413.36Z"/>
            <path class="section-4-back-cls-5" d="M514.13,405.24v16.2H513v-4a7.57,7.57,0,0,1-3,3.24,8.37,8.37,0,0,1-4.32,1.19,8.28,8.28,0,0,1-6-2.5,8.39,8.39,0,0,1,0-12,8.28,8.28,0,0,1,6-2.5,8.66,8.66,0,0,1,4.41,1.22,6.64,6.64,0,0,1,2.93,3.24v-4.07Zm-15.91,8.14a7.56,7.56,0,0,0,7.47,7.45,7,7,0,0,0,5.2-2.21,7.47,7.47,0,0,0,0-10.53,7,7,0,0,0-5.2-2.23,7.11,7.11,0,0,0-5.24,2.25A7.28,7.28,0,0,0,498.21,413.38Z"/>
            <path class="section-4-back-cls-5" d="M531.48,405.24h1.15v16.2h-1.15v-3.28a6.44,6.44,0,0,1-6.26,3.67,6.83,6.83,0,0,1-5.08-2.09,7,7,0,0,1-2.05-5.08v-9.43h1.15v9.43A6.06,6.06,0,0,0,521,419a5.62,5.62,0,0,0,4.23,1.84,6.09,6.09,0,0,0,4.37-1.84,5.83,5.83,0,0,0,1.89-4.32Z"/>
            <path class="section-4-back-cls-5" d="M542.39,420.65v1A6.09,6.09,0,0,1,538,420a5.76,5.76,0,0,1-1.8-4.37V398.73h1.15v6.55h5v1h-5v9.29a5,5,0,0,0,5,5.08Z"/>
            <path class="section-4-back-cls-5" d="M546.85,419.27a8.36,8.36,0,0,1-2.48-6,8.07,8.07,0,0,1,2.52-5.92,8.58,8.58,0,0,1,12.11,0,8.12,8.12,0,0,1,2.5,5.94,8.39,8.39,0,0,1-2.45,6,7.92,7.92,0,0,1-5.94,2.56h-.32A8,8,0,0,1,546.85,419.27Zm13.5-5.9a7.3,7.3,0,0,0-2.18-5.27,7,7,0,0,0-5.2-2.23,7.11,7.11,0,0,0-5.24,2.25,7.28,7.28,0,0,0-2.21,5.27,7.56,7.56,0,0,0,7.47,7.45,7,7,0,0,0,5.2-2.21A7.27,7.27,0,0,0,560.35,413.36Z"/>
          </g>
        </g>
      </g>
      <polygon id="Ромб-5" data-name="Ромб" class="section-4-back-cls-1" points="384 270.25 0 405.38 384 540.51 768 405.38 384 270.25"/>
    </g>
    <g id="ea">
      <g class="section-4-back-cls-12">
        <g id="ea_back">
          <rect class="section-4-back-cls-5" x="-3" y="399.67" width="392.67" height="278"/>
          <g id="Слой_1-2" data-name="Слой_1">
            <path class="section-4-back-cls-13" d="M77.94,523.63c-.93-.84-6.27-3-7.84-3.39-4.64,9.68-20.6,8-22.22-4a11.81,11.81,0,0,1,15.28-12.77c2.43.72,5,2.53,5.76,4.1L54.17,513l2.46,6.81,23.06-8.22c-.52-9-9.81-17.29-20-17.3-23,0-28.31,32.46-6.44,39.76A20.55,20.55,0,0,0,68.72,533c3.41-1.64,8-5.75,9.22-9.36Zm78.72-7.43c-1.82-15.85,21.47-18.07,23.48-3.11a11.84,11.84,0,1,1-23.48,3.11Zm9.62-21.73c-10.57,1.21-19.56,10.41-18.18,22.55a20.4,20.4,0,1,0,40.54-4.66c-1.31-10.44-10.55-19.24-22.35-17.89Zm0,62.83A11.75,11.75,0,0,1,180,566.43a11.93,11.93,0,0,1-9.25,14.1c-15,3.08-20.46-20-4.47-23.22Zm-18.22,13.38a20.4,20.4,0,1,0,18.42-22.09,20.43,20.43,0,0,0-18.42,22.09h0Zm-82.8,18,.07-9.08c-4.12,1.18-5.7,2.06-10.2.32-9.15-3.54-10.09-17.55,0-21.83a11.87,11.87,0,0,1,15.54,6.32c1.72,4.28.89,17.57.94,23.21l8.49.16c.08-6.1.05-12.25,0-18.31,0-6.37-1.82-9.66-4.73-13.5-5-6.62-17-10.21-26.57-4.18-17.93,11.27-9,41.92,16.46,36.89h0Zm19.82-38.94c-.59,4.32-.31,23.51.64,27.43,3.78,15.75,27.5,16.77,32.07-.06,1-3.63,1.07-23,.62-27.37h-8.85c-1.58,12.66,4.09,30.77-7.78,30.86a7.62,7.62,0,0,1-6.4-3.49c-2.69-4.72-.75-18.83-1.48-27.37H85.07Zm33.41-54.28-9-.11c0,6.47,0,12.9,0,19.34,0,2.92-.13,6-1.42,8.12a7.53,7.53,0,0,1-12.57.05C94,520.64,94,517.62,94,514.65c0-4.18.54-16-.13-19.29l-8.64,0c-.79,2.39-.24,24.19.44,27.12,3.84,16.54,27.66,16.72,32.12.44,1.46-5.33.73-20.95.73-27.45Zm26.71,84.8c-2.67-.18-5.39,0-7.42-1.25-5.49-3.46-4.62-13.8-4.32-20.66l11.34-.08-.07-8.51-11.3-.09V539l-9,.1c0,5.85-.33,31.77.18,35.38,1.34,9.52,9.6,15.82,20.74,14.33l-.13-8.59h0Zm-20.79-46.12,9,.08c0-8.36-1.8-24.26,3.27-28.89,2.94-2.68,4.75-1.4,8.64-2.15v-8.48c-9.87-1.54-17.13,3.84-19.69,10.41-2.08,5.35-1.22,22.07-1.22,29h0Z"/>
          </g>
        </g>
        <g id="overlay-3"  data-name="overlay" class="overlay">
          <polygon id="overlay-back-3" data-name="overlay-back" class="section-4-back-cls-8" points="0.18 405.13 0.18 675.4 384.19 540.26 0.18 405.13"/>
          <g id="ea-2" data-name="ea">
            <path class="section-4-back-cls-5" d="M79,528.68h7.53v.81H79.91v11.42h5.52v.81H79.91v7.14h6.61v.81H79Z"/>
            <path class="section-4-back-cls-5" d="M99,537.08h.9v12.6H99v-2.55A5,5,0,0,1,94.17,550a5.31,5.31,0,0,1-3.95-1.62,5.42,5.42,0,0,1-1.6-3.95v-7.34h.9v7.34a4.72,4.72,0,0,0,1.36,3.36,4.37,4.37,0,0,0,3.29,1.43,4.74,4.74,0,0,0,3.4-1.43A4.54,4.54,0,0,0,99,544.42Z"/>
            <path class="section-4-back-cls-5" d="M107.66,537.56a3.62,3.62,0,0,0-2.62,1.12,3.55,3.55,0,0,0-1.13,2.6v8.4H103v-12.6h.9V539a4,4,0,0,1,1.57-1.57,4.67,4.67,0,0,1,2.38-.62,4.16,4.16,0,0,1,2.52.9v1.12A3.77,3.77,0,0,0,107.66,537.56Z"/>
            <path class="section-4-back-cls-5" d="M114,548a6.5,6.5,0,0,1-1.93-4.66,6.27,6.27,0,0,1,2-4.61,6.67,6.67,0,0,1,9.42,0,6.31,6.31,0,0,1,1.95,4.62,6.52,6.52,0,0,1-1.9,4.66,6.16,6.16,0,0,1-4.62,2h-.25A6.2,6.2,0,0,1,114,548Zm10.5-4.59a5.68,5.68,0,0,0-1.69-4.1,5.46,5.46,0,0,0-4-1.74,5.53,5.53,0,0,0-4.07,1.75,5.66,5.66,0,0,0-1.72,4.1,5.88,5.88,0,0,0,5.81,5.8,5.45,5.45,0,0,0,4-1.72A5.66,5.66,0,0,0,124.49,543.39Z"/>
            <path class="section-4-back-cls-5" d="M140.62,537.08v12.6h-.9v-3.14a5.89,5.89,0,0,1-2.35,2.52A6.52,6.52,0,0,1,134,550a6.44,6.44,0,0,1-4.7-1.95,6.52,6.52,0,0,1,0-9.32,6.44,6.44,0,0,1,4.7-1.95,6.73,6.73,0,0,1,3.43,1,5.17,5.17,0,0,1,2.28,2.52v-3.16Zm-12.38,6.33a5.88,5.88,0,0,0,5.81,5.8,5.45,5.45,0,0,0,4-1.72,5.81,5.81,0,0,0,0-8.19,5.46,5.46,0,0,0-4-1.74,5.53,5.53,0,0,0-4.07,1.75A5.66,5.66,0,0,0,128.24,543.41Z"/>
            <path class="section-4-back-cls-5" d="M154.11,537.08h.9v12.6h-.9v-2.55a5,5,0,0,1-4.87,2.86,5.31,5.31,0,0,1-3.95-1.62,5.42,5.42,0,0,1-1.6-3.95v-7.34h.9v7.34a4.72,4.72,0,0,0,1.36,3.36,4.37,4.37,0,0,0,3.29,1.43,4.74,4.74,0,0,0,3.4-1.43,4.54,4.54,0,0,0,1.47-3.36Z"/>
            <path class="section-4-back-cls-5" d="M162.6,549.06v.78a4.74,4.74,0,0,1-3.39-1.33,4.48,4.48,0,0,1-1.4-3.4V532h.9v5.1h3.86v.78H158.7v7.22a3.85,3.85,0,0,0,3.89,3.95Z"/>
            <path class="section-4-back-cls-5" d="M166.07,548a6.5,6.5,0,0,1-1.93-4.66,6.27,6.27,0,0,1,2-4.61,6.67,6.67,0,0,1,9.42,0,6.31,6.31,0,0,1,1.95,4.62,6.52,6.52,0,0,1-1.9,4.66,6.16,6.16,0,0,1-4.62,2h-.25A6.2,6.2,0,0,1,166.07,548Zm10.5-4.59a5.68,5.68,0,0,0-1.69-4.1,5.46,5.46,0,0,0-4-1.74,5.53,5.53,0,0,0-4.07,1.75,5.66,5.66,0,0,0-1.72,4.1,5.88,5.88,0,0,0,5.81,5.8,5.45,5.45,0,0,0,4-1.72A5.66,5.66,0,0,0,176.57,543.39Z"/>
            <path class="section-4-back-cls-5" d="M180.39,549.88q-1,0-1-.87t1-.87q1,0,1,.87T180.39,549.88Z"/>
            <path class="section-4-back-cls-5" d="M188.66,537.56a3.62,3.62,0,0,0-2.62,1.12,3.55,3.55,0,0,0-1.13,2.6v8.4H184v-12.6h.9V539a4,4,0,0,1,1.57-1.57,4.67,4.67,0,0,1,2.38-.62,4.16,4.16,0,0,1,2.52.9v1.12A3.77,3.77,0,0,0,188.66,537.56Z"/>
            <path class="section-4-back-cls-5" d="M203.9,537.08h.9v12.6h-.9v-2.55A5,5,0,0,1,199,550a5.31,5.31,0,0,1-3.95-1.62,5.42,5.42,0,0,1-1.6-3.95v-7.34h.9v7.34a4.72,4.72,0,0,0,1.36,3.36A4.37,4.37,0,0,0,199,549.2a4.74,4.74,0,0,0,3.4-1.43,4.54,4.54,0,0,0,1.47-3.36Z"/>
          </g>
        </g>
      </g>
      <polygon id="Треугольник-8" data-name="Треугольник" class="section-4-back-cls-1" points="0.18 405.13 0.18 675.4 384.19 540.26 0.18 405.13"/>
    </g>
    <g id="wolf">
      <g class="section-4-back-cls-14">
        <g id="wolf_back">
          <rect class="section-4-back-cls-5" x="0.5" y="537.5" width="771" height="272.5"/>
          <g id="Слой_1-3" data-name="Слой_1">
            <g id="_554465816" data-name=" 554465816">
              <path class="section-4-back-cls-15" d="M238,705.78c-3.75,0-10.21-1.67-11.94-12.63l-.06-.4c-1.15-7.56-2.42-15.34-6.11-21-2.94-4.44-7.21-7.15-13.1-8.19l-.81-.17a.63.63,0,0,1-.29-.06l-.35-.06H205l-.12-.06h-.06a2,2,0,0,1-1.79-1.85c0-.06-.06-.17-.06-.23a2.18,2.18,0,0,1,1.44-2c.06,0,.06,0,.12-.06a3.68,3.68,0,0,0,.4-.12l.81-.23c.23-.12.52-.17.81-.29a43.73,43.73,0,0,1,12-1.85c16.84,0,24.52,12.11,27.57,19.38,1.1,2.48,2.13,2.48,2.54,2.48a4.72,4.72,0,0,0,2-.63c14.19-7.44,31.79-16.56,35.25-17.65a11.57,11.57,0,0,1,3.06-.46c5.31,0,8.36,4.15,9.17,5.48,1,1.5,2.6,5.19,5,11.13l.17.46c1.27,3.06,2.71,3.46,3.81,3.46a9.31,9.31,0,0,0,3.58-1c1.21-.58,4-2.31,5-2.94,10.79-6.86,20.77-12,29.59-15.23,7.9-2.88,15.06-4.38,21.29-4.38a32.83,32.83,0,0,1,5.88.52l.92.17a1.68,1.68,0,0,1,.52.12,2,2,0,0,1,.58.12l.17.06a2.06,2.06,0,0,1-.12,4,.18.18,0,0,1-.12.06c-.17.06-.35.06-.52.12a.52.52,0,0,1-.29.06l-.06.06a5.36,5.36,0,0,0-.75.23c-7.67,2.6-20.94,12.63-32.65,21.52-6.81,5.13-13.15,10-17.94,13-6.63,4.15-15.17,8.94-22.27,8.94-4.5,0-10.44-2-13.33-11.31l-4.27-11.6c-8,4.73-33.05,19.33-36.8,21.11A18.44,18.44,0,0,1,238,705.78Z"/>
              <path class="section-4-back-cls-15" d="M370.61,705.37c-8.48,0-15-2.65-18.34-7.44a.06.06,0,0,0-.06-.06,12,12,0,0,1-1.62-7.85h0a10.72,10.72,0,0,1,7.15-8.88,9.22,9.22,0,0,1,2.71-.46,7.73,7.73,0,0,1,5.6,2.71,8.8,8.8,0,0,0,.87.75,18.38,18.38,0,0,0,9.11,3.69h1.15c4.38,0,12.4-1.67,16.33-6.29,2.54-2.88,3.58-5.65,2.88-7.38s-3.06-2.65-6.86-3a16.45,16.45,0,0,0-1.79-.12,44,44,0,0,0-15.4,3.35c-.06.06-.29.12-.52.23a68,68,0,0,0-11.36,5.08L360,680l-.46.29a2.33,2.33,0,0,1-1.27.35,2.43,2.43,0,0,1-1.9-.92,2.41,2.41,0,0,1,.23-3.29l.81-.75c9.69-8.83,17.25-12.58,25.56-15.52a50,50,0,0,1,16.38-3,34.77,34.77,0,0,1,4.33.29c5.6.69,12.75,4.27,15.11,10.33,2.13,5.6.17,11.94-5.83,19C403.72,697.53,385.9,705.37,370.61,705.37Z"/>
              <path class="section-4-back-cls-15" d="M409.21,705.66a29.47,29.47,0,0,1-7.79-1l-.12-.06c-.12,0-.17-.06-.29-.06a4.32,4.32,0,0,0-.92-.29l-.12-.06c-.06,0-.12-.06-.17-.06a2.1,2.1,0,0,1-1.44-2,2.12,2.12,0,0,1,1.38-2,.18.18,0,0,1,.12-.06l.17-.06.81-.35a.21.21,0,0,0,.17-.06l.12-.06c15.34-6.35,29-26.88,40.32-46.15a.06.06,0,0,1,.06-.06h0c9.92-16.9,18.23-28.5,26.13-36.34,9.06-9,18.92-13.73,28.61-13.73a29.86,29.86,0,0,1,7.79,1.1l.12.06a.35.35,0,0,1,.23.06,6.3,6.3,0,0,1,1,.29l.06.06c.12,0,.17,0,.23.06a2.06,2.06,0,0,1,1.38,2,2,2,0,0,1-1.38,2l-.06.06c-.12,0-.17.06-.23.06-.23.12-.52.17-.75.29a350786.17,350786.17,0,0,0-.35.12c-15.34,6.4-29,26.94-40.32,46.21v.06c-9.92,16.9-18.23,28.44-26.13,36.34C428.76,700.93,418.84,705.66,409.21,705.66Z"/>
              <path class="section-4-back-cls-15" d="M402.57,762.54a28.16,28.16,0,0,1-8.77-1.38h-.12a.21.21,0,0,0-.17-.06,3.34,3.34,0,0,0-.81-.29l-.17-.06a.44.44,0,0,0-.23-.12,2.06,2.06,0,0,1-.12-3.81l.35-.17c.23-.12.46-.23.75-.35l.17-.12c22-10.79,41.65-44,60.63-76,14.71-24.81,28.56-48.28,43.61-62.24,8.88-8.19,18.46-12.52,27.69-12.52a28.75,28.75,0,0,1,9.11,1.5l.12.06c.06,0,.12.06.17.06.35.12.63.23.92.35l.12.06c.06,0,.17.06.23.06a2.09,2.09,0,0,1-.06,3.87.18.18,0,0,1-.12.06.35.35,0,0,1-.23.06l-.75.35-.29.06c-15.52,6.52-30.17,27.46-42.46,47.13-.81,1.27-2.83,4.56-5.77,9.46h7.21a2.44,2.44,0,0,1,2.42,2.42,13.49,13.49,0,0,1-13.56,13.56h-5.65c-1,1.67-1.62,2.77-1.73,2.94-17,28.67-32.48,53.48-50.07,67H425C417.63,759.71,409.9,762.54,402.57,762.54Z"/>
              <path class="section-4-back-cls-15" d="M469.49,738c-3.12,0-5.6-2-5.6-4.5s2.48-4.5,5.6-4.5,5.6,2,5.6,4.5S472.66,738,469.49,738Z"/>
              <path class="section-4-back-cls-15" d="M498,744.37c-2.6,0-3.75-1.15-4.33-2.13-1.1-2-.58-4.73,1.62-8.54a2.85,2.85,0,0,0,.23-.52,3.64,3.64,0,0,0-.23-.52c-2.19-3.81-2.71-6.63-1.62-8.54.58-1,1.73-2.13,4.33-2.13,4.73,0,12.86,4.27,15,8.83a6.48,6.48,0,0,1,.58,2.25v.23c-.12,3.4-3.69,6.23-5.88,7.61C504.39,743,500.7,744.37,498,744.37Z"/>
              <path class="section-4-back-cls-15" d="M480.28,742.18a4,4,0,0,1-3.69-1.79c-.92-1.62-.52-3.92,1.27-7,.06-.06.06-.12.12-.17s-.06-.17-.12-.23c-1.79-3.06-2.19-5.31-1.27-7a4,4,0,0,1,3.69-1.79c3.92,0,9.63,3.17,11.6,6.46a4.92,4.92,0,0,1,.75,2.37v.29C492.45,737.74,484.66,742.18,480.28,742.18Z"/>
            </g>
          </g>
        </g>
        <g id="overlay-4"  data-name="overlay" class="overlay">
          <polygon id="overlay-back-4" data-name="overlay-back" class="section-4-back-cls-8" points="384 540.25 0 675.38 384 810.52 768 675.38 384 540.25"/>
          <g>
            <path class="section-4-back-cls-5" d="M357.39,691.91l-11.84-27.47h1.33l10.69,24.73,5-11.7-5.58-13h1.3l5,11.84,5.15-11.84h1l-5.62,13,5.11,11.84,10.91-24.84h1l-12,27.47-5.72-13.18Z"/>
            <path class="section-4-back-cls-5" d="M381.15,689.27a8.36,8.36,0,0,1-2.48-6,8.07,8.07,0,0,1,2.52-5.92,8.58,8.58,0,0,1,12.11,0,8.12,8.12,0,0,1,2.5,5.94,8.39,8.39,0,0,1-2.45,6,7.92,7.92,0,0,1-5.94,2.56h-.32A8,8,0,0,1,381.15,689.27Zm13.5-5.9a7.3,7.3,0,0,0-2.18-5.27,7,7,0,0,0-5.2-2.23,7.11,7.11,0,0,0-5.24,2.25,7.28,7.28,0,0,0-2.21,5.27,7.56,7.56,0,0,0,7.47,7.45,7,7,0,0,0,5.2-2.21A7.27,7.27,0,0,0,394.65,683.36Z"/>
            <path class="section-4-back-cls-5" d="M405.38,690.76v1a6.09,6.09,0,0,1-4.36-1.71,5.76,5.76,0,0,1-1.8-4.37V664.45h1.15v21.24a4.95,4.95,0,0,0,5,5.08Z"/>
            <path class="section-4-back-cls-5" d="M414.42,668.69v1a4.95,4.95,0,0,0-5,5.08v9.47h5v1h-5v6.19h-1.15V674.78a5.77,5.77,0,0,1,1.8-4.37A6.1,6.1,0,0,1,414.42,668.69Z"/>
          </g>
        </g>
      </g>
      <polygon id="Ромб-6" data-name="Ромб" class="section-4-back-cls-1" points="384 540.25 0 675.38 384 810.52 768 675.38 384 540.25"/>
    </g>
    <g id="mksoloview">
      <g class="section-4-back-cls-16">
        <a href="projects/mksoloviev/" target="_blank">
          <image width="772" height="273" transform="translate(1150.19 133.01)" xlink:href="images/section-4-back-pics/mksoloviev.jpg"/>
          <g id="overlay-5"  data-name="overlay" class="overlay">
            <polygon id="overlay-back-5" data-name="overlay-back" class="section-4-back-cls-8" points="1536.19 135.74 1152.19 270.87 1536.19 406.01 1920.19 270.87 1536.19 135.74"/>
            <g>
              <path class="section-4-back-cls-5" d="M1497.9,230.6v1h-6.16v26h-1.19v-26h-6.23v-1Z"/>
              <path class="section-4-back-cls-5" d="M1497.5,264.8V241.4h1.15v4a7.35,7.35,0,0,1,3-3.17A8.53,8.53,0,0,1,1506,241a8.26,8.26,0,0,1,6.07,2.5A8.5,8.5,0,0,1,1506,258a8.4,8.4,0,0,1-4.21-1.17,8,8,0,0,1-3.13-3.15V264.8Zm1.08-15.26A7.56,7.56,0,0,0,1506,257a7,7,0,0,0,5.2-2.21,7.47,7.47,0,0,0,0-10.53A7,7,0,0,0,1506,242a7.11,7.11,0,0,0-5.24,2.25A7.28,7.28,0,0,0,1498.58,249.54Z"/>
              <path class="section-4-back-cls-5" d="M1526.19,258h-.4a7.9,7.9,0,0,1-5.89-2.56,8.36,8.36,0,0,1-2.47-6,8.09,8.09,0,0,1,2.52-5.94,8.49,8.49,0,0,1,6.23-2.5,8.3,8.3,0,0,1,6.37,3l-11.3,11.16a7.3,7.3,0,0,0,4.5,1.87,7.58,7.58,0,0,0,3.87-1,8.51,8.51,0,0,0,2.83-2.65v1.84A8.15,8.15,0,0,1,1526.19,258Zm-.31-16a7.58,7.58,0,0,0-7.29,7.31,7.37,7.37,0,0,0,1.91,5L1531,244A7.54,7.54,0,0,0,1525.88,242.05Z"/>
              <path class="section-4-back-cls-5" d="M1548.47,241.4h1.15v16.2h-1.15v-6.08h-11v6.08h-1.15V241.4h1.15v9.11h11Z"/>
              <path class="section-4-back-cls-5" d="M1568.81,241.44V257.6h-1.12V243.24L1556,257.6h-1V241.44h1.12V255.8l11.63-14.36Z"/>
              <path class="section-4-back-cls-5" d="M1586.35,241.4h1.15v16.2h-1.15v-6.08h-11v6.08h-1.15V241.4h1.15v9.11h11Z"/>
              <path class="section-4-back-cls-5" d="M1600.06,242.45h-6V257.6h-1.15V241.44h7.16Z"/>
              <path class="section-4-back-cls-5" d="M1371.83,273.8H1373a5.58,5.58,0,0,1,3.92,1.46,4.84,4.84,0,0,1,1.58,3.73,5.28,5.28,0,0,1-.88,2.79,4.19,4.19,0,0,1-2.07,1.85,8.37,8.37,0,0,1,4.61,3,8.77,8.77,0,0,1,1.84,5.71,8,8,0,0,1-2.63,6,8.84,8.84,0,0,1-6.37,2.54h-1.15Zm1.15,1v8.5h.29a3.83,3.83,0,0,0,2.86-1.31,4.27,4.27,0,0,0,1.24-3,4,4,0,0,0-1.22-2.93,3.94,3.94,0,0,0-2.88-1.22Zm0,9.47v15.52h.29a7.22,7.22,0,0,0,5.35-2.3,7.78,7.78,0,0,0,0-10.93,7.23,7.23,0,0,0-5.36-2.29Z"/>
              <path class="section-4-back-cls-5" d="M1385.18,300.8h-1l8-16.67,8,16.67h-1.26L1392,286.58Z"/>
              <path class="section-4-back-cls-5" d="M1419.49,284.6v16.2h-1.15v-4a7.58,7.58,0,0,1-3,3.24,8.37,8.37,0,0,1-4.32,1.19,8.28,8.28,0,0,1-6-2.5,8.39,8.39,0,0,1,0-12,8.28,8.28,0,0,1,6-2.5,8.65,8.65,0,0,1,4.41,1.22,6.64,6.64,0,0,1,2.93,3.24V284.6Zm-15.91,8.14a7.56,7.56,0,0,0,7.47,7.45,7,7,0,0,0,5.2-2.21,7.48,7.48,0,0,0,0-10.53,7,7,0,0,0-5.2-2.23,7.11,7.11,0,0,0-5.24,2.25A7.28,7.28,0,0,0,1403.58,292.74Z"/>
              <path class="section-4-back-cls-5" d="M1423.09,302.85v-3h1.26l7.52-15.73,7.52,15.7h1.19v3h-1V300.8H1424v2.05Zm8.68-16.27-6.34,13.25h12.71Z"/>
              <path class="section-4-back-cls-5" d="M1458,284.64V300.8h-1.12V286.44l-11.66,14.36h-1V284.64h1.12V299l11.63-14.36Z"/>
              <path class="section-4-back-cls-5" d="M1463.37,300.8V284.6h1.3l7.09,14.33,7.2-14.33H1480v16.2h-1.15V286.73l-7.31,14.51-7.2-14.65V300.8Z"/>
              <path class="section-4-back-cls-5" d="M1499.23,284.64V300.8h-1.12V286.44l-11.66,14.36h-1V284.64h1.12V299l11.63-14.36Z"/>
              <path class="section-4-back-cls-5" d="M1504.63,308V284.6h1.15v4a7.35,7.35,0,0,1,3-3.17,8.53,8.53,0,0,1,4.3-1.19,8.26,8.26,0,0,1,6.07,2.5,8.5,8.5,0,0,1-6.07,14.49,8.4,8.4,0,0,1-4.21-1.17,8,8,0,0,1-3.13-3.15V308Zm1.08-15.26a7.56,7.56,0,0,0,7.47,7.45,7,7,0,0,0,5.2-2.21,7.47,7.47,0,0,0,0-10.53,7,7,0,0,0-5.2-2.23,7.11,7.11,0,0,0-5.24,2.25A7.28,7.28,0,0,0,1505.71,292.74Z"/>
              <path class="section-4-back-cls-5" d="M1541.63,284.6v16.2h-1.15v-4a7.57,7.57,0,0,1-3,3.24,8.37,8.37,0,0,1-4.32,1.19,8.27,8.27,0,0,1-6-2.5,8.39,8.39,0,0,1,0-12,8.28,8.28,0,0,1,6-2.5,8.66,8.66,0,0,1,4.41,1.22,6.64,6.64,0,0,1,2.93,3.24V284.6Zm-15.91,8.14a7.56,7.56,0,0,0,7.47,7.45,7,7,0,0,0,5.2-2.21,7.47,7.47,0,0,0,0-10.53,7,7,0,0,0-5.2-2.23,7.11,7.11,0,0,0-5.24,2.25A7.28,7.28,0,0,0,1525.72,292.74Z"/>
              <path class="section-4-back-cls-5" d="M1573,301.2h-.4a13.09,13.09,0,0,1-6.91-1.94,14.29,14.29,0,0,1-5.06-5.17,14,14,0,0,1,12.19-20.83,14.28,14.28,0,0,1,7.31,2v1.33a12.74,12.74,0,0,0-7.31-2.3,12.94,12.94,0,0,0-12.85,12.91,12.51,12.51,0,0,0,3.78,9.13,12.31,12.31,0,0,0,9.07,3.82,12.74,12.74,0,0,0,7.31-2.3v1.33A13.34,13.34,0,0,1,1573,301.2Z"/>
              <path class="section-4-back-cls-5" d="M1582.78,292.63a8.07,8.07,0,0,1,2.52-5.92,8.58,8.58,0,0,1,12.11,0,8.12,8.12,0,0,1,2.5,5.94,8.39,8.39,0,0,1-2.45,6,7.92,7.92,0,0,1-5.94,2.56h-.36a8,8,0,0,1-5.89-2.57A8.33,8.33,0,0,1,1582.78,292.63Zm16,.09a7.3,7.3,0,0,0-2.18-5.27,7,7,0,0,0-5.2-2.23,7.11,7.11,0,0,0-5.24,2.25,7.28,7.28,0,0,0-2.21,5.27,7.56,7.56,0,0,0,7.47,7.45,7,7,0,0,0,5.2-2.21A7.27,7.27,0,0,0,1598.77,292.72Z"/>
              <path class="section-4-back-cls-5" d="M1603.3,300.8h-1l8-16.67,8,16.67h-1.26l-6.84-14.22Z"/>
              <path class="section-4-back-cls-5" d="M1620.55,292.63a8.07,8.07,0,0,1,2.52-5.92,8.58,8.58,0,0,1,12.11,0,8.12,8.12,0,0,1,2.5,5.94,8.39,8.39,0,0,1-2.45,6,7.92,7.92,0,0,1-5.94,2.56h-.36a8,8,0,0,1-5.89-2.57A8.33,8.33,0,0,1,1620.55,292.63Zm16,.09a7.3,7.3,0,0,0-2.18-5.27,7,7,0,0,0-5.2-2.23,7.11,7.11,0,0,0-5.24,2.25,7.28,7.28,0,0,0-2.21,5.27,7.56,7.56,0,0,0,7.47,7.45,7,7,0,0,0,5.2-2.21A7.27,7.27,0,0,0,1636.53,292.72Z"/>
              <path class="section-4-back-cls-5" d="M1641.82,284.6h3a3.09,3.09,0,0,1,2.32,1,3.51,3.51,0,0,1,.92,2.54,2.76,2.76,0,0,1-1.33,2.45,4.51,4.51,0,0,1,2.43,1.87,5.77,5.77,0,0,1,1,3.35,4.85,4.85,0,0,1-1.55,3.47,5.11,5.11,0,0,1-3.78,1.57h-3Zm3.06,1H1643v4.61h2a2,2,0,0,0,1.51-.67,2.19,2.19,0,0,0,.65-1.58,2.31,2.31,0,0,0-.68-1.64A2.09,2.09,0,0,0,1644.88,285.57Zm0,5.58H1643v8.68h1.94a4,4,0,0,0,3-1.28,4.26,4.26,0,0,0,1.24-3.08,4.2,4.2,0,0,0-1.24-3.06A4,4,0,0,0,1644.92,291.15Z"/>
              <path class="section-4-back-cls-5" d="M1654.31,284.6h1.15v5.58h1.76a5,5,0,0,1,3.71,1.58,5.18,5.18,0,0,1,1.55,3.74,5.06,5.06,0,0,1-1.58,3.73,5.19,5.19,0,0,1-3.78,1.57h-2.81Zm1.15,6.55v8.68h1.69a4,4,0,0,0,3-1.28,4.16,4.16,0,0,0,1.26-3,4.26,4.26,0,0,0-1.28-3.06,4,4,0,0,0-2.93-1.31Z"/>
              <path class="section-4-back-cls-5" d="M1674.11,301.23h-.4a7.89,7.89,0,0,1-5.89-2.56,8.35,8.35,0,0,1-2.47-6,8.09,8.09,0,0,1,2.52-5.94,8.49,8.49,0,0,1,6.23-2.5,8.3,8.3,0,0,1,6.37,3l-11.3,11.16a7.31,7.31,0,0,0,4.5,1.87,7.58,7.58,0,0,0,3.87-1,8.51,8.51,0,0,0,2.83-2.65v1.84A8.15,8.15,0,0,1,1674.11,301.23Zm-.31-16a7.58,7.58,0,0,0-7.29,7.31,7.37,7.37,0,0,0,1.91,5l10.48-10.4A7.54,7.54,0,0,0,1673.81,285.25Z"/>
              <path class="section-4-back-cls-5" d="M1684.26,284.6h3a3.08,3.08,0,0,1,2.32,1,3.51,3.51,0,0,1,.92,2.54,2.76,2.76,0,0,1-1.33,2.45,4.51,4.51,0,0,1,2.43,1.87,5.77,5.77,0,0,1,1,3.35,4.84,4.84,0,0,1-1.55,3.47,5.11,5.11,0,0,1-3.78,1.57h-3Zm3.06,1h-1.91v4.61h2a2,2,0,0,0,1.51-.67,2.19,2.19,0,0,0,.65-1.58,2.32,2.32,0,0,0-.68-1.64A2.09,2.09,0,0,0,1687.32,285.57Zm0,5.58h-1.94v8.68h1.94a4,4,0,0,0,3-1.28,4.25,4.25,0,0,0,1.24-3.08,4.2,4.2,0,0,0-1.24-3.06A4,4,0,0,0,1687.36,291.15Z"/>
              <path class="section-4-back-cls-5" d="M1712.56,284.6v16.2h-1.15v-4a7.57,7.57,0,0,1-3,3.24,8.37,8.37,0,0,1-4.32,1.19,8.27,8.27,0,0,1-6-2.5,8.39,8.39,0,0,1,0-12,8.28,8.28,0,0,1,6-2.5,8.66,8.66,0,0,1,4.41,1.22,6.64,6.64,0,0,1,2.93,3.24V284.6Zm-15.91,8.14a7.56,7.56,0,0,0,7.47,7.45,7,7,0,0,0,5.2-2.21,7.47,7.47,0,0,0,0-10.53,7,7,0,0,0-5.2-2.23,7.11,7.11,0,0,0-5.24,2.25A7.28,7.28,0,0,0,1696.65,292.74Z"/>
            </g>
          </a>
        </g>
      </g>
      <polygon id="Ромб-7" data-name="Ромб" class="section-4-back-cls-1" points="1536.19 135.74 1152.19 270.87 1536.19 406.01 1920.19 270.87 1536.19 135.74"/>
    </g>
    <g id="me">
      <g class="section-4-back-cls-17">
        <a href="projects/me_v2.0/" target="_blank">
          <image width="390" height="280" transform="translate(1120.15 263.61) scale(1.08 1)" xlink:href="images/section-4-back-pics/me_v2.0.jpg"/>
          <g id="overlay-6"  data-name="overlay" class="overlay">
            <polygon id="overlay-back-6" data-name="overlay-back" class="section-4-back-cls-8" points="1151.79 270.29 1151.79 540.55 1535.79 405.42 1151.79 270.29"/>
            <g>
              <path class="section-4-back-cls-5" d="M1209.53,393.84v21h-.92V394.93l-9.91,20.3-9.86-20.3v19.91H1188v-21h1.34l9.44,19.38,9.46-19.38Z"/>
              <path class="section-4-back-cls-5" d="M1225.89,402.24v12.6h-.9V411.7a5.88,5.88,0,0,1-2.35,2.52,6.51,6.51,0,0,1-3.36.92,6.44,6.44,0,0,1-4.7-1.95,6.52,6.52,0,0,1,0-9.32,6.44,6.44,0,0,1,4.7-1.95,6.74,6.74,0,0,1,3.43,1,5.17,5.17,0,0,1,2.28,2.52v-3.16Zm-12.38,6.33a5.88,5.88,0,0,0,5.81,5.8,5.45,5.45,0,0,0,4-1.72,5.81,5.81,0,0,0,0-8.19,5.46,5.46,0,0,0-4-1.74,5.53,5.53,0,0,0-4.07,1.75A5.66,5.66,0,0,0,1213.51,408.57Z"/>
              <path class="section-4-back-cls-5" d="M1233.89,402.71a3.62,3.62,0,0,0-2.62,1.12,3.55,3.55,0,0,0-1.13,2.6v8.4h-.9v-12.6h.9v1.88a4,4,0,0,1,1.57-1.57,4.67,4.67,0,0,1,2.38-.62,4.16,4.16,0,0,1,2.52.9v1.12A3.77,3.77,0,0,0,1233.89,402.71Z"/>
              <path class="section-4-back-cls-5" d="M1239,393.89h.9v12.71l5-4.37H1246l-5.77,5,7.22,7.56h-1.2l-6.38-6.64v6.64h-.9Z"/>
              <path class="section-4-back-cls-5" d="M1254.64,415.17h-.25a6.3,6.3,0,0,1-4.63-2,6.43,6.43,0,0,1-2-4.66,6.27,6.27,0,0,1,2-4.61,6.6,6.6,0,0,1,4.84-1.95,6.46,6.46,0,0,1,5,2.3l-8.79,8.68a5.68,5.68,0,0,0,3.5,1.46,5.9,5.9,0,0,0,3-.77,6.62,6.62,0,0,0,2.2-2.06V413A6.28,6.28,0,0,1,1254.64,415.17Zm-.29-12.43a5.89,5.89,0,0,0-5.67,5.68,5.73,5.73,0,0,0,1.48,3.92l8.15-8.09A5.86,5.86,0,0,0,1254.35,402.74Z"/>
              <path class="section-4-back-cls-5" d="M1266.71,414.22V415a4.74,4.74,0,0,1-3.39-1.33,4.48,4.48,0,0,1-1.4-3.4v-13.1h.9v5.1h3.86v.78h-3.86v7.22a3.85,3.85,0,0,0,3.89,3.95Z"/>
              <path class="section-4-back-cls-5" d="M1269.76,399.19c-.54,0-.81-.25-.81-.76s.27-.76.81-.76.81.25.81.76S1270.3,399.19,1269.76,399.19Zm.45,3.08v12.57h-.9V402.27Z"/>
              <path class="section-4-back-cls-5" d="M1274.83,414.84h-.9v-12.6h.9v2.55a5,5,0,0,1,4.87-2.86,5.32,5.32,0,0,1,3.95,1.62,5.42,5.42,0,0,1,1.6,3.95v7.34h-.9V407.5a4.72,4.72,0,0,0-1.36-3.36,4.37,4.37,0,0,0-3.29-1.43,4.74,4.74,0,0,0-3.4,1.43,4.53,4.53,0,0,0-1.47,3.36Z"/>
              <path class="section-4-back-cls-5" d="M1300.31,402.24h.9v11.42a7.11,7.11,0,0,1-1.79,5.12,6.21,6.21,0,0,1-4.7,1.88,7.1,7.1,0,0,1-3.11-.73,6,6,0,0,1-2.35-1.9v-1.29a5.8,5.8,0,0,0,2.28,2.24,6.29,6.29,0,0,0,3.18.9,5.29,5.29,0,0,0,4-1.67,6.37,6.37,0,0,0,1.57-4.55v-1.88a5.7,5.7,0,0,1-2.38,2.46,6.71,6.71,0,0,1-3.36.92,6.44,6.44,0,0,1-4.7-1.95,6.52,6.52,0,0,1,0-9.32,6.44,6.44,0,0,1,4.7-1.95,6.72,6.72,0,0,1,3.4.91,5.61,5.61,0,0,1,2.34,2.51Zm-11.51,6.33a5.88,5.88,0,0,0,5.81,5.82,5.45,5.45,0,0,0,4-1.72,5.85,5.85,0,0,0,0-8.2,5.45,5.45,0,0,0-4-1.72,5.88,5.88,0,0,0-5.81,5.82Z"/>
              <path class="section-4-back-cls-5" d="M1314.79,393.84h7.53v.81h-6.61v11.42h5.52v.81h-5.52V414h6.61v.81h-7.53Z"/>
              <path class="section-4-back-cls-5" d="M1325.59,414.84h-.9v-12.6h.9v2.55a5,5,0,0,1,4.87-2.86,5.32,5.32,0,0,1,3.95,1.62,5.42,5.42,0,0,1,1.6,3.95v7.34h-.9V407.5a4.72,4.72,0,0,0-1.36-3.36,4.37,4.37,0,0,0-3.29-1.43,4.74,4.74,0,0,0-3.4,1.43,4.53,4.53,0,0,0-1.47,3.36Z"/>
              <path class="section-4-back-cls-5" d="M1351.07,402.24h.9v11.42a7.11,7.11,0,0,1-1.79,5.12,6.21,6.21,0,0,1-4.7,1.88,7.1,7.1,0,0,1-3.11-.73A6,6,0,0,1,1340,418v-1.29a5.8,5.8,0,0,0,2.28,2.24,6.29,6.29,0,0,0,3.18.9,5.29,5.29,0,0,0,4-1.67,6.37,6.37,0,0,0,1.57-4.55v-1.88a5.7,5.7,0,0,1-2.38,2.46,6.71,6.71,0,0,1-3.36.92,6.44,6.44,0,0,1-4.7-1.95,6.52,6.52,0,0,1,0-9.32,6.44,6.44,0,0,1,4.7-1.95,6.72,6.72,0,0,1,3.4.91,5.61,5.61,0,0,1,2.34,2.51Zm-11.51,6.33a5.88,5.88,0,0,0,5.81,5.82,5.45,5.45,0,0,0,4-1.72,5.85,5.85,0,0,0,0-8.2,5.45,5.45,0,0,0-4-1.72,5.88,5.88,0,0,0-5.81,5.82Z"/>
              <path class="section-4-back-cls-5" d="M1356.14,399.19c-.54,0-.81-.25-.81-.76s.27-.76.81-.76.81.25.81.76S1356.68,399.19,1356.14,399.19Zm.45,3.08v12.57h-.9V402.27Z"/>
              <path class="section-4-back-cls-5" d="M1361.21,414.84h-.9v-12.6h.9v2.55a5,5,0,0,1,4.87-2.86,5.32,5.32,0,0,1,3.95,1.62,5.42,5.42,0,0,1,1.6,3.95v7.34h-.9V407.5a4.72,4.72,0,0,0-1.36-3.36,4.37,4.37,0,0,0-3.29-1.43,4.74,4.74,0,0,0-3.4,1.43,4.53,4.53,0,0,0-1.47,3.36Z"/>
              <path class="section-4-back-cls-5" d="M1381.28,415.17H1381a6.3,6.3,0,0,1-4.63-2,6.43,6.43,0,0,1-2-4.66,6.28,6.28,0,0,1,2-4.61,6.61,6.61,0,0,1,4.84-1.95,6.45,6.45,0,0,1,5,2.3l-8.79,8.68a5.69,5.69,0,0,0,3.5,1.46,5.9,5.9,0,0,0,3-.77,6.62,6.62,0,0,0,2.2-2.06V413A6.28,6.28,0,0,1,1381.28,415.17Zm-.29-12.43a5.89,5.89,0,0,0-5.67,5.68,5.73,5.73,0,0,0,1.48,3.92l8.15-8.09A5.87,5.87,0,0,0,1381,402.74Z"/>
              <path class="section-4-back-cls-5" d="M1395.14,415.17h-.25a6.3,6.3,0,0,1-4.63-2,6.43,6.43,0,0,1-2-4.66,6.27,6.27,0,0,1,2-4.61,6.6,6.6,0,0,1,4.84-1.95,6.46,6.46,0,0,1,5,2.3l-8.79,8.68a5.68,5.68,0,0,0,3.5,1.46,5.9,5.9,0,0,0,3-.77,6.62,6.62,0,0,0,2.2-2.06V413A6.28,6.28,0,0,1,1395.14,415.17Zm-.29-12.43a5.89,5.89,0,0,0-5.67,5.68,5.73,5.73,0,0,0,1.48,3.92l8.15-8.09A5.86,5.86,0,0,0,1394.85,402.74Z"/>
              <path class="section-4-back-cls-5" d="M1407.35,402.71a3.62,3.62,0,0,0-2.62,1.12,3.55,3.55,0,0,0-1.13,2.6v8.4h-.9v-12.6h.9v1.88a4,4,0,0,1,1.57-1.57,4.67,4.67,0,0,1,2.38-.62,4.16,4.16,0,0,1,2.52.9v1.12A3.77,3.77,0,0,0,1407.35,402.71Z"/>
              <path class="section-4-back-cls-5" d="M1415.19,402.69a1.93,1.93,0,0,0-1.29.48,1.48,1.48,0,0,0-.56,1.18,1.74,1.74,0,0,0,.63,1.29,7.64,7.64,0,0,0,1.51,1.08q.88.49,1.78,1a5.43,5.43,0,0,1,1.53,1.43,3.3,3.3,0,0,1,.63,2,3.7,3.7,0,0,1-1.25,2.81,4.25,4.25,0,0,1-3,1.16,4.55,4.55,0,0,1-2.09-.49,3.21,3.21,0,0,1-1.41-1.3V412a3.71,3.71,0,0,0,5.87,1.46,2.66,2.66,0,0,0,1-2,2.81,2.81,0,0,0-.63-1.86,5.85,5.85,0,0,0-1.53-1.29l-1.78-1.05a5.84,5.84,0,0,1-1.51-1.26,2.6,2.6,0,0,1-.63-1.74,2.13,2.13,0,0,1,.8-1.68,3,3,0,0,1,2.06-.69,2.82,2.82,0,0,1,2.16,1V404A2.65,2.65,0,0,0,1415.19,402.69Z"/>
            </g>
          </g>
        </a>
      </g>
      <polygon id="Треугольник-9" data-name="Треугольник" class="section-4-back-cls-1" points="1151.79 270.29 1151.79 540.56 1535.79 405.42 1151.79 270.29"/>
    </g>
    <g id="atlant">
      <g class="section-4-back-cls-18">
        <a href="http://stroim-kottedzh.ru/" target="_blank">
          <image width="390" height="280" transform="translate(1535.97 267.53)" xlink:href="images/section-4-back-pics/atlant.JPG"/>
          <g id="overlay-7"  data-name="overlay" class="overlay">
            <polygon id="overlay-back-7" data-name="overlay-back" class="section-4-back-cls-8" points="1920.94 540.53 1920.94 270.26 1536.94 405.39 1920.94 540.53"/>
            <g>
              <path class="section-4-back-cls-5" d="M1731.65,393.15l10.5,21.5h-1l-4-8H1726l-3.92,8h-.87Zm-.08,1.93-5.24,10.75h10.53Z"/>
              <path class="section-4-back-cls-5" d="M1749.18,414v.78a4.74,4.74,0,0,1-3.39-1.33,4.48,4.48,0,0,1-1.4-3.4V397h.9v5.1h3.86v.78h-3.86v7.22a3.85,3.85,0,0,0,3.89,3.95Z"/>
              <path class="section-4-back-cls-5" d="M1756.21,414.12v.78a4.74,4.74,0,0,1-3.39-1.33,4.48,4.48,0,0,1-1.4-3.4V393.66h.9v16.52a3.85,3.85,0,0,0,3.89,3.95Z"/>
              <path class="section-4-back-cls-5" d="M1769.9,402.06v12.6h-.9v-3.14a5.88,5.88,0,0,1-2.35,2.52,6.51,6.51,0,0,1-3.36.92,6.44,6.44,0,0,1-4.71-1.95,6.53,6.53,0,0,1,0-9.32,6.44,6.44,0,0,1,4.71-1.95,6.73,6.73,0,0,1,3.43,1,5.17,5.17,0,0,1,2.28,2.52v-3.16Zm-12.38,6.33a5.88,5.88,0,0,0,5.81,5.8,5.45,5.45,0,0,0,4-1.72,5.81,5.81,0,0,0,0-8.19,5.46,5.46,0,0,0-4-1.74,5.53,5.53,0,0,0-4.07,1.75A5.66,5.66,0,0,0,1757.52,408.38Z"/>
              <path class="section-4-back-cls-5" d="M1774.15,414.66h-.9v-12.6h.9v2.55a5,5,0,0,1,4.87-2.86,5.32,5.32,0,0,1,3.95,1.62,5.43,5.43,0,0,1,1.6,3.95v7.34h-.9v-7.34a4.72,4.72,0,0,0-1.36-3.36,4.37,4.37,0,0,0-3.29-1.43,4.74,4.74,0,0,0-3.4,1.43,4.54,4.54,0,0,0-1.47,3.36Z"/>
              <path class="section-4-back-cls-5" d="M1792.44,414v.78a4.74,4.74,0,0,1-3.39-1.33,4.48,4.48,0,0,1-1.4-3.4V397h.9v5.1h3.86v.78h-3.86v7.22a3.85,3.85,0,0,0,3.89,3.95Z"/>
              <path class="section-4-back-cls-5" d="M1812.79,406.65v-.81h7.87v7.59a10.24,10.24,0,0,1-5.54,1.54h-.31a10.18,10.18,0,0,1-5.38-1.51,11.11,11.11,0,0,1-3.93-4,10.88,10.88,0,0,1,9.48-16.2,11.12,11.12,0,0,1,5.68,1.57v1A9.91,9.91,0,0,0,1815,394a10.06,10.06,0,0,0-10,10,9.73,9.73,0,0,0,2.94,7.1,9.58,9.58,0,0,0,7.06,3,11,11,0,0,0,4.76-1.18v-6.33Z"/>
              <path class="section-4-back-cls-5" d="M1828.53,402.53a3.62,3.62,0,0,0-2.62,1.12,3.55,3.55,0,0,0-1.13,2.6v8.4h-.9v-12.6h.9v1.88a4,4,0,0,1,1.57-1.57,4.67,4.67,0,0,1,2.38-.62,4.16,4.16,0,0,1,2.52.9v1.12A3.78,3.78,0,0,0,1828.53,402.53Z"/>
              <path class="section-4-back-cls-5" d="M1834.86,413a6.5,6.5,0,0,1-1.93-4.66,6.27,6.27,0,0,1,2-4.61,6.67,6.67,0,0,1,9.42,0,6.31,6.31,0,0,1,1.95,4.62,6.52,6.52,0,0,1-1.9,4.66,6.16,6.16,0,0,1-4.62,2h-.25A6.2,6.2,0,0,1,1834.86,413Zm10.5-4.59a5.68,5.68,0,0,0-1.69-4.1,5.46,5.46,0,0,0-4-1.74,5.53,5.53,0,0,0-4.07,1.75,5.66,5.66,0,0,0-1.72,4.1,5.88,5.88,0,0,0,5.81,5.8,5.45,5.45,0,0,0,4-1.72A5.66,5.66,0,0,0,1845.36,408.37Z"/>
              <path class="section-4-back-cls-5" d="M1859,402.06h.9v12.6h-.9v-2.55a5,5,0,0,1-4.87,2.86,5.32,5.32,0,0,1-3.95-1.62,5.42,5.42,0,0,1-1.6-3.95v-7.34h.9v7.34a4.72,4.72,0,0,0,1.36,3.36,4.37,4.37,0,0,0,3.29,1.43,4.74,4.74,0,0,0,3.4-1.43,4.54,4.54,0,0,0,1.47-3.36Z"/>
              <path class="section-4-back-cls-5" d="M1863,420.26v-18.2h.9v3.08a5.72,5.72,0,0,1,2.37-2.46,6.62,6.62,0,0,1,3.35-.92,6.43,6.43,0,0,1,4.72,1.95,6.56,6.56,0,0,1,0,9.32,6.42,6.42,0,0,1-4.72,1.95,6.53,6.53,0,0,1-3.28-.91,6.21,6.21,0,0,1-2.44-2.45v8.65Zm.84-11.87a5.88,5.88,0,0,0,5.81,5.8,5.45,5.45,0,0,0,4-1.72,5.81,5.81,0,0,0,0-8.19,5.46,5.46,0,0,0-4-1.74,5.53,5.53,0,0,0-4.07,1.75A5.66,5.66,0,0,0,1863.87,408.38Z"/>
            </g>
          </g>
        </a>
      </g>
      <polygon id="Треугольник-10" data-name="Треугольник" class="section-4-back-cls-1" points="1920.94 540.53 1920.94 270.26 1536.94 405.39 1920.94 540.53"/>
    </g>
    <g id="_15_puzzle" data-name="15_puzzle">
      <g class="section-4-back-cls-19">
        <a href="projects/react-puzzle-15/" target="_blank">
          <rect class="section-4-back-cls-5" x="1528" y="395.5" width="400.5" height="282"/>
          <image id="_15_puzzle_back" data-name="15_puzzle_back" width="256" height="256" transform="translate(1587.5 485.5) scale(0.45)" xlink:href="images/section-4-back-pics/15_puzzle.png"/>
          <g id="overlay-8"  data-name="overlay" class="overlay">
            <polygon id="overlay-back-8" data-name="overlay-back" class="section-4-back-cls-8" points="1536.47 404.87 1536.47 675.14 1920.47 540.01 1536.47 404.87"/>
            <g id="Пятнашки">
              <path class="section-4-back-cls-5" d="M1588.75,525.24v21h-.92V526.55l-14.64,19.68h-.87v-21h.92v19.63l14.59-19.63Z"/>
              <path class="section-4-back-cls-5" d="M1598.52,534.45h-4.68v11.79h-.9V533.67h5.57Z"/>
              <path class="section-4-back-cls-5" d="M1601.32,551.84v-18.2h.9v3.08a5.72,5.72,0,0,1,2.37-2.46,6.63,6.63,0,0,1,3.35-.92,6.42,6.42,0,0,1,4.72,1.95,6.61,6.61,0,0,1-4.72,11.27,6.53,6.53,0,0,1-3.28-.91,6.21,6.21,0,0,1-2.44-2.45v8.65Zm.84-11.87a5.88,5.88,0,0,0,5.81,5.8,5.45,5.45,0,0,0,4-1.72,5.81,5.81,0,0,0,0-8.19,5.46,5.46,0,0,0-4-1.74,5.53,5.53,0,0,0-4.07,1.75A5.66,5.66,0,0,0,1602.16,540Z"/>
              <path class="section-4-back-cls-5" d="M1630.11,533.64v12.6h-.9V543.1a5.9,5.9,0,0,1-2.35,2.52,6.51,6.51,0,0,1-3.36.92,6.43,6.43,0,0,1-4.7-1.95,6.52,6.52,0,0,1,0-9.32,6.44,6.44,0,0,1,4.7-1.95,6.73,6.73,0,0,1,3.43,1,5.17,5.17,0,0,1,2.28,2.52v-3.16ZM1617.73,540a5.88,5.88,0,0,0,5.81,5.8,5.45,5.45,0,0,0,4-1.72,5.81,5.81,0,0,0,0-8.19,5.46,5.46,0,0,0-4-1.74,5.53,5.53,0,0,0-4.07,1.75A5.66,5.66,0,0,0,1617.73,540Z"/>
              <path class="section-4-back-cls-5" d="M1644,539.52l6.1-5.4v1.2l-5.15,4.56,5.15,4.59v1.26l-6.1-5.49Zm4.9,0,6.1-5.4v1.2l-5.15,4.56,5.15,4.59v1.26l-6.1-5.49Z"/>
              <path class="section-4-back-cls-5" d="M1657.63,525.24h13.22v21h-.92V526h-11.37v20.19h-.92Z"/>
              <path class="section-4-back-cls-5" d="M1675.07,540.36a4.28,4.28,0,0,1-.87-2.7,3.85,3.85,0,0,1,1.22-2.8,4,4,0,0,1,2.93-1.22H1680v12.6h-.9V541.9h-.92l-3.19,4.34h-1l3.25-4.42A4,4,0,0,1,1675.07,540.36Zm4.06.78v-6.75h-.84a3.1,3.1,0,0,0-2.28,1,3.28,3.28,0,0,0,0,4.7,3.09,3.09,0,0,0,2.28,1Z"/>
              <path class="section-4-back-cls-5" d="M1693.36,533.67v.78h-4.82v11.79h-.9V534.45h-4.82v-.78Z"/>
              <path class="section-4-back-cls-5" d="M1705.59,533.64h.9v12.6h-.9V541.5h-8.54v4.73h-.9v-12.6h.9v7.08h8.54Z"/>
              <path class="section-4-back-cls-5" d="M1723,533.64v12.6h-.9V543.1a5.9,5.9,0,0,1-2.35,2.52,6.51,6.51,0,0,1-3.36.92,6.43,6.43,0,0,1-4.7-1.95,6.52,6.52,0,0,1,0-9.32,6.44,6.44,0,0,1,4.7-1.95,6.73,6.73,0,0,1,3.43,1,5.17,5.17,0,0,1,2.28,2.52v-3.16ZM1710.6,540a5.88,5.88,0,0,0,5.81,5.8,5.45,5.45,0,0,0,4-1.72,5.81,5.81,0,0,0,0-8.19,5.46,5.46,0,0,0-4-1.74,5.53,5.53,0,0,0-4.07,1.75A5.66,5.66,0,0,0,1710.6,540Z"/>
              <path class="section-4-back-cls-5" d="M1740.17,546.24h-13v-12.6h.9v11.82h5.15V533.64h.9v11.82h5.15V533.64h.9Z"/>
              <path class="section-4-back-cls-5" d="M1744.37,533.64h.9V538l5-4.37h1.15l-5.77,5,7.22,7.56h-1.2l-6.38-6.64v6.64h-.9Z"/>
              <path class="section-4-back-cls-5" d="M1766.38,533.67v12.57h-.87V535.07l-9.07,11.17h-.78V533.67h.87v11.17l9-11.17Z"/>
              <path class="section-4-back-cls-5" d="M1769,534.11l6.1,5.4v.73l-6.1,5.49v-1.26l5.15-4.59-5.15-4.56Zm4.9,0,6.1,5.4v.73l-6.1,5.49v-1.26l5.15-4.59-5.15-4.56Z"/>
            </g>
          </g>
        </a>
      </g>
      <polygon id="Треугольник-11" data-name="Треугольник" class="section-4-back-cls-1" points="1536.47 404.87 1536.47 675.14 1920.47 540.01 1536.47 404.87"/>
    </g>
    <g id="passgen">
      <g class="section-4-back-cls-20">
        <a href="projects/react-passgen/" target="_blank">
          <rect class="section-4-back-cls-5" x="1143" y="400.5" width="400.5" height="282"/>
          <image id="passgen_back" width="512" height="512" transform="translate(1374 487) scale(0.22)" xlink:href="images/section-4-back-pics/passgen.png"/>
          <g id="overlay-9"  data-name="overlay" class="overlay">
            <polygon id="overlay-back-9" data-name="overlay-back" class="section-4-back-cls-8" points="1535.72 675.07 1535.72 404.8 1151.72 539.94 1535.72 675.07"/>
            <g id="passgen-2" data-name="passgen">
              <path class="section-4-back-cls-5" d="M1278,525.85h-6.55V546h-.92V525H1278Z"/>
              <path class="section-4-back-cls-5" d="M1282.88,546.37h-.31a6.14,6.14,0,0,1-4.58-2,6.49,6.49,0,0,1-1.92-4.66,6.29,6.29,0,0,1,2-4.62,6.6,6.6,0,0,1,4.84-1.95,6.46,6.46,0,0,1,5,2.3l-8.79,8.68a5.68,5.68,0,0,0,3.5,1.46,5.9,5.9,0,0,0,3-.77,6.62,6.62,0,0,0,2.2-2.06v1.43A6.34,6.34,0,0,1,1282.88,546.37Zm-.24-12.43a5.89,5.89,0,0,0-5.67,5.68,5.73,5.73,0,0,0,1.48,3.92l8.15-8.09A5.86,5.86,0,0,0,1282.64,533.94Z"/>
              <path class="section-4-back-cls-5" d="M1300.21,533.43h.9V546h-.9V541.3h-8.54V546h-.9v-12.6h.9v7.08h8.54Z"/>
              <path class="section-4-back-cls-5" d="M1311.13,546.37h-.31a6.14,6.14,0,0,1-4.58-2,6.49,6.49,0,0,1-1.92-4.66,6.29,6.29,0,0,1,2-4.62,6.6,6.6,0,0,1,4.84-1.95,6.46,6.46,0,0,1,5,2.3l-8.79,8.68a5.68,5.68,0,0,0,3.5,1.46,5.9,5.9,0,0,0,3-.77,6.62,6.62,0,0,0,2.2-2.06v1.43A6.34,6.34,0,0,1,1311.13,546.37Zm-.24-12.43a5.89,5.89,0,0,0-5.67,5.68,5.73,5.73,0,0,0,1.48,3.92l8.15-8.09A5.86,5.86,0,0,0,1310.89,533.94Z"/>
              <path class="section-4-back-cls-5" d="M1319,551.63v-18.2h.9v3.08a5.72,5.72,0,0,1,2.37-2.46,6.63,6.63,0,0,1,3.35-.92,6.65,6.65,0,0,1,6.66,6.61,6.36,6.36,0,0,1-1.95,4.66,6.42,6.42,0,0,1-4.72,1.95,6.54,6.54,0,0,1-3.28-.91,6.21,6.21,0,0,1-2.44-2.45v8.65Zm.84-11.87a5.88,5.88,0,0,0,5.81,5.8,5.45,5.45,0,0,0,4-1.72,5.81,5.81,0,0,0,0-8.19,5.46,5.46,0,0,0-4-1.74,5.53,5.53,0,0,0-4.07,1.75A5.66,5.66,0,0,0,1319.87,539.76Z"/>
              <path class="section-4-back-cls-5" d="M1347.81,533.43V546h-.9V542.9a5.9,5.9,0,0,1-2.35,2.52,6.51,6.51,0,0,1-3.36.92,6.43,6.43,0,0,1-4.7-1.95,6.52,6.52,0,0,1,0-9.32,6.44,6.44,0,0,1,4.7-1.95,6.73,6.73,0,0,1,3.43,1,5.17,5.17,0,0,1,2.28,2.52v-3.16Zm-12.38,6.33a5.88,5.88,0,0,0,5.81,5.8,5.45,5.45,0,0,0,4-1.72,5.81,5.81,0,0,0,0-8.19,5.46,5.46,0,0,0-4-1.74,5.53,5.53,0,0,0-4.07,1.75A5.66,5.66,0,0,0,1335.44,539.76Z"/>
              <path class="section-4-back-cls-5" d="M1361.14,533.46v.78h-4.82V546h-.9V534.25h-4.82v-.78Z"/>
              <path class="section-4-back-cls-5" d="M1363,539.68a6.27,6.27,0,0,1,2-4.61,6.67,6.67,0,0,1,9.42,0,6.31,6.31,0,0,1,1.95,4.62,6.53,6.53,0,0,1-1.9,4.66,6.16,6.16,0,0,1-4.62,2h-.28a6.18,6.18,0,0,1-4.58-2A6.48,6.48,0,0,1,1363,539.68Zm12.43.07a5.68,5.68,0,0,0-1.69-4.1,5.46,5.46,0,0,0-4-1.74,5.53,5.53,0,0,0-4.07,1.75,5.66,5.66,0,0,0-1.72,4.1,5.88,5.88,0,0,0,5.81,5.8,5.45,5.45,0,0,0,4-1.72A5.65,5.65,0,0,0,1375.39,539.75Z"/>
              <path class="section-4-back-cls-5" d="M1379.51,551.63v-18.2h.9v3.08a5.72,5.72,0,0,1,2.37-2.46,6.63,6.63,0,0,1,3.35-.92,6.65,6.65,0,0,1,6.66,6.61,6.36,6.36,0,0,1-1.95,4.66,6.42,6.42,0,0,1-4.72,1.95,6.54,6.54,0,0,1-3.28-.91,6.21,6.21,0,0,1-2.44-2.45v8.65Zm.84-11.87a5.88,5.88,0,0,0,5.81,5.8,5.45,5.45,0,0,0,4-1.72,5.81,5.81,0,0,0,0-8.19,5.46,5.46,0,0,0-4-1.74,5.53,5.53,0,0,0-4.07,1.75A5.66,5.66,0,0,0,1380.35,539.76Z"/>
              <path class="section-4-back-cls-5" d="M1405.8,533.43h10.14V546h-.9V534.22h-8.34V546h-.9Z"/>
              <path class="section-4-back-cls-5" d="M1432.43,533.43V546h-.9V542.9a5.9,5.9,0,0,1-2.35,2.52,6.51,6.51,0,0,1-3.36.92,6.43,6.43,0,0,1-4.7-1.95,6.52,6.52,0,0,1,0-9.32,6.44,6.44,0,0,1,4.7-1.95,6.73,6.73,0,0,1,3.43,1,5.17,5.17,0,0,1,2.28,2.52v-3.16Zm-12.38,6.33a5.88,5.88,0,0,0,5.81,5.8,5.45,5.45,0,0,0,4-1.72,5.81,5.81,0,0,0,0-8.19,5.46,5.46,0,0,0-4-1.74,5.53,5.53,0,0,0-4.07,1.75A5.66,5.66,0,0,0,1420.05,539.76Z"/>
              <path class="section-4-back-cls-5" d="M1436.63,551.63v-18.2h.9v3.08a5.72,5.72,0,0,1,2.37-2.46,6.63,6.63,0,0,1,3.35-.92,6.65,6.65,0,0,1,6.66,6.61,6.36,6.36,0,0,1-1.95,4.66,6.42,6.42,0,0,1-4.72,1.95,6.54,6.54,0,0,1-3.28-.91,6.21,6.21,0,0,1-2.44-2.45v8.65Zm.84-11.87a5.88,5.88,0,0,0,5.81,5.8,5.45,5.45,0,0,0,4-1.72,5.81,5.81,0,0,0,0-8.19,5.46,5.46,0,0,0-4-1.74,5.53,5.53,0,0,0-4.07,1.75A5.66,5.66,0,0,0,1437.47,539.76Z"/>
              <path class="section-4-back-cls-5" d="M1452.14,539.68a6.27,6.27,0,0,1,2-4.61,6.67,6.67,0,0,1,9.42,0,6.31,6.31,0,0,1,1.95,4.62,6.53,6.53,0,0,1-1.9,4.66,6.16,6.16,0,0,1-4.62,2h-.28a6.18,6.18,0,0,1-4.58-2A6.48,6.48,0,0,1,1452.14,539.68Zm12.43.07a5.68,5.68,0,0,0-1.69-4.1,5.46,5.46,0,0,0-4-1.74,5.53,5.53,0,0,0-4.07,1.75,5.66,5.66,0,0,0-1.72,4.1,5.88,5.88,0,0,0,5.81,5.8,5.45,5.45,0,0,0,4-1.72A5.65,5.65,0,0,0,1464.57,539.75Z"/>
              <path class="section-4-back-cls-5" d="M1468.1,546h-.81l6.19-13,6.22,13h-1L1473.39,535Z"/>
              <path class="section-4-back-cls-5" d="M1488.31,546.37H1488a6.14,6.14,0,0,1-4.58-2,6.49,6.49,0,0,1-1.92-4.66,6.29,6.29,0,0,1,2-4.62,6.6,6.6,0,0,1,4.84-1.95,6.46,6.46,0,0,1,5,2.3l-8.79,8.68a5.68,5.68,0,0,0,3.5,1.46,5.9,5.9,0,0,0,3-.77,6.62,6.62,0,0,0,2.2-2.06v1.43A6.34,6.34,0,0,1,1488.31,546.37Zm-.24-12.43a5.89,5.89,0,0,0-5.67,5.68,5.73,5.73,0,0,0,1.48,3.92l8.15-8.09A5.86,5.86,0,0,0,1488.08,533.94Z"/>
              <path class="section-4-back-cls-5" d="M1506.93,533.46V546h-.87V534.86L1497,546h-.78V533.46h.87v11.17l9-11.17Zm-6.89-5.11a2.55,2.55,0,0,0,3.61,0,2.83,2.83,0,0,0,.9-1.76h.81a3.29,3.29,0,0,1-1,2.28,3.25,3.25,0,0,1-2.34,1h-.22a3.22,3.22,0,0,1-2.32-1,3.28,3.28,0,0,1-1-2.3h.78A2.68,2.68,0,0,0,1500,528.35Z"/>
            </g>
          </g>
        </a>
      </g>
      <polygon id="Треугольник-12" data-name="Треугольник" class="section-4-back-cls-1" points="1535.72 675.07 1535.72 404.8 1151.72 539.94 1535.72 675.07"/>
    </g>
    <g id="portfolio">
      <g class="section-4-back-cls-21">
        <g id="ik_back">
          <rect id="preloader-back" class="section-4-back-cls-22" x="660.78" y="676" width="981.68" height="552.19"/>
          <path class="section-4-back-cls-23" d="M906.57,925.39h2v45.77h-2Z"/>
          <path class="section-4-back-cls-23" d="M937.45,972.2l-22.76-46.8h2.2l20.75,42.41,20.63-42.41h2Z"/>
          <path class="section-4-back-cls-23" d="M973.76,924.29l22.89,46.86H994.5l-8.67-17.45H961.37l-8.54,17.45h-1.89Zm-.18,4.21-11.41,23.43h22.95Z"/>
          <path class="section-4-back-cls-23" d="M1036.73,925.39h1.77v46.44l-33.68-41.41v40.77H1003V924.74l33.68,41.37Z"/>
          <path class="section-4-back-cls-23" d="M1069,925.39h2v16.78l19.34-16.78h2.44l-20.93,18.27,26.3,27.52h-2.68L1071,945.71v25.45h-2Z"/>
          <path class="section-4-back-cls-23" d="M1106.21,964.81a23.25,23.25,0,0,1-6.93-16.69,22.59,22.59,0,0,1,7-16.54,23.75,23.75,0,0,1,33.59-.06l0,0a22.62,22.62,0,0,1,7,16.57,23.23,23.23,0,0,1-6.9,16.72A22.15,22.15,0,0,1,1123.5,972h-.92A22.07,22.07,0,0,1,1106.21,964.81Zm38.66-16.55a21.16,21.16,0,0,0-6.38-15.44,21.62,21.62,0,0,0-30.58-.21l-.21.21a21.84,21.84,0,0,0,0,30.89l0,0a21.52,21.52,0,0,0,30.43.33l.33-.33A21.21,21.21,0,0,0,1144.86,948.26Z"/>
          <path class="section-4-back-cls-23" d="M1154.18,925.39h2.62a14.47,14.47,0,0,1,10.4,4.36,13.85,13.85,0,0,1,4.48,10.25,13.6,13.6,0,0,1-4.6,10.23q-4.6,4.34-9.83,4.33h-.43l15.74,16.6H1170l-13.85-14.53v14.53h-2Zm2,27.4h1.11A12,12,0,0,0,1166,949a12.46,12.46,0,0,0,.27-17.62l-.39-.38a12.37,12.37,0,0,0-8.91-3.84h-.79Z"/>
          <path class="section-4-back-cls-23" d="M1184.14,964.81a23.25,23.25,0,0,1-6.93-16.69,22.59,22.59,0,0,1,7-16.54,23.75,23.75,0,0,1,33.59-.06l0,0a22.62,22.62,0,0,1,7,16.57,23.23,23.23,0,0,1-6.9,16.72,22.16,22.16,0,0,1-16.48,7.11h-.92A22.06,22.06,0,0,1,1184.14,964.81Zm38.66-16.55a21.16,21.16,0,0,0-6.38-15.44,21.62,21.62,0,0,0-30.58-.21l-.21.21a21.84,21.84,0,0,0,0,30.89l0,0a21.52,21.52,0,0,0,30.43.33l.33-.33A21.21,21.21,0,0,0,1222.79,948.26Z"/>
          <path class="section-4-back-cls-23" d="M1234.14,925.39v44h14.16v1.77h-16.17V925.39Z"/>
          <path class="section-4-back-cls-23" d="M1254.1,925.39h16.42v1.77h-14.4v24.9h12v1.77h-12v15.56h14.4v1.77H1254.1Z"/>
          <path class="section-4-back-cls-23" d="M1310.3,925.39h1.77v46.44l-33.68-41.41v40.77h-1.77V924.74l33.68,41.37Z"/>
          <path class="section-4-back-cls-23" d="M1321.22,925.39h2v16.78l19.34-16.78H1345L1324,943.66l26.3,27.52h-2.68l-24.41-25.48v25.45h-2Z"/>
          <path class="section-4-back-cls-23" d="M1358.41,964.81a23.25,23.25,0,0,1-6.93-16.69,22.59,22.59,0,0,1,7-16.54,23.75,23.75,0,0,1,33.59-.06l0,0a22.62,22.62,0,0,1,7,16.57,23.23,23.23,0,0,1-6.9,16.72,22.16,22.16,0,0,1-16.48,7.11h-.92A22.07,22.07,0,0,1,1358.41,964.81Zm38.66-16.57a21.16,21.16,0,0,0-6.38-15.44,21.62,21.62,0,0,0-30.58-.21l-.21.21a21.84,21.84,0,0,0,0,30.89l0,0a21.52,21.52,0,0,0,30.43.33l.33-.33a21.21,21.21,0,0,0,6.41-15.45Z"/>
        </g>
        <g id="overlay-10"  data-name="overlay" class="overlay">
          <polygon id="overlay-back-10" data-name="overlay-back" class="section-4-back-cls-8" points="1152.32 810.95 768.32 946.08 1152.32 1081.22 1536.32 946.08 1152.32 810.95"/>
          <g>
            <path class="section-4-back-cls-5" d="M992.59,932.85a13.54,13.54,0,0,1,9.9,4.12,13.31,13.31,0,0,1,4.14,9.76,13.69,13.69,0,0,1-4.09,9.85,13,13,0,0,1-9.67,4.21h-.54a13.22,13.22,0,0,1-7.06-2v-1.33a13,13,0,0,0,7.49,2.3,11.94,11.94,0,0,0,7.61-2.81A13.31,13.31,0,0,0,1005,950H991.8v-1h13.46a14,14,0,0,0,.18-2.16,12.48,12.48,0,0,0-3.78-9.13,12.35,12.35,0,0,0-9.07-3.8,12.74,12.74,0,0,0-7.31,2.3v-1.3A14,14,0,0,1,992.59,932.85Z"/>
            <path class="section-4-back-cls-5" d="M1022.87,944.15v1h-6.19v15.16h-1.15V945.16h-6.19v-1Z"/>
            <path class="section-4-back-cls-5" d="M1025.21,952.14a8.07,8.07,0,0,1,2.52-5.92,8.58,8.58,0,0,1,12.11,0,8.12,8.12,0,0,1,2.5,5.94,8.38,8.38,0,0,1-2.45,6,7.92,7.92,0,0,1-5.94,2.56h-.36a8,8,0,0,1-5.89-2.57A8.33,8.33,0,0,1,1025.21,952.14Zm16,.09A7.3,7.3,0,0,0,1039,947a7,7,0,0,0-5.2-2.23,7.11,7.11,0,0,0-5.24,2.25,7.28,7.28,0,0,0-2.21,5.27,7.56,7.56,0,0,0,7.47,7.45,7,7,0,0,0,5.2-2.21A7.27,7.27,0,0,0,1041.19,952.23Z"/>
            <path class="section-4-back-cls-5" d="M1058.22,944.15v1H1052v15.16h-1.15V945.16h-6.19v-1Z"/>
            <path class="section-4-back-cls-5" d="M1081.91,960.78h-.32a8,8,0,0,1-5.94-2.56,8.33,8.33,0,0,1-2.48-6,8.09,8.09,0,0,1,2.52-5.94,8.45,8.45,0,0,1,6.19-2.5,8.26,8.26,0,0,1,6.26,2.77v1.84a8.35,8.35,0,0,0-2.83-2.63,7.49,7.49,0,1,0,0,13,8.22,8.22,0,0,0,2.83-2.66V958A8.08,8.08,0,0,1,1081.91,960.78Z"/>
            <path class="section-4-back-cls-5" d="M1107.72,944.11v16.2h-1.15v-4a7.57,7.57,0,0,1-3,3.24,8.37,8.37,0,0,1-4.32,1.19,8.28,8.28,0,0,1-6-2.5,8.39,8.39,0,0,1,0-12,8.28,8.28,0,0,1,6-2.5,8.66,8.66,0,0,1,4.41,1.22,6.64,6.64,0,0,1,2.93,3.24v-4.07Zm-15.91,8.14a7.56,7.56,0,0,0,7.47,7.45,7,7,0,0,0,5.2-2.21,7.47,7.47,0,0,0,0-10.53,7,7,0,0,0-5.2-2.23A7.11,7.11,0,0,0,1094,947,7.28,7.28,0,0,0,1091.81,952.25Z"/>
            <path class="section-4-back-cls-5" d="M1126.91,944.15v16.16h-1.12V946l-11.66,14.36h-1V944.15h1.12v14.36l11.63-14.36Zm-8.86-6.57a3.28,3.28,0,0,0,2.32,1,3.25,3.25,0,0,0,2.32-1,3.64,3.64,0,0,0,1.15-2.27h1a4.23,4.23,0,0,1-1.35,2.93,4.17,4.17,0,0,1-3,1.24h-.29a4.14,4.14,0,0,1-3-1.22,4.23,4.23,0,0,1-1.33-3h1A3.44,3.44,0,0,0,1118,937.58Z"/>
            <path class="section-4-back-cls-5" d="M1144,944.15v1h-6.19v15.16h-1.15V945.16h-6.19v-1Z"/>
            <path class="section-4-back-cls-5" d="M1157.58,946.38h-11.2v-1.12h11.2Z"/>
            <path class="section-4-back-cls-5" d="M1161.72,944.11h13v16.2h-1.15V945.12h-10.73v15.19h-1.15Z"/>
            <path class="section-4-back-cls-5" d="M1178.89,952.14a8.07,8.07,0,0,1,2.52-5.92,8.58,8.58,0,0,1,12.11,0,8.12,8.12,0,0,1,2.5,5.94,8.38,8.38,0,0,1-2.45,6,7.92,7.92,0,0,1-5.94,2.56h-.36a8,8,0,0,1-5.89-2.57A8.33,8.33,0,0,1,1178.89,952.14Zm16,.09a7.3,7.3,0,0,0-2.18-5.27,7,7,0,0,0-5.2-2.23,7.11,7.11,0,0,0-5.24,2.25,7.28,7.28,0,0,0-2.21,5.27,7.56,7.56,0,0,0,7.47,7.45,7,7,0,0,0,5.2-2.21A7.27,7.27,0,0,0,1194.87,952.23Z"/>
            <path class="section-4-back-cls-5" d="M1200.17,967.51v-23.4h1.15v4a7.35,7.35,0,0,1,3-3.17,8.52,8.52,0,0,1,4.3-1.19,8.5,8.5,0,1,1,0,17,8.41,8.41,0,0,1-4.21-1.17,8,8,0,0,1-3.13-3.15v11.12Zm1.08-15.26a7.56,7.56,0,0,0,7.47,7.45,7,7,0,0,0,5.2-2.21,7.47,7.47,0,0,0,0-10.53,7,7,0,0,0-5.2-2.23,7.11,7.11,0,0,0-5.24,2.25A7.28,7.28,0,0,0,1201.25,952.25Z"/>
            <path class="section-4-back-cls-5" d="M1233.1,944.15v1h-6.19v15.16h-1.15V945.16h-6.19v-1Z"/>
            <path class="section-4-back-cls-5" d="M1244.41,937.67h1.15v6h.18a8.16,8.16,0,0,1,6,2.47,8.06,8.06,0,0,1,2.47,5.9,8.23,8.23,0,0,1-2.43,5.94,8,8,0,0,1-6,2.5h-.25v6.91h-1.15v-6.91h-.29A8.41,8.41,0,0,1,1238,958a8,8,0,0,1-2.56-5.92,7.91,7.91,0,0,1,2.57-5.89,8.49,8.49,0,0,1,6.1-2.48h.29Zm0,7.06h-.29a7.4,7.4,0,0,0-5.31,2.21,7,7,0,0,0,0,10.39,7.43,7.43,0,0,0,5.31,2.2h.29Zm1.15,0v14.8h.22a7,7,0,0,0,5.17-2.18,7.39,7.39,0,0,0,0-10.42,7,7,0,0,0-5.18-2.2Z"/>
            <path class="section-4-back-cls-5" d="M1257.08,952.14a8.07,8.07,0,0,1,2.52-5.92,8.58,8.58,0,0,1,12.11,0,8.12,8.12,0,0,1,2.5,5.94,8.38,8.38,0,0,1-2.45,6,7.92,7.92,0,0,1-5.94,2.56h-.36a8,8,0,0,1-5.89-2.57A8.33,8.33,0,0,1,1257.08,952.14Zm16,.09a7.3,7.3,0,0,0-2.18-5.27,7,7,0,0,0-5.2-2.23,7.11,7.11,0,0,0-5.24,2.25,7.28,7.28,0,0,0-2.21,5.27,7.56,7.56,0,0,0,7.47,7.45,7,7,0,0,0,5.2-2.21A7.27,7.27,0,0,0,1273.06,952.23Z"/>
            <path class="section-4-back-cls-5" d="M1277.6,960.31h-1l8-16.67,8,16.67h-1.26l-6.84-14.22Z"/>
            <path class="section-4-back-cls-5" d="M1309.89,944.15v16.16h-1.12V946l-11.66,14.36h-1V944.15h1.12v14.36l11.63-14.36Z"/>
            <path class="section-4-back-cls-5" d="M1314,952.14a8.07,8.07,0,0,1,2.52-5.92,8.58,8.58,0,0,1,12.11,0,8.12,8.12,0,0,1,2.5,5.94,8.38,8.38,0,0,1-2.45,6,7.92,7.92,0,0,1-5.94,2.56h-.36a8,8,0,0,1-5.89-2.57A8.33,8.33,0,0,1,1314,952.14Zm16,.09a7.3,7.3,0,0,0-2.18-5.27,7,7,0,0,0-5.2-2.23,7.11,7.11,0,0,0-5.24,2.25,7.28,7.28,0,0,0-2.21,5.27,7.56,7.56,0,0,0,7.47,7.45,7,7,0,0,0,5.2-2.21A7.27,7.27,0,0,0,1330,952.23Z"/>
          </g>
        </g>
      </g>
      <polygon id="Ромб-8" data-name="Ромб" class="section-4-back-cls-1" points="1152.32 810.95 768.32 946.08 1152.32 1081.22 1536.32 946.08 1152.32 810.95"/>
    </g>
  </g>
  <polygon id="Треугольник-13" data-name="Треугольник" class="section-4-back-cls-24" points="384 270.27 384 0 0 135.13 384 270.27"/>
  <polygon id="Треугольник-14" data-name="Треугольник" class="section-4-back-cls-24" points="384 0 384 270.27 768 135.13 384 0"/>
  <polygon id="Треугольник-15" data-name="Треугольник" class="section-4-back-cls-24" points="1152 270.27 1152 0 768 135.13 1152 270.27"/>
  <polygon id="Треугольник-16" data-name="Треугольник" class="section-4-back-cls-24" points="1152 0 1152 270.27 1536 135.13 1152 0"/>
  <polygon id="Треугольник-17" data-name="Треугольник" class="section-4-back-cls-24" points="1920 270.27 1920 0 1536 135.13 1920 270.27"/>
  <polygon id="Треугольник-18" data-name="Треугольник" class="section-4-back-cls-24" points="1152 540.54 1152 270.27 768 405.4 1152 540.54"/>
  <polygon id="Треугольник-19" data-name="Треугольник" class="section-4-back-cls-24" points="1152 270.27 1152 540.54 1536 405.4 1152 270.27"/>
  <polygon id="Треугольник-20" data-name="Треугольник" class="section-4-back-cls-24" points="1920 540.54 1920 270.27 1536 405.4 1920 540.54"/>
  <polygon id="Треугольник-21" data-name="Треугольник" class="section-4-back-cls-24" points="1152 810.81 1152 540.54 768 675.67 1152 810.81"/>
  <polygon id="Треугольник-22" data-name="Треугольник" class="section-4-back-cls-24" points="1152 540.54 1152 810.81 1536 675.67 1152 540.54"/>
  <polygon id="Треугольник-23" data-name="Треугольник" class="section-4-back-cls-24" points="1920 810.81 1920 540.54 1536 675.67 1920 810.81"/>
  <polygon id="Треугольник-24" data-name="Треугольник" class="section-4-back-cls-24" points="384 1081.08 384 810.81 0 945.95 384 1081.08"/>
  <polygon id="Треугольник-25" data-name="Треугольник" class="section-4-back-cls-24" points="384 810.81 384 1081.08 768 945.95 384 810.81"/>
  <polygon id="Треугольник-26" data-name="Треугольник" class="section-4-back-cls-24" points="1920 1081.08 1920 810.81 1536 945.95 1920 1081.08"/>
  <polygon id="Треугольник-27" data-name="Треугольник" class="section-4-back-cls-24" points="768 675.67 768 405.4 384 540.54 768 675.67"/>
  <polygon id="Треугольник-28" data-name="Треугольник" class="section-4-back-cls-24" points="768 405.4 768 675.67 1152 540.54 768 405.4"/>
  <polygon id="Треугольник-29" data-name="Треугольник" class="section-4-back-cls-24" points="1536 675.67 1536 945.95 1920 810.81 1536 675.67"/>
  <polygon id="Треугольник-30" data-name="Треугольник" class="section-4-back-cls-24" points="0 135.13 0 405.4 384 270.27 0 135.13"/>
  <polygon id="Треугольник-31" data-name="Треугольник" class="section-4-back-cls-25" points="1536 945.95 1536 675.67 1152 810.81 1536 945.95"/>
  <polygon id="Треугольник-32" data-name="Треугольник" class="section-4-back-cls-24" points="0 675.67 0 945.95 384 810.81 0 675.67"/>
  <polygon id="Треугольник-33" data-name="Треугольник" class="section-4-back-cls-24" points="1920 270.27 1920 0 1536 135.13 1920 270.27"/>
  <polygon id="Треугольник-34" data-name="Треугольник" class="section-4-back-cls-24" points="1920 1081.08 1920 810.81 1536 945.95 1920 1081.08"/>
  <g>
    <polygon id="Часть_треугольника" data-name="Часть треугольника" class="section-4-back-cls-24" points="384 0 768 135.13 768 0 384 0"/>
    <polygon id="Часть_треугольника-2" data-name="Часть треугольника" class="section-4-back-cls-24" points="768 0 768 135.13 1152 0 768 0"/>
  </g>
  <g>
    <polygon id="Часть_треугольника-3" data-name="Часть треугольника" class="section-4-back-cls-24" points="1152 0 1536 135.13 1536 0 1152 0"/>
    <polygon id="Часть_треугольника-4" data-name="Часть треугольника" class="section-4-back-cls-24" points="1536 0 1536 135.13 1920 0 1536 0"/>
  </g>
  <polygon id="Часть_треугольника-5" data-name="Часть треугольника" class="section-4-back-cls-24" points="0 0 0 135.13 384 0 0 0"/>
  <polygon id="Часть_треугольника-6" data-name="Часть треугольника" class="section-4-back-cls-24" points="0 1081.08 0 945.95 384 1081.08 0 1081.08"/>
  <polygon id="Треугольник-35" data-name="Треугольник" class="section-4-back-cls-24" points="767.98 675.62 767.98 945.89 1152.07 810.85 767.98 675.62"/>
  <polygon id="Треугольник-36" data-name="Треугольник" class="section-4-back-cls-24" points="768.08 135.29 768.08 405.56 1152.17 270.52 768.08 135.29"/>
  <polygon id="Треугольник-37" data-name="Треугольник" class="section-4-back-cls-24" points="-0.24 405.2 -0.24 675.47 383.86 540.43 -0.24 405.2"/>
  <g id="header">
    <polygon id="Треугольник_заголовка" data-name="Треугольник заголовка" class="section-4-back-cls-8" points="768 0 384 0 768 135.13 1152 0 768 0"/>
    <g>
      <path class="section-4-back-cls-5" d="M588.06,23.33V9.12H590v13.8a11.42,11.42,0,0,0,3.22,8.15,10.73,10.73,0,0,0,15.66,0,11.42,11.42,0,0,0,3.22-8.15V9.12H614v43.5h-1.91V29.07a12.64,12.64,0,0,1-4.35,5.07,11,11,0,0,1-6.38,2h-.58a12.07,12.07,0,0,1-8.93-3.86A12.43,12.43,0,0,1,588.06,23.33Z"/>
      <path class="section-4-back-cls-5" d="M641.59,26.58V28.2h-10V52.62h-1.86V28.2h-10V26.58Z"/>
      <path class="section-4-back-cls-5" d="M645.36,39.45a13,13,0,0,1,4.06-9.54,13.83,13.83,0,0,1,19.52,0,13.08,13.08,0,0,1,4,9.57A13.51,13.51,0,0,1,669,49.14a12.76,12.76,0,0,1-9.57,4.12h-.58a12.8,12.8,0,0,1-9.48-4.15A13.42,13.42,0,0,1,645.36,39.45Zm25.75.15a11.76,11.76,0,0,0-3.51-8.5,11.3,11.3,0,0,0-8.38-3.6,11.45,11.45,0,0,0-8.44,3.63,11.73,11.73,0,0,0-3.57,8.5,12.18,12.18,0,0,0,12,12,11.28,11.28,0,0,0,8.38-3.57A11.71,11.71,0,0,0,671.11,39.6Z"/>
      <path class="section-4-back-cls-5" d="M700,40.44a8.86,8.86,0,0,1-1.8-5.6,8,8,0,0,1,2.52-5.8,8.27,8.27,0,0,1,6.06-2.52h3.48v26.1h-1.86v-9h-1.91l-6.61,9h-2l6.73-9.16A8.16,8.16,0,0,1,700,40.44Zm8.41,1.62v-14h-1.74a6.42,6.42,0,0,0-4.73,2.12,6.79,6.79,0,0,0,0,9.74,6.41,6.41,0,0,0,4.73,2.12Z"/>
      <path class="section-4-back-cls-5" d="M751.33,53.37h-.52a12.88,12.88,0,0,1-9.57-4.12,13.41,13.41,0,0,1-4-9.66A13,13,0,0,1,741.29,30a13.61,13.61,0,0,1,10-4,13.32,13.32,0,0,1,10.09,4.47v3a13.45,13.45,0,0,0-4.55-4.23,11.55,11.55,0,0,0-14.15,2,11.9,11.9,0,0,0,0,17,11.55,11.55,0,0,0,14.15,2,13.24,13.24,0,0,0,4.55-4.29v3A13,13,0,0,1,751.33,53.37Z"/>
      <path class="section-4-back-cls-5" d="M764.55,55.92V51.11h2L778.7,25.76l12.12,25.29h1.91v4.87h-1.62V52.62H766.06v3.31Zm14-26.22L768.32,51.05h20.47Z"/>
      <path class="section-4-back-cls-5" d="M810.6,53.31H810a12.72,12.72,0,0,1-9.48-4.12,13.46,13.46,0,0,1-4-9.66A13,13,0,0,1,800.57,30a13.68,13.68,0,0,1,10-4,13.37,13.37,0,0,1,10.27,4.76l-18.21,18q3.77,3,7.25,3a12.21,12.21,0,0,0,6.24-1.59,13.71,13.71,0,0,0,4.55-4.26v3A13.12,13.12,0,0,1,810.6,53.31Zm-.49-25.75a11.25,11.25,0,0,0-8.18,3.57,11.28,11.28,0,0,0-3.57,8.21,11.88,11.88,0,0,0,3.07,8.12l16.88-16.76A12.14,12.14,0,0,0,810.11,27.56Z"/>
      <path class="section-4-back-cls-5" d="M825.74,52.62h-1.68l12.82-26.85,12.88,26.85h-2l-11-22.91Z"/>
      <path class="section-4-back-cls-5" d="M881,26.52v26.1h-1.86v-6.5a12.2,12.2,0,0,1-4.87,5.22,13.49,13.49,0,0,1-7,1.91,13.33,13.33,0,0,1-9.74-4,13.52,13.52,0,0,1,0-19.31,13.34,13.34,0,0,1,9.74-4,13.94,13.94,0,0,1,7.1,2,10.7,10.7,0,0,1,4.73,5.22V26.52ZM855.38,39.63a12.18,12.18,0,0,0,12,12,11.28,11.28,0,0,0,8.38-3.57,12,12,0,0,0,0-17,11.31,11.31,0,0,0-8.38-3.6,11.45,11.45,0,0,0-8.44,3.63A11.73,11.73,0,0,0,855.38,39.63Z"/>
      <path class="section-4-back-cls-5" d="M888.49,52.62h-1.68l12.82-26.85L912.5,52.62h-2l-11-22.91Z"/>
      <path class="section-4-back-cls-5" d="M916.57,23A15.45,15.45,0,0,1,921,12.48,14.24,14.24,0,0,1,931.5,8.42a14.6,14.6,0,0,1,10.73,4.23,13.44,13.44,0,0,1,4.26,9.83,16.82,16.82,0,0,1-4.12,10.7,14.69,14.69,0,0,1-9.74,4.29V47h-1.86V35.8h.81A12.39,12.39,0,0,0,941,32a12.9,12.9,0,0,0,3.63-9.19,12,12,0,0,0-3.8-9,13.07,13.07,0,0,0-9.42-3.65,12.36,12.36,0,0,0-9.13,3.51A13.45,13.45,0,0,0,918.54,23Zm15.28,30q-2,0-2-1.8t2-1.8q2,0,2,1.8T931.85,53Z"/>
    </g>
  </g>
</svg>
